%TF.GenerationSoftware,KiCad,Pcbnew,9.0.4*%
%TF.CreationDate,2025-10-07T17:56:39+11:00*%
%TF.ProjectId,6502_RevC,36353032-5f52-4657-9643-2e6b69636164,rev?*%
%TF.SameCoordinates,Original*%
%TF.FileFunction,Drillmap*%
%TF.FilePolarity,Positive*%
%FSLAX45Y45*%
G04 Gerber Fmt 4.5, Leading zero omitted, Abs format (unit mm)*
G04 Created by KiCad (PCBNEW 9.0.4) date 2025-10-07 17:56:39*
%MOMM*%
%LPD*%
G01*
G04 APERTURE LIST*
%ADD10C,0.100000*%
%ADD11C,0.200000*%
G04 APERTURE END LIST*
D10*
X25050000Y-15000000D02*
X35000000Y-15000000D01*
X25050000Y-5050000D02*
X25050000Y-15000000D01*
X35000000Y-5050000D02*
X35000000Y-15000000D01*
X25050000Y-5050000D02*
X35000000Y-5050000D01*
D11*
X25305777Y-15316484D02*
X25305777Y-15116484D01*
X25305777Y-15116484D02*
X25353396Y-15116484D01*
X25353396Y-15116484D02*
X25381967Y-15126008D01*
X25381967Y-15126008D02*
X25401015Y-15145055D01*
X25401015Y-15145055D02*
X25410539Y-15164103D01*
X25410539Y-15164103D02*
X25420062Y-15202198D01*
X25420062Y-15202198D02*
X25420062Y-15230769D01*
X25420062Y-15230769D02*
X25410539Y-15268865D01*
X25410539Y-15268865D02*
X25401015Y-15287912D01*
X25401015Y-15287912D02*
X25381967Y-15306960D01*
X25381967Y-15306960D02*
X25353396Y-15316484D01*
X25353396Y-15316484D02*
X25305777Y-15316484D01*
X25505777Y-15316484D02*
X25505777Y-15183150D01*
X25505777Y-15221246D02*
X25515301Y-15202198D01*
X25515301Y-15202198D02*
X25524824Y-15192674D01*
X25524824Y-15192674D02*
X25543872Y-15183150D01*
X25543872Y-15183150D02*
X25562920Y-15183150D01*
X25629586Y-15316484D02*
X25629586Y-15183150D01*
X25629586Y-15116484D02*
X25620062Y-15126008D01*
X25620062Y-15126008D02*
X25629586Y-15135531D01*
X25629586Y-15135531D02*
X25639110Y-15126008D01*
X25639110Y-15126008D02*
X25629586Y-15116484D01*
X25629586Y-15116484D02*
X25629586Y-15135531D01*
X25753396Y-15316484D02*
X25734348Y-15306960D01*
X25734348Y-15306960D02*
X25724824Y-15287912D01*
X25724824Y-15287912D02*
X25724824Y-15116484D01*
X25858158Y-15316484D02*
X25839110Y-15306960D01*
X25839110Y-15306960D02*
X25829586Y-15287912D01*
X25829586Y-15287912D02*
X25829586Y-15116484D01*
X26086729Y-15316484D02*
X26086729Y-15116484D01*
X26086729Y-15116484D02*
X26153396Y-15259341D01*
X26153396Y-15259341D02*
X26220062Y-15116484D01*
X26220062Y-15116484D02*
X26220062Y-15316484D01*
X26401015Y-15316484D02*
X26401015Y-15211722D01*
X26401015Y-15211722D02*
X26391491Y-15192674D01*
X26391491Y-15192674D02*
X26372443Y-15183150D01*
X26372443Y-15183150D02*
X26334348Y-15183150D01*
X26334348Y-15183150D02*
X26315301Y-15192674D01*
X26401015Y-15306960D02*
X26381967Y-15316484D01*
X26381967Y-15316484D02*
X26334348Y-15316484D01*
X26334348Y-15316484D02*
X26315301Y-15306960D01*
X26315301Y-15306960D02*
X26305777Y-15287912D01*
X26305777Y-15287912D02*
X26305777Y-15268865D01*
X26305777Y-15268865D02*
X26315301Y-15249817D01*
X26315301Y-15249817D02*
X26334348Y-15240293D01*
X26334348Y-15240293D02*
X26381967Y-15240293D01*
X26381967Y-15240293D02*
X26401015Y-15230769D01*
X26496253Y-15183150D02*
X26496253Y-15383150D01*
X26496253Y-15192674D02*
X26515301Y-15183150D01*
X26515301Y-15183150D02*
X26553396Y-15183150D01*
X26553396Y-15183150D02*
X26572443Y-15192674D01*
X26572443Y-15192674D02*
X26581967Y-15202198D01*
X26581967Y-15202198D02*
X26591491Y-15221246D01*
X26591491Y-15221246D02*
X26591491Y-15278388D01*
X26591491Y-15278388D02*
X26581967Y-15297436D01*
X26581967Y-15297436D02*
X26572443Y-15306960D01*
X26572443Y-15306960D02*
X26553396Y-15316484D01*
X26553396Y-15316484D02*
X26515301Y-15316484D01*
X26515301Y-15316484D02*
X26496253Y-15306960D01*
X26677205Y-15297436D02*
X26686729Y-15306960D01*
X26686729Y-15306960D02*
X26677205Y-15316484D01*
X26677205Y-15316484D02*
X26667682Y-15306960D01*
X26667682Y-15306960D02*
X26677205Y-15297436D01*
X26677205Y-15297436D02*
X26677205Y-15316484D01*
X26677205Y-15192674D02*
X26686729Y-15202198D01*
X26686729Y-15202198D02*
X26677205Y-15211722D01*
X26677205Y-15211722D02*
X26667682Y-15202198D01*
X26667682Y-15202198D02*
X26677205Y-15192674D01*
X26677205Y-15192674D02*
X26677205Y-15211722D01*
M02*
