M48
; DRILL file {KiCad 9.0.4} date 2025-10-07T17:56:39+1100
; FORMAT={-:-/ absolute / metric / decimal}
; #@! TF.CreationDate,2025-10-07T17:56:39+11:00
; #@! TF.GenerationSoftware,Kicad,Pcbnew,9.0.4
; #@! TF.FileFunction,Plated,1,2,PTH
FMAT,2
METRIC
; #@! TA.AperFunction,Plated,PTH,ViaDrill
T1C0.300
; #@! TA.AperFunction,Plated,PTH,ComponentDrill
T2C0.300
; #@! TA.AperFunction,Plated,PTH,ComponentDrill
T3C0.650
; #@! TA.AperFunction,Plated,PTH,ComponentDrill
T4C0.700
; #@! TA.AperFunction,Plated,PTH,ComponentDrill
T5C0.800
; #@! TA.AperFunction,Plated,PTH,ComponentDrill
T6C1.000
; #@! TA.AperFunction,Plated,PTH,ComponentDrill
T7C1.190
; #@! TA.AperFunction,Plated,PTH,ComponentDrill
T8C1.420
; #@! TA.AperFunction,Plated,PTH,ComponentDrill
T9C3.180
%
G90
G05
T1
X255.9Y-148.6
X257.65Y-100.45
X257.75Y-130.2
X257.8Y-127.6
X257.8Y-132.6
X257.8Y-135.4
X257.81Y-142.31
X258.9Y-126.3
X260.537Y-100.387
X261.9Y-75.7
X262.2Y-73.6
X262.8Y-100.387
X263.2Y-72.5
X263.775Y-75.525
X264.6Y-63.35
X264.75Y-138.3
X264.85Y-101.1
X265.6Y-119.05
X266.8Y-127.9
X266.98Y-76.3
X267.2Y-119.05
X267.61Y-78.21
X268.2Y-72.82
X268.2Y-127.4
X268.75Y-119.05
X269.3Y-131.725
X269.35Y-108.1
X269.9Y-78.445
X270.3Y-87.3
X270.4Y-92.4
X270.7Y-109.0
X271.825Y-71.425
X271.9Y-132.2
X272.943Y-133.057
X272.95Y-87.3
X273.05Y-92.4
X274.3Y-133.1
X274.35Y-71.4
X275.5Y-139.8
X275.6Y-87.3
X275.65Y-133.15
X275.7Y-92.4
X276.7Y-133.0
X277.1Y-138.5
X277.4Y-140.4
X278.1Y-133.1
X278.7Y-137.1
X279.1Y-138.9
X279.3Y-132.9
X280.2Y-135.6
X280.402Y-57.713
X280.6Y-137.4
X281.3Y-129.5
X282.2Y-128.1
X283.15Y-123.75
X283.55Y-91.75
X284.15Y-69.458
X284.8Y-124.5
X285.3Y-91.8
X285.55Y-130.95
X285.6Y-93.55
X286.3Y-67.6
X286.4Y-126.7
X287.2Y-125.5
X287.3Y-95.1
X287.404Y-93.354
X287.65Y-66.4
X288.05Y-84.95
X288.1Y-68.8
X288.6Y-70.6
X288.925Y-65.175
X289.2Y-96.55
X289.4Y-94.867
X289.6Y-88.45
X289.85Y-124.35
X290.0Y-115.65
X290.0Y-125.6
X290.58Y-76.55
X290.85Y-121.326
X290.9Y-96.476
X290.975Y-144.25
X291.25Y-122.85
X291.8Y-124.3
X292.302Y-131.213
X292.5Y-135.5
X292.508Y-113.008
X293.25Y-105.65
X293.3Y-116.15
X293.35Y-119.95
X293.55Y-134.5
X293.83Y-103.637
X294.2Y-112.7
X294.4Y-145.0
X294.7Y-135.0
X294.844Y-83.756
X295.0Y-144.1
X295.425Y-143.175
X295.502Y-123.613
X295.75Y-140.4
X295.8Y-120.6
X295.827Y-138.47
X296.2Y-142.35
X296.45Y-135.45
X296.75Y-114.175
X296.792Y-124.023
X296.9Y-139.4
X297.0Y-141.45
X297.1Y-108.2
X297.25Y-126.981
X297.439Y-106.6
X297.641Y-123.723
X297.911Y-134.104
X298.002Y-64.113
X298.002Y-87.685
X298.089Y-112.013
X298.2Y-132.713
X298.291Y-125.297
X298.3Y-114.3
X298.739Y-105.0
X298.9Y-58.65
X298.942Y-124.473
X299.0Y-116.3
X299.081Y-131.915
X299.113Y-110.987
X299.6Y-109.9
X300.552Y-88.0
X300.689Y-107.413
X300.752Y-116.921
X300.8Y-115.8
X300.802Y-136.813
X301.339Y-110.15
X301.702Y-113.913
X301.987Y-135.613
X302.102Y-106.213
X302.127Y-127.163
X302.127Y-129.463
X302.145Y-130.388
X302.352Y-114.613
X302.4Y-128.3
X302.5Y-107.7
X302.536Y-109.363
X302.977Y-125.813
X303.002Y-116.9
X303.102Y-88.4
X303.22Y-133.338
X303.9Y-116.56
X304.2Y-105.8
X304.202Y-104.313
X304.237Y-125.813
X304.654Y-117.846
X305.102Y-107.213
X305.587Y-137.9
X305.652Y-108.204
X305.67Y-133.71
X305.802Y-110.413
X305.802Y-111.863
X305.952Y-113.963
X306.245Y-126.088
X306.577Y-133.688
X306.752Y-139.257
X306.8Y-116.513
X307.152Y-114.063
X307.202Y-105.113
X307.443Y-138.377
X307.545Y-65.686
X307.585Y-117.18
X308.235Y-123.137
X308.344Y-116.697
X308.352Y-114.163
X308.777Y-127.413
X309.018Y-116.099
X309.102Y-105.113
X309.29Y-109.02
X309.602Y-115.413
X310.027Y-127.563
X310.027Y-130.563
X310.546Y-137.038
X310.577Y-134.66
X310.602Y-104.713
X311.04Y-115.02
X311.16Y-112.98
X311.302Y-137.613
X311.941Y-65.282
X312.202Y-135.113
X312.302Y-124.013
X312.302Y-133.013
X312.602Y-96.213
X313.06Y-115.28
X313.344Y-99.013
X314.002Y-96.213
X314.5Y-117.6
X314.644Y-99.013
X315.402Y-96.213
X315.52Y-108.27
X315.712Y-112.364
X315.944Y-99.013
X316.302Y-124.213
X316.902Y-96.213
X317.069Y-125.213
X317.074Y-64.086
X317.244Y-99.013
X317.774Y-124.213
X317.902Y-141.013
X318.502Y-125.213
X318.8Y-109.1
X319.185Y-124.213
X319.8Y-108.363
X319.902Y-125.213
X320.502Y-138.313
X320.602Y-124.213
X321.177Y-137.638
X321.302Y-125.213
X322.302Y-134.113
X322.402Y-138.713
X322.7Y-124.95
X323.095Y-142.986
X323.502Y-135.313
X323.55Y-130.05
X324.0Y-133.6
X324.502Y-135.313
X324.502Y-136.713
X325.502Y-126.413
X326.145Y-72.286
X326.232Y-143.268
X326.6Y-116.1
X327.4Y-107.7
X328.1Y-116.086
X329.745Y-76.486
X329.9Y-116.086
X330.002Y-130.463
X330.7Y-133.6
X332.5Y-135.5
X333.202Y-64.113
X334.502Y-124.513
X334.845Y-76.486
X334.9Y-118.8
X334.902Y-122.713
X335.202Y-126.113
X335.3Y-121.0
X335.902Y-127.713
X337.6Y-115.186
X339.945Y-76.486
X340.802Y-136.513
X341.36Y-94.147
X342.49Y-76.68
X343.202Y-125.913
T2
X305.037Y-128.763
X305.037Y-129.763
X305.037Y-130.763
X306.037Y-128.763
X306.037Y-129.763
X306.037Y-130.763
X307.037Y-128.763
X307.037Y-129.763
X307.037Y-130.763
T5
X344.105Y-94.147
X346.605Y-94.147
T6
X253.46Y-66.96
X253.46Y-69.5
X253.46Y-72.04
X253.46Y-74.58
X253.46Y-77.12
X253.46Y-79.66
X253.46Y-82.2
X253.46Y-84.74
X253.46Y-87.28
X253.46Y-89.82
X253.46Y-92.36
X253.46Y-94.9
X253.46Y-97.44
X253.46Y-99.98
X253.46Y-102.52
X253.46Y-105.06
X253.46Y-107.6
X253.46Y-110.14
X253.46Y-112.68
X253.46Y-115.22
X253.46Y-117.76
X253.46Y-120.3
X253.46Y-122.84
X253.46Y-125.38
X253.46Y-127.92
X253.46Y-130.46
X253.46Y-133.0
X253.46Y-135.54
X253.46Y-138.08
X253.46Y-140.62
X253.46Y-143.16
X253.46Y-145.7
X256.0Y-66.96
X256.0Y-69.5
X256.0Y-72.04
X256.0Y-74.58
X256.0Y-77.12
X256.0Y-79.66
X256.0Y-82.2
X256.0Y-84.74
X256.0Y-87.28
X256.0Y-89.82
X256.0Y-92.36
X256.0Y-94.9
X256.0Y-97.44
X256.0Y-99.98
X256.0Y-102.52
X256.0Y-105.06
X256.0Y-107.6
X256.0Y-110.14
X256.0Y-112.68
X256.0Y-115.22
X256.0Y-117.76
X256.0Y-120.3
X256.0Y-122.84
X256.0Y-125.38
X256.0Y-127.92
X256.0Y-130.46
X256.0Y-133.0
X256.0Y-135.54
X256.0Y-138.08
X256.0Y-140.62
X256.0Y-143.16
X256.0Y-145.7
X270.752Y-147.32
X273.292Y-147.32
X275.832Y-147.32
X294.212Y-70.763
X294.212Y-86.003
X296.752Y-70.763
X296.752Y-86.003
X299.292Y-70.763
X299.292Y-86.003
X301.832Y-70.763
X301.832Y-86.003
X304.372Y-70.763
X304.372Y-86.003
X306.912Y-70.763
X306.912Y-86.003
X309.452Y-70.763
X309.452Y-86.003
X311.992Y-70.763
X311.992Y-86.003
X314.532Y-70.763
X314.532Y-86.003
X317.072Y-70.763
X317.072Y-86.003
X319.612Y-70.763
X319.612Y-86.003
X322.152Y-70.763
X322.152Y-86.003
X324.692Y-70.763
X324.692Y-86.003
X327.232Y-70.763
X327.232Y-86.003
X327.232Y-94.147
X329.772Y-70.763
X329.772Y-86.003
X329.772Y-94.147
X332.312Y-70.763
X332.312Y-86.003
X334.852Y-70.763
X334.852Y-86.003
X337.392Y-70.763
X337.392Y-86.003
X339.932Y-70.763
X339.932Y-86.003
X342.472Y-70.763
X342.472Y-86.003
X344.105Y-102.886
X344.105Y-105.426
X344.105Y-107.966
X344.105Y-110.506
X346.645Y-102.886
X346.645Y-105.426
X346.645Y-107.966
X346.645Y-110.506
T7
X342.702Y-128.703
X342.702Y-130.993
X342.702Y-133.283
X342.702Y-135.573
X342.702Y-137.863
X344.802Y-127.563
X344.802Y-129.853
X344.802Y-132.143
X344.802Y-134.433
X344.802Y-136.723
X346.882Y-128.703
X346.882Y-130.993
X346.882Y-133.283
X346.882Y-135.573
X346.882Y-137.863
T8
X258.822Y-56.793
X258.822Y-61.873
X262.832Y-56.793
X262.832Y-61.873
X266.792Y-56.793
X266.792Y-61.873
X270.752Y-56.793
X270.752Y-61.873
X274.712Y-56.793
X274.712Y-61.873
X278.672Y-56.793
X278.672Y-61.873
X282.632Y-56.793
X282.632Y-61.873
X286.592Y-56.793
X286.592Y-61.873
X290.552Y-56.793
X290.552Y-61.873
X294.512Y-56.793
X294.512Y-61.873
X298.472Y-56.793
X298.472Y-61.873
X302.432Y-56.793
X302.432Y-61.873
X306.392Y-56.793
X306.392Y-61.873
X310.352Y-56.793
X310.352Y-61.873
X314.312Y-56.793
X314.312Y-61.873
X318.272Y-56.793
X318.272Y-61.873
X322.232Y-56.793
X322.232Y-61.873
X326.192Y-56.793
X326.192Y-61.873
X330.152Y-56.793
X330.152Y-61.873
X334.112Y-56.793
X334.112Y-61.873
X338.072Y-56.793
X338.072Y-61.873
X342.032Y-56.793
X342.032Y-61.873
T9
X344.802Y-120.523
X344.802Y-145.513
T3
X322.512Y-145.313G85X322.512Y-144.913
G05
X327.352Y-145.313G85X327.352Y-144.913
G05
T4
X322.202Y-148.363G85X322.202Y-147.863
G05
X327.662Y-148.363G85X327.662Y-147.863
G05
M30
