G04 #@! TF.GenerationSoftware,KiCad,Pcbnew,9.0.4*
G04 #@! TF.CreationDate,2025-10-07T17:56:47+11:00*
G04 #@! TF.ProjectId,6502_RevC,36353032-5f52-4657-9643-2e6b69636164,rev?*
G04 #@! TF.SameCoordinates,Original*
G04 #@! TF.FileFunction,Legend,Bot*
G04 #@! TF.FilePolarity,Positive*
%FSLAX46Y46*%
G04 Gerber Fmt 4.6, Leading zero omitted, Abs format (unit mm)*
G04 Created by KiCad (PCBNEW 9.0.4) date 2025-10-07 17:56:47*
%MOMM*%
%LPD*%
G01*
G04 APERTURE LIST*
G04 Aperture macros list*
%AMRoundRect*
0 Rectangle with rounded corners*
0 $1 Rounding radius*
0 $2 $3 $4 $5 $6 $7 $8 $9 X,Y pos of 4 corners*
0 Add a 4 corners polygon primitive as box body*
4,1,4,$2,$3,$4,$5,$6,$7,$8,$9,$2,$3,0*
0 Add four circle primitives for the rounded corners*
1,1,$1+$1,$2,$3*
1,1,$1+$1,$4,$5*
1,1,$1+$1,$6,$7*
1,1,$1+$1,$8,$9*
0 Add four rect primitives between the rounded corners*
20,1,$1+$1,$2,$3,$4,$5,0*
20,1,$1+$1,$4,$5,$6,$7,0*
20,1,$1+$1,$6,$7,$8,$9,0*
20,1,$1+$1,$8,$9,$2,$3,0*%
G04 Aperture macros list end*
%ADD10C,0.150000*%
%ADD11C,0.120000*%
%ADD12C,0.425000*%
%ADD13R,1.700000X1.700000*%
%ADD14C,1.700000*%
%ADD15O,1.350000X1.700000*%
%ADD16O,1.100000X1.500000*%
%ADD17C,4.770000*%
%ADD18R,1.785000X1.785000*%
%ADD19C,1.785000*%
%ADD20RoundRect,0.250000X-0.550000X-0.550000X0.550000X-0.550000X0.550000X0.550000X-0.550000X0.550000X0*%
%ADD21C,1.600000*%
%ADD22R,2.130000X2.130000*%
%ADD23C,2.130000*%
%ADD24R,1.700000X2.400000*%
%ADD25O,1.700000X2.400000*%
%ADD26RoundRect,0.200000X0.275000X-0.200000X0.275000X0.200000X-0.275000X0.200000X-0.275000X-0.200000X0*%
%ADD27RoundRect,0.225000X-0.225000X-0.250000X0.225000X-0.250000X0.225000X0.250000X-0.225000X0.250000X0*%
%ADD28RoundRect,0.200000X-0.275000X0.200000X-0.275000X-0.200000X0.275000X-0.200000X0.275000X0.200000X0*%
%ADD29R,1.000000X1.000000*%
%ADD30RoundRect,0.225000X-0.250000X0.225000X-0.250000X-0.225000X0.250000X-0.225000X0.250000X0.225000X0*%
%ADD31RoundRect,0.225000X0.225000X0.250000X-0.225000X0.250000X-0.225000X-0.250000X0.225000X-0.250000X0*%
%ADD32RoundRect,0.225000X0.250000X-0.225000X0.250000X0.225000X-0.250000X0.225000X-0.250000X-0.225000X0*%
%ADD33RoundRect,0.200000X-0.200000X-0.275000X0.200000X-0.275000X0.200000X0.275000X-0.200000X0.275000X0*%
G04 APERTURE END LIST*
D10*
X327894980Y-73301515D02*
X327847361Y-73349134D01*
X327847361Y-73349134D02*
X327799742Y-73444372D01*
X327799742Y-73444372D02*
X327799742Y-73682467D01*
X327799742Y-73682467D02*
X327847361Y-73777705D01*
X327847361Y-73777705D02*
X327894980Y-73825324D01*
X327894980Y-73825324D02*
X327990218Y-73872943D01*
X327990218Y-73872943D02*
X328085456Y-73872943D01*
X328085456Y-73872943D02*
X328228313Y-73825324D01*
X328228313Y-73825324D02*
X328799742Y-73253896D01*
X328799742Y-73253896D02*
X328799742Y-73872943D01*
X328799742Y-74301515D02*
X327799742Y-74301515D01*
X328799742Y-74872943D02*
X328228313Y-74444372D01*
X327799742Y-74872943D02*
X328371170Y-74301515D01*
X327894980Y-75253896D02*
X327847361Y-75301515D01*
X327847361Y-75301515D02*
X327799742Y-75396753D01*
X327799742Y-75396753D02*
X327799742Y-75634848D01*
X327799742Y-75634848D02*
X327847361Y-75730086D01*
X327847361Y-75730086D02*
X327894980Y-75777705D01*
X327894980Y-75777705D02*
X327990218Y-75825324D01*
X327990218Y-75825324D02*
X328085456Y-75825324D01*
X328085456Y-75825324D02*
X328228313Y-75777705D01*
X328228313Y-75777705D02*
X328799742Y-75206277D01*
X328799742Y-75206277D02*
X328799742Y-75825324D01*
X304104632Y-123373000D02*
X304152251Y-123420620D01*
X304152251Y-123420620D02*
X304295108Y-123468239D01*
X304295108Y-123468239D02*
X304390346Y-123468239D01*
X304390346Y-123468239D02*
X304533203Y-123420620D01*
X304533203Y-123420620D02*
X304628441Y-123325381D01*
X304628441Y-123325381D02*
X304676060Y-123230143D01*
X304676060Y-123230143D02*
X304723679Y-123039667D01*
X304723679Y-123039667D02*
X304723679Y-122896810D01*
X304723679Y-122896810D02*
X304676060Y-122706334D01*
X304676060Y-122706334D02*
X304628441Y-122611096D01*
X304628441Y-122611096D02*
X304533203Y-122515858D01*
X304533203Y-122515858D02*
X304390346Y-122468239D01*
X304390346Y-122468239D02*
X304295108Y-122468239D01*
X304295108Y-122468239D02*
X304152251Y-122515858D01*
X304152251Y-122515858D02*
X304104632Y-122563477D01*
X303152251Y-123468239D02*
X303723679Y-123468239D01*
X303437965Y-123468239D02*
X303437965Y-122468239D01*
X303437965Y-122468239D02*
X303533203Y-122611096D01*
X303533203Y-122611096D02*
X303628441Y-122706334D01*
X303628441Y-122706334D02*
X303723679Y-122753953D01*
X302533203Y-122468239D02*
X302437965Y-122468239D01*
X302437965Y-122468239D02*
X302342727Y-122515858D01*
X302342727Y-122515858D02*
X302295108Y-122563477D01*
X302295108Y-122563477D02*
X302247489Y-122658715D01*
X302247489Y-122658715D02*
X302199870Y-122849191D01*
X302199870Y-122849191D02*
X302199870Y-123087286D01*
X302199870Y-123087286D02*
X302247489Y-123277762D01*
X302247489Y-123277762D02*
X302295108Y-123373000D01*
X302295108Y-123373000D02*
X302342727Y-123420620D01*
X302342727Y-123420620D02*
X302437965Y-123468239D01*
X302437965Y-123468239D02*
X302533203Y-123468239D01*
X302533203Y-123468239D02*
X302628441Y-123420620D01*
X302628441Y-123420620D02*
X302676060Y-123373000D01*
X302676060Y-123373000D02*
X302723679Y-123277762D01*
X302723679Y-123277762D02*
X302771298Y-123087286D01*
X302771298Y-123087286D02*
X302771298Y-122849191D01*
X302771298Y-122849191D02*
X302723679Y-122658715D01*
X302723679Y-122658715D02*
X302676060Y-122563477D01*
X302676060Y-122563477D02*
X302628441Y-122515858D01*
X302628441Y-122515858D02*
X302533203Y-122468239D01*
X337994980Y-73306515D02*
X337947361Y-73354134D01*
X337947361Y-73354134D02*
X337899742Y-73449372D01*
X337899742Y-73449372D02*
X337899742Y-73687467D01*
X337899742Y-73687467D02*
X337947361Y-73782705D01*
X337947361Y-73782705D02*
X337994980Y-73830324D01*
X337994980Y-73830324D02*
X338090218Y-73877943D01*
X338090218Y-73877943D02*
X338185456Y-73877943D01*
X338185456Y-73877943D02*
X338328313Y-73830324D01*
X338328313Y-73830324D02*
X338899742Y-73258896D01*
X338899742Y-73258896D02*
X338899742Y-73877943D01*
X338899742Y-74306515D02*
X337899742Y-74306515D01*
X338899742Y-74877943D02*
X338328313Y-74449372D01*
X337899742Y-74877943D02*
X338471170Y-74306515D01*
X337994980Y-75258896D02*
X337947361Y-75306515D01*
X337947361Y-75306515D02*
X337899742Y-75401753D01*
X337899742Y-75401753D02*
X337899742Y-75639848D01*
X337899742Y-75639848D02*
X337947361Y-75735086D01*
X337947361Y-75735086D02*
X337994980Y-75782705D01*
X337994980Y-75782705D02*
X338090218Y-75830324D01*
X338090218Y-75830324D02*
X338185456Y-75830324D01*
X338185456Y-75830324D02*
X338328313Y-75782705D01*
X338328313Y-75782705D02*
X338899742Y-75211277D01*
X338899742Y-75211277D02*
X338899742Y-75830324D01*
X313036355Y-126145562D02*
X313083975Y-126097943D01*
X313083975Y-126097943D02*
X313131594Y-125955086D01*
X313131594Y-125955086D02*
X313131594Y-125859848D01*
X313131594Y-125859848D02*
X313083975Y-125716991D01*
X313083975Y-125716991D02*
X312988736Y-125621753D01*
X312988736Y-125621753D02*
X312893498Y-125574134D01*
X312893498Y-125574134D02*
X312703022Y-125526515D01*
X312703022Y-125526515D02*
X312560165Y-125526515D01*
X312560165Y-125526515D02*
X312369689Y-125574134D01*
X312369689Y-125574134D02*
X312274451Y-125621753D01*
X312274451Y-125621753D02*
X312179213Y-125716991D01*
X312179213Y-125716991D02*
X312131594Y-125859848D01*
X312131594Y-125859848D02*
X312131594Y-125955086D01*
X312131594Y-125955086D02*
X312179213Y-126097943D01*
X312179213Y-126097943D02*
X312226832Y-126145562D01*
X313131594Y-127097943D02*
X313131594Y-126526515D01*
X313131594Y-126812229D02*
X312131594Y-126812229D01*
X312131594Y-126812229D02*
X312274451Y-126716991D01*
X312274451Y-126716991D02*
X312369689Y-126621753D01*
X312369689Y-126621753D02*
X312417308Y-126526515D01*
X312131594Y-127431277D02*
X312131594Y-128050324D01*
X312131594Y-128050324D02*
X312512546Y-127716991D01*
X312512546Y-127716991D02*
X312512546Y-127859848D01*
X312512546Y-127859848D02*
X312560165Y-127955086D01*
X312560165Y-127955086D02*
X312607784Y-128002705D01*
X312607784Y-128002705D02*
X312703022Y-128050324D01*
X312703022Y-128050324D02*
X312941117Y-128050324D01*
X312941117Y-128050324D02*
X313036355Y-128002705D01*
X313036355Y-128002705D02*
X313083975Y-127955086D01*
X313083975Y-127955086D02*
X313131594Y-127859848D01*
X313131594Y-127859848D02*
X313131594Y-127574134D01*
X313131594Y-127574134D02*
X313083975Y-127478896D01*
X313083975Y-127478896D02*
X313036355Y-127431277D01*
X308311941Y-132618000D02*
X308359560Y-132665620D01*
X308359560Y-132665620D02*
X308502417Y-132713239D01*
X308502417Y-132713239D02*
X308597655Y-132713239D01*
X308597655Y-132713239D02*
X308740512Y-132665620D01*
X308740512Y-132665620D02*
X308835750Y-132570381D01*
X308835750Y-132570381D02*
X308883369Y-132475143D01*
X308883369Y-132475143D02*
X308930988Y-132284667D01*
X308930988Y-132284667D02*
X308930988Y-132141810D01*
X308930988Y-132141810D02*
X308883369Y-131951334D01*
X308883369Y-131951334D02*
X308835750Y-131856096D01*
X308835750Y-131856096D02*
X308740512Y-131760858D01*
X308740512Y-131760858D02*
X308597655Y-131713239D01*
X308597655Y-131713239D02*
X308502417Y-131713239D01*
X308502417Y-131713239D02*
X308359560Y-131760858D01*
X308359560Y-131760858D02*
X308311941Y-131808477D01*
X307978607Y-131713239D02*
X307359560Y-131713239D01*
X307359560Y-131713239D02*
X307692893Y-132094191D01*
X307692893Y-132094191D02*
X307550036Y-132094191D01*
X307550036Y-132094191D02*
X307454798Y-132141810D01*
X307454798Y-132141810D02*
X307407179Y-132189429D01*
X307407179Y-132189429D02*
X307359560Y-132284667D01*
X307359560Y-132284667D02*
X307359560Y-132522762D01*
X307359560Y-132522762D02*
X307407179Y-132618000D01*
X307407179Y-132618000D02*
X307454798Y-132665620D01*
X307454798Y-132665620D02*
X307550036Y-132713239D01*
X307550036Y-132713239D02*
X307835750Y-132713239D01*
X307835750Y-132713239D02*
X307930988Y-132665620D01*
X307930988Y-132665620D02*
X307978607Y-132618000D01*
X310794632Y-122913000D02*
X310842251Y-122960620D01*
X310842251Y-122960620D02*
X310985108Y-123008239D01*
X310985108Y-123008239D02*
X311080346Y-123008239D01*
X311080346Y-123008239D02*
X311223203Y-122960620D01*
X311223203Y-122960620D02*
X311318441Y-122865381D01*
X311318441Y-122865381D02*
X311366060Y-122770143D01*
X311366060Y-122770143D02*
X311413679Y-122579667D01*
X311413679Y-122579667D02*
X311413679Y-122436810D01*
X311413679Y-122436810D02*
X311366060Y-122246334D01*
X311366060Y-122246334D02*
X311318441Y-122151096D01*
X311318441Y-122151096D02*
X311223203Y-122055858D01*
X311223203Y-122055858D02*
X311080346Y-122008239D01*
X311080346Y-122008239D02*
X310985108Y-122008239D01*
X310985108Y-122008239D02*
X310842251Y-122055858D01*
X310842251Y-122055858D02*
X310794632Y-122103477D01*
X309842251Y-123008239D02*
X310413679Y-123008239D01*
X310127965Y-123008239D02*
X310127965Y-122008239D01*
X310127965Y-122008239D02*
X310223203Y-122151096D01*
X310223203Y-122151096D02*
X310318441Y-122246334D01*
X310318441Y-122246334D02*
X310413679Y-122293953D01*
X309461298Y-122103477D02*
X309413679Y-122055858D01*
X309413679Y-122055858D02*
X309318441Y-122008239D01*
X309318441Y-122008239D02*
X309080346Y-122008239D01*
X309080346Y-122008239D02*
X308985108Y-122055858D01*
X308985108Y-122055858D02*
X308937489Y-122103477D01*
X308937489Y-122103477D02*
X308889870Y-122198715D01*
X308889870Y-122198715D02*
X308889870Y-122293953D01*
X308889870Y-122293953D02*
X308937489Y-122436810D01*
X308937489Y-122436810D02*
X309508917Y-123008239D01*
X309508917Y-123008239D02*
X308889870Y-123008239D01*
X299492866Y-129618755D02*
X299540486Y-129571136D01*
X299540486Y-129571136D02*
X299588105Y-129428279D01*
X299588105Y-129428279D02*
X299588105Y-129333041D01*
X299588105Y-129333041D02*
X299540486Y-129190184D01*
X299540486Y-129190184D02*
X299445247Y-129094946D01*
X299445247Y-129094946D02*
X299350009Y-129047327D01*
X299350009Y-129047327D02*
X299159533Y-128999708D01*
X299159533Y-128999708D02*
X299016676Y-128999708D01*
X299016676Y-128999708D02*
X298826200Y-129047327D01*
X298826200Y-129047327D02*
X298730962Y-129094946D01*
X298730962Y-129094946D02*
X298635724Y-129190184D01*
X298635724Y-129190184D02*
X298588105Y-129333041D01*
X298588105Y-129333041D02*
X298588105Y-129428279D01*
X298588105Y-129428279D02*
X298635724Y-129571136D01*
X298635724Y-129571136D02*
X298683343Y-129618755D01*
X299588105Y-130571136D02*
X299588105Y-129999708D01*
X299588105Y-130285422D02*
X298588105Y-130285422D01*
X298588105Y-130285422D02*
X298730962Y-130190184D01*
X298730962Y-130190184D02*
X298826200Y-130094946D01*
X298826200Y-130094946D02*
X298873819Y-129999708D01*
X299588105Y-131523517D02*
X299588105Y-130952089D01*
X299588105Y-131237803D02*
X298588105Y-131237803D01*
X298588105Y-131237803D02*
X298730962Y-131142565D01*
X298730962Y-131142565D02*
X298826200Y-131047327D01*
X298826200Y-131047327D02*
X298873819Y-130952089D01*
X295756594Y-128770562D02*
X295280403Y-128437229D01*
X295756594Y-128199134D02*
X294756594Y-128199134D01*
X294756594Y-128199134D02*
X294756594Y-128580086D01*
X294756594Y-128580086D02*
X294804213Y-128675324D01*
X294804213Y-128675324D02*
X294851832Y-128722943D01*
X294851832Y-128722943D02*
X294947070Y-128770562D01*
X294947070Y-128770562D02*
X295089927Y-128770562D01*
X295089927Y-128770562D02*
X295185165Y-128722943D01*
X295185165Y-128722943D02*
X295232784Y-128675324D01*
X295232784Y-128675324D02*
X295280403Y-128580086D01*
X295280403Y-128580086D02*
X295280403Y-128199134D01*
X295756594Y-129722943D02*
X295756594Y-129151515D01*
X295756594Y-129437229D02*
X294756594Y-129437229D01*
X294756594Y-129437229D02*
X294899451Y-129341991D01*
X294899451Y-129341991D02*
X294994689Y-129246753D01*
X294994689Y-129246753D02*
X295042308Y-129151515D01*
X294756594Y-130341991D02*
X294756594Y-130437229D01*
X294756594Y-130437229D02*
X294804213Y-130532467D01*
X294804213Y-130532467D02*
X294851832Y-130580086D01*
X294851832Y-130580086D02*
X294947070Y-130627705D01*
X294947070Y-130627705D02*
X295137546Y-130675324D01*
X295137546Y-130675324D02*
X295375641Y-130675324D01*
X295375641Y-130675324D02*
X295566117Y-130627705D01*
X295566117Y-130627705D02*
X295661355Y-130580086D01*
X295661355Y-130580086D02*
X295708975Y-130532467D01*
X295708975Y-130532467D02*
X295756594Y-130437229D01*
X295756594Y-130437229D02*
X295756594Y-130341991D01*
X295756594Y-130341991D02*
X295708975Y-130246753D01*
X295708975Y-130246753D02*
X295661355Y-130199134D01*
X295661355Y-130199134D02*
X295566117Y-130151515D01*
X295566117Y-130151515D02*
X295375641Y-130103896D01*
X295375641Y-130103896D02*
X295137546Y-130103896D01*
X295137546Y-130103896D02*
X294947070Y-130151515D01*
X294947070Y-130151515D02*
X294851832Y-130199134D01*
X294851832Y-130199134D02*
X294804213Y-130246753D01*
X294804213Y-130246753D02*
X294756594Y-130341991D01*
X299506355Y-134671753D02*
X299553975Y-134624134D01*
X299553975Y-134624134D02*
X299601594Y-134481277D01*
X299601594Y-134481277D02*
X299601594Y-134386039D01*
X299601594Y-134386039D02*
X299553975Y-134243182D01*
X299553975Y-134243182D02*
X299458736Y-134147944D01*
X299458736Y-134147944D02*
X299363498Y-134100325D01*
X299363498Y-134100325D02*
X299173022Y-134052706D01*
X299173022Y-134052706D02*
X299030165Y-134052706D01*
X299030165Y-134052706D02*
X298839689Y-134100325D01*
X298839689Y-134100325D02*
X298744451Y-134147944D01*
X298744451Y-134147944D02*
X298649213Y-134243182D01*
X298649213Y-134243182D02*
X298601594Y-134386039D01*
X298601594Y-134386039D02*
X298601594Y-134481277D01*
X298601594Y-134481277D02*
X298649213Y-134624134D01*
X298649213Y-134624134D02*
X298696832Y-134671753D01*
X299030165Y-135243182D02*
X298982546Y-135147944D01*
X298982546Y-135147944D02*
X298934927Y-135100325D01*
X298934927Y-135100325D02*
X298839689Y-135052706D01*
X298839689Y-135052706D02*
X298792070Y-135052706D01*
X298792070Y-135052706D02*
X298696832Y-135100325D01*
X298696832Y-135100325D02*
X298649213Y-135147944D01*
X298649213Y-135147944D02*
X298601594Y-135243182D01*
X298601594Y-135243182D02*
X298601594Y-135433658D01*
X298601594Y-135433658D02*
X298649213Y-135528896D01*
X298649213Y-135528896D02*
X298696832Y-135576515D01*
X298696832Y-135576515D02*
X298792070Y-135624134D01*
X298792070Y-135624134D02*
X298839689Y-135624134D01*
X298839689Y-135624134D02*
X298934927Y-135576515D01*
X298934927Y-135576515D02*
X298982546Y-135528896D01*
X298982546Y-135528896D02*
X299030165Y-135433658D01*
X299030165Y-135433658D02*
X299030165Y-135243182D01*
X299030165Y-135243182D02*
X299077784Y-135147944D01*
X299077784Y-135147944D02*
X299125403Y-135100325D01*
X299125403Y-135100325D02*
X299220641Y-135052706D01*
X299220641Y-135052706D02*
X299411117Y-135052706D01*
X299411117Y-135052706D02*
X299506355Y-135100325D01*
X299506355Y-135100325D02*
X299553975Y-135147944D01*
X299553975Y-135147944D02*
X299601594Y-135243182D01*
X299601594Y-135243182D02*
X299601594Y-135433658D01*
X299601594Y-135433658D02*
X299553975Y-135528896D01*
X299553975Y-135528896D02*
X299506355Y-135576515D01*
X299506355Y-135576515D02*
X299411117Y-135624134D01*
X299411117Y-135624134D02*
X299220641Y-135624134D01*
X299220641Y-135624134D02*
X299125403Y-135576515D01*
X299125403Y-135576515D02*
X299077784Y-135528896D01*
X299077784Y-135528896D02*
X299030165Y-135433658D01*
X313066355Y-131171753D02*
X313113975Y-131124134D01*
X313113975Y-131124134D02*
X313161594Y-130981277D01*
X313161594Y-130981277D02*
X313161594Y-130886039D01*
X313161594Y-130886039D02*
X313113975Y-130743182D01*
X313113975Y-130743182D02*
X313018736Y-130647944D01*
X313018736Y-130647944D02*
X312923498Y-130600325D01*
X312923498Y-130600325D02*
X312733022Y-130552706D01*
X312733022Y-130552706D02*
X312590165Y-130552706D01*
X312590165Y-130552706D02*
X312399689Y-130600325D01*
X312399689Y-130600325D02*
X312304451Y-130647944D01*
X312304451Y-130647944D02*
X312209213Y-130743182D01*
X312209213Y-130743182D02*
X312161594Y-130886039D01*
X312161594Y-130886039D02*
X312161594Y-130981277D01*
X312161594Y-130981277D02*
X312209213Y-131124134D01*
X312209213Y-131124134D02*
X312256832Y-131171753D01*
X312161594Y-132028896D02*
X312161594Y-131838420D01*
X312161594Y-131838420D02*
X312209213Y-131743182D01*
X312209213Y-131743182D02*
X312256832Y-131695563D01*
X312256832Y-131695563D02*
X312399689Y-131600325D01*
X312399689Y-131600325D02*
X312590165Y-131552706D01*
X312590165Y-131552706D02*
X312971117Y-131552706D01*
X312971117Y-131552706D02*
X313066355Y-131600325D01*
X313066355Y-131600325D02*
X313113975Y-131647944D01*
X313113975Y-131647944D02*
X313161594Y-131743182D01*
X313161594Y-131743182D02*
X313161594Y-131933658D01*
X313161594Y-131933658D02*
X313113975Y-132028896D01*
X313113975Y-132028896D02*
X313066355Y-132076515D01*
X313066355Y-132076515D02*
X312971117Y-132124134D01*
X312971117Y-132124134D02*
X312733022Y-132124134D01*
X312733022Y-132124134D02*
X312637784Y-132076515D01*
X312637784Y-132076515D02*
X312590165Y-132028896D01*
X312590165Y-132028896D02*
X312542546Y-131933658D01*
X312542546Y-131933658D02*
X312542546Y-131743182D01*
X312542546Y-131743182D02*
X312590165Y-131647944D01*
X312590165Y-131647944D02*
X312637784Y-131600325D01*
X312637784Y-131600325D02*
X312733022Y-131552706D01*
X326109632Y-75673000D02*
X326157251Y-75720620D01*
X326157251Y-75720620D02*
X326300108Y-75768239D01*
X326300108Y-75768239D02*
X326395346Y-75768239D01*
X326395346Y-75768239D02*
X326538203Y-75720620D01*
X326538203Y-75720620D02*
X326633441Y-75625381D01*
X326633441Y-75625381D02*
X326681060Y-75530143D01*
X326681060Y-75530143D02*
X326728679Y-75339667D01*
X326728679Y-75339667D02*
X326728679Y-75196810D01*
X326728679Y-75196810D02*
X326681060Y-75006334D01*
X326681060Y-75006334D02*
X326633441Y-74911096D01*
X326633441Y-74911096D02*
X326538203Y-74815858D01*
X326538203Y-74815858D02*
X326395346Y-74768239D01*
X326395346Y-74768239D02*
X326300108Y-74768239D01*
X326300108Y-74768239D02*
X326157251Y-74815858D01*
X326157251Y-74815858D02*
X326109632Y-74863477D01*
X325728679Y-74863477D02*
X325681060Y-74815858D01*
X325681060Y-74815858D02*
X325585822Y-74768239D01*
X325585822Y-74768239D02*
X325347727Y-74768239D01*
X325347727Y-74768239D02*
X325252489Y-74815858D01*
X325252489Y-74815858D02*
X325204870Y-74863477D01*
X325204870Y-74863477D02*
X325157251Y-74958715D01*
X325157251Y-74958715D02*
X325157251Y-75053953D01*
X325157251Y-75053953D02*
X325204870Y-75196810D01*
X325204870Y-75196810D02*
X325776298Y-75768239D01*
X325776298Y-75768239D02*
X325157251Y-75768239D01*
X324204870Y-75768239D02*
X324776298Y-75768239D01*
X324490584Y-75768239D02*
X324490584Y-74768239D01*
X324490584Y-74768239D02*
X324585822Y-74911096D01*
X324585822Y-74911096D02*
X324681060Y-75006334D01*
X324681060Y-75006334D02*
X324776298Y-75053953D01*
X290842857Y-134459580D02*
X290890476Y-134507200D01*
X290890476Y-134507200D02*
X291033333Y-134554819D01*
X291033333Y-134554819D02*
X291128571Y-134554819D01*
X291128571Y-134554819D02*
X291271428Y-134507200D01*
X291271428Y-134507200D02*
X291366666Y-134411961D01*
X291366666Y-134411961D02*
X291414285Y-134316723D01*
X291414285Y-134316723D02*
X291461904Y-134126247D01*
X291461904Y-134126247D02*
X291461904Y-133983390D01*
X291461904Y-133983390D02*
X291414285Y-133792914D01*
X291414285Y-133792914D02*
X291366666Y-133697676D01*
X291366666Y-133697676D02*
X291271428Y-133602438D01*
X291271428Y-133602438D02*
X291128571Y-133554819D01*
X291128571Y-133554819D02*
X291033333Y-133554819D01*
X291033333Y-133554819D02*
X290890476Y-133602438D01*
X290890476Y-133602438D02*
X290842857Y-133650057D01*
X290461904Y-133650057D02*
X290414285Y-133602438D01*
X290414285Y-133602438D02*
X290319047Y-133554819D01*
X290319047Y-133554819D02*
X290080952Y-133554819D01*
X290080952Y-133554819D02*
X289985714Y-133602438D01*
X289985714Y-133602438D02*
X289938095Y-133650057D01*
X289938095Y-133650057D02*
X289890476Y-133745295D01*
X289890476Y-133745295D02*
X289890476Y-133840533D01*
X289890476Y-133840533D02*
X289938095Y-133983390D01*
X289938095Y-133983390D02*
X290509523Y-134554819D01*
X290509523Y-134554819D02*
X289890476Y-134554819D01*
X289557142Y-133554819D02*
X288890476Y-133554819D01*
X288890476Y-133554819D02*
X289319047Y-134554819D01*
X332994980Y-73301515D02*
X332947361Y-73349134D01*
X332947361Y-73349134D02*
X332899742Y-73444372D01*
X332899742Y-73444372D02*
X332899742Y-73682467D01*
X332899742Y-73682467D02*
X332947361Y-73777705D01*
X332947361Y-73777705D02*
X332994980Y-73825324D01*
X332994980Y-73825324D02*
X333090218Y-73872943D01*
X333090218Y-73872943D02*
X333185456Y-73872943D01*
X333185456Y-73872943D02*
X333328313Y-73825324D01*
X333328313Y-73825324D02*
X333899742Y-73253896D01*
X333899742Y-73253896D02*
X333899742Y-73872943D01*
X333899742Y-74301515D02*
X332899742Y-74301515D01*
X333899742Y-74872943D02*
X333328313Y-74444372D01*
X332899742Y-74872943D02*
X333471170Y-74301515D01*
X332994980Y-75253896D02*
X332947361Y-75301515D01*
X332947361Y-75301515D02*
X332899742Y-75396753D01*
X332899742Y-75396753D02*
X332899742Y-75634848D01*
X332899742Y-75634848D02*
X332947361Y-75730086D01*
X332947361Y-75730086D02*
X332994980Y-75777705D01*
X332994980Y-75777705D02*
X333090218Y-75825324D01*
X333090218Y-75825324D02*
X333185456Y-75825324D01*
X333185456Y-75825324D02*
X333328313Y-75777705D01*
X333328313Y-75777705D02*
X333899742Y-75206277D01*
X333899742Y-75206277D02*
X333899742Y-75825324D01*
X304366666Y-137059580D02*
X304414285Y-137107200D01*
X304414285Y-137107200D02*
X304557142Y-137154819D01*
X304557142Y-137154819D02*
X304652380Y-137154819D01*
X304652380Y-137154819D02*
X304795237Y-137107200D01*
X304795237Y-137107200D02*
X304890475Y-137011961D01*
X304890475Y-137011961D02*
X304938094Y-136916723D01*
X304938094Y-136916723D02*
X304985713Y-136726247D01*
X304985713Y-136726247D02*
X304985713Y-136583390D01*
X304985713Y-136583390D02*
X304938094Y-136392914D01*
X304938094Y-136392914D02*
X304890475Y-136297676D01*
X304890475Y-136297676D02*
X304795237Y-136202438D01*
X304795237Y-136202438D02*
X304652380Y-136154819D01*
X304652380Y-136154819D02*
X304557142Y-136154819D01*
X304557142Y-136154819D02*
X304414285Y-136202438D01*
X304414285Y-136202438D02*
X304366666Y-136250057D01*
X304033332Y-136154819D02*
X303366666Y-136154819D01*
X303366666Y-136154819D02*
X303795237Y-137154819D01*
X303934855Y-132396753D02*
X303982475Y-132349134D01*
X303982475Y-132349134D02*
X304030094Y-132206277D01*
X304030094Y-132206277D02*
X304030094Y-132111039D01*
X304030094Y-132111039D02*
X303982475Y-131968182D01*
X303982475Y-131968182D02*
X303887236Y-131872944D01*
X303887236Y-131872944D02*
X303791998Y-131825325D01*
X303791998Y-131825325D02*
X303601522Y-131777706D01*
X303601522Y-131777706D02*
X303458665Y-131777706D01*
X303458665Y-131777706D02*
X303268189Y-131825325D01*
X303268189Y-131825325D02*
X303172951Y-131872944D01*
X303172951Y-131872944D02*
X303077713Y-131968182D01*
X303077713Y-131968182D02*
X303030094Y-132111039D01*
X303030094Y-132111039D02*
X303030094Y-132206277D01*
X303030094Y-132206277D02*
X303077713Y-132349134D01*
X303077713Y-132349134D02*
X303125332Y-132396753D01*
X303363427Y-133253896D02*
X304030094Y-133253896D01*
X302982475Y-133015801D02*
X303696760Y-132777706D01*
X303696760Y-132777706D02*
X303696760Y-133396753D01*
X329065822Y-101854819D02*
X329637250Y-101854819D01*
X329351536Y-101854819D02*
X329351536Y-100854819D01*
X329351536Y-100854819D02*
X329446774Y-100997676D01*
X329446774Y-100997676D02*
X329542012Y-101092914D01*
X329542012Y-101092914D02*
X329637250Y-101140533D01*
X328637250Y-101854819D02*
X328637250Y-100854819D01*
X328542012Y-101473866D02*
X328256298Y-101854819D01*
X328256298Y-101188152D02*
X328637250Y-101569104D01*
X313912857Y-136459580D02*
X313960476Y-136507200D01*
X313960476Y-136507200D02*
X314103333Y-136554819D01*
X314103333Y-136554819D02*
X314198571Y-136554819D01*
X314198571Y-136554819D02*
X314341428Y-136507200D01*
X314341428Y-136507200D02*
X314436666Y-136411961D01*
X314436666Y-136411961D02*
X314484285Y-136316723D01*
X314484285Y-136316723D02*
X314531904Y-136126247D01*
X314531904Y-136126247D02*
X314531904Y-135983390D01*
X314531904Y-135983390D02*
X314484285Y-135792914D01*
X314484285Y-135792914D02*
X314436666Y-135697676D01*
X314436666Y-135697676D02*
X314341428Y-135602438D01*
X314341428Y-135602438D02*
X314198571Y-135554819D01*
X314198571Y-135554819D02*
X314103333Y-135554819D01*
X314103333Y-135554819D02*
X313960476Y-135602438D01*
X313960476Y-135602438D02*
X313912857Y-135650057D01*
X312960476Y-136554819D02*
X313531904Y-136554819D01*
X313246190Y-136554819D02*
X313246190Y-135554819D01*
X313246190Y-135554819D02*
X313341428Y-135697676D01*
X313341428Y-135697676D02*
X313436666Y-135792914D01*
X313436666Y-135792914D02*
X313531904Y-135840533D01*
X312103333Y-135888152D02*
X312103333Y-136554819D01*
X312341428Y-135507200D02*
X312579523Y-136221485D01*
X312579523Y-136221485D02*
X311960476Y-136221485D01*
X307266666Y-125059580D02*
X307314285Y-125107200D01*
X307314285Y-125107200D02*
X307457142Y-125154819D01*
X307457142Y-125154819D02*
X307552380Y-125154819D01*
X307552380Y-125154819D02*
X307695237Y-125107200D01*
X307695237Y-125107200D02*
X307790475Y-125011961D01*
X307790475Y-125011961D02*
X307838094Y-124916723D01*
X307838094Y-124916723D02*
X307885713Y-124726247D01*
X307885713Y-124726247D02*
X307885713Y-124583390D01*
X307885713Y-124583390D02*
X307838094Y-124392914D01*
X307838094Y-124392914D02*
X307790475Y-124297676D01*
X307790475Y-124297676D02*
X307695237Y-124202438D01*
X307695237Y-124202438D02*
X307552380Y-124154819D01*
X307552380Y-124154819D02*
X307457142Y-124154819D01*
X307457142Y-124154819D02*
X307314285Y-124202438D01*
X307314285Y-124202438D02*
X307266666Y-124250057D01*
X306361904Y-124154819D02*
X306838094Y-124154819D01*
X306838094Y-124154819D02*
X306885713Y-124631009D01*
X306885713Y-124631009D02*
X306838094Y-124583390D01*
X306838094Y-124583390D02*
X306742856Y-124535771D01*
X306742856Y-124535771D02*
X306504761Y-124535771D01*
X306504761Y-124535771D02*
X306409523Y-124583390D01*
X306409523Y-124583390D02*
X306361904Y-124631009D01*
X306361904Y-124631009D02*
X306314285Y-124726247D01*
X306314285Y-124726247D02*
X306314285Y-124964342D01*
X306314285Y-124964342D02*
X306361904Y-125059580D01*
X306361904Y-125059580D02*
X306409523Y-125107200D01*
X306409523Y-125107200D02*
X306504761Y-125154819D01*
X306504761Y-125154819D02*
X306742856Y-125154819D01*
X306742856Y-125154819D02*
X306838094Y-125107200D01*
X306838094Y-125107200D02*
X306885713Y-125059580D01*
X308344632Y-113673000D02*
X308392251Y-113720620D01*
X308392251Y-113720620D02*
X308535108Y-113768239D01*
X308535108Y-113768239D02*
X308630346Y-113768239D01*
X308630346Y-113768239D02*
X308773203Y-113720620D01*
X308773203Y-113720620D02*
X308868441Y-113625381D01*
X308868441Y-113625381D02*
X308916060Y-113530143D01*
X308916060Y-113530143D02*
X308963679Y-113339667D01*
X308963679Y-113339667D02*
X308963679Y-113196810D01*
X308963679Y-113196810D02*
X308916060Y-113006334D01*
X308916060Y-113006334D02*
X308868441Y-112911096D01*
X308868441Y-112911096D02*
X308773203Y-112815858D01*
X308773203Y-112815858D02*
X308630346Y-112768239D01*
X308630346Y-112768239D02*
X308535108Y-112768239D01*
X308535108Y-112768239D02*
X308392251Y-112815858D01*
X308392251Y-112815858D02*
X308344632Y-112863477D01*
X307963679Y-112863477D02*
X307916060Y-112815858D01*
X307916060Y-112815858D02*
X307820822Y-112768239D01*
X307820822Y-112768239D02*
X307582727Y-112768239D01*
X307582727Y-112768239D02*
X307487489Y-112815858D01*
X307487489Y-112815858D02*
X307439870Y-112863477D01*
X307439870Y-112863477D02*
X307392251Y-112958715D01*
X307392251Y-112958715D02*
X307392251Y-113053953D01*
X307392251Y-113053953D02*
X307439870Y-113196810D01*
X307439870Y-113196810D02*
X308011298Y-113768239D01*
X308011298Y-113768239D02*
X307392251Y-113768239D01*
X306773203Y-112768239D02*
X306677965Y-112768239D01*
X306677965Y-112768239D02*
X306582727Y-112815858D01*
X306582727Y-112815858D02*
X306535108Y-112863477D01*
X306535108Y-112863477D02*
X306487489Y-112958715D01*
X306487489Y-112958715D02*
X306439870Y-113149191D01*
X306439870Y-113149191D02*
X306439870Y-113387286D01*
X306439870Y-113387286D02*
X306487489Y-113577762D01*
X306487489Y-113577762D02*
X306535108Y-113673000D01*
X306535108Y-113673000D02*
X306582727Y-113720620D01*
X306582727Y-113720620D02*
X306677965Y-113768239D01*
X306677965Y-113768239D02*
X306773203Y-113768239D01*
X306773203Y-113768239D02*
X306868441Y-113720620D01*
X306868441Y-113720620D02*
X306916060Y-113673000D01*
X306916060Y-113673000D02*
X306963679Y-113577762D01*
X306963679Y-113577762D02*
X307011298Y-113387286D01*
X307011298Y-113387286D02*
X307011298Y-113149191D01*
X307011298Y-113149191D02*
X306963679Y-112958715D01*
X306963679Y-112958715D02*
X306916060Y-112863477D01*
X306916060Y-112863477D02*
X306868441Y-112815858D01*
X306868441Y-112815858D02*
X306773203Y-112768239D01*
X299506355Y-126221753D02*
X299553975Y-126174134D01*
X299553975Y-126174134D02*
X299601594Y-126031277D01*
X299601594Y-126031277D02*
X299601594Y-125936039D01*
X299601594Y-125936039D02*
X299553975Y-125793182D01*
X299553975Y-125793182D02*
X299458736Y-125697944D01*
X299458736Y-125697944D02*
X299363498Y-125650325D01*
X299363498Y-125650325D02*
X299173022Y-125602706D01*
X299173022Y-125602706D02*
X299030165Y-125602706D01*
X299030165Y-125602706D02*
X298839689Y-125650325D01*
X298839689Y-125650325D02*
X298744451Y-125697944D01*
X298744451Y-125697944D02*
X298649213Y-125793182D01*
X298649213Y-125793182D02*
X298601594Y-125936039D01*
X298601594Y-125936039D02*
X298601594Y-126031277D01*
X298601594Y-126031277D02*
X298649213Y-126174134D01*
X298649213Y-126174134D02*
X298696832Y-126221753D01*
X299601594Y-126697944D02*
X299601594Y-126888420D01*
X299601594Y-126888420D02*
X299553975Y-126983658D01*
X299553975Y-126983658D02*
X299506355Y-127031277D01*
X299506355Y-127031277D02*
X299363498Y-127126515D01*
X299363498Y-127126515D02*
X299173022Y-127174134D01*
X299173022Y-127174134D02*
X298792070Y-127174134D01*
X298792070Y-127174134D02*
X298696832Y-127126515D01*
X298696832Y-127126515D02*
X298649213Y-127078896D01*
X298649213Y-127078896D02*
X298601594Y-126983658D01*
X298601594Y-126983658D02*
X298601594Y-126793182D01*
X298601594Y-126793182D02*
X298649213Y-126697944D01*
X298649213Y-126697944D02*
X298696832Y-126650325D01*
X298696832Y-126650325D02*
X298792070Y-126602706D01*
X298792070Y-126602706D02*
X299030165Y-126602706D01*
X299030165Y-126602706D02*
X299125403Y-126650325D01*
X299125403Y-126650325D02*
X299173022Y-126697944D01*
X299173022Y-126697944D02*
X299220641Y-126793182D01*
X299220641Y-126793182D02*
X299220641Y-126983658D01*
X299220641Y-126983658D02*
X299173022Y-127078896D01*
X299173022Y-127078896D02*
X299125403Y-127126515D01*
X299125403Y-127126515D02*
X299030165Y-127174134D01*
X306026594Y-108770562D02*
X305550403Y-108437229D01*
X306026594Y-108199134D02*
X305026594Y-108199134D01*
X305026594Y-108199134D02*
X305026594Y-108580086D01*
X305026594Y-108580086D02*
X305074213Y-108675324D01*
X305074213Y-108675324D02*
X305121832Y-108722943D01*
X305121832Y-108722943D02*
X305217070Y-108770562D01*
X305217070Y-108770562D02*
X305359927Y-108770562D01*
X305359927Y-108770562D02*
X305455165Y-108722943D01*
X305455165Y-108722943D02*
X305502784Y-108675324D01*
X305502784Y-108675324D02*
X305550403Y-108580086D01*
X305550403Y-108580086D02*
X305550403Y-108199134D01*
X306026594Y-109722943D02*
X306026594Y-109151515D01*
X306026594Y-109437229D02*
X305026594Y-109437229D01*
X305026594Y-109437229D02*
X305169451Y-109341991D01*
X305169451Y-109341991D02*
X305264689Y-109246753D01*
X305264689Y-109246753D02*
X305312308Y-109151515D01*
X305026594Y-110580086D02*
X305026594Y-110389610D01*
X305026594Y-110389610D02*
X305074213Y-110294372D01*
X305074213Y-110294372D02*
X305121832Y-110246753D01*
X305121832Y-110246753D02*
X305264689Y-110151515D01*
X305264689Y-110151515D02*
X305455165Y-110103896D01*
X305455165Y-110103896D02*
X305836117Y-110103896D01*
X305836117Y-110103896D02*
X305931355Y-110151515D01*
X305931355Y-110151515D02*
X305978975Y-110199134D01*
X305978975Y-110199134D02*
X306026594Y-110294372D01*
X306026594Y-110294372D02*
X306026594Y-110484848D01*
X306026594Y-110484848D02*
X305978975Y-110580086D01*
X305978975Y-110580086D02*
X305931355Y-110627705D01*
X305931355Y-110627705D02*
X305836117Y-110675324D01*
X305836117Y-110675324D02*
X305598022Y-110675324D01*
X305598022Y-110675324D02*
X305502784Y-110627705D01*
X305502784Y-110627705D02*
X305455165Y-110580086D01*
X305455165Y-110580086D02*
X305407546Y-110484848D01*
X305407546Y-110484848D02*
X305407546Y-110294372D01*
X305407546Y-110294372D02*
X305455165Y-110199134D01*
X305455165Y-110199134D02*
X305502784Y-110151515D01*
X305502784Y-110151515D02*
X305598022Y-110103896D01*
D11*
X329249275Y-74800678D02*
X329249275Y-74326162D01*
X330294275Y-74800678D02*
X330294275Y-74326162D01*
X303321195Y-123803420D02*
X303602355Y-123803420D01*
X303321195Y-124823420D02*
X303602355Y-124823420D01*
X339409275Y-74326162D02*
X339409275Y-74800678D01*
X340454275Y-74326162D02*
X340454275Y-74800678D01*
X306401775Y-136313420D02*
X306401775Y-137713420D01*
X306401775Y-137713420D02*
X307801775Y-137713420D01*
X307801775Y-136313420D02*
X306401775Y-136313420D01*
X307801775Y-137713420D02*
X307801775Y-136313420D01*
X310766775Y-126647840D02*
X310766775Y-126929000D01*
X311786775Y-126647840D02*
X311786775Y-126929000D01*
X308285855Y-133178420D02*
X308004695Y-133178420D01*
X308285855Y-134198420D02*
X308004695Y-134198420D01*
X310292355Y-123443420D02*
X310011195Y-123443420D01*
X310292355Y-124463420D02*
X310011195Y-124463420D01*
X300066775Y-130378481D02*
X300066775Y-130097321D01*
X301086775Y-130378481D02*
X301086775Y-130097321D01*
X296179275Y-129176162D02*
X296179275Y-129650678D01*
X297224275Y-129176162D02*
X297224275Y-129650678D01*
X300066775Y-134697840D02*
X300066775Y-134979000D01*
X301086775Y-134697840D02*
X301086775Y-134979000D01*
X310766775Y-131479000D02*
X310766775Y-131197840D01*
X311786775Y-131479000D02*
X311786775Y-131197840D01*
X325607355Y-73303420D02*
X325326195Y-73303420D01*
X325607355Y-74323420D02*
X325326195Y-74323420D01*
X290059420Y-134990000D02*
X290340580Y-134990000D01*
X290059420Y-136010000D02*
X290340580Y-136010000D01*
X334329275Y-74800678D02*
X334329275Y-74326162D01*
X335374275Y-74800678D02*
X335374275Y-74326162D01*
X304754671Y-134603420D02*
X305035831Y-134603420D01*
X304754671Y-135623420D02*
X305035831Y-135623420D01*
X301635275Y-132704000D02*
X301635275Y-132422840D01*
X302655275Y-132704000D02*
X302655275Y-132422840D01*
X328709517Y-99377500D02*
X329184033Y-99377500D01*
X328709517Y-100422500D02*
X329184033Y-100422500D01*
X308701775Y-137613420D02*
X308701775Y-139013420D01*
X308701775Y-139013420D02*
X310101775Y-139013420D01*
X310101775Y-137613420D02*
X308701775Y-137613420D01*
X310101775Y-139013420D02*
X310101775Y-137613420D01*
X309661195Y-135503420D02*
X309942355Y-135503420D01*
X309661195Y-136523420D02*
X309942355Y-136523420D01*
X308485855Y-125578420D02*
X308204695Y-125578420D01*
X308485855Y-126598420D02*
X308204695Y-126598420D01*
X307917355Y-111353420D02*
X307636195Y-111353420D01*
X307917355Y-112373420D02*
X307636195Y-112373420D01*
X300066775Y-126247840D02*
X300066775Y-126529000D01*
X301086775Y-126247840D02*
X301086775Y-126529000D01*
X306479275Y-109176162D02*
X306479275Y-109650678D01*
X307524275Y-109176162D02*
X307524275Y-109650678D01*
%LPC*%
D12*
X307036775Y-128763420D03*
X306036775Y-128763420D03*
X305036775Y-128763420D03*
X307036775Y-129763420D03*
X306036775Y-129763420D03*
X305036775Y-129763420D03*
X307036775Y-130763420D03*
X306036775Y-130763420D03*
X305036775Y-130763420D03*
D13*
X270751775Y-147320000D03*
D14*
X273291775Y-147320000D03*
X275831775Y-147320000D03*
D15*
X322201775Y-148113420D03*
D16*
X322511775Y-145113420D03*
X327351775Y-145113420D03*
D15*
X327661775Y-148113420D03*
D17*
X344801775Y-145513420D03*
X344801775Y-120523420D03*
D18*
X342701775Y-128703420D03*
D19*
X342701775Y-130993420D03*
X342701775Y-133283420D03*
X342701775Y-135573420D03*
X342701775Y-137863420D03*
X344801775Y-127563420D03*
X344801775Y-129853420D03*
X344801775Y-132143420D03*
X344801775Y-134433420D03*
X344801775Y-136723420D03*
X346881775Y-128703420D03*
X346881775Y-130993420D03*
X346881775Y-133283420D03*
X346881775Y-135573420D03*
X346881775Y-137863420D03*
D13*
X256000000Y-145700000D03*
D14*
X253460000Y-145700000D03*
X256000000Y-143160000D03*
X253460000Y-143160000D03*
X256000000Y-140620000D03*
X253460000Y-140620000D03*
X256000000Y-138080000D03*
X253460000Y-138080000D03*
X256000000Y-135540000D03*
X253460000Y-135540000D03*
X256000000Y-133000000D03*
X253460000Y-133000000D03*
X256000000Y-130460000D03*
X253460000Y-130460000D03*
X256000000Y-127920000D03*
X253460000Y-127920000D03*
X256000000Y-125380000D03*
X253460000Y-125380000D03*
X256000000Y-122840000D03*
X253460000Y-122840000D03*
X256000000Y-120300000D03*
X253460000Y-120300000D03*
X256000000Y-117760000D03*
X253460000Y-117760000D03*
X256000000Y-115220000D03*
X253460000Y-115220000D03*
X256000000Y-112680000D03*
X253460000Y-112680000D03*
X256000000Y-110140000D03*
X253460000Y-110140000D03*
X256000000Y-107600000D03*
X253460000Y-107600000D03*
X256000000Y-105060000D03*
X253460000Y-105060000D03*
X256000000Y-102520000D03*
X253460000Y-102520000D03*
X256000000Y-99980000D03*
X253460000Y-99980000D03*
X256000000Y-97440000D03*
X253460000Y-97440000D03*
X256000000Y-94900000D03*
X253460000Y-94900000D03*
X256000000Y-92360000D03*
X253460000Y-92360000D03*
X256000000Y-89820000D03*
X253460000Y-89820000D03*
X256000000Y-87280000D03*
X253460000Y-87280000D03*
X256000000Y-84740000D03*
X253460000Y-84740000D03*
X256000000Y-82200000D03*
X253460000Y-82200000D03*
X256000000Y-79660000D03*
X253460000Y-79660000D03*
X256000000Y-77120000D03*
X253460000Y-77120000D03*
X256000000Y-74580000D03*
X253460000Y-74580000D03*
X256000000Y-72040000D03*
X253460000Y-72040000D03*
X256000000Y-69500000D03*
X253460000Y-69500000D03*
X256000000Y-66960000D03*
X253460000Y-66960000D03*
D20*
X344104923Y-94147153D03*
D21*
X346604923Y-94147153D03*
D13*
X344104923Y-102885885D03*
D14*
X346644923Y-102885885D03*
X344104923Y-105425885D03*
X346644923Y-105425885D03*
X344104923Y-107965885D03*
X346644923Y-107965885D03*
X344104923Y-110505885D03*
X346644923Y-110505885D03*
D13*
X329771775Y-94147153D03*
D14*
X327231775Y-94147153D03*
D22*
X342031775Y-61873420D03*
D23*
X338071775Y-61873420D03*
X334111775Y-61873420D03*
X330151775Y-61873420D03*
X326191775Y-61873420D03*
X322231775Y-61873420D03*
X318271775Y-61873420D03*
X314311775Y-61873420D03*
X310351775Y-61873420D03*
X306391775Y-61873420D03*
X302431775Y-61873420D03*
X298471775Y-61873420D03*
X294511775Y-61873420D03*
X290551775Y-61873420D03*
X286591775Y-61873420D03*
X282631775Y-61873420D03*
X278671775Y-61873420D03*
X274711775Y-61873420D03*
X270751775Y-61873420D03*
X266791775Y-61873420D03*
X262831775Y-61873420D03*
X258821775Y-61873420D03*
X342031775Y-56793420D03*
X338071775Y-56793420D03*
X334111775Y-56793420D03*
X330151775Y-56793420D03*
X326191775Y-56793420D03*
X322231775Y-56793420D03*
X318271775Y-56793420D03*
X314311775Y-56793420D03*
X310351775Y-56793420D03*
X306391775Y-56793420D03*
X302431775Y-56793420D03*
X298471775Y-56793420D03*
X294511775Y-56793420D03*
X290551775Y-56793420D03*
X286591775Y-56793420D03*
X282631775Y-56793420D03*
X278671775Y-56793420D03*
X274711775Y-56793420D03*
X270751775Y-56793420D03*
X266791775Y-56793420D03*
X262831775Y-56793420D03*
X258821775Y-56793420D03*
D24*
X342471775Y-70763420D03*
D25*
X339931775Y-70763420D03*
X337391775Y-70763420D03*
X334851775Y-70763420D03*
X332311775Y-70763420D03*
X329771775Y-70763420D03*
X327231775Y-70763420D03*
X324691775Y-70763420D03*
X322151775Y-70763420D03*
X319611775Y-70763420D03*
X317071775Y-70763420D03*
X314531775Y-70763420D03*
X311991775Y-70763420D03*
X309451775Y-70763420D03*
X306911775Y-70763420D03*
X304371775Y-70763420D03*
X301831775Y-70763420D03*
X299291775Y-70763420D03*
X296751775Y-70763420D03*
X294211775Y-70763420D03*
X294211775Y-86003420D03*
X296751775Y-86003420D03*
X299291775Y-86003420D03*
X301831775Y-86003420D03*
X304371775Y-86003420D03*
X306911775Y-86003420D03*
X309451775Y-86003420D03*
X311991775Y-86003420D03*
X314531775Y-86003420D03*
X317071775Y-86003420D03*
X319611775Y-86003420D03*
X322151775Y-86003420D03*
X324691775Y-86003420D03*
X327231775Y-86003420D03*
X329771775Y-86003420D03*
X332311775Y-86003420D03*
X334851775Y-86003420D03*
X337391775Y-86003420D03*
X339931775Y-86003420D03*
X342471775Y-86003420D03*
D26*
X329771775Y-75388420D03*
X329771775Y-73738420D03*
D27*
X302686775Y-124313420D03*
X304236775Y-124313420D03*
D28*
X339931775Y-73738420D03*
X339931775Y-75388420D03*
D29*
X307101775Y-137013420D03*
D30*
X311276775Y-126013420D03*
X311276775Y-127563420D03*
D31*
X308920275Y-133688420D03*
X307370275Y-133688420D03*
X310926775Y-123953420D03*
X309376775Y-123953420D03*
D32*
X300576775Y-131012901D03*
X300576775Y-129462901D03*
D28*
X296701775Y-128588420D03*
X296701775Y-130238420D03*
D30*
X300576775Y-134063420D03*
X300576775Y-135613420D03*
D32*
X311276775Y-132113420D03*
X311276775Y-130563420D03*
D31*
X326241775Y-73813420D03*
X324691775Y-73813420D03*
D27*
X289425000Y-135500000D03*
X290975000Y-135500000D03*
D26*
X334851775Y-75388420D03*
X334851775Y-73738420D03*
D27*
X304120251Y-135113420D03*
X305670251Y-135113420D03*
D32*
X302145275Y-133338420D03*
X302145275Y-131788420D03*
D33*
X328121775Y-99900000D03*
X329771775Y-99900000D03*
D29*
X309401775Y-138313420D03*
D27*
X309026775Y-136013420D03*
X310576775Y-136013420D03*
D31*
X309120275Y-126088420D03*
X307570275Y-126088420D03*
X308551775Y-111863420D03*
X307001775Y-111863420D03*
D30*
X300576775Y-125613420D03*
X300576775Y-127163420D03*
D28*
X307001775Y-108588420D03*
X307001775Y-110238420D03*
%LPD*%
M02*
