G04 #@! TF.GenerationSoftware,KiCad,Pcbnew,9.0.4*
G04 #@! TF.CreationDate,2025-10-07T17:56:47+11:00*
G04 #@! TF.ProjectId,6502_RevC,36353032-5f52-4657-9643-2e6b69636164,rev?*
G04 #@! TF.SameCoordinates,Original*
G04 #@! TF.FileFunction,Soldermask,Top*
G04 #@! TF.FilePolarity,Negative*
%FSLAX46Y46*%
G04 Gerber Fmt 4.6, Leading zero omitted, Abs format (unit mm)*
G04 Created by KiCad (PCBNEW 9.0.4) date 2025-10-07 17:56:47*
%MOMM*%
%LPD*%
G01*
G04 APERTURE LIST*
G04 Aperture macros list*
%AMRoundRect*
0 Rectangle with rounded corners*
0 $1 Rounding radius*
0 $2 $3 $4 $5 $6 $7 $8 $9 X,Y pos of 4 corners*
0 Add a 4 corners polygon primitive as box body*
4,1,4,$2,$3,$4,$5,$6,$7,$8,$9,$2,$3,0*
0 Add four circle primitives for the rounded corners*
1,1,$1+$1,$2,$3*
1,1,$1+$1,$4,$5*
1,1,$1+$1,$6,$7*
1,1,$1+$1,$8,$9*
0 Add four rect primitives between the rounded corners*
20,1,$1+$1,$2,$3,$4,$5,0*
20,1,$1+$1,$4,$5,$6,$7,0*
20,1,$1+$1,$6,$7,$8,$9,0*
20,1,$1+$1,$8,$9,$2,$3,0*%
G04 Aperture macros list end*
%ADD10RoundRect,0.200000X0.200000X0.275000X-0.200000X0.275000X-0.200000X-0.275000X0.200000X-0.275000X0*%
%ADD11R,0.220000X0.780000*%
%ADD12R,0.780000X0.220000*%
%ADD13C,0.425000*%
%ADD14R,3.400000X3.400000*%
%ADD15R,1.200000X0.400000*%
%ADD16RoundRect,0.225000X-0.225000X-0.375000X0.225000X-0.375000X0.225000X0.375000X-0.225000X0.375000X0*%
%ADD17R,1.000000X1.000000*%
%ADD18RoundRect,0.200000X0.275000X-0.200000X0.275000X0.200000X-0.275000X0.200000X-0.275000X-0.200000X0*%
%ADD19RoundRect,0.100000X0.100000X-0.225000X0.100000X0.225000X-0.100000X0.225000X-0.100000X-0.225000X0*%
%ADD20R,0.950000X1.400000*%
%ADD21R,1.700000X1.700000*%
%ADD22C,1.700000*%
%ADD23RoundRect,0.150000X0.512500X0.150000X-0.512500X0.150000X-0.512500X-0.150000X0.512500X-0.150000X0*%
%ADD24RoundRect,0.225000X0.225000X0.250000X-0.225000X0.250000X-0.225000X-0.250000X0.225000X-0.250000X0*%
%ADD25RoundRect,0.250000X0.350000X-0.450000X0.350000X0.450000X-0.350000X0.450000X-0.350000X-0.450000X0*%
%ADD26RoundRect,0.225000X-0.225000X-0.250000X0.225000X-0.250000X0.225000X0.250000X-0.225000X0.250000X0*%
%ADD27RoundRect,0.225000X-0.250000X0.225000X-0.250000X-0.225000X0.250000X-0.225000X0.250000X0.225000X0*%
%ADD28RoundRect,0.150000X-0.150000X0.650000X-0.150000X-0.650000X0.150000X-0.650000X0.150000X0.650000X0*%
%ADD29R,0.400000X1.650000*%
%ADD30R,1.825000X0.700000*%
%ADD31R,2.000000X1.500000*%
%ADD32R,1.350000X2.000000*%
%ADD33O,1.350000X1.700000*%
%ADD34O,1.100000X1.500000*%
%ADD35R,1.430000X2.500000*%
%ADD36C,4.770000*%
%ADD37R,1.785000X1.785000*%
%ADD38C,1.785000*%
%ADD39RoundRect,0.200000X-0.275000X0.200000X-0.275000X-0.200000X0.275000X-0.200000X0.275000X0.200000X0*%
%ADD40RoundRect,0.250000X-0.550000X-0.550000X0.550000X-0.550000X0.550000X0.550000X-0.550000X0.550000X0*%
%ADD41C,1.600000*%
%ADD42RoundRect,0.375000X-0.625000X-0.375000X0.625000X-0.375000X0.625000X0.375000X-0.625000X0.375000X0*%
%ADD43RoundRect,0.500000X-0.500000X-1.400000X0.500000X-1.400000X0.500000X1.400000X-0.500000X1.400000X0*%
%ADD44RoundRect,0.100000X-0.637500X-0.100000X0.637500X-0.100000X0.637500X0.100000X-0.637500X0.100000X0*%
%ADD45RoundRect,0.200000X-0.200000X-0.275000X0.200000X-0.275000X0.200000X0.275000X-0.200000X0.275000X0*%
%ADD46R,2.130000X2.130000*%
%ADD47C,2.130000*%
%ADD48RoundRect,0.250000X-0.475000X0.250000X-0.475000X-0.250000X0.475000X-0.250000X0.475000X0.250000X0*%
%ADD49RoundRect,0.100000X-0.100000X0.637500X-0.100000X-0.637500X0.100000X-0.637500X0.100000X0.637500X0*%
%ADD50R,1.700000X2.400000*%
%ADD51O,1.700000X2.400000*%
%ADD52RoundRect,0.075000X-0.700000X-0.075000X0.700000X-0.075000X0.700000X0.075000X-0.700000X0.075000X0*%
G04 APERTURE END LIST*
D10*
X338126775Y-130993420D03*
X336476775Y-130993420D03*
D11*
X309836775Y-124866920D03*
X309436775Y-124866920D03*
X309036775Y-124866920D03*
X308636775Y-124866920D03*
X308236775Y-124866920D03*
X307836775Y-124866920D03*
X307436775Y-124866920D03*
X307036775Y-124866920D03*
X306636775Y-124866920D03*
X306236775Y-124866920D03*
X305836775Y-124866920D03*
X305436775Y-124866920D03*
X305036775Y-124866920D03*
X304636775Y-124866920D03*
X304236775Y-124866920D03*
X303836775Y-124866920D03*
X303436775Y-124866920D03*
X303036775Y-124866920D03*
X302636775Y-124866920D03*
X302236775Y-124866920D03*
D12*
X301140275Y-125963420D03*
X301140275Y-126363420D03*
X301140275Y-126763420D03*
X301140275Y-127163420D03*
X301140275Y-127563420D03*
X301140275Y-127963420D03*
X301140275Y-128363420D03*
X301140275Y-128763420D03*
X301140275Y-129163420D03*
X301140275Y-129563420D03*
X301140275Y-129963420D03*
X301140275Y-130363420D03*
X301140275Y-130763420D03*
X301140275Y-131163420D03*
X301140275Y-131563420D03*
X301140275Y-131963420D03*
X301140275Y-132363420D03*
X301140275Y-132763420D03*
X301140275Y-133163420D03*
X301140275Y-133563420D03*
D11*
X302236775Y-134659920D03*
X302636775Y-134659920D03*
X303036775Y-134659920D03*
X303436775Y-134659920D03*
X303836775Y-134659920D03*
X304236775Y-134659920D03*
X304636775Y-134659920D03*
X305036775Y-134659920D03*
X305436775Y-134659920D03*
X305836775Y-134659920D03*
X306236775Y-134659920D03*
X306636775Y-134659920D03*
X307036775Y-134659920D03*
X307436775Y-134659920D03*
X307836775Y-134659920D03*
X308236775Y-134659920D03*
X308636775Y-134659920D03*
X309036775Y-134659920D03*
X309436775Y-134659920D03*
X309836775Y-134659920D03*
D12*
X310933275Y-133563420D03*
X310933275Y-133163420D03*
X310933275Y-132763420D03*
X310933275Y-132363420D03*
X310933275Y-131963420D03*
X310933275Y-131563420D03*
X310933275Y-131163420D03*
X310933275Y-130763420D03*
X310933275Y-130363420D03*
X310933275Y-129963420D03*
X310933275Y-129563420D03*
X310933275Y-129163420D03*
X310933275Y-128763420D03*
X310933275Y-128363420D03*
X310933275Y-127963420D03*
X310933275Y-127563420D03*
X310933275Y-127163420D03*
X310933275Y-126763420D03*
X310933275Y-126363420D03*
X310933275Y-125963420D03*
D13*
X307036775Y-128763420D03*
X306036775Y-128763420D03*
X305036775Y-128763420D03*
X307036775Y-129763420D03*
X306036775Y-129763420D03*
D14*
X306036775Y-129763420D03*
D13*
X305036775Y-129763420D03*
X307036775Y-130763420D03*
X306036775Y-130763420D03*
X305036775Y-130763420D03*
D15*
X285600000Y-135915000D03*
X285600000Y-136550000D03*
X285600000Y-137185000D03*
X285600000Y-137820000D03*
X285600000Y-138455000D03*
X285600000Y-139090000D03*
X285600000Y-139725000D03*
X285600000Y-140360000D03*
X285600000Y-140995000D03*
X285600000Y-141630000D03*
X285600000Y-142265000D03*
X285600000Y-142900000D03*
X290800000Y-142900000D03*
X290800000Y-142265000D03*
X290800000Y-141630000D03*
X290800000Y-140995000D03*
X290800000Y-140360000D03*
X290800000Y-139725000D03*
X290800000Y-139090000D03*
X290800000Y-138455000D03*
X290800000Y-137820000D03*
X290800000Y-137185000D03*
X290800000Y-136550000D03*
X290800000Y-135915000D03*
D16*
X332694923Y-115185885D03*
X335994923Y-115185885D03*
D17*
X308451775Y-140213420D03*
D18*
X348094923Y-73510885D03*
X348094923Y-71860885D03*
D19*
X285550000Y-114311250D03*
X286200000Y-114311250D03*
X286850000Y-114311250D03*
X286850000Y-112411250D03*
X285550000Y-112411250D03*
D20*
X348094923Y-67585885D03*
X346194923Y-67585885D03*
D21*
X270751775Y-147320000D03*
D22*
X273291775Y-147320000D03*
X275831775Y-147320000D03*
D23*
X313027907Y-144084222D03*
X313027907Y-143134222D03*
X313027907Y-142184222D03*
X310752907Y-142184222D03*
X310752907Y-144084222D03*
D24*
X315010275Y-134213420D03*
X313460275Y-134213420D03*
D18*
X322689275Y-103425920D03*
X322689275Y-101775920D03*
D10*
X333226775Y-124813420D03*
X331576775Y-124813420D03*
D25*
X295801775Y-129113420D03*
X295801775Y-126713420D03*
X293901775Y-126713420D03*
X293901775Y-129113420D03*
D26*
X267750000Y-130100000D03*
X269300000Y-130100000D03*
D27*
X331401775Y-130463420D03*
X331401775Y-132013420D03*
D10*
X338126775Y-128703420D03*
X336476775Y-128703420D03*
D28*
X329306775Y-124813420D03*
X328036775Y-124813420D03*
X326766775Y-124813420D03*
X325496775Y-124813420D03*
X325496775Y-132013420D03*
X326766775Y-132013420D03*
X328036775Y-132013420D03*
X329306775Y-132013420D03*
D29*
X323631775Y-145233420D03*
X324281775Y-145233420D03*
X324931775Y-145233420D03*
X325581775Y-145233420D03*
X326231775Y-145233420D03*
D30*
X321981775Y-146433420D03*
D31*
X322081775Y-145133420D03*
D32*
X322201775Y-147183420D03*
D33*
X322201775Y-148113420D03*
D34*
X322511775Y-145113420D03*
D35*
X323971775Y-148383420D03*
X325891775Y-148383420D03*
D34*
X327351775Y-145113420D03*
D33*
X327661775Y-148113420D03*
D32*
X327681775Y-147183420D03*
D31*
X327831775Y-145113420D03*
D30*
X327931775Y-146433420D03*
D18*
X313460275Y-137638420D03*
X313460275Y-135988420D03*
D36*
X344801775Y-145513420D03*
X344801775Y-120523420D03*
D37*
X342701775Y-128703420D03*
D38*
X342701775Y-130993420D03*
X342701775Y-133283420D03*
X342701775Y-135573420D03*
X342701775Y-137863420D03*
X344801775Y-127563420D03*
X344801775Y-129853420D03*
X344801775Y-132143420D03*
X344801775Y-134433420D03*
X344801775Y-136723420D03*
X346881775Y-128703420D03*
X346881775Y-130993420D03*
X346881775Y-133283420D03*
X346881775Y-135573420D03*
X346881775Y-137863420D03*
D21*
X256000000Y-145700000D03*
D22*
X253460000Y-145700000D03*
X256000000Y-143160000D03*
X253460000Y-143160000D03*
X256000000Y-140620000D03*
X253460000Y-140620000D03*
X256000000Y-138080000D03*
X253460000Y-138080000D03*
X256000000Y-135540000D03*
X253460000Y-135540000D03*
X256000000Y-133000000D03*
X253460000Y-133000000D03*
X256000000Y-130460000D03*
X253460000Y-130460000D03*
X256000000Y-127920000D03*
X253460000Y-127920000D03*
X256000000Y-125380000D03*
X253460000Y-125380000D03*
X256000000Y-122840000D03*
X253460000Y-122840000D03*
X256000000Y-120300000D03*
X253460000Y-120300000D03*
X256000000Y-117760000D03*
X253460000Y-117760000D03*
X256000000Y-115220000D03*
X253460000Y-115220000D03*
X256000000Y-112680000D03*
X253460000Y-112680000D03*
X256000000Y-110140000D03*
X253460000Y-110140000D03*
X256000000Y-107600000D03*
X253460000Y-107600000D03*
X256000000Y-105060000D03*
X253460000Y-105060000D03*
X256000000Y-102520000D03*
X253460000Y-102520000D03*
X256000000Y-99980000D03*
X253460000Y-99980000D03*
X256000000Y-97440000D03*
X253460000Y-97440000D03*
X256000000Y-94900000D03*
X253460000Y-94900000D03*
X256000000Y-92360000D03*
X253460000Y-92360000D03*
X256000000Y-89820000D03*
X253460000Y-89820000D03*
X256000000Y-87280000D03*
X253460000Y-87280000D03*
X256000000Y-84740000D03*
X253460000Y-84740000D03*
X256000000Y-82200000D03*
X253460000Y-82200000D03*
X256000000Y-79660000D03*
X253460000Y-79660000D03*
X256000000Y-77120000D03*
X253460000Y-77120000D03*
X256000000Y-74580000D03*
X253460000Y-74580000D03*
X256000000Y-72040000D03*
X253460000Y-72040000D03*
X256000000Y-69500000D03*
X253460000Y-69500000D03*
X256000000Y-66960000D03*
X253460000Y-66960000D03*
D39*
X297901775Y-128288420D03*
X297901775Y-129938420D03*
D40*
X344104923Y-94147153D03*
D41*
X346604923Y-94147153D03*
D21*
X344104923Y-102885885D03*
D22*
X346644923Y-102885885D03*
X344104923Y-105425885D03*
X346644923Y-105425885D03*
X344104923Y-107965885D03*
X346644923Y-107965885D03*
X344104923Y-110505885D03*
X346644923Y-110505885D03*
D42*
X332694923Y-103685885D03*
X332694923Y-105985885D03*
D43*
X338994923Y-105985885D03*
D42*
X332694923Y-108285885D03*
D27*
X283652500Y-110861250D03*
X283652500Y-112411250D03*
D18*
X295600000Y-115825000D03*
X295600000Y-114175000D03*
D21*
X329771775Y-94147153D03*
D22*
X327231775Y-94147153D03*
D44*
X264737500Y-131725000D03*
X264737500Y-132375000D03*
X264737500Y-133025000D03*
X264737500Y-133675000D03*
X264737500Y-134325000D03*
X264737500Y-134975000D03*
X264737500Y-135625000D03*
X264737500Y-136275000D03*
X264737500Y-136925000D03*
X264737500Y-137575000D03*
X270462500Y-137575000D03*
X270462500Y-136925000D03*
X270462500Y-136275000D03*
X270462500Y-135625000D03*
X270462500Y-134975000D03*
X270462500Y-134325000D03*
X270462500Y-133675000D03*
X270462500Y-133025000D03*
X270462500Y-132375000D03*
X270462500Y-131725000D03*
D27*
X305289275Y-101825920D03*
X305289275Y-103375920D03*
D45*
X285337500Y-110581250D03*
X286987500Y-110581250D03*
D18*
X308189275Y-103425920D03*
X308189275Y-101775920D03*
D46*
X342031775Y-61873420D03*
D47*
X338071775Y-61873420D03*
X334111775Y-61873420D03*
X330151775Y-61873420D03*
X326191775Y-61873420D03*
X322231775Y-61873420D03*
X318271775Y-61873420D03*
X314311775Y-61873420D03*
X310351775Y-61873420D03*
X306391775Y-61873420D03*
X302431775Y-61873420D03*
X298471775Y-61873420D03*
X294511775Y-61873420D03*
X290551775Y-61873420D03*
X286591775Y-61873420D03*
X282631775Y-61873420D03*
X278671775Y-61873420D03*
X274711775Y-61873420D03*
X270751775Y-61873420D03*
X266791775Y-61873420D03*
X262831775Y-61873420D03*
X258821775Y-61873420D03*
X342031775Y-56793420D03*
X338071775Y-56793420D03*
X334111775Y-56793420D03*
X330151775Y-56793420D03*
X326191775Y-56793420D03*
X322231775Y-56793420D03*
X318271775Y-56793420D03*
X314311775Y-56793420D03*
X310351775Y-56793420D03*
X306391775Y-56793420D03*
X302431775Y-56793420D03*
X298471775Y-56793420D03*
X294511775Y-56793420D03*
X290551775Y-56793420D03*
X286591775Y-56793420D03*
X282631775Y-56793420D03*
X278671775Y-56793420D03*
X274711775Y-56793420D03*
X270751775Y-56793420D03*
X266791775Y-56793420D03*
X262831775Y-56793420D03*
X258821775Y-56793420D03*
D45*
X337391775Y-90085885D03*
X339041775Y-90085885D03*
D24*
X334244923Y-111785885D03*
X332694923Y-111785885D03*
D48*
X328944923Y-103835885D03*
X328944923Y-105735885D03*
D49*
X317894275Y-97650920D03*
X317244275Y-97650920D03*
X316594275Y-97650920D03*
X315944275Y-97650920D03*
X315294275Y-97650920D03*
X314644275Y-97650920D03*
X313994275Y-97650920D03*
X313344275Y-97650920D03*
X312694275Y-97650920D03*
X312044275Y-97650920D03*
X312044275Y-103375920D03*
X312694275Y-103375920D03*
X313344275Y-103375920D03*
X313994275Y-103375920D03*
X314644275Y-103375920D03*
X315294275Y-103375920D03*
X315944275Y-103375920D03*
X316594275Y-103375920D03*
X317244275Y-103375920D03*
X317894275Y-103375920D03*
D24*
X295451775Y-124613420D03*
X293901775Y-124613420D03*
D50*
X342471775Y-70763420D03*
D51*
X339931775Y-70763420D03*
X337391775Y-70763420D03*
X334851775Y-70763420D03*
X332311775Y-70763420D03*
X329771775Y-70763420D03*
X327231775Y-70763420D03*
X324691775Y-70763420D03*
X322151775Y-70763420D03*
X319611775Y-70763420D03*
X317071775Y-70763420D03*
X314531775Y-70763420D03*
X311991775Y-70763420D03*
X309451775Y-70763420D03*
X306911775Y-70763420D03*
X304371775Y-70763420D03*
X301831775Y-70763420D03*
X299291775Y-70763420D03*
X296751775Y-70763420D03*
X294211775Y-70763420D03*
X294211775Y-86003420D03*
X296751775Y-86003420D03*
X299291775Y-86003420D03*
X301831775Y-86003420D03*
X304371775Y-86003420D03*
X306911775Y-86003420D03*
X309451775Y-86003420D03*
X311991775Y-86003420D03*
X314531775Y-86003420D03*
X317071775Y-86003420D03*
X319611775Y-86003420D03*
X322151775Y-86003420D03*
X324691775Y-86003420D03*
X327231775Y-86003420D03*
X329771775Y-86003420D03*
X332311775Y-86003420D03*
X334851775Y-86003420D03*
X337391775Y-86003420D03*
X339931775Y-86003420D03*
X342471775Y-86003420D03*
D45*
X313460275Y-130588420D03*
X315110275Y-130588420D03*
D26*
X294251775Y-131213420D03*
X295801775Y-131213420D03*
D17*
X309351775Y-138213420D03*
D49*
X303289275Y-97650920D03*
X302639275Y-97650920D03*
X301989275Y-97650920D03*
X301339275Y-97650920D03*
X300689275Y-97650920D03*
X300039275Y-97650920D03*
X299389275Y-97650920D03*
X298739275Y-97650920D03*
X298089275Y-97650920D03*
X297439275Y-97650920D03*
X297439275Y-103375920D03*
X298089275Y-103375920D03*
X298739275Y-103375920D03*
X299389275Y-103375920D03*
X300039275Y-103375920D03*
X300689275Y-103375920D03*
X301339275Y-103375920D03*
X301989275Y-103375920D03*
X302639275Y-103375920D03*
X303289275Y-103375920D03*
D17*
X289100000Y-113200000D03*
D45*
X313460275Y-132188420D03*
X315110275Y-132188420D03*
D27*
X319894275Y-101825920D03*
X319894275Y-103375920D03*
X315357557Y-142534222D03*
X315357557Y-144084222D03*
X308390407Y-142534222D03*
X308390407Y-144084222D03*
D17*
X310451775Y-140213420D03*
D52*
X304305000Y-108360000D03*
X304305000Y-108860000D03*
X304305000Y-109360000D03*
X304305000Y-109860000D03*
X304305000Y-110360000D03*
X304305000Y-110860000D03*
X304305000Y-111360000D03*
X304305000Y-111860000D03*
X304305000Y-112360000D03*
X304305000Y-112860000D03*
X304305000Y-113360000D03*
X304305000Y-113860000D03*
X304305000Y-114360000D03*
X304305000Y-114860000D03*
X304305000Y-115360000D03*
X304305000Y-115860000D03*
X317155000Y-115860000D03*
X317155000Y-115360000D03*
X317155000Y-114860000D03*
X317155000Y-114360000D03*
X317155000Y-113860000D03*
X317155000Y-113360000D03*
X317155000Y-112860000D03*
X317155000Y-112360000D03*
X317155000Y-111860000D03*
X317155000Y-111360000D03*
X317155000Y-110860000D03*
X317155000Y-110360000D03*
X317155000Y-109860000D03*
X317155000Y-109360000D03*
X317155000Y-108860000D03*
X317155000Y-108360000D03*
D10*
X338126775Y-133283420D03*
X336476775Y-133283420D03*
M02*
