G04 #@! TF.GenerationSoftware,KiCad,Pcbnew,9.0.3*
G04 #@! TF.CreationDate,2025-08-04T13:50:30+10:00*
G04 #@! TF.ProjectId,VideoFPGA_RevB,56696465-6f46-4504-9741-5f526576422e,rev?*
G04 #@! TF.SameCoordinates,Original*
G04 #@! TF.FileFunction,Legend,Bot*
G04 #@! TF.FilePolarity,Positive*
%FSLAX46Y46*%
G04 Gerber Fmt 4.6, Leading zero omitted, Abs format (unit mm)*
G04 Created by KiCad (PCBNEW 9.0.3) date 2025-08-04 13:50:30*
%MOMM*%
%LPD*%
G01*
G04 APERTURE LIST*
G04 Aperture macros list*
%AMRoundRect*
0 Rectangle with rounded corners*
0 $1 Rounding radius*
0 $2 $3 $4 $5 $6 $7 $8 $9 X,Y pos of 4 corners*
0 Add a 4 corners polygon primitive as box body*
4,1,4,$2,$3,$4,$5,$6,$7,$8,$9,$2,$3,0*
0 Add four circle primitives for the rounded corners*
1,1,$1+$1,$2,$3*
1,1,$1+$1,$4,$5*
1,1,$1+$1,$6,$7*
1,1,$1+$1,$8,$9*
0 Add four rect primitives between the rounded corners*
20,1,$1+$1,$2,$3,$4,$5,0*
20,1,$1+$1,$4,$5,$6,$7,0*
20,1,$1+$1,$6,$7,$8,$9,0*
20,1,$1+$1,$8,$9,$2,$3,0*%
G04 Aperture macros list end*
%ADD10C,0.150000*%
%ADD11C,0.120000*%
%ADD12R,1.700000X1.700000*%
%ADD13C,1.700000*%
%ADD14C,1.995000*%
%ADD15C,0.700000*%
%ADD16O,1.700000X1.350000*%
%ADD17O,1.500000X1.100000*%
%ADD18C,1.440000*%
%ADD19RoundRect,0.250000X0.550000X-0.550000X0.550000X0.550000X-0.550000X0.550000X-0.550000X-0.550000X0*%
%ADD20C,1.600000*%
%ADD21R,2.400000X1.700000*%
%ADD22O,2.400000X1.700000*%
%ADD23C,3.000000*%
%ADD24RoundRect,0.200000X-0.200000X-0.275000X0.200000X-0.275000X0.200000X0.275000X-0.200000X0.275000X0*%
%ADD25RoundRect,0.225000X0.250000X-0.225000X0.250000X0.225000X-0.250000X0.225000X-0.250000X-0.225000X0*%
%ADD26RoundRect,0.200000X-0.275000X0.200000X-0.275000X-0.200000X0.275000X-0.200000X0.275000X0.200000X0*%
%ADD27RoundRect,0.225000X-0.225000X-0.250000X0.225000X-0.250000X0.225000X0.250000X-0.225000X0.250000X0*%
%ADD28RoundRect,0.200000X0.275000X-0.200000X0.275000X0.200000X-0.275000X0.200000X-0.275000X-0.200000X0*%
%ADD29RoundRect,0.150000X0.587500X0.150000X-0.587500X0.150000X-0.587500X-0.150000X0.587500X-0.150000X0*%
%ADD30RoundRect,0.225000X-0.250000X0.225000X-0.250000X-0.225000X0.250000X-0.225000X0.250000X0.225000X0*%
%ADD31RoundRect,0.200000X0.200000X0.275000X-0.200000X0.275000X-0.200000X-0.275000X0.200000X-0.275000X0*%
%ADD32RoundRect,0.225000X0.225000X0.250000X-0.225000X0.250000X-0.225000X-0.250000X0.225000X-0.250000X0*%
%ADD33RoundRect,0.250000X-0.250000X-0.475000X0.250000X-0.475000X0.250000X0.475000X-0.250000X0.475000X0*%
%ADD34RoundRect,0.250000X0.250000X0.475000X-0.250000X0.475000X-0.250000X-0.475000X0.250000X-0.475000X0*%
%ADD35RoundRect,0.225000X-0.225000X-0.375000X0.225000X-0.375000X0.225000X0.375000X-0.225000X0.375000X0*%
G04 APERTURE END LIST*
D10*
X226442857Y-62704819D02*
X226776190Y-62228628D01*
X227014285Y-62704819D02*
X227014285Y-61704819D01*
X227014285Y-61704819D02*
X226633333Y-61704819D01*
X226633333Y-61704819D02*
X226538095Y-61752438D01*
X226538095Y-61752438D02*
X226490476Y-61800057D01*
X226490476Y-61800057D02*
X226442857Y-61895295D01*
X226442857Y-61895295D02*
X226442857Y-62038152D01*
X226442857Y-62038152D02*
X226490476Y-62133390D01*
X226490476Y-62133390D02*
X226538095Y-62181009D01*
X226538095Y-62181009D02*
X226633333Y-62228628D01*
X226633333Y-62228628D02*
X227014285Y-62228628D01*
X225490476Y-62704819D02*
X226061904Y-62704819D01*
X225776190Y-62704819D02*
X225776190Y-61704819D01*
X225776190Y-61704819D02*
X225871428Y-61847676D01*
X225871428Y-61847676D02*
X225966666Y-61942914D01*
X225966666Y-61942914D02*
X226061904Y-61990533D01*
X224633333Y-62038152D02*
X224633333Y-62704819D01*
X224871428Y-61657200D02*
X225109523Y-62371485D01*
X225109523Y-62371485D02*
X224490476Y-62371485D01*
X226966666Y-58940057D02*
X226919047Y-58892438D01*
X226919047Y-58892438D02*
X226823809Y-58844819D01*
X226823809Y-58844819D02*
X226585714Y-58844819D01*
X226585714Y-58844819D02*
X226490476Y-58892438D01*
X226490476Y-58892438D02*
X226442857Y-58940057D01*
X226442857Y-58940057D02*
X226395238Y-59035295D01*
X226395238Y-59035295D02*
X226395238Y-59130533D01*
X226395238Y-59130533D02*
X226442857Y-59273390D01*
X226442857Y-59273390D02*
X227014285Y-59844819D01*
X227014285Y-59844819D02*
X226395238Y-59844819D01*
X225966666Y-59844819D02*
X225966666Y-58844819D01*
X225871428Y-59463866D02*
X225585714Y-59844819D01*
X225585714Y-59178152D02*
X225966666Y-59559104D01*
X224728571Y-59178152D02*
X224728571Y-59844819D01*
X224966666Y-58797200D02*
X225204761Y-59511485D01*
X225204761Y-59511485D02*
X224585714Y-59511485D01*
X242730193Y-102319642D02*
X242777813Y-102272023D01*
X242777813Y-102272023D02*
X242825432Y-102129166D01*
X242825432Y-102129166D02*
X242825432Y-102033928D01*
X242825432Y-102033928D02*
X242777813Y-101891071D01*
X242777813Y-101891071D02*
X242682574Y-101795833D01*
X242682574Y-101795833D02*
X242587336Y-101748214D01*
X242587336Y-101748214D02*
X242396860Y-101700595D01*
X242396860Y-101700595D02*
X242254003Y-101700595D01*
X242254003Y-101700595D02*
X242063527Y-101748214D01*
X242063527Y-101748214D02*
X241968289Y-101795833D01*
X241968289Y-101795833D02*
X241873051Y-101891071D01*
X241873051Y-101891071D02*
X241825432Y-102033928D01*
X241825432Y-102033928D02*
X241825432Y-102129166D01*
X241825432Y-102129166D02*
X241873051Y-102272023D01*
X241873051Y-102272023D02*
X241920670Y-102319642D01*
X241920670Y-102700595D02*
X241873051Y-102748214D01*
X241873051Y-102748214D02*
X241825432Y-102843452D01*
X241825432Y-102843452D02*
X241825432Y-103081547D01*
X241825432Y-103081547D02*
X241873051Y-103176785D01*
X241873051Y-103176785D02*
X241920670Y-103224404D01*
X241920670Y-103224404D02*
X242015908Y-103272023D01*
X242015908Y-103272023D02*
X242111146Y-103272023D01*
X242111146Y-103272023D02*
X242254003Y-103224404D01*
X242254003Y-103224404D02*
X242825432Y-102652976D01*
X242825432Y-102652976D02*
X242825432Y-103272023D01*
X242825432Y-104224404D02*
X242825432Y-103652976D01*
X242825432Y-103938690D02*
X241825432Y-103938690D01*
X241825432Y-103938690D02*
X241968289Y-103843452D01*
X241968289Y-103843452D02*
X242063527Y-103748214D01*
X242063527Y-103748214D02*
X242111146Y-103652976D01*
X174954819Y-145407142D02*
X174478628Y-145073809D01*
X174954819Y-144835714D02*
X173954819Y-144835714D01*
X173954819Y-144835714D02*
X173954819Y-145216666D01*
X173954819Y-145216666D02*
X174002438Y-145311904D01*
X174002438Y-145311904D02*
X174050057Y-145359523D01*
X174050057Y-145359523D02*
X174145295Y-145407142D01*
X174145295Y-145407142D02*
X174288152Y-145407142D01*
X174288152Y-145407142D02*
X174383390Y-145359523D01*
X174383390Y-145359523D02*
X174431009Y-145311904D01*
X174431009Y-145311904D02*
X174478628Y-145216666D01*
X174478628Y-145216666D02*
X174478628Y-144835714D01*
X174954819Y-146359523D02*
X174954819Y-145788095D01*
X174954819Y-146073809D02*
X173954819Y-146073809D01*
X173954819Y-146073809D02*
X174097676Y-145978571D01*
X174097676Y-145978571D02*
X174192914Y-145883333D01*
X174192914Y-145883333D02*
X174240533Y-145788095D01*
X173954819Y-146692857D02*
X173954819Y-147359523D01*
X173954819Y-147359523D02*
X174954819Y-146930952D01*
X176454819Y-142915952D02*
X176454819Y-142344524D01*
X176454819Y-142630238D02*
X175454819Y-142630238D01*
X175454819Y-142630238D02*
X175597676Y-142535000D01*
X175597676Y-142535000D02*
X175692914Y-142439762D01*
X175692914Y-142439762D02*
X175740533Y-142344524D01*
X176454819Y-143344524D02*
X175454819Y-143344524D01*
X176073866Y-143439762D02*
X176454819Y-143725476D01*
X175788152Y-143725476D02*
X176169104Y-143344524D01*
X208966666Y-110909580D02*
X209014285Y-110957200D01*
X209014285Y-110957200D02*
X209157142Y-111004819D01*
X209157142Y-111004819D02*
X209252380Y-111004819D01*
X209252380Y-111004819D02*
X209395237Y-110957200D01*
X209395237Y-110957200D02*
X209490475Y-110861961D01*
X209490475Y-110861961D02*
X209538094Y-110766723D01*
X209538094Y-110766723D02*
X209585713Y-110576247D01*
X209585713Y-110576247D02*
X209585713Y-110433390D01*
X209585713Y-110433390D02*
X209538094Y-110242914D01*
X209538094Y-110242914D02*
X209490475Y-110147676D01*
X209490475Y-110147676D02*
X209395237Y-110052438D01*
X209395237Y-110052438D02*
X209252380Y-110004819D01*
X209252380Y-110004819D02*
X209157142Y-110004819D01*
X209157142Y-110004819D02*
X209014285Y-110052438D01*
X209014285Y-110052438D02*
X208966666Y-110100057D01*
X208395237Y-110433390D02*
X208490475Y-110385771D01*
X208490475Y-110385771D02*
X208538094Y-110338152D01*
X208538094Y-110338152D02*
X208585713Y-110242914D01*
X208585713Y-110242914D02*
X208585713Y-110195295D01*
X208585713Y-110195295D02*
X208538094Y-110100057D01*
X208538094Y-110100057D02*
X208490475Y-110052438D01*
X208490475Y-110052438D02*
X208395237Y-110004819D01*
X208395237Y-110004819D02*
X208204761Y-110004819D01*
X208204761Y-110004819D02*
X208109523Y-110052438D01*
X208109523Y-110052438D02*
X208061904Y-110100057D01*
X208061904Y-110100057D02*
X208014285Y-110195295D01*
X208014285Y-110195295D02*
X208014285Y-110242914D01*
X208014285Y-110242914D02*
X208061904Y-110338152D01*
X208061904Y-110338152D02*
X208109523Y-110385771D01*
X208109523Y-110385771D02*
X208204761Y-110433390D01*
X208204761Y-110433390D02*
X208395237Y-110433390D01*
X208395237Y-110433390D02*
X208490475Y-110481009D01*
X208490475Y-110481009D02*
X208538094Y-110528628D01*
X208538094Y-110528628D02*
X208585713Y-110623866D01*
X208585713Y-110623866D02*
X208585713Y-110814342D01*
X208585713Y-110814342D02*
X208538094Y-110909580D01*
X208538094Y-110909580D02*
X208490475Y-110957200D01*
X208490475Y-110957200D02*
X208395237Y-111004819D01*
X208395237Y-111004819D02*
X208204761Y-111004819D01*
X208204761Y-111004819D02*
X208109523Y-110957200D01*
X208109523Y-110957200D02*
X208061904Y-110909580D01*
X208061904Y-110909580D02*
X208014285Y-110814342D01*
X208014285Y-110814342D02*
X208014285Y-110623866D01*
X208014285Y-110623866D02*
X208061904Y-110528628D01*
X208061904Y-110528628D02*
X208109523Y-110481009D01*
X208109523Y-110481009D02*
X208204761Y-110433390D01*
X198704819Y-134633333D02*
X198228628Y-134300000D01*
X198704819Y-134061905D02*
X197704819Y-134061905D01*
X197704819Y-134061905D02*
X197704819Y-134442857D01*
X197704819Y-134442857D02*
X197752438Y-134538095D01*
X197752438Y-134538095D02*
X197800057Y-134585714D01*
X197800057Y-134585714D02*
X197895295Y-134633333D01*
X197895295Y-134633333D02*
X198038152Y-134633333D01*
X198038152Y-134633333D02*
X198133390Y-134585714D01*
X198133390Y-134585714D02*
X198181009Y-134538095D01*
X198181009Y-134538095D02*
X198228628Y-134442857D01*
X198228628Y-134442857D02*
X198228628Y-134061905D01*
X197704819Y-134966667D02*
X197704819Y-135633333D01*
X197704819Y-135633333D02*
X198704819Y-135204762D01*
X201754819Y-134233333D02*
X201754819Y-133661905D01*
X201754819Y-133947619D02*
X200754819Y-133947619D01*
X200754819Y-133947619D02*
X200897676Y-133852381D01*
X200897676Y-133852381D02*
X200992914Y-133757143D01*
X200992914Y-133757143D02*
X201040533Y-133661905D01*
X200754819Y-134852381D02*
X200754819Y-134947619D01*
X200754819Y-134947619D02*
X200802438Y-135042857D01*
X200802438Y-135042857D02*
X200850057Y-135090476D01*
X200850057Y-135090476D02*
X200945295Y-135138095D01*
X200945295Y-135138095D02*
X201135771Y-135185714D01*
X201135771Y-135185714D02*
X201373866Y-135185714D01*
X201373866Y-135185714D02*
X201564342Y-135138095D01*
X201564342Y-135138095D02*
X201659580Y-135090476D01*
X201659580Y-135090476D02*
X201707200Y-135042857D01*
X201707200Y-135042857D02*
X201754819Y-134947619D01*
X201754819Y-134947619D02*
X201754819Y-134852381D01*
X201754819Y-134852381D02*
X201707200Y-134757143D01*
X201707200Y-134757143D02*
X201659580Y-134709524D01*
X201659580Y-134709524D02*
X201564342Y-134661905D01*
X201564342Y-134661905D02*
X201373866Y-134614286D01*
X201373866Y-134614286D02*
X201135771Y-134614286D01*
X201135771Y-134614286D02*
X200945295Y-134661905D01*
X200945295Y-134661905D02*
X200850057Y-134709524D01*
X200850057Y-134709524D02*
X200802438Y-134757143D01*
X200802438Y-134757143D02*
X200754819Y-134852381D01*
X200754819Y-135804762D02*
X200754819Y-135900000D01*
X200754819Y-135900000D02*
X200802438Y-135995238D01*
X200802438Y-135995238D02*
X200850057Y-136042857D01*
X200850057Y-136042857D02*
X200945295Y-136090476D01*
X200945295Y-136090476D02*
X201135771Y-136138095D01*
X201135771Y-136138095D02*
X201373866Y-136138095D01*
X201373866Y-136138095D02*
X201564342Y-136090476D01*
X201564342Y-136090476D02*
X201659580Y-136042857D01*
X201659580Y-136042857D02*
X201707200Y-135995238D01*
X201707200Y-135995238D02*
X201754819Y-135900000D01*
X201754819Y-135900000D02*
X201754819Y-135804762D01*
X201754819Y-135804762D02*
X201707200Y-135709524D01*
X201707200Y-135709524D02*
X201659580Y-135661905D01*
X201659580Y-135661905D02*
X201564342Y-135614286D01*
X201564342Y-135614286D02*
X201373866Y-135566667D01*
X201373866Y-135566667D02*
X201135771Y-135566667D01*
X201135771Y-135566667D02*
X200945295Y-135614286D01*
X200945295Y-135614286D02*
X200850057Y-135661905D01*
X200850057Y-135661905D02*
X200802438Y-135709524D01*
X200802438Y-135709524D02*
X200754819Y-135804762D01*
X190166666Y-126309580D02*
X190214285Y-126357200D01*
X190214285Y-126357200D02*
X190357142Y-126404819D01*
X190357142Y-126404819D02*
X190452380Y-126404819D01*
X190452380Y-126404819D02*
X190595237Y-126357200D01*
X190595237Y-126357200D02*
X190690475Y-126261961D01*
X190690475Y-126261961D02*
X190738094Y-126166723D01*
X190738094Y-126166723D02*
X190785713Y-125976247D01*
X190785713Y-125976247D02*
X190785713Y-125833390D01*
X190785713Y-125833390D02*
X190738094Y-125642914D01*
X190738094Y-125642914D02*
X190690475Y-125547676D01*
X190690475Y-125547676D02*
X190595237Y-125452438D01*
X190595237Y-125452438D02*
X190452380Y-125404819D01*
X190452380Y-125404819D02*
X190357142Y-125404819D01*
X190357142Y-125404819D02*
X190214285Y-125452438D01*
X190214285Y-125452438D02*
X190166666Y-125500057D01*
X189261904Y-125404819D02*
X189738094Y-125404819D01*
X189738094Y-125404819D02*
X189785713Y-125881009D01*
X189785713Y-125881009D02*
X189738094Y-125833390D01*
X189738094Y-125833390D02*
X189642856Y-125785771D01*
X189642856Y-125785771D02*
X189404761Y-125785771D01*
X189404761Y-125785771D02*
X189309523Y-125833390D01*
X189309523Y-125833390D02*
X189261904Y-125881009D01*
X189261904Y-125881009D02*
X189214285Y-125976247D01*
X189214285Y-125976247D02*
X189214285Y-126214342D01*
X189214285Y-126214342D02*
X189261904Y-126309580D01*
X189261904Y-126309580D02*
X189309523Y-126357200D01*
X189309523Y-126357200D02*
X189404761Y-126404819D01*
X189404761Y-126404819D02*
X189642856Y-126404819D01*
X189642856Y-126404819D02*
X189738094Y-126357200D01*
X189738094Y-126357200D02*
X189785713Y-126309580D01*
X208792857Y-130009580D02*
X208840476Y-130057200D01*
X208840476Y-130057200D02*
X208983333Y-130104819D01*
X208983333Y-130104819D02*
X209078571Y-130104819D01*
X209078571Y-130104819D02*
X209221428Y-130057200D01*
X209221428Y-130057200D02*
X209316666Y-129961961D01*
X209316666Y-129961961D02*
X209364285Y-129866723D01*
X209364285Y-129866723D02*
X209411904Y-129676247D01*
X209411904Y-129676247D02*
X209411904Y-129533390D01*
X209411904Y-129533390D02*
X209364285Y-129342914D01*
X209364285Y-129342914D02*
X209316666Y-129247676D01*
X209316666Y-129247676D02*
X209221428Y-129152438D01*
X209221428Y-129152438D02*
X209078571Y-129104819D01*
X209078571Y-129104819D02*
X208983333Y-129104819D01*
X208983333Y-129104819D02*
X208840476Y-129152438D01*
X208840476Y-129152438D02*
X208792857Y-129200057D01*
X207840476Y-130104819D02*
X208411904Y-130104819D01*
X208126190Y-130104819D02*
X208126190Y-129104819D01*
X208126190Y-129104819D02*
X208221428Y-129247676D01*
X208221428Y-129247676D02*
X208316666Y-129342914D01*
X208316666Y-129342914D02*
X208411904Y-129390533D01*
X207221428Y-129104819D02*
X207126190Y-129104819D01*
X207126190Y-129104819D02*
X207030952Y-129152438D01*
X207030952Y-129152438D02*
X206983333Y-129200057D01*
X206983333Y-129200057D02*
X206935714Y-129295295D01*
X206935714Y-129295295D02*
X206888095Y-129485771D01*
X206888095Y-129485771D02*
X206888095Y-129723866D01*
X206888095Y-129723866D02*
X206935714Y-129914342D01*
X206935714Y-129914342D02*
X206983333Y-130009580D01*
X206983333Y-130009580D02*
X207030952Y-130057200D01*
X207030952Y-130057200D02*
X207126190Y-130104819D01*
X207126190Y-130104819D02*
X207221428Y-130104819D01*
X207221428Y-130104819D02*
X207316666Y-130057200D01*
X207316666Y-130057200D02*
X207364285Y-130009580D01*
X207364285Y-130009580D02*
X207411904Y-129914342D01*
X207411904Y-129914342D02*
X207459523Y-129723866D01*
X207459523Y-129723866D02*
X207459523Y-129485771D01*
X207459523Y-129485771D02*
X207411904Y-129295295D01*
X207411904Y-129295295D02*
X207364285Y-129200057D01*
X207364285Y-129200057D02*
X207316666Y-129152438D01*
X207316666Y-129152438D02*
X207221428Y-129104819D01*
X224759580Y-123583333D02*
X224807200Y-123535714D01*
X224807200Y-123535714D02*
X224854819Y-123392857D01*
X224854819Y-123392857D02*
X224854819Y-123297619D01*
X224854819Y-123297619D02*
X224807200Y-123154762D01*
X224807200Y-123154762D02*
X224711961Y-123059524D01*
X224711961Y-123059524D02*
X224616723Y-123011905D01*
X224616723Y-123011905D02*
X224426247Y-122964286D01*
X224426247Y-122964286D02*
X224283390Y-122964286D01*
X224283390Y-122964286D02*
X224092914Y-123011905D01*
X224092914Y-123011905D02*
X223997676Y-123059524D01*
X223997676Y-123059524D02*
X223902438Y-123154762D01*
X223902438Y-123154762D02*
X223854819Y-123297619D01*
X223854819Y-123297619D02*
X223854819Y-123392857D01*
X223854819Y-123392857D02*
X223902438Y-123535714D01*
X223902438Y-123535714D02*
X223950057Y-123583333D01*
X224854819Y-124059524D02*
X224854819Y-124250000D01*
X224854819Y-124250000D02*
X224807200Y-124345238D01*
X224807200Y-124345238D02*
X224759580Y-124392857D01*
X224759580Y-124392857D02*
X224616723Y-124488095D01*
X224616723Y-124488095D02*
X224426247Y-124535714D01*
X224426247Y-124535714D02*
X224045295Y-124535714D01*
X224045295Y-124535714D02*
X223950057Y-124488095D01*
X223950057Y-124488095D02*
X223902438Y-124440476D01*
X223902438Y-124440476D02*
X223854819Y-124345238D01*
X223854819Y-124345238D02*
X223854819Y-124154762D01*
X223854819Y-124154762D02*
X223902438Y-124059524D01*
X223902438Y-124059524D02*
X223950057Y-124011905D01*
X223950057Y-124011905D02*
X224045295Y-123964286D01*
X224045295Y-123964286D02*
X224283390Y-123964286D01*
X224283390Y-123964286D02*
X224378628Y-124011905D01*
X224378628Y-124011905D02*
X224426247Y-124059524D01*
X224426247Y-124059524D02*
X224473866Y-124154762D01*
X224473866Y-124154762D02*
X224473866Y-124345238D01*
X224473866Y-124345238D02*
X224426247Y-124440476D01*
X224426247Y-124440476D02*
X224378628Y-124488095D01*
X224378628Y-124488095D02*
X224283390Y-124535714D01*
X203017857Y-130009580D02*
X203065476Y-130057200D01*
X203065476Y-130057200D02*
X203208333Y-130104819D01*
X203208333Y-130104819D02*
X203303571Y-130104819D01*
X203303571Y-130104819D02*
X203446428Y-130057200D01*
X203446428Y-130057200D02*
X203541666Y-129961961D01*
X203541666Y-129961961D02*
X203589285Y-129866723D01*
X203589285Y-129866723D02*
X203636904Y-129676247D01*
X203636904Y-129676247D02*
X203636904Y-129533390D01*
X203636904Y-129533390D02*
X203589285Y-129342914D01*
X203589285Y-129342914D02*
X203541666Y-129247676D01*
X203541666Y-129247676D02*
X203446428Y-129152438D01*
X203446428Y-129152438D02*
X203303571Y-129104819D01*
X203303571Y-129104819D02*
X203208333Y-129104819D01*
X203208333Y-129104819D02*
X203065476Y-129152438D01*
X203065476Y-129152438D02*
X203017857Y-129200057D01*
X202684523Y-129104819D02*
X202065476Y-129104819D01*
X202065476Y-129104819D02*
X202398809Y-129485771D01*
X202398809Y-129485771D02*
X202255952Y-129485771D01*
X202255952Y-129485771D02*
X202160714Y-129533390D01*
X202160714Y-129533390D02*
X202113095Y-129581009D01*
X202113095Y-129581009D02*
X202065476Y-129676247D01*
X202065476Y-129676247D02*
X202065476Y-129914342D01*
X202065476Y-129914342D02*
X202113095Y-130009580D01*
X202113095Y-130009580D02*
X202160714Y-130057200D01*
X202160714Y-130057200D02*
X202255952Y-130104819D01*
X202255952Y-130104819D02*
X202541666Y-130104819D01*
X202541666Y-130104819D02*
X202636904Y-130057200D01*
X202636904Y-130057200D02*
X202684523Y-130009580D01*
X201732142Y-129104819D02*
X201113095Y-129104819D01*
X201113095Y-129104819D02*
X201446428Y-129485771D01*
X201446428Y-129485771D02*
X201303571Y-129485771D01*
X201303571Y-129485771D02*
X201208333Y-129533390D01*
X201208333Y-129533390D02*
X201160714Y-129581009D01*
X201160714Y-129581009D02*
X201113095Y-129676247D01*
X201113095Y-129676247D02*
X201113095Y-129914342D01*
X201113095Y-129914342D02*
X201160714Y-130009580D01*
X201160714Y-130009580D02*
X201208333Y-130057200D01*
X201208333Y-130057200D02*
X201303571Y-130104819D01*
X201303571Y-130104819D02*
X201589285Y-130104819D01*
X201589285Y-130104819D02*
X201684523Y-130057200D01*
X201684523Y-130057200D02*
X201732142Y-130009580D01*
X156504819Y-129757142D02*
X156028628Y-129423809D01*
X156504819Y-129185714D02*
X155504819Y-129185714D01*
X155504819Y-129185714D02*
X155504819Y-129566666D01*
X155504819Y-129566666D02*
X155552438Y-129661904D01*
X155552438Y-129661904D02*
X155600057Y-129709523D01*
X155600057Y-129709523D02*
X155695295Y-129757142D01*
X155695295Y-129757142D02*
X155838152Y-129757142D01*
X155838152Y-129757142D02*
X155933390Y-129709523D01*
X155933390Y-129709523D02*
X155981009Y-129661904D01*
X155981009Y-129661904D02*
X156028628Y-129566666D01*
X156028628Y-129566666D02*
X156028628Y-129185714D01*
X155600057Y-130138095D02*
X155552438Y-130185714D01*
X155552438Y-130185714D02*
X155504819Y-130280952D01*
X155504819Y-130280952D02*
X155504819Y-130519047D01*
X155504819Y-130519047D02*
X155552438Y-130614285D01*
X155552438Y-130614285D02*
X155600057Y-130661904D01*
X155600057Y-130661904D02*
X155695295Y-130709523D01*
X155695295Y-130709523D02*
X155790533Y-130709523D01*
X155790533Y-130709523D02*
X155933390Y-130661904D01*
X155933390Y-130661904D02*
X156504819Y-130090476D01*
X156504819Y-130090476D02*
X156504819Y-130709523D01*
X155504819Y-131614285D02*
X155504819Y-131138095D01*
X155504819Y-131138095D02*
X155981009Y-131090476D01*
X155981009Y-131090476D02*
X155933390Y-131138095D01*
X155933390Y-131138095D02*
X155885771Y-131233333D01*
X155885771Y-131233333D02*
X155885771Y-131471428D01*
X155885771Y-131471428D02*
X155933390Y-131566666D01*
X155933390Y-131566666D02*
X155981009Y-131614285D01*
X155981009Y-131614285D02*
X156076247Y-131661904D01*
X156076247Y-131661904D02*
X156314342Y-131661904D01*
X156314342Y-131661904D02*
X156409580Y-131614285D01*
X156409580Y-131614285D02*
X156457200Y-131566666D01*
X156457200Y-131566666D02*
X156504819Y-131471428D01*
X156504819Y-131471428D02*
X156504819Y-131233333D01*
X156504819Y-131233333D02*
X156457200Y-131138095D01*
X156457200Y-131138095D02*
X156409580Y-131090476D01*
X157030166Y-129676753D02*
X156982547Y-129724372D01*
X156982547Y-129724372D02*
X156934928Y-129819610D01*
X156934928Y-129819610D02*
X156934928Y-130057705D01*
X156934928Y-130057705D02*
X156982547Y-130152943D01*
X156982547Y-130152943D02*
X157030166Y-130200562D01*
X157030166Y-130200562D02*
X157125404Y-130248181D01*
X157125404Y-130248181D02*
X157220642Y-130248181D01*
X157220642Y-130248181D02*
X157363499Y-130200562D01*
X157363499Y-130200562D02*
X157934928Y-129629134D01*
X157934928Y-129629134D02*
X157934928Y-130248181D01*
X156934928Y-130581515D02*
X156934928Y-131248181D01*
X156934928Y-131248181D02*
X157934928Y-130819610D01*
X170257738Y-91600057D02*
X170352976Y-91552438D01*
X170352976Y-91552438D02*
X170448214Y-91457200D01*
X170448214Y-91457200D02*
X170591071Y-91314342D01*
X170591071Y-91314342D02*
X170686309Y-91266723D01*
X170686309Y-91266723D02*
X170781547Y-91266723D01*
X170733928Y-91504819D02*
X170829166Y-91457200D01*
X170829166Y-91457200D02*
X170924404Y-91361961D01*
X170924404Y-91361961D02*
X170972023Y-91171485D01*
X170972023Y-91171485D02*
X170972023Y-90838152D01*
X170972023Y-90838152D02*
X170924404Y-90647676D01*
X170924404Y-90647676D02*
X170829166Y-90552438D01*
X170829166Y-90552438D02*
X170733928Y-90504819D01*
X170733928Y-90504819D02*
X170543452Y-90504819D01*
X170543452Y-90504819D02*
X170448214Y-90552438D01*
X170448214Y-90552438D02*
X170352976Y-90647676D01*
X170352976Y-90647676D02*
X170305357Y-90838152D01*
X170305357Y-90838152D02*
X170305357Y-91171485D01*
X170305357Y-91171485D02*
X170352976Y-91361961D01*
X170352976Y-91361961D02*
X170448214Y-91457200D01*
X170448214Y-91457200D02*
X170543452Y-91504819D01*
X170543452Y-91504819D02*
X170733928Y-91504819D01*
X169352976Y-91504819D02*
X169924404Y-91504819D01*
X169638690Y-91504819D02*
X169638690Y-90504819D01*
X169638690Y-90504819D02*
X169733928Y-90647676D01*
X169733928Y-90647676D02*
X169829166Y-90742914D01*
X169829166Y-90742914D02*
X169924404Y-90790533D01*
X183554819Y-132482142D02*
X183078628Y-132148809D01*
X183554819Y-131910714D02*
X182554819Y-131910714D01*
X182554819Y-131910714D02*
X182554819Y-132291666D01*
X182554819Y-132291666D02*
X182602438Y-132386904D01*
X182602438Y-132386904D02*
X182650057Y-132434523D01*
X182650057Y-132434523D02*
X182745295Y-132482142D01*
X182745295Y-132482142D02*
X182888152Y-132482142D01*
X182888152Y-132482142D02*
X182983390Y-132434523D01*
X182983390Y-132434523D02*
X183031009Y-132386904D01*
X183031009Y-132386904D02*
X183078628Y-132291666D01*
X183078628Y-132291666D02*
X183078628Y-131910714D01*
X182983390Y-133053571D02*
X182935771Y-132958333D01*
X182935771Y-132958333D02*
X182888152Y-132910714D01*
X182888152Y-132910714D02*
X182792914Y-132863095D01*
X182792914Y-132863095D02*
X182745295Y-132863095D01*
X182745295Y-132863095D02*
X182650057Y-132910714D01*
X182650057Y-132910714D02*
X182602438Y-132958333D01*
X182602438Y-132958333D02*
X182554819Y-133053571D01*
X182554819Y-133053571D02*
X182554819Y-133244047D01*
X182554819Y-133244047D02*
X182602438Y-133339285D01*
X182602438Y-133339285D02*
X182650057Y-133386904D01*
X182650057Y-133386904D02*
X182745295Y-133434523D01*
X182745295Y-133434523D02*
X182792914Y-133434523D01*
X182792914Y-133434523D02*
X182888152Y-133386904D01*
X182888152Y-133386904D02*
X182935771Y-133339285D01*
X182935771Y-133339285D02*
X182983390Y-133244047D01*
X182983390Y-133244047D02*
X182983390Y-133053571D01*
X182983390Y-133053571D02*
X183031009Y-132958333D01*
X183031009Y-132958333D02*
X183078628Y-132910714D01*
X183078628Y-132910714D02*
X183173866Y-132863095D01*
X183173866Y-132863095D02*
X183364342Y-132863095D01*
X183364342Y-132863095D02*
X183459580Y-132910714D01*
X183459580Y-132910714D02*
X183507200Y-132958333D01*
X183507200Y-132958333D02*
X183554819Y-133053571D01*
X183554819Y-133053571D02*
X183554819Y-133244047D01*
X183554819Y-133244047D02*
X183507200Y-133339285D01*
X183507200Y-133339285D02*
X183459580Y-133386904D01*
X183459580Y-133386904D02*
X183364342Y-133434523D01*
X183364342Y-133434523D02*
X183173866Y-133434523D01*
X183173866Y-133434523D02*
X183078628Y-133386904D01*
X183078628Y-133386904D02*
X183031009Y-133339285D01*
X183031009Y-133339285D02*
X182983390Y-133244047D01*
X182554819Y-134339285D02*
X182554819Y-133863095D01*
X182554819Y-133863095D02*
X183031009Y-133815476D01*
X183031009Y-133815476D02*
X182983390Y-133863095D01*
X182983390Y-133863095D02*
X182935771Y-133958333D01*
X182935771Y-133958333D02*
X182935771Y-134196428D01*
X182935771Y-134196428D02*
X182983390Y-134291666D01*
X182983390Y-134291666D02*
X183031009Y-134339285D01*
X183031009Y-134339285D02*
X183126247Y-134386904D01*
X183126247Y-134386904D02*
X183364342Y-134386904D01*
X183364342Y-134386904D02*
X183459580Y-134339285D01*
X183459580Y-134339285D02*
X183507200Y-134291666D01*
X183507200Y-134291666D02*
X183554819Y-134196428D01*
X183554819Y-134196428D02*
X183554819Y-133958333D01*
X183554819Y-133958333D02*
X183507200Y-133863095D01*
X183507200Y-133863095D02*
X183459580Y-133815476D01*
X181104819Y-128338095D02*
X181104819Y-128147619D01*
X181104819Y-128147619D02*
X181152438Y-128052381D01*
X181152438Y-128052381D02*
X181200057Y-128004762D01*
X181200057Y-128004762D02*
X181342914Y-127909524D01*
X181342914Y-127909524D02*
X181533390Y-127861905D01*
X181533390Y-127861905D02*
X181914342Y-127861905D01*
X181914342Y-127861905D02*
X182009580Y-127909524D01*
X182009580Y-127909524D02*
X182057200Y-127957143D01*
X182057200Y-127957143D02*
X182104819Y-128052381D01*
X182104819Y-128052381D02*
X182104819Y-128242857D01*
X182104819Y-128242857D02*
X182057200Y-128338095D01*
X182057200Y-128338095D02*
X182009580Y-128385714D01*
X182009580Y-128385714D02*
X181914342Y-128433333D01*
X181914342Y-128433333D02*
X181676247Y-128433333D01*
X181676247Y-128433333D02*
X181581009Y-128385714D01*
X181581009Y-128385714D02*
X181533390Y-128338095D01*
X181533390Y-128338095D02*
X181485771Y-128242857D01*
X181485771Y-128242857D02*
X181485771Y-128052381D01*
X181485771Y-128052381D02*
X181533390Y-127957143D01*
X181533390Y-127957143D02*
X181581009Y-127909524D01*
X181581009Y-127909524D02*
X181676247Y-127861905D01*
X181200057Y-128814286D02*
X181152438Y-128861905D01*
X181152438Y-128861905D02*
X181104819Y-128957143D01*
X181104819Y-128957143D02*
X181104819Y-129195238D01*
X181104819Y-129195238D02*
X181152438Y-129290476D01*
X181152438Y-129290476D02*
X181200057Y-129338095D01*
X181200057Y-129338095D02*
X181295295Y-129385714D01*
X181295295Y-129385714D02*
X181390533Y-129385714D01*
X181390533Y-129385714D02*
X181533390Y-129338095D01*
X181533390Y-129338095D02*
X182104819Y-128766667D01*
X182104819Y-128766667D02*
X182104819Y-129385714D01*
X181104819Y-130004762D02*
X181104819Y-130100000D01*
X181104819Y-130100000D02*
X181152438Y-130195238D01*
X181152438Y-130195238D02*
X181200057Y-130242857D01*
X181200057Y-130242857D02*
X181295295Y-130290476D01*
X181295295Y-130290476D02*
X181485771Y-130338095D01*
X181485771Y-130338095D02*
X181723866Y-130338095D01*
X181723866Y-130338095D02*
X181914342Y-130290476D01*
X181914342Y-130290476D02*
X182009580Y-130242857D01*
X182009580Y-130242857D02*
X182057200Y-130195238D01*
X182057200Y-130195238D02*
X182104819Y-130100000D01*
X182104819Y-130100000D02*
X182104819Y-130004762D01*
X182104819Y-130004762D02*
X182057200Y-129909524D01*
X182057200Y-129909524D02*
X182009580Y-129861905D01*
X182009580Y-129861905D02*
X181914342Y-129814286D01*
X181914342Y-129814286D02*
X181723866Y-129766667D01*
X181723866Y-129766667D02*
X181485771Y-129766667D01*
X181485771Y-129766667D02*
X181295295Y-129814286D01*
X181295295Y-129814286D02*
X181200057Y-129861905D01*
X181200057Y-129861905D02*
X181152438Y-129909524D01*
X181152438Y-129909524D02*
X181104819Y-130004762D01*
X182104819Y-131338095D02*
X181628628Y-131004762D01*
X182104819Y-130766667D02*
X181104819Y-130766667D01*
X181104819Y-130766667D02*
X181104819Y-131147619D01*
X181104819Y-131147619D02*
X181152438Y-131242857D01*
X181152438Y-131242857D02*
X181200057Y-131290476D01*
X181200057Y-131290476D02*
X181295295Y-131338095D01*
X181295295Y-131338095D02*
X181438152Y-131338095D01*
X181438152Y-131338095D02*
X181533390Y-131290476D01*
X181533390Y-131290476D02*
X181581009Y-131242857D01*
X181581009Y-131242857D02*
X181628628Y-131147619D01*
X181628628Y-131147619D02*
X181628628Y-130766667D01*
X206959580Y-116957142D02*
X207007200Y-116909523D01*
X207007200Y-116909523D02*
X207054819Y-116766666D01*
X207054819Y-116766666D02*
X207054819Y-116671428D01*
X207054819Y-116671428D02*
X207007200Y-116528571D01*
X207007200Y-116528571D02*
X206911961Y-116433333D01*
X206911961Y-116433333D02*
X206816723Y-116385714D01*
X206816723Y-116385714D02*
X206626247Y-116338095D01*
X206626247Y-116338095D02*
X206483390Y-116338095D01*
X206483390Y-116338095D02*
X206292914Y-116385714D01*
X206292914Y-116385714D02*
X206197676Y-116433333D01*
X206197676Y-116433333D02*
X206102438Y-116528571D01*
X206102438Y-116528571D02*
X206054819Y-116671428D01*
X206054819Y-116671428D02*
X206054819Y-116766666D01*
X206054819Y-116766666D02*
X206102438Y-116909523D01*
X206102438Y-116909523D02*
X206150057Y-116957142D01*
X206054819Y-117290476D02*
X206054819Y-117909523D01*
X206054819Y-117909523D02*
X206435771Y-117576190D01*
X206435771Y-117576190D02*
X206435771Y-117719047D01*
X206435771Y-117719047D02*
X206483390Y-117814285D01*
X206483390Y-117814285D02*
X206531009Y-117861904D01*
X206531009Y-117861904D02*
X206626247Y-117909523D01*
X206626247Y-117909523D02*
X206864342Y-117909523D01*
X206864342Y-117909523D02*
X206959580Y-117861904D01*
X206959580Y-117861904D02*
X207007200Y-117814285D01*
X207007200Y-117814285D02*
X207054819Y-117719047D01*
X207054819Y-117719047D02*
X207054819Y-117433333D01*
X207054819Y-117433333D02*
X207007200Y-117338095D01*
X207007200Y-117338095D02*
X206959580Y-117290476D01*
X206150057Y-118290476D02*
X206102438Y-118338095D01*
X206102438Y-118338095D02*
X206054819Y-118433333D01*
X206054819Y-118433333D02*
X206054819Y-118671428D01*
X206054819Y-118671428D02*
X206102438Y-118766666D01*
X206102438Y-118766666D02*
X206150057Y-118814285D01*
X206150057Y-118814285D02*
X206245295Y-118861904D01*
X206245295Y-118861904D02*
X206340533Y-118861904D01*
X206340533Y-118861904D02*
X206483390Y-118814285D01*
X206483390Y-118814285D02*
X207054819Y-118242857D01*
X207054819Y-118242857D02*
X207054819Y-118861904D01*
X193742857Y-129259580D02*
X193790476Y-129307200D01*
X193790476Y-129307200D02*
X193933333Y-129354819D01*
X193933333Y-129354819D02*
X194028571Y-129354819D01*
X194028571Y-129354819D02*
X194171428Y-129307200D01*
X194171428Y-129307200D02*
X194266666Y-129211961D01*
X194266666Y-129211961D02*
X194314285Y-129116723D01*
X194314285Y-129116723D02*
X194361904Y-128926247D01*
X194361904Y-128926247D02*
X194361904Y-128783390D01*
X194361904Y-128783390D02*
X194314285Y-128592914D01*
X194314285Y-128592914D02*
X194266666Y-128497676D01*
X194266666Y-128497676D02*
X194171428Y-128402438D01*
X194171428Y-128402438D02*
X194028571Y-128354819D01*
X194028571Y-128354819D02*
X193933333Y-128354819D01*
X193933333Y-128354819D02*
X193790476Y-128402438D01*
X193790476Y-128402438D02*
X193742857Y-128450057D01*
X193409523Y-128354819D02*
X192790476Y-128354819D01*
X192790476Y-128354819D02*
X193123809Y-128735771D01*
X193123809Y-128735771D02*
X192980952Y-128735771D01*
X192980952Y-128735771D02*
X192885714Y-128783390D01*
X192885714Y-128783390D02*
X192838095Y-128831009D01*
X192838095Y-128831009D02*
X192790476Y-128926247D01*
X192790476Y-128926247D02*
X192790476Y-129164342D01*
X192790476Y-129164342D02*
X192838095Y-129259580D01*
X192838095Y-129259580D02*
X192885714Y-129307200D01*
X192885714Y-129307200D02*
X192980952Y-129354819D01*
X192980952Y-129354819D02*
X193266666Y-129354819D01*
X193266666Y-129354819D02*
X193361904Y-129307200D01*
X193361904Y-129307200D02*
X193409523Y-129259580D01*
X192171428Y-128354819D02*
X192076190Y-128354819D01*
X192076190Y-128354819D02*
X191980952Y-128402438D01*
X191980952Y-128402438D02*
X191933333Y-128450057D01*
X191933333Y-128450057D02*
X191885714Y-128545295D01*
X191885714Y-128545295D02*
X191838095Y-128735771D01*
X191838095Y-128735771D02*
X191838095Y-128973866D01*
X191838095Y-128973866D02*
X191885714Y-129164342D01*
X191885714Y-129164342D02*
X191933333Y-129259580D01*
X191933333Y-129259580D02*
X191980952Y-129307200D01*
X191980952Y-129307200D02*
X192076190Y-129354819D01*
X192076190Y-129354819D02*
X192171428Y-129354819D01*
X192171428Y-129354819D02*
X192266666Y-129307200D01*
X192266666Y-129307200D02*
X192314285Y-129259580D01*
X192314285Y-129259580D02*
X192361904Y-129164342D01*
X192361904Y-129164342D02*
X192409523Y-128973866D01*
X192409523Y-128973866D02*
X192409523Y-128735771D01*
X192409523Y-128735771D02*
X192361904Y-128545295D01*
X192361904Y-128545295D02*
X192314285Y-128450057D01*
X192314285Y-128450057D02*
X192266666Y-128402438D01*
X192266666Y-128402438D02*
X192171428Y-128354819D01*
X169459580Y-142407142D02*
X169507200Y-142359523D01*
X169507200Y-142359523D02*
X169554819Y-142216666D01*
X169554819Y-142216666D02*
X169554819Y-142121428D01*
X169554819Y-142121428D02*
X169507200Y-141978571D01*
X169507200Y-141978571D02*
X169411961Y-141883333D01*
X169411961Y-141883333D02*
X169316723Y-141835714D01*
X169316723Y-141835714D02*
X169126247Y-141788095D01*
X169126247Y-141788095D02*
X168983390Y-141788095D01*
X168983390Y-141788095D02*
X168792914Y-141835714D01*
X168792914Y-141835714D02*
X168697676Y-141883333D01*
X168697676Y-141883333D02*
X168602438Y-141978571D01*
X168602438Y-141978571D02*
X168554819Y-142121428D01*
X168554819Y-142121428D02*
X168554819Y-142216666D01*
X168554819Y-142216666D02*
X168602438Y-142359523D01*
X168602438Y-142359523D02*
X168650057Y-142407142D01*
X168650057Y-142788095D02*
X168602438Y-142835714D01*
X168602438Y-142835714D02*
X168554819Y-142930952D01*
X168554819Y-142930952D02*
X168554819Y-143169047D01*
X168554819Y-143169047D02*
X168602438Y-143264285D01*
X168602438Y-143264285D02*
X168650057Y-143311904D01*
X168650057Y-143311904D02*
X168745295Y-143359523D01*
X168745295Y-143359523D02*
X168840533Y-143359523D01*
X168840533Y-143359523D02*
X168983390Y-143311904D01*
X168983390Y-143311904D02*
X169554819Y-142740476D01*
X169554819Y-142740476D02*
X169554819Y-143359523D01*
X168888152Y-144216666D02*
X169554819Y-144216666D01*
X168507200Y-143978571D02*
X169221485Y-143740476D01*
X169221485Y-143740476D02*
X169221485Y-144359523D01*
X205442857Y-111154819D02*
X205776190Y-110678628D01*
X206014285Y-111154819D02*
X206014285Y-110154819D01*
X206014285Y-110154819D02*
X205633333Y-110154819D01*
X205633333Y-110154819D02*
X205538095Y-110202438D01*
X205538095Y-110202438D02*
X205490476Y-110250057D01*
X205490476Y-110250057D02*
X205442857Y-110345295D01*
X205442857Y-110345295D02*
X205442857Y-110488152D01*
X205442857Y-110488152D02*
X205490476Y-110583390D01*
X205490476Y-110583390D02*
X205538095Y-110631009D01*
X205538095Y-110631009D02*
X205633333Y-110678628D01*
X205633333Y-110678628D02*
X206014285Y-110678628D01*
X204490476Y-111154819D02*
X205061904Y-111154819D01*
X204776190Y-111154819D02*
X204776190Y-110154819D01*
X204776190Y-110154819D02*
X204871428Y-110297676D01*
X204871428Y-110297676D02*
X204966666Y-110392914D01*
X204966666Y-110392914D02*
X205061904Y-110440533D01*
X203871428Y-110154819D02*
X203776190Y-110154819D01*
X203776190Y-110154819D02*
X203680952Y-110202438D01*
X203680952Y-110202438D02*
X203633333Y-110250057D01*
X203633333Y-110250057D02*
X203585714Y-110345295D01*
X203585714Y-110345295D02*
X203538095Y-110535771D01*
X203538095Y-110535771D02*
X203538095Y-110773866D01*
X203538095Y-110773866D02*
X203585714Y-110964342D01*
X203585714Y-110964342D02*
X203633333Y-111059580D01*
X203633333Y-111059580D02*
X203680952Y-111107200D01*
X203680952Y-111107200D02*
X203776190Y-111154819D01*
X203776190Y-111154819D02*
X203871428Y-111154819D01*
X203871428Y-111154819D02*
X203966666Y-111107200D01*
X203966666Y-111107200D02*
X204014285Y-111059580D01*
X204014285Y-111059580D02*
X204061904Y-110964342D01*
X204061904Y-110964342D02*
X204109523Y-110773866D01*
X204109523Y-110773866D02*
X204109523Y-110535771D01*
X204109523Y-110535771D02*
X204061904Y-110345295D01*
X204061904Y-110345295D02*
X204014285Y-110250057D01*
X204014285Y-110250057D02*
X203966666Y-110202438D01*
X203966666Y-110202438D02*
X203871428Y-110154819D01*
X205516666Y-108204819D02*
X206088094Y-108204819D01*
X205802380Y-108204819D02*
X205802380Y-107204819D01*
X205802380Y-107204819D02*
X205897618Y-107347676D01*
X205897618Y-107347676D02*
X205992856Y-107442914D01*
X205992856Y-107442914D02*
X206088094Y-107490533D01*
X204897618Y-107204819D02*
X204802380Y-107204819D01*
X204802380Y-107204819D02*
X204707142Y-107252438D01*
X204707142Y-107252438D02*
X204659523Y-107300057D01*
X204659523Y-107300057D02*
X204611904Y-107395295D01*
X204611904Y-107395295D02*
X204564285Y-107585771D01*
X204564285Y-107585771D02*
X204564285Y-107823866D01*
X204564285Y-107823866D02*
X204611904Y-108014342D01*
X204611904Y-108014342D02*
X204659523Y-108109580D01*
X204659523Y-108109580D02*
X204707142Y-108157200D01*
X204707142Y-108157200D02*
X204802380Y-108204819D01*
X204802380Y-108204819D02*
X204897618Y-108204819D01*
X204897618Y-108204819D02*
X204992856Y-108157200D01*
X204992856Y-108157200D02*
X205040475Y-108109580D01*
X205040475Y-108109580D02*
X205088094Y-108014342D01*
X205088094Y-108014342D02*
X205135713Y-107823866D01*
X205135713Y-107823866D02*
X205135713Y-107585771D01*
X205135713Y-107585771D02*
X205088094Y-107395295D01*
X205088094Y-107395295D02*
X205040475Y-107300057D01*
X205040475Y-107300057D02*
X204992856Y-107252438D01*
X204992856Y-107252438D02*
X204897618Y-107204819D01*
X203945237Y-107204819D02*
X203849999Y-107204819D01*
X203849999Y-107204819D02*
X203754761Y-107252438D01*
X203754761Y-107252438D02*
X203707142Y-107300057D01*
X203707142Y-107300057D02*
X203659523Y-107395295D01*
X203659523Y-107395295D02*
X203611904Y-107585771D01*
X203611904Y-107585771D02*
X203611904Y-107823866D01*
X203611904Y-107823866D02*
X203659523Y-108014342D01*
X203659523Y-108014342D02*
X203707142Y-108109580D01*
X203707142Y-108109580D02*
X203754761Y-108157200D01*
X203754761Y-108157200D02*
X203849999Y-108204819D01*
X203849999Y-108204819D02*
X203945237Y-108204819D01*
X203945237Y-108204819D02*
X204040475Y-108157200D01*
X204040475Y-108157200D02*
X204088094Y-108109580D01*
X204088094Y-108109580D02*
X204135713Y-108014342D01*
X204135713Y-108014342D02*
X204183332Y-107823866D01*
X204183332Y-107823866D02*
X204183332Y-107585771D01*
X204183332Y-107585771D02*
X204135713Y-107395295D01*
X204135713Y-107395295D02*
X204088094Y-107300057D01*
X204088094Y-107300057D02*
X204040475Y-107252438D01*
X204040475Y-107252438D02*
X203945237Y-107204819D01*
X207245488Y-124062133D02*
X207293108Y-124014514D01*
X207293108Y-124014514D02*
X207340727Y-123871657D01*
X207340727Y-123871657D02*
X207340727Y-123776419D01*
X207340727Y-123776419D02*
X207293108Y-123633562D01*
X207293108Y-123633562D02*
X207197869Y-123538324D01*
X207197869Y-123538324D02*
X207102631Y-123490705D01*
X207102631Y-123490705D02*
X206912155Y-123443086D01*
X206912155Y-123443086D02*
X206769298Y-123443086D01*
X206769298Y-123443086D02*
X206578822Y-123490705D01*
X206578822Y-123490705D02*
X206483584Y-123538324D01*
X206483584Y-123538324D02*
X206388346Y-123633562D01*
X206388346Y-123633562D02*
X206340727Y-123776419D01*
X206340727Y-123776419D02*
X206340727Y-123871657D01*
X206340727Y-123871657D02*
X206388346Y-124014514D01*
X206388346Y-124014514D02*
X206435965Y-124062133D01*
X206340727Y-124395467D02*
X206340727Y-125014514D01*
X206340727Y-125014514D02*
X206721679Y-124681181D01*
X206721679Y-124681181D02*
X206721679Y-124824038D01*
X206721679Y-124824038D02*
X206769298Y-124919276D01*
X206769298Y-124919276D02*
X206816917Y-124966895D01*
X206816917Y-124966895D02*
X206912155Y-125014514D01*
X206912155Y-125014514D02*
X207150250Y-125014514D01*
X207150250Y-125014514D02*
X207245488Y-124966895D01*
X207245488Y-124966895D02*
X207293108Y-124919276D01*
X207293108Y-124919276D02*
X207340727Y-124824038D01*
X207340727Y-124824038D02*
X207340727Y-124538324D01*
X207340727Y-124538324D02*
X207293108Y-124443086D01*
X207293108Y-124443086D02*
X207245488Y-124395467D01*
X207340727Y-125966895D02*
X207340727Y-125395467D01*
X207340727Y-125681181D02*
X206340727Y-125681181D01*
X206340727Y-125681181D02*
X206483584Y-125585943D01*
X206483584Y-125585943D02*
X206578822Y-125490705D01*
X206578822Y-125490705D02*
X206626441Y-125395467D01*
X209616666Y-134054819D02*
X209949999Y-133578628D01*
X210188094Y-134054819D02*
X210188094Y-133054819D01*
X210188094Y-133054819D02*
X209807142Y-133054819D01*
X209807142Y-133054819D02*
X209711904Y-133102438D01*
X209711904Y-133102438D02*
X209664285Y-133150057D01*
X209664285Y-133150057D02*
X209616666Y-133245295D01*
X209616666Y-133245295D02*
X209616666Y-133388152D01*
X209616666Y-133388152D02*
X209664285Y-133483390D01*
X209664285Y-133483390D02*
X209711904Y-133531009D01*
X209711904Y-133531009D02*
X209807142Y-133578628D01*
X209807142Y-133578628D02*
X210188094Y-133578628D01*
X208759523Y-133054819D02*
X208949999Y-133054819D01*
X208949999Y-133054819D02*
X209045237Y-133102438D01*
X209045237Y-133102438D02*
X209092856Y-133150057D01*
X209092856Y-133150057D02*
X209188094Y-133292914D01*
X209188094Y-133292914D02*
X209235713Y-133483390D01*
X209235713Y-133483390D02*
X209235713Y-133864342D01*
X209235713Y-133864342D02*
X209188094Y-133959580D01*
X209188094Y-133959580D02*
X209140475Y-134007200D01*
X209140475Y-134007200D02*
X209045237Y-134054819D01*
X209045237Y-134054819D02*
X208854761Y-134054819D01*
X208854761Y-134054819D02*
X208759523Y-134007200D01*
X208759523Y-134007200D02*
X208711904Y-133959580D01*
X208711904Y-133959580D02*
X208664285Y-133864342D01*
X208664285Y-133864342D02*
X208664285Y-133626247D01*
X208664285Y-133626247D02*
X208711904Y-133531009D01*
X208711904Y-133531009D02*
X208759523Y-133483390D01*
X208759523Y-133483390D02*
X208854761Y-133435771D01*
X208854761Y-133435771D02*
X209045237Y-133435771D01*
X209045237Y-133435771D02*
X209140475Y-133483390D01*
X209140475Y-133483390D02*
X209188094Y-133531009D01*
X209188094Y-133531009D02*
X209235713Y-133626247D01*
X197842857Y-109559580D02*
X197890476Y-109607200D01*
X197890476Y-109607200D02*
X198033333Y-109654819D01*
X198033333Y-109654819D02*
X198128571Y-109654819D01*
X198128571Y-109654819D02*
X198271428Y-109607200D01*
X198271428Y-109607200D02*
X198366666Y-109511961D01*
X198366666Y-109511961D02*
X198414285Y-109416723D01*
X198414285Y-109416723D02*
X198461904Y-109226247D01*
X198461904Y-109226247D02*
X198461904Y-109083390D01*
X198461904Y-109083390D02*
X198414285Y-108892914D01*
X198414285Y-108892914D02*
X198366666Y-108797676D01*
X198366666Y-108797676D02*
X198271428Y-108702438D01*
X198271428Y-108702438D02*
X198128571Y-108654819D01*
X198128571Y-108654819D02*
X198033333Y-108654819D01*
X198033333Y-108654819D02*
X197890476Y-108702438D01*
X197890476Y-108702438D02*
X197842857Y-108750057D01*
X196890476Y-109654819D02*
X197461904Y-109654819D01*
X197176190Y-109654819D02*
X197176190Y-108654819D01*
X197176190Y-108654819D02*
X197271428Y-108797676D01*
X197271428Y-108797676D02*
X197366666Y-108892914D01*
X197366666Y-108892914D02*
X197461904Y-108940533D01*
X196033333Y-108988152D02*
X196033333Y-109654819D01*
X196271428Y-108607200D02*
X196509523Y-109321485D01*
X196509523Y-109321485D02*
X195890476Y-109321485D01*
X164561593Y-130924542D02*
X164609213Y-130876923D01*
X164609213Y-130876923D02*
X164656832Y-130734066D01*
X164656832Y-130734066D02*
X164656832Y-130638828D01*
X164656832Y-130638828D02*
X164609213Y-130495971D01*
X164609213Y-130495971D02*
X164513974Y-130400733D01*
X164513974Y-130400733D02*
X164418736Y-130353114D01*
X164418736Y-130353114D02*
X164228260Y-130305495D01*
X164228260Y-130305495D02*
X164085403Y-130305495D01*
X164085403Y-130305495D02*
X163894927Y-130353114D01*
X163894927Y-130353114D02*
X163799689Y-130400733D01*
X163799689Y-130400733D02*
X163704451Y-130495971D01*
X163704451Y-130495971D02*
X163656832Y-130638828D01*
X163656832Y-130638828D02*
X163656832Y-130734066D01*
X163656832Y-130734066D02*
X163704451Y-130876923D01*
X163704451Y-130876923D02*
X163752070Y-130924542D01*
X163656832Y-131781685D02*
X163656832Y-131591209D01*
X163656832Y-131591209D02*
X163704451Y-131495971D01*
X163704451Y-131495971D02*
X163752070Y-131448352D01*
X163752070Y-131448352D02*
X163894927Y-131353114D01*
X163894927Y-131353114D02*
X164085403Y-131305495D01*
X164085403Y-131305495D02*
X164466355Y-131305495D01*
X164466355Y-131305495D02*
X164561593Y-131353114D01*
X164561593Y-131353114D02*
X164609213Y-131400733D01*
X164609213Y-131400733D02*
X164656832Y-131495971D01*
X164656832Y-131495971D02*
X164656832Y-131686447D01*
X164656832Y-131686447D02*
X164609213Y-131781685D01*
X164609213Y-131781685D02*
X164561593Y-131829304D01*
X164561593Y-131829304D02*
X164466355Y-131876923D01*
X164466355Y-131876923D02*
X164228260Y-131876923D01*
X164228260Y-131876923D02*
X164133022Y-131829304D01*
X164133022Y-131829304D02*
X164085403Y-131781685D01*
X164085403Y-131781685D02*
X164037784Y-131686447D01*
X164037784Y-131686447D02*
X164037784Y-131495971D01*
X164037784Y-131495971D02*
X164085403Y-131400733D01*
X164085403Y-131400733D02*
X164133022Y-131353114D01*
X164133022Y-131353114D02*
X164228260Y-131305495D01*
X163656832Y-132734066D02*
X163656832Y-132543590D01*
X163656832Y-132543590D02*
X163704451Y-132448352D01*
X163704451Y-132448352D02*
X163752070Y-132400733D01*
X163752070Y-132400733D02*
X163894927Y-132305495D01*
X163894927Y-132305495D02*
X164085403Y-132257876D01*
X164085403Y-132257876D02*
X164466355Y-132257876D01*
X164466355Y-132257876D02*
X164561593Y-132305495D01*
X164561593Y-132305495D02*
X164609213Y-132353114D01*
X164609213Y-132353114D02*
X164656832Y-132448352D01*
X164656832Y-132448352D02*
X164656832Y-132638828D01*
X164656832Y-132638828D02*
X164609213Y-132734066D01*
X164609213Y-132734066D02*
X164561593Y-132781685D01*
X164561593Y-132781685D02*
X164466355Y-132829304D01*
X164466355Y-132829304D02*
X164228260Y-132829304D01*
X164228260Y-132829304D02*
X164133022Y-132781685D01*
X164133022Y-132781685D02*
X164085403Y-132734066D01*
X164085403Y-132734066D02*
X164037784Y-132638828D01*
X164037784Y-132638828D02*
X164037784Y-132448352D01*
X164037784Y-132448352D02*
X164085403Y-132353114D01*
X164085403Y-132353114D02*
X164133022Y-132305495D01*
X164133022Y-132305495D02*
X164228260Y-132257876D01*
X185401857Y-109534580D02*
X185449476Y-109582200D01*
X185449476Y-109582200D02*
X185592333Y-109629819D01*
X185592333Y-109629819D02*
X185687571Y-109629819D01*
X185687571Y-109629819D02*
X185830428Y-109582200D01*
X185830428Y-109582200D02*
X185925666Y-109486961D01*
X185925666Y-109486961D02*
X185973285Y-109391723D01*
X185973285Y-109391723D02*
X186020904Y-109201247D01*
X186020904Y-109201247D02*
X186020904Y-109058390D01*
X186020904Y-109058390D02*
X185973285Y-108867914D01*
X185973285Y-108867914D02*
X185925666Y-108772676D01*
X185925666Y-108772676D02*
X185830428Y-108677438D01*
X185830428Y-108677438D02*
X185687571Y-108629819D01*
X185687571Y-108629819D02*
X185592333Y-108629819D01*
X185592333Y-108629819D02*
X185449476Y-108677438D01*
X185449476Y-108677438D02*
X185401857Y-108725057D01*
X184830428Y-109058390D02*
X184925666Y-109010771D01*
X184925666Y-109010771D02*
X184973285Y-108963152D01*
X184973285Y-108963152D02*
X185020904Y-108867914D01*
X185020904Y-108867914D02*
X185020904Y-108820295D01*
X185020904Y-108820295D02*
X184973285Y-108725057D01*
X184973285Y-108725057D02*
X184925666Y-108677438D01*
X184925666Y-108677438D02*
X184830428Y-108629819D01*
X184830428Y-108629819D02*
X184639952Y-108629819D01*
X184639952Y-108629819D02*
X184544714Y-108677438D01*
X184544714Y-108677438D02*
X184497095Y-108725057D01*
X184497095Y-108725057D02*
X184449476Y-108820295D01*
X184449476Y-108820295D02*
X184449476Y-108867914D01*
X184449476Y-108867914D02*
X184497095Y-108963152D01*
X184497095Y-108963152D02*
X184544714Y-109010771D01*
X184544714Y-109010771D02*
X184639952Y-109058390D01*
X184639952Y-109058390D02*
X184830428Y-109058390D01*
X184830428Y-109058390D02*
X184925666Y-109106009D01*
X184925666Y-109106009D02*
X184973285Y-109153628D01*
X184973285Y-109153628D02*
X185020904Y-109248866D01*
X185020904Y-109248866D02*
X185020904Y-109439342D01*
X185020904Y-109439342D02*
X184973285Y-109534580D01*
X184973285Y-109534580D02*
X184925666Y-109582200D01*
X184925666Y-109582200D02*
X184830428Y-109629819D01*
X184830428Y-109629819D02*
X184639952Y-109629819D01*
X184639952Y-109629819D02*
X184544714Y-109582200D01*
X184544714Y-109582200D02*
X184497095Y-109534580D01*
X184497095Y-109534580D02*
X184449476Y-109439342D01*
X184449476Y-109439342D02*
X184449476Y-109248866D01*
X184449476Y-109248866D02*
X184497095Y-109153628D01*
X184497095Y-109153628D02*
X184544714Y-109106009D01*
X184544714Y-109106009D02*
X184639952Y-109058390D01*
X183592333Y-108629819D02*
X183782809Y-108629819D01*
X183782809Y-108629819D02*
X183878047Y-108677438D01*
X183878047Y-108677438D02*
X183925666Y-108725057D01*
X183925666Y-108725057D02*
X184020904Y-108867914D01*
X184020904Y-108867914D02*
X184068523Y-109058390D01*
X184068523Y-109058390D02*
X184068523Y-109439342D01*
X184068523Y-109439342D02*
X184020904Y-109534580D01*
X184020904Y-109534580D02*
X183973285Y-109582200D01*
X183973285Y-109582200D02*
X183878047Y-109629819D01*
X183878047Y-109629819D02*
X183687571Y-109629819D01*
X183687571Y-109629819D02*
X183592333Y-109582200D01*
X183592333Y-109582200D02*
X183544714Y-109534580D01*
X183544714Y-109534580D02*
X183497095Y-109439342D01*
X183497095Y-109439342D02*
X183497095Y-109201247D01*
X183497095Y-109201247D02*
X183544714Y-109106009D01*
X183544714Y-109106009D02*
X183592333Y-109058390D01*
X183592333Y-109058390D02*
X183687571Y-109010771D01*
X183687571Y-109010771D02*
X183878047Y-109010771D01*
X183878047Y-109010771D02*
X183973285Y-109058390D01*
X183973285Y-109058390D02*
X184020904Y-109106009D01*
X184020904Y-109106009D02*
X184068523Y-109201247D01*
X169412993Y-127139942D02*
X169460613Y-127092323D01*
X169460613Y-127092323D02*
X169508232Y-126949466D01*
X169508232Y-126949466D02*
X169508232Y-126854228D01*
X169508232Y-126854228D02*
X169460613Y-126711371D01*
X169460613Y-126711371D02*
X169365374Y-126616133D01*
X169365374Y-126616133D02*
X169270136Y-126568514D01*
X169270136Y-126568514D02*
X169079660Y-126520895D01*
X169079660Y-126520895D02*
X168936803Y-126520895D01*
X168936803Y-126520895D02*
X168746327Y-126568514D01*
X168746327Y-126568514D02*
X168651089Y-126616133D01*
X168651089Y-126616133D02*
X168555851Y-126711371D01*
X168555851Y-126711371D02*
X168508232Y-126854228D01*
X168508232Y-126854228D02*
X168508232Y-126949466D01*
X168508232Y-126949466D02*
X168555851Y-127092323D01*
X168555851Y-127092323D02*
X168603470Y-127139942D01*
X168841565Y-127997085D02*
X169508232Y-127997085D01*
X168460613Y-127758990D02*
X169174898Y-127520895D01*
X169174898Y-127520895D02*
X169174898Y-128139942D01*
X168841565Y-128949466D02*
X169508232Y-128949466D01*
X168460613Y-128711371D02*
X169174898Y-128473276D01*
X169174898Y-128473276D02*
X169174898Y-129092323D01*
X161573917Y-135232752D02*
X161573917Y-135899419D01*
X161812012Y-134851800D02*
X162050107Y-135566085D01*
X162050107Y-135566085D02*
X161431060Y-135566085D01*
X161050107Y-135804180D02*
X161002488Y-135851800D01*
X161002488Y-135851800D02*
X161050107Y-135899419D01*
X161050107Y-135899419D02*
X161097726Y-135851800D01*
X161097726Y-135851800D02*
X161050107Y-135804180D01*
X161050107Y-135804180D02*
X161050107Y-135899419D01*
X160669155Y-134899419D02*
X160002489Y-134899419D01*
X160002489Y-134899419D02*
X160431060Y-135899419D01*
X159192965Y-135232752D02*
X159192965Y-135899419D01*
X159621536Y-135232752D02*
X159621536Y-135756561D01*
X159621536Y-135756561D02*
X159573917Y-135851800D01*
X159573917Y-135851800D02*
X159478679Y-135899419D01*
X159478679Y-135899419D02*
X159335822Y-135899419D01*
X159335822Y-135899419D02*
X159240584Y-135851800D01*
X159240584Y-135851800D02*
X159192965Y-135804180D01*
X158859631Y-135232752D02*
X158478679Y-135232752D01*
X158716774Y-135899419D02*
X158716774Y-135042276D01*
X158716774Y-135042276D02*
X158669155Y-134947038D01*
X158669155Y-134947038D02*
X158573917Y-134899419D01*
X158573917Y-134899419D02*
X158478679Y-134899419D01*
X168553270Y-132612780D02*
X168600889Y-132660400D01*
X168600889Y-132660400D02*
X168743746Y-132708019D01*
X168743746Y-132708019D02*
X168838984Y-132708019D01*
X168838984Y-132708019D02*
X168981841Y-132660400D01*
X168981841Y-132660400D02*
X169077079Y-132565161D01*
X169077079Y-132565161D02*
X169124698Y-132469923D01*
X169124698Y-132469923D02*
X169172317Y-132279447D01*
X169172317Y-132279447D02*
X169172317Y-132136590D01*
X169172317Y-132136590D02*
X169124698Y-131946114D01*
X169124698Y-131946114D02*
X169077079Y-131850876D01*
X169077079Y-131850876D02*
X168981841Y-131755638D01*
X168981841Y-131755638D02*
X168838984Y-131708019D01*
X168838984Y-131708019D02*
X168743746Y-131708019D01*
X168743746Y-131708019D02*
X168600889Y-131755638D01*
X168600889Y-131755638D02*
X168553270Y-131803257D01*
X167696127Y-132041352D02*
X167696127Y-132708019D01*
X167934222Y-131660400D02*
X168172317Y-132374685D01*
X168172317Y-132374685D02*
X167553270Y-132374685D01*
X166696127Y-131708019D02*
X167172317Y-131708019D01*
X167172317Y-131708019D02*
X167219936Y-132184209D01*
X167219936Y-132184209D02*
X167172317Y-132136590D01*
X167172317Y-132136590D02*
X167077079Y-132088971D01*
X167077079Y-132088971D02*
X166838984Y-132088971D01*
X166838984Y-132088971D02*
X166743746Y-132136590D01*
X166743746Y-132136590D02*
X166696127Y-132184209D01*
X166696127Y-132184209D02*
X166648508Y-132279447D01*
X166648508Y-132279447D02*
X166648508Y-132517542D01*
X166648508Y-132517542D02*
X166696127Y-132612780D01*
X166696127Y-132612780D02*
X166743746Y-132660400D01*
X166743746Y-132660400D02*
X166838984Y-132708019D01*
X166838984Y-132708019D02*
X167077079Y-132708019D01*
X167077079Y-132708019D02*
X167172317Y-132660400D01*
X167172317Y-132660400D02*
X167219936Y-132612780D01*
X197467857Y-130009580D02*
X197515476Y-130057200D01*
X197515476Y-130057200D02*
X197658333Y-130104819D01*
X197658333Y-130104819D02*
X197753571Y-130104819D01*
X197753571Y-130104819D02*
X197896428Y-130057200D01*
X197896428Y-130057200D02*
X197991666Y-129961961D01*
X197991666Y-129961961D02*
X198039285Y-129866723D01*
X198039285Y-129866723D02*
X198086904Y-129676247D01*
X198086904Y-129676247D02*
X198086904Y-129533390D01*
X198086904Y-129533390D02*
X198039285Y-129342914D01*
X198039285Y-129342914D02*
X197991666Y-129247676D01*
X197991666Y-129247676D02*
X197896428Y-129152438D01*
X197896428Y-129152438D02*
X197753571Y-129104819D01*
X197753571Y-129104819D02*
X197658333Y-129104819D01*
X197658333Y-129104819D02*
X197515476Y-129152438D01*
X197515476Y-129152438D02*
X197467857Y-129200057D01*
X197134523Y-129104819D02*
X196515476Y-129104819D01*
X196515476Y-129104819D02*
X196848809Y-129485771D01*
X196848809Y-129485771D02*
X196705952Y-129485771D01*
X196705952Y-129485771D02*
X196610714Y-129533390D01*
X196610714Y-129533390D02*
X196563095Y-129581009D01*
X196563095Y-129581009D02*
X196515476Y-129676247D01*
X196515476Y-129676247D02*
X196515476Y-129914342D01*
X196515476Y-129914342D02*
X196563095Y-130009580D01*
X196563095Y-130009580D02*
X196610714Y-130057200D01*
X196610714Y-130057200D02*
X196705952Y-130104819D01*
X196705952Y-130104819D02*
X196991666Y-130104819D01*
X196991666Y-130104819D02*
X197086904Y-130057200D01*
X197086904Y-130057200D02*
X197134523Y-130009580D01*
X195658333Y-129438152D02*
X195658333Y-130104819D01*
X195896428Y-129057200D02*
X196134523Y-129771485D01*
X196134523Y-129771485D02*
X195515476Y-129771485D01*
X160675393Y-124015742D02*
X160723013Y-123968123D01*
X160723013Y-123968123D02*
X160770632Y-123825266D01*
X160770632Y-123825266D02*
X160770632Y-123730028D01*
X160770632Y-123730028D02*
X160723013Y-123587171D01*
X160723013Y-123587171D02*
X160627774Y-123491933D01*
X160627774Y-123491933D02*
X160532536Y-123444314D01*
X160532536Y-123444314D02*
X160342060Y-123396695D01*
X160342060Y-123396695D02*
X160199203Y-123396695D01*
X160199203Y-123396695D02*
X160008727Y-123444314D01*
X160008727Y-123444314D02*
X159913489Y-123491933D01*
X159913489Y-123491933D02*
X159818251Y-123587171D01*
X159818251Y-123587171D02*
X159770632Y-123730028D01*
X159770632Y-123730028D02*
X159770632Y-123825266D01*
X159770632Y-123825266D02*
X159818251Y-123968123D01*
X159818251Y-123968123D02*
X159865870Y-124015742D01*
X159770632Y-124349076D02*
X159770632Y-124968123D01*
X159770632Y-124968123D02*
X160151584Y-124634790D01*
X160151584Y-124634790D02*
X160151584Y-124777647D01*
X160151584Y-124777647D02*
X160199203Y-124872885D01*
X160199203Y-124872885D02*
X160246822Y-124920504D01*
X160246822Y-124920504D02*
X160342060Y-124968123D01*
X160342060Y-124968123D02*
X160580155Y-124968123D01*
X160580155Y-124968123D02*
X160675393Y-124920504D01*
X160675393Y-124920504D02*
X160723013Y-124872885D01*
X160723013Y-124872885D02*
X160770632Y-124777647D01*
X160770632Y-124777647D02*
X160770632Y-124491933D01*
X160770632Y-124491933D02*
X160723013Y-124396695D01*
X160723013Y-124396695D02*
X160675393Y-124349076D01*
X160770632Y-125444314D02*
X160770632Y-125634790D01*
X160770632Y-125634790D02*
X160723013Y-125730028D01*
X160723013Y-125730028D02*
X160675393Y-125777647D01*
X160675393Y-125777647D02*
X160532536Y-125872885D01*
X160532536Y-125872885D02*
X160342060Y-125920504D01*
X160342060Y-125920504D02*
X159961108Y-125920504D01*
X159961108Y-125920504D02*
X159865870Y-125872885D01*
X159865870Y-125872885D02*
X159818251Y-125825266D01*
X159818251Y-125825266D02*
X159770632Y-125730028D01*
X159770632Y-125730028D02*
X159770632Y-125539552D01*
X159770632Y-125539552D02*
X159818251Y-125444314D01*
X159818251Y-125444314D02*
X159865870Y-125396695D01*
X159865870Y-125396695D02*
X159961108Y-125349076D01*
X159961108Y-125349076D02*
X160199203Y-125349076D01*
X160199203Y-125349076D02*
X160294441Y-125396695D01*
X160294441Y-125396695D02*
X160342060Y-125444314D01*
X160342060Y-125444314D02*
X160389679Y-125539552D01*
X160389679Y-125539552D02*
X160389679Y-125730028D01*
X160389679Y-125730028D02*
X160342060Y-125825266D01*
X160342060Y-125825266D02*
X160294441Y-125872885D01*
X160294441Y-125872885D02*
X160199203Y-125920504D01*
X226259580Y-54339029D02*
X226307200Y-54291410D01*
X226307200Y-54291410D02*
X226354819Y-54148553D01*
X226354819Y-54148553D02*
X226354819Y-54053315D01*
X226354819Y-54053315D02*
X226307200Y-53910458D01*
X226307200Y-53910458D02*
X226211961Y-53815220D01*
X226211961Y-53815220D02*
X226116723Y-53767601D01*
X226116723Y-53767601D02*
X225926247Y-53719982D01*
X225926247Y-53719982D02*
X225783390Y-53719982D01*
X225783390Y-53719982D02*
X225592914Y-53767601D01*
X225592914Y-53767601D02*
X225497676Y-53815220D01*
X225497676Y-53815220D02*
X225402438Y-53910458D01*
X225402438Y-53910458D02*
X225354819Y-54053315D01*
X225354819Y-54053315D02*
X225354819Y-54148553D01*
X225354819Y-54148553D02*
X225402438Y-54291410D01*
X225402438Y-54291410D02*
X225450057Y-54339029D01*
X226354819Y-55291410D02*
X226354819Y-54719982D01*
X226354819Y-55005696D02*
X225354819Y-55005696D01*
X225354819Y-55005696D02*
X225497676Y-54910458D01*
X225497676Y-54910458D02*
X225592914Y-54815220D01*
X225592914Y-54815220D02*
X225640533Y-54719982D01*
X226354819Y-55767601D02*
X226354819Y-55958077D01*
X226354819Y-55958077D02*
X226307200Y-56053315D01*
X226307200Y-56053315D02*
X226259580Y-56100934D01*
X226259580Y-56100934D02*
X226116723Y-56196172D01*
X226116723Y-56196172D02*
X225926247Y-56243791D01*
X225926247Y-56243791D02*
X225545295Y-56243791D01*
X225545295Y-56243791D02*
X225450057Y-56196172D01*
X225450057Y-56196172D02*
X225402438Y-56148553D01*
X225402438Y-56148553D02*
X225354819Y-56053315D01*
X225354819Y-56053315D02*
X225354819Y-55862839D01*
X225354819Y-55862839D02*
X225402438Y-55767601D01*
X225402438Y-55767601D02*
X225450057Y-55719982D01*
X225450057Y-55719982D02*
X225545295Y-55672363D01*
X225545295Y-55672363D02*
X225783390Y-55672363D01*
X225783390Y-55672363D02*
X225878628Y-55719982D01*
X225878628Y-55719982D02*
X225926247Y-55767601D01*
X225926247Y-55767601D02*
X225973866Y-55862839D01*
X225973866Y-55862839D02*
X225973866Y-56053315D01*
X225973866Y-56053315D02*
X225926247Y-56148553D01*
X225926247Y-56148553D02*
X225878628Y-56196172D01*
X225878628Y-56196172D02*
X225783390Y-56243791D01*
X198192857Y-142404819D02*
X198526190Y-141928628D01*
X198764285Y-142404819D02*
X198764285Y-141404819D01*
X198764285Y-141404819D02*
X198383333Y-141404819D01*
X198383333Y-141404819D02*
X198288095Y-141452438D01*
X198288095Y-141452438D02*
X198240476Y-141500057D01*
X198240476Y-141500057D02*
X198192857Y-141595295D01*
X198192857Y-141595295D02*
X198192857Y-141738152D01*
X198192857Y-141738152D02*
X198240476Y-141833390D01*
X198240476Y-141833390D02*
X198288095Y-141881009D01*
X198288095Y-141881009D02*
X198383333Y-141928628D01*
X198383333Y-141928628D02*
X198764285Y-141928628D01*
X197621428Y-141833390D02*
X197716666Y-141785771D01*
X197716666Y-141785771D02*
X197764285Y-141738152D01*
X197764285Y-141738152D02*
X197811904Y-141642914D01*
X197811904Y-141642914D02*
X197811904Y-141595295D01*
X197811904Y-141595295D02*
X197764285Y-141500057D01*
X197764285Y-141500057D02*
X197716666Y-141452438D01*
X197716666Y-141452438D02*
X197621428Y-141404819D01*
X197621428Y-141404819D02*
X197430952Y-141404819D01*
X197430952Y-141404819D02*
X197335714Y-141452438D01*
X197335714Y-141452438D02*
X197288095Y-141500057D01*
X197288095Y-141500057D02*
X197240476Y-141595295D01*
X197240476Y-141595295D02*
X197240476Y-141642914D01*
X197240476Y-141642914D02*
X197288095Y-141738152D01*
X197288095Y-141738152D02*
X197335714Y-141785771D01*
X197335714Y-141785771D02*
X197430952Y-141833390D01*
X197430952Y-141833390D02*
X197621428Y-141833390D01*
X197621428Y-141833390D02*
X197716666Y-141881009D01*
X197716666Y-141881009D02*
X197764285Y-141928628D01*
X197764285Y-141928628D02*
X197811904Y-142023866D01*
X197811904Y-142023866D02*
X197811904Y-142214342D01*
X197811904Y-142214342D02*
X197764285Y-142309580D01*
X197764285Y-142309580D02*
X197716666Y-142357200D01*
X197716666Y-142357200D02*
X197621428Y-142404819D01*
X197621428Y-142404819D02*
X197430952Y-142404819D01*
X197430952Y-142404819D02*
X197335714Y-142357200D01*
X197335714Y-142357200D02*
X197288095Y-142309580D01*
X197288095Y-142309580D02*
X197240476Y-142214342D01*
X197240476Y-142214342D02*
X197240476Y-142023866D01*
X197240476Y-142023866D02*
X197288095Y-141928628D01*
X197288095Y-141928628D02*
X197335714Y-141881009D01*
X197335714Y-141881009D02*
X197430952Y-141833390D01*
X196383333Y-141738152D02*
X196383333Y-142404819D01*
X196621428Y-141357200D02*
X196859523Y-142071485D01*
X196859523Y-142071485D02*
X196240476Y-142071485D01*
X195516666Y-142854819D02*
X195707142Y-142854819D01*
X195707142Y-142854819D02*
X195802380Y-142902438D01*
X195802380Y-142902438D02*
X195849999Y-142950057D01*
X195849999Y-142950057D02*
X195945237Y-143092914D01*
X195945237Y-143092914D02*
X195992856Y-143283390D01*
X195992856Y-143283390D02*
X195992856Y-143664342D01*
X195992856Y-143664342D02*
X195945237Y-143759580D01*
X195945237Y-143759580D02*
X195897618Y-143807200D01*
X195897618Y-143807200D02*
X195802380Y-143854819D01*
X195802380Y-143854819D02*
X195611904Y-143854819D01*
X195611904Y-143854819D02*
X195516666Y-143807200D01*
X195516666Y-143807200D02*
X195469047Y-143759580D01*
X195469047Y-143759580D02*
X195421428Y-143664342D01*
X195421428Y-143664342D02*
X195421428Y-143426247D01*
X195421428Y-143426247D02*
X195469047Y-143331009D01*
X195469047Y-143331009D02*
X195516666Y-143283390D01*
X195516666Y-143283390D02*
X195611904Y-143235771D01*
X195611904Y-143235771D02*
X195802380Y-143235771D01*
X195802380Y-143235771D02*
X195897618Y-143283390D01*
X195897618Y-143283390D02*
X195945237Y-143331009D01*
X195945237Y-143331009D02*
X195992856Y-143426247D01*
X194849999Y-143283390D02*
X194945237Y-143235771D01*
X194945237Y-143235771D02*
X194992856Y-143188152D01*
X194992856Y-143188152D02*
X195040475Y-143092914D01*
X195040475Y-143092914D02*
X195040475Y-143045295D01*
X195040475Y-143045295D02*
X194992856Y-142950057D01*
X194992856Y-142950057D02*
X194945237Y-142902438D01*
X194945237Y-142902438D02*
X194849999Y-142854819D01*
X194849999Y-142854819D02*
X194659523Y-142854819D01*
X194659523Y-142854819D02*
X194564285Y-142902438D01*
X194564285Y-142902438D02*
X194516666Y-142950057D01*
X194516666Y-142950057D02*
X194469047Y-143045295D01*
X194469047Y-143045295D02*
X194469047Y-143092914D01*
X194469047Y-143092914D02*
X194516666Y-143188152D01*
X194516666Y-143188152D02*
X194564285Y-143235771D01*
X194564285Y-143235771D02*
X194659523Y-143283390D01*
X194659523Y-143283390D02*
X194849999Y-143283390D01*
X194849999Y-143283390D02*
X194945237Y-143331009D01*
X194945237Y-143331009D02*
X194992856Y-143378628D01*
X194992856Y-143378628D02*
X195040475Y-143473866D01*
X195040475Y-143473866D02*
X195040475Y-143664342D01*
X195040475Y-143664342D02*
X194992856Y-143759580D01*
X194992856Y-143759580D02*
X194945237Y-143807200D01*
X194945237Y-143807200D02*
X194849999Y-143854819D01*
X194849999Y-143854819D02*
X194659523Y-143854819D01*
X194659523Y-143854819D02*
X194564285Y-143807200D01*
X194564285Y-143807200D02*
X194516666Y-143759580D01*
X194516666Y-143759580D02*
X194469047Y-143664342D01*
X194469047Y-143664342D02*
X194469047Y-143473866D01*
X194469047Y-143473866D02*
X194516666Y-143378628D01*
X194516666Y-143378628D02*
X194564285Y-143331009D01*
X194564285Y-143331009D02*
X194659523Y-143283390D01*
X193849999Y-142854819D02*
X193754761Y-142854819D01*
X193754761Y-142854819D02*
X193659523Y-142902438D01*
X193659523Y-142902438D02*
X193611904Y-142950057D01*
X193611904Y-142950057D02*
X193564285Y-143045295D01*
X193564285Y-143045295D02*
X193516666Y-143235771D01*
X193516666Y-143235771D02*
X193516666Y-143473866D01*
X193516666Y-143473866D02*
X193564285Y-143664342D01*
X193564285Y-143664342D02*
X193611904Y-143759580D01*
X193611904Y-143759580D02*
X193659523Y-143807200D01*
X193659523Y-143807200D02*
X193754761Y-143854819D01*
X193754761Y-143854819D02*
X193849999Y-143854819D01*
X193849999Y-143854819D02*
X193945237Y-143807200D01*
X193945237Y-143807200D02*
X193992856Y-143759580D01*
X193992856Y-143759580D02*
X194040475Y-143664342D01*
X194040475Y-143664342D02*
X194088094Y-143473866D01*
X194088094Y-143473866D02*
X194088094Y-143235771D01*
X194088094Y-143235771D02*
X194040475Y-143045295D01*
X194040475Y-143045295D02*
X193992856Y-142950057D01*
X193992856Y-142950057D02*
X193945237Y-142902438D01*
X193945237Y-142902438D02*
X193849999Y-142854819D01*
X193088094Y-143854819D02*
X193088094Y-142854819D01*
X192992856Y-143473866D02*
X192707142Y-143854819D01*
X192707142Y-143188152D02*
X193088094Y-143569104D01*
X210066666Y-120859580D02*
X210114285Y-120907200D01*
X210114285Y-120907200D02*
X210257142Y-120954819D01*
X210257142Y-120954819D02*
X210352380Y-120954819D01*
X210352380Y-120954819D02*
X210495237Y-120907200D01*
X210495237Y-120907200D02*
X210590475Y-120811961D01*
X210590475Y-120811961D02*
X210638094Y-120716723D01*
X210638094Y-120716723D02*
X210685713Y-120526247D01*
X210685713Y-120526247D02*
X210685713Y-120383390D01*
X210685713Y-120383390D02*
X210638094Y-120192914D01*
X210638094Y-120192914D02*
X210590475Y-120097676D01*
X210590475Y-120097676D02*
X210495237Y-120002438D01*
X210495237Y-120002438D02*
X210352380Y-119954819D01*
X210352380Y-119954819D02*
X210257142Y-119954819D01*
X210257142Y-119954819D02*
X210114285Y-120002438D01*
X210114285Y-120002438D02*
X210066666Y-120050057D01*
X209733332Y-119954819D02*
X209066666Y-119954819D01*
X209066666Y-119954819D02*
X209495237Y-120954819D01*
X161314270Y-128523380D02*
X161361889Y-128571000D01*
X161361889Y-128571000D02*
X161504746Y-128618619D01*
X161504746Y-128618619D02*
X161599984Y-128618619D01*
X161599984Y-128618619D02*
X161742841Y-128571000D01*
X161742841Y-128571000D02*
X161838079Y-128475761D01*
X161838079Y-128475761D02*
X161885698Y-128380523D01*
X161885698Y-128380523D02*
X161933317Y-128190047D01*
X161933317Y-128190047D02*
X161933317Y-128047190D01*
X161933317Y-128047190D02*
X161885698Y-127856714D01*
X161885698Y-127856714D02*
X161838079Y-127761476D01*
X161838079Y-127761476D02*
X161742841Y-127666238D01*
X161742841Y-127666238D02*
X161599984Y-127618619D01*
X161599984Y-127618619D02*
X161504746Y-127618619D01*
X161504746Y-127618619D02*
X161361889Y-127666238D01*
X161361889Y-127666238D02*
X161314270Y-127713857D01*
X160457127Y-127951952D02*
X160457127Y-128618619D01*
X160695222Y-127571000D02*
X160933317Y-128285285D01*
X160933317Y-128285285D02*
X160314270Y-128285285D01*
X159790460Y-128047190D02*
X159885698Y-127999571D01*
X159885698Y-127999571D02*
X159933317Y-127951952D01*
X159933317Y-127951952D02*
X159980936Y-127856714D01*
X159980936Y-127856714D02*
X159980936Y-127809095D01*
X159980936Y-127809095D02*
X159933317Y-127713857D01*
X159933317Y-127713857D02*
X159885698Y-127666238D01*
X159885698Y-127666238D02*
X159790460Y-127618619D01*
X159790460Y-127618619D02*
X159599984Y-127618619D01*
X159599984Y-127618619D02*
X159504746Y-127666238D01*
X159504746Y-127666238D02*
X159457127Y-127713857D01*
X159457127Y-127713857D02*
X159409508Y-127809095D01*
X159409508Y-127809095D02*
X159409508Y-127856714D01*
X159409508Y-127856714D02*
X159457127Y-127951952D01*
X159457127Y-127951952D02*
X159504746Y-127999571D01*
X159504746Y-127999571D02*
X159599984Y-128047190D01*
X159599984Y-128047190D02*
X159790460Y-128047190D01*
X159790460Y-128047190D02*
X159885698Y-128094809D01*
X159885698Y-128094809D02*
X159933317Y-128142428D01*
X159933317Y-128142428D02*
X159980936Y-128237666D01*
X159980936Y-128237666D02*
X159980936Y-128428142D01*
X159980936Y-128428142D02*
X159933317Y-128523380D01*
X159933317Y-128523380D02*
X159885698Y-128571000D01*
X159885698Y-128571000D02*
X159790460Y-128618619D01*
X159790460Y-128618619D02*
X159599984Y-128618619D01*
X159599984Y-128618619D02*
X159504746Y-128571000D01*
X159504746Y-128571000D02*
X159457127Y-128523380D01*
X159457127Y-128523380D02*
X159409508Y-128428142D01*
X159409508Y-128428142D02*
X159409508Y-128237666D01*
X159409508Y-128237666D02*
X159457127Y-128142428D01*
X159457127Y-128142428D02*
X159504746Y-128094809D01*
X159504746Y-128094809D02*
X159599984Y-128047190D01*
X168955793Y-123075942D02*
X169003413Y-123028323D01*
X169003413Y-123028323D02*
X169051032Y-122885466D01*
X169051032Y-122885466D02*
X169051032Y-122790228D01*
X169051032Y-122790228D02*
X169003413Y-122647371D01*
X169003413Y-122647371D02*
X168908174Y-122552133D01*
X168908174Y-122552133D02*
X168812936Y-122504514D01*
X168812936Y-122504514D02*
X168622460Y-122456895D01*
X168622460Y-122456895D02*
X168479603Y-122456895D01*
X168479603Y-122456895D02*
X168289127Y-122504514D01*
X168289127Y-122504514D02*
X168193889Y-122552133D01*
X168193889Y-122552133D02*
X168098651Y-122647371D01*
X168098651Y-122647371D02*
X168051032Y-122790228D01*
X168051032Y-122790228D02*
X168051032Y-122885466D01*
X168051032Y-122885466D02*
X168098651Y-123028323D01*
X168098651Y-123028323D02*
X168146270Y-123075942D01*
X168384365Y-123933085D02*
X169051032Y-123933085D01*
X168003413Y-123694990D02*
X168717698Y-123456895D01*
X168717698Y-123456895D02*
X168717698Y-124075942D01*
X168051032Y-124361657D02*
X168051032Y-124980704D01*
X168051032Y-124980704D02*
X168431984Y-124647371D01*
X168431984Y-124647371D02*
X168431984Y-124790228D01*
X168431984Y-124790228D02*
X168479603Y-124885466D01*
X168479603Y-124885466D02*
X168527222Y-124933085D01*
X168527222Y-124933085D02*
X168622460Y-124980704D01*
X168622460Y-124980704D02*
X168860555Y-124980704D01*
X168860555Y-124980704D02*
X168955793Y-124933085D01*
X168955793Y-124933085D02*
X169003413Y-124885466D01*
X169003413Y-124885466D02*
X169051032Y-124790228D01*
X169051032Y-124790228D02*
X169051032Y-124504514D01*
X169051032Y-124504514D02*
X169003413Y-124409276D01*
X169003413Y-124409276D02*
X168955793Y-124361657D01*
X197646470Y-107030278D02*
X197694089Y-107077898D01*
X197694089Y-107077898D02*
X197836946Y-107125517D01*
X197836946Y-107125517D02*
X197932184Y-107125517D01*
X197932184Y-107125517D02*
X198075041Y-107077898D01*
X198075041Y-107077898D02*
X198170279Y-106982659D01*
X198170279Y-106982659D02*
X198217898Y-106887421D01*
X198217898Y-106887421D02*
X198265517Y-106696945D01*
X198265517Y-106696945D02*
X198265517Y-106554088D01*
X198265517Y-106554088D02*
X198217898Y-106363612D01*
X198217898Y-106363612D02*
X198170279Y-106268374D01*
X198170279Y-106268374D02*
X198075041Y-106173136D01*
X198075041Y-106173136D02*
X197932184Y-106125517D01*
X197932184Y-106125517D02*
X197836946Y-106125517D01*
X197836946Y-106125517D02*
X197694089Y-106173136D01*
X197694089Y-106173136D02*
X197646470Y-106220755D01*
X196694089Y-107125517D02*
X197265517Y-107125517D01*
X196979803Y-107125517D02*
X196979803Y-106125517D01*
X196979803Y-106125517D02*
X197075041Y-106268374D01*
X197075041Y-106268374D02*
X197170279Y-106363612D01*
X197170279Y-106363612D02*
X197265517Y-106411231D01*
X195789327Y-106125517D02*
X196265517Y-106125517D01*
X196265517Y-106125517D02*
X196313136Y-106601707D01*
X196313136Y-106601707D02*
X196265517Y-106554088D01*
X196265517Y-106554088D02*
X196170279Y-106506469D01*
X196170279Y-106506469D02*
X195932184Y-106506469D01*
X195932184Y-106506469D02*
X195836946Y-106554088D01*
X195836946Y-106554088D02*
X195789327Y-106601707D01*
X195789327Y-106601707D02*
X195741708Y-106696945D01*
X195741708Y-106696945D02*
X195741708Y-106935040D01*
X195741708Y-106935040D02*
X195789327Y-107030278D01*
X195789327Y-107030278D02*
X195836946Y-107077898D01*
X195836946Y-107077898D02*
X195932184Y-107125517D01*
X195932184Y-107125517D02*
X196170279Y-107125517D01*
X196170279Y-107125517D02*
X196265517Y-107077898D01*
X196265517Y-107077898D02*
X196313136Y-107030278D01*
X201128571Y-105304819D02*
X201699999Y-105304819D01*
X201414285Y-105304819D02*
X201414285Y-104304819D01*
X201414285Y-104304819D02*
X201509523Y-104447676D01*
X201509523Y-104447676D02*
X201604761Y-104542914D01*
X201604761Y-104542914D02*
X201699999Y-104590533D01*
X200509523Y-104304819D02*
X200414285Y-104304819D01*
X200414285Y-104304819D02*
X200319047Y-104352438D01*
X200319047Y-104352438D02*
X200271428Y-104400057D01*
X200271428Y-104400057D02*
X200223809Y-104495295D01*
X200223809Y-104495295D02*
X200176190Y-104685771D01*
X200176190Y-104685771D02*
X200176190Y-104923866D01*
X200176190Y-104923866D02*
X200223809Y-105114342D01*
X200223809Y-105114342D02*
X200271428Y-105209580D01*
X200271428Y-105209580D02*
X200319047Y-105257200D01*
X200319047Y-105257200D02*
X200414285Y-105304819D01*
X200414285Y-105304819D02*
X200509523Y-105304819D01*
X200509523Y-105304819D02*
X200604761Y-105257200D01*
X200604761Y-105257200D02*
X200652380Y-105209580D01*
X200652380Y-105209580D02*
X200699999Y-105114342D01*
X200699999Y-105114342D02*
X200747618Y-104923866D01*
X200747618Y-104923866D02*
X200747618Y-104685771D01*
X200747618Y-104685771D02*
X200699999Y-104495295D01*
X200699999Y-104495295D02*
X200652380Y-104400057D01*
X200652380Y-104400057D02*
X200604761Y-104352438D01*
X200604761Y-104352438D02*
X200509523Y-104304819D01*
X199319047Y-104638152D02*
X199319047Y-105304819D01*
X199747618Y-104638152D02*
X199747618Y-105161961D01*
X199747618Y-105161961D02*
X199699999Y-105257200D01*
X199699999Y-105257200D02*
X199604761Y-105304819D01*
X199604761Y-105304819D02*
X199461904Y-105304819D01*
X199461904Y-105304819D02*
X199366666Y-105257200D01*
X199366666Y-105257200D02*
X199319047Y-105209580D01*
X198985713Y-104638152D02*
X198604761Y-104638152D01*
X198842856Y-105304819D02*
X198842856Y-104447676D01*
X198842856Y-104447676D02*
X198795237Y-104352438D01*
X198795237Y-104352438D02*
X198699999Y-104304819D01*
X198699999Y-104304819D02*
X198604761Y-104304819D01*
X165911670Y-128404180D02*
X165959289Y-128451800D01*
X165959289Y-128451800D02*
X166102146Y-128499419D01*
X166102146Y-128499419D02*
X166197384Y-128499419D01*
X166197384Y-128499419D02*
X166340241Y-128451800D01*
X166340241Y-128451800D02*
X166435479Y-128356561D01*
X166435479Y-128356561D02*
X166483098Y-128261323D01*
X166483098Y-128261323D02*
X166530717Y-128070847D01*
X166530717Y-128070847D02*
X166530717Y-127927990D01*
X166530717Y-127927990D02*
X166483098Y-127737514D01*
X166483098Y-127737514D02*
X166435479Y-127642276D01*
X166435479Y-127642276D02*
X166340241Y-127547038D01*
X166340241Y-127547038D02*
X166197384Y-127499419D01*
X166197384Y-127499419D02*
X166102146Y-127499419D01*
X166102146Y-127499419D02*
X165959289Y-127547038D01*
X165959289Y-127547038D02*
X165911670Y-127594657D01*
X165054527Y-127832752D02*
X165054527Y-128499419D01*
X165292622Y-127451800D02*
X165530717Y-128166085D01*
X165530717Y-128166085D02*
X164911670Y-128166085D01*
X164102146Y-127499419D02*
X164292622Y-127499419D01*
X164292622Y-127499419D02*
X164387860Y-127547038D01*
X164387860Y-127547038D02*
X164435479Y-127594657D01*
X164435479Y-127594657D02*
X164530717Y-127737514D01*
X164530717Y-127737514D02*
X164578336Y-127927990D01*
X164578336Y-127927990D02*
X164578336Y-128308942D01*
X164578336Y-128308942D02*
X164530717Y-128404180D01*
X164530717Y-128404180D02*
X164483098Y-128451800D01*
X164483098Y-128451800D02*
X164387860Y-128499419D01*
X164387860Y-128499419D02*
X164197384Y-128499419D01*
X164197384Y-128499419D02*
X164102146Y-128451800D01*
X164102146Y-128451800D02*
X164054527Y-128404180D01*
X164054527Y-128404180D02*
X164006908Y-128308942D01*
X164006908Y-128308942D02*
X164006908Y-128070847D01*
X164006908Y-128070847D02*
X164054527Y-127975609D01*
X164054527Y-127975609D02*
X164102146Y-127927990D01*
X164102146Y-127927990D02*
X164197384Y-127880371D01*
X164197384Y-127880371D02*
X164387860Y-127880371D01*
X164387860Y-127880371D02*
X164483098Y-127927990D01*
X164483098Y-127927990D02*
X164530717Y-127975609D01*
X164530717Y-127975609D02*
X164578336Y-128070847D01*
X175042857Y-96274819D02*
X175376190Y-95798628D01*
X175614285Y-96274819D02*
X175614285Y-95274819D01*
X175614285Y-95274819D02*
X175233333Y-95274819D01*
X175233333Y-95274819D02*
X175138095Y-95322438D01*
X175138095Y-95322438D02*
X175090476Y-95370057D01*
X175090476Y-95370057D02*
X175042857Y-95465295D01*
X175042857Y-95465295D02*
X175042857Y-95608152D01*
X175042857Y-95608152D02*
X175090476Y-95703390D01*
X175090476Y-95703390D02*
X175138095Y-95751009D01*
X175138095Y-95751009D02*
X175233333Y-95798628D01*
X175233333Y-95798628D02*
X175614285Y-95798628D01*
X174709523Y-95274819D02*
X174042857Y-95274819D01*
X174042857Y-95274819D02*
X174471428Y-96274819D01*
X173233333Y-95274819D02*
X173423809Y-95274819D01*
X173423809Y-95274819D02*
X173519047Y-95322438D01*
X173519047Y-95322438D02*
X173566666Y-95370057D01*
X173566666Y-95370057D02*
X173661904Y-95512914D01*
X173661904Y-95512914D02*
X173709523Y-95703390D01*
X173709523Y-95703390D02*
X173709523Y-96084342D01*
X173709523Y-96084342D02*
X173661904Y-96179580D01*
X173661904Y-96179580D02*
X173614285Y-96227200D01*
X173614285Y-96227200D02*
X173519047Y-96274819D01*
X173519047Y-96274819D02*
X173328571Y-96274819D01*
X173328571Y-96274819D02*
X173233333Y-96227200D01*
X173233333Y-96227200D02*
X173185714Y-96179580D01*
X173185714Y-96179580D02*
X173138095Y-96084342D01*
X173138095Y-96084342D02*
X173138095Y-95846247D01*
X173138095Y-95846247D02*
X173185714Y-95751009D01*
X173185714Y-95751009D02*
X173233333Y-95703390D01*
X173233333Y-95703390D02*
X173328571Y-95655771D01*
X173328571Y-95655771D02*
X173519047Y-95655771D01*
X173519047Y-95655771D02*
X173614285Y-95703390D01*
X173614285Y-95703390D02*
X173661904Y-95751009D01*
X173661904Y-95751009D02*
X173709523Y-95846247D01*
X189092857Y-132659580D02*
X189140476Y-132707200D01*
X189140476Y-132707200D02*
X189283333Y-132754819D01*
X189283333Y-132754819D02*
X189378571Y-132754819D01*
X189378571Y-132754819D02*
X189521428Y-132707200D01*
X189521428Y-132707200D02*
X189616666Y-132611961D01*
X189616666Y-132611961D02*
X189664285Y-132516723D01*
X189664285Y-132516723D02*
X189711904Y-132326247D01*
X189711904Y-132326247D02*
X189711904Y-132183390D01*
X189711904Y-132183390D02*
X189664285Y-131992914D01*
X189664285Y-131992914D02*
X189616666Y-131897676D01*
X189616666Y-131897676D02*
X189521428Y-131802438D01*
X189521428Y-131802438D02*
X189378571Y-131754819D01*
X189378571Y-131754819D02*
X189283333Y-131754819D01*
X189283333Y-131754819D02*
X189140476Y-131802438D01*
X189140476Y-131802438D02*
X189092857Y-131850057D01*
X188616666Y-132754819D02*
X188426190Y-132754819D01*
X188426190Y-132754819D02*
X188330952Y-132707200D01*
X188330952Y-132707200D02*
X188283333Y-132659580D01*
X188283333Y-132659580D02*
X188188095Y-132516723D01*
X188188095Y-132516723D02*
X188140476Y-132326247D01*
X188140476Y-132326247D02*
X188140476Y-131945295D01*
X188140476Y-131945295D02*
X188188095Y-131850057D01*
X188188095Y-131850057D02*
X188235714Y-131802438D01*
X188235714Y-131802438D02*
X188330952Y-131754819D01*
X188330952Y-131754819D02*
X188521428Y-131754819D01*
X188521428Y-131754819D02*
X188616666Y-131802438D01*
X188616666Y-131802438D02*
X188664285Y-131850057D01*
X188664285Y-131850057D02*
X188711904Y-131945295D01*
X188711904Y-131945295D02*
X188711904Y-132183390D01*
X188711904Y-132183390D02*
X188664285Y-132278628D01*
X188664285Y-132278628D02*
X188616666Y-132326247D01*
X188616666Y-132326247D02*
X188521428Y-132373866D01*
X188521428Y-132373866D02*
X188330952Y-132373866D01*
X188330952Y-132373866D02*
X188235714Y-132326247D01*
X188235714Y-132326247D02*
X188188095Y-132278628D01*
X188188095Y-132278628D02*
X188140476Y-132183390D01*
X187521428Y-131754819D02*
X187426190Y-131754819D01*
X187426190Y-131754819D02*
X187330952Y-131802438D01*
X187330952Y-131802438D02*
X187283333Y-131850057D01*
X187283333Y-131850057D02*
X187235714Y-131945295D01*
X187235714Y-131945295D02*
X187188095Y-132135771D01*
X187188095Y-132135771D02*
X187188095Y-132373866D01*
X187188095Y-132373866D02*
X187235714Y-132564342D01*
X187235714Y-132564342D02*
X187283333Y-132659580D01*
X187283333Y-132659580D02*
X187330952Y-132707200D01*
X187330952Y-132707200D02*
X187426190Y-132754819D01*
X187426190Y-132754819D02*
X187521428Y-132754819D01*
X187521428Y-132754819D02*
X187616666Y-132707200D01*
X187616666Y-132707200D02*
X187664285Y-132659580D01*
X187664285Y-132659580D02*
X187711904Y-132564342D01*
X187711904Y-132564342D02*
X187759523Y-132373866D01*
X187759523Y-132373866D02*
X187759523Y-132135771D01*
X187759523Y-132135771D02*
X187711904Y-131945295D01*
X187711904Y-131945295D02*
X187664285Y-131850057D01*
X187664285Y-131850057D02*
X187616666Y-131802438D01*
X187616666Y-131802438D02*
X187521428Y-131754819D01*
X186902381Y-130054819D02*
X187378571Y-130054819D01*
X187378571Y-130054819D02*
X187426190Y-130531009D01*
X187426190Y-130531009D02*
X187378571Y-130483390D01*
X187378571Y-130483390D02*
X187283333Y-130435771D01*
X187283333Y-130435771D02*
X187045238Y-130435771D01*
X187045238Y-130435771D02*
X186950000Y-130483390D01*
X186950000Y-130483390D02*
X186902381Y-130531009D01*
X186902381Y-130531009D02*
X186854762Y-130626247D01*
X186854762Y-130626247D02*
X186854762Y-130864342D01*
X186854762Y-130864342D02*
X186902381Y-130959580D01*
X186902381Y-130959580D02*
X186950000Y-131007200D01*
X186950000Y-131007200D02*
X187045238Y-131054819D01*
X187045238Y-131054819D02*
X187283333Y-131054819D01*
X187283333Y-131054819D02*
X187378571Y-131007200D01*
X187378571Y-131007200D02*
X187426190Y-130959580D01*
X185902381Y-131054819D02*
X186473809Y-131054819D01*
X186188095Y-131054819D02*
X186188095Y-130054819D01*
X186188095Y-130054819D02*
X186283333Y-130197676D01*
X186283333Y-130197676D02*
X186378571Y-130292914D01*
X186378571Y-130292914D02*
X186473809Y-130340533D01*
X185283333Y-130054819D02*
X185188095Y-130054819D01*
X185188095Y-130054819D02*
X185092857Y-130102438D01*
X185092857Y-130102438D02*
X185045238Y-130150057D01*
X185045238Y-130150057D02*
X184997619Y-130245295D01*
X184997619Y-130245295D02*
X184950000Y-130435771D01*
X184950000Y-130435771D02*
X184950000Y-130673866D01*
X184950000Y-130673866D02*
X184997619Y-130864342D01*
X184997619Y-130864342D02*
X185045238Y-130959580D01*
X185045238Y-130959580D02*
X185092857Y-131007200D01*
X185092857Y-131007200D02*
X185188095Y-131054819D01*
X185188095Y-131054819D02*
X185283333Y-131054819D01*
X185283333Y-131054819D02*
X185378571Y-131007200D01*
X185378571Y-131007200D02*
X185426190Y-130959580D01*
X185426190Y-130959580D02*
X185473809Y-130864342D01*
X185473809Y-130864342D02*
X185521428Y-130673866D01*
X185521428Y-130673866D02*
X185521428Y-130435771D01*
X185521428Y-130435771D02*
X185473809Y-130245295D01*
X185473809Y-130245295D02*
X185426190Y-130150057D01*
X185426190Y-130150057D02*
X185378571Y-130102438D01*
X185378571Y-130102438D02*
X185283333Y-130054819D01*
X184521428Y-130388152D02*
X184521428Y-131388152D01*
X184521428Y-130435771D02*
X184426190Y-130388152D01*
X184426190Y-130388152D02*
X184235714Y-130388152D01*
X184235714Y-130388152D02*
X184140476Y-130435771D01*
X184140476Y-130435771D02*
X184092857Y-130483390D01*
X184092857Y-130483390D02*
X184045238Y-130578628D01*
X184045238Y-130578628D02*
X184045238Y-130864342D01*
X184045238Y-130864342D02*
X184092857Y-130959580D01*
X184092857Y-130959580D02*
X184140476Y-131007200D01*
X184140476Y-131007200D02*
X184235714Y-131054819D01*
X184235714Y-131054819D02*
X184426190Y-131054819D01*
X184426190Y-131054819D02*
X184521428Y-131007200D01*
X183759523Y-130388152D02*
X183378571Y-130388152D01*
X183616666Y-131054819D02*
X183616666Y-130197676D01*
X183616666Y-130197676D02*
X183569047Y-130102438D01*
X183569047Y-130102438D02*
X183473809Y-130054819D01*
X183473809Y-130054819D02*
X183378571Y-130054819D01*
X191959580Y-133183333D02*
X192007200Y-133135714D01*
X192007200Y-133135714D02*
X192054819Y-132992857D01*
X192054819Y-132992857D02*
X192054819Y-132897619D01*
X192054819Y-132897619D02*
X192007200Y-132754762D01*
X192007200Y-132754762D02*
X191911961Y-132659524D01*
X191911961Y-132659524D02*
X191816723Y-132611905D01*
X191816723Y-132611905D02*
X191626247Y-132564286D01*
X191626247Y-132564286D02*
X191483390Y-132564286D01*
X191483390Y-132564286D02*
X191292914Y-132611905D01*
X191292914Y-132611905D02*
X191197676Y-132659524D01*
X191197676Y-132659524D02*
X191102438Y-132754762D01*
X191102438Y-132754762D02*
X191054819Y-132897619D01*
X191054819Y-132897619D02*
X191054819Y-132992857D01*
X191054819Y-132992857D02*
X191102438Y-133135714D01*
X191102438Y-133135714D02*
X191150057Y-133183333D01*
X191054819Y-134040476D02*
X191054819Y-133850000D01*
X191054819Y-133850000D02*
X191102438Y-133754762D01*
X191102438Y-133754762D02*
X191150057Y-133707143D01*
X191150057Y-133707143D02*
X191292914Y-133611905D01*
X191292914Y-133611905D02*
X191483390Y-133564286D01*
X191483390Y-133564286D02*
X191864342Y-133564286D01*
X191864342Y-133564286D02*
X191959580Y-133611905D01*
X191959580Y-133611905D02*
X192007200Y-133659524D01*
X192007200Y-133659524D02*
X192054819Y-133754762D01*
X192054819Y-133754762D02*
X192054819Y-133945238D01*
X192054819Y-133945238D02*
X192007200Y-134040476D01*
X192007200Y-134040476D02*
X191959580Y-134088095D01*
X191959580Y-134088095D02*
X191864342Y-134135714D01*
X191864342Y-134135714D02*
X191626247Y-134135714D01*
X191626247Y-134135714D02*
X191531009Y-134088095D01*
X191531009Y-134088095D02*
X191483390Y-134040476D01*
X191483390Y-134040476D02*
X191435771Y-133945238D01*
X191435771Y-133945238D02*
X191435771Y-133754762D01*
X191435771Y-133754762D02*
X191483390Y-133659524D01*
X191483390Y-133659524D02*
X191531009Y-133611905D01*
X191531009Y-133611905D02*
X191626247Y-133564286D01*
X163803470Y-120674780D02*
X163851089Y-120722400D01*
X163851089Y-120722400D02*
X163993946Y-120770019D01*
X163993946Y-120770019D02*
X164089184Y-120770019D01*
X164089184Y-120770019D02*
X164232041Y-120722400D01*
X164232041Y-120722400D02*
X164327279Y-120627161D01*
X164327279Y-120627161D02*
X164374898Y-120531923D01*
X164374898Y-120531923D02*
X164422517Y-120341447D01*
X164422517Y-120341447D02*
X164422517Y-120198590D01*
X164422517Y-120198590D02*
X164374898Y-120008114D01*
X164374898Y-120008114D02*
X164327279Y-119912876D01*
X164327279Y-119912876D02*
X164232041Y-119817638D01*
X164232041Y-119817638D02*
X164089184Y-119770019D01*
X164089184Y-119770019D02*
X163993946Y-119770019D01*
X163993946Y-119770019D02*
X163851089Y-119817638D01*
X163851089Y-119817638D02*
X163803470Y-119865257D01*
X162946327Y-120103352D02*
X162946327Y-120770019D01*
X163184422Y-119722400D02*
X163422517Y-120436685D01*
X163422517Y-120436685D02*
X162803470Y-120436685D01*
X162517755Y-119770019D02*
X161851089Y-119770019D01*
X161851089Y-119770019D02*
X162279660Y-120770019D01*
X172904819Y-145457142D02*
X172428628Y-145123809D01*
X172904819Y-144885714D02*
X171904819Y-144885714D01*
X171904819Y-144885714D02*
X171904819Y-145266666D01*
X171904819Y-145266666D02*
X171952438Y-145361904D01*
X171952438Y-145361904D02*
X172000057Y-145409523D01*
X172000057Y-145409523D02*
X172095295Y-145457142D01*
X172095295Y-145457142D02*
X172238152Y-145457142D01*
X172238152Y-145457142D02*
X172333390Y-145409523D01*
X172333390Y-145409523D02*
X172381009Y-145361904D01*
X172381009Y-145361904D02*
X172428628Y-145266666D01*
X172428628Y-145266666D02*
X172428628Y-144885714D01*
X172904819Y-146409523D02*
X172904819Y-145838095D01*
X172904819Y-146123809D02*
X171904819Y-146123809D01*
X171904819Y-146123809D02*
X172047676Y-146028571D01*
X172047676Y-146028571D02*
X172142914Y-145933333D01*
X172142914Y-145933333D02*
X172190533Y-145838095D01*
X171904819Y-147314285D02*
X171904819Y-146838095D01*
X171904819Y-146838095D02*
X172381009Y-146790476D01*
X172381009Y-146790476D02*
X172333390Y-146838095D01*
X172333390Y-146838095D02*
X172285771Y-146933333D01*
X172285771Y-146933333D02*
X172285771Y-147171428D01*
X172285771Y-147171428D02*
X172333390Y-147266666D01*
X172333390Y-147266666D02*
X172381009Y-147314285D01*
X172381009Y-147314285D02*
X172476247Y-147361904D01*
X172476247Y-147361904D02*
X172714342Y-147361904D01*
X172714342Y-147361904D02*
X172809580Y-147314285D01*
X172809580Y-147314285D02*
X172857200Y-147266666D01*
X172857200Y-147266666D02*
X172904819Y-147171428D01*
X172904819Y-147171428D02*
X172904819Y-146933333D01*
X172904819Y-146933333D02*
X172857200Y-146838095D01*
X172857200Y-146838095D02*
X172809580Y-146790476D01*
X197921763Y-114236278D02*
X197969382Y-114283898D01*
X197969382Y-114283898D02*
X198112239Y-114331517D01*
X198112239Y-114331517D02*
X198207477Y-114331517D01*
X198207477Y-114331517D02*
X198350334Y-114283898D01*
X198350334Y-114283898D02*
X198445572Y-114188659D01*
X198445572Y-114188659D02*
X198493191Y-114093421D01*
X198493191Y-114093421D02*
X198540810Y-113902945D01*
X198540810Y-113902945D02*
X198540810Y-113760088D01*
X198540810Y-113760088D02*
X198493191Y-113569612D01*
X198493191Y-113569612D02*
X198445572Y-113474374D01*
X198445572Y-113474374D02*
X198350334Y-113379136D01*
X198350334Y-113379136D02*
X198207477Y-113331517D01*
X198207477Y-113331517D02*
X198112239Y-113331517D01*
X198112239Y-113331517D02*
X197969382Y-113379136D01*
X197969382Y-113379136D02*
X197921763Y-113426755D01*
X197540810Y-113426755D02*
X197493191Y-113379136D01*
X197493191Y-113379136D02*
X197397953Y-113331517D01*
X197397953Y-113331517D02*
X197159858Y-113331517D01*
X197159858Y-113331517D02*
X197064620Y-113379136D01*
X197064620Y-113379136D02*
X197017001Y-113426755D01*
X197017001Y-113426755D02*
X196969382Y-113521993D01*
X196969382Y-113521993D02*
X196969382Y-113617231D01*
X196969382Y-113617231D02*
X197017001Y-113760088D01*
X197017001Y-113760088D02*
X197588429Y-114331517D01*
X197588429Y-114331517D02*
X196969382Y-114331517D01*
X196636048Y-113331517D02*
X196017001Y-113331517D01*
X196017001Y-113331517D02*
X196350334Y-113712469D01*
X196350334Y-113712469D02*
X196207477Y-113712469D01*
X196207477Y-113712469D02*
X196112239Y-113760088D01*
X196112239Y-113760088D02*
X196064620Y-113807707D01*
X196064620Y-113807707D02*
X196017001Y-113902945D01*
X196017001Y-113902945D02*
X196017001Y-114141040D01*
X196017001Y-114141040D02*
X196064620Y-114236278D01*
X196064620Y-114236278D02*
X196112239Y-114283898D01*
X196112239Y-114283898D02*
X196207477Y-114331517D01*
X196207477Y-114331517D02*
X196493191Y-114331517D01*
X196493191Y-114331517D02*
X196588429Y-114283898D01*
X196588429Y-114283898D02*
X196636048Y-114236278D01*
X234350432Y-102282142D02*
X233874241Y-101948809D01*
X234350432Y-101710714D02*
X233350432Y-101710714D01*
X233350432Y-101710714D02*
X233350432Y-102091666D01*
X233350432Y-102091666D02*
X233398051Y-102186904D01*
X233398051Y-102186904D02*
X233445670Y-102234523D01*
X233445670Y-102234523D02*
X233540908Y-102282142D01*
X233540908Y-102282142D02*
X233683765Y-102282142D01*
X233683765Y-102282142D02*
X233779003Y-102234523D01*
X233779003Y-102234523D02*
X233826622Y-102186904D01*
X233826622Y-102186904D02*
X233874241Y-102091666D01*
X233874241Y-102091666D02*
X233874241Y-101710714D01*
X234350432Y-103234523D02*
X234350432Y-102663095D01*
X234350432Y-102948809D02*
X233350432Y-102948809D01*
X233350432Y-102948809D02*
X233493289Y-102853571D01*
X233493289Y-102853571D02*
X233588527Y-102758333D01*
X233588527Y-102758333D02*
X233636146Y-102663095D01*
X233350432Y-104091666D02*
X233350432Y-103901190D01*
X233350432Y-103901190D02*
X233398051Y-103805952D01*
X233398051Y-103805952D02*
X233445670Y-103758333D01*
X233445670Y-103758333D02*
X233588527Y-103663095D01*
X233588527Y-103663095D02*
X233779003Y-103615476D01*
X233779003Y-103615476D02*
X234159955Y-103615476D01*
X234159955Y-103615476D02*
X234255193Y-103663095D01*
X234255193Y-103663095D02*
X234302813Y-103710714D01*
X234302813Y-103710714D02*
X234350432Y-103805952D01*
X234350432Y-103805952D02*
X234350432Y-103996428D01*
X234350432Y-103996428D02*
X234302813Y-104091666D01*
X234302813Y-104091666D02*
X234255193Y-104139285D01*
X234255193Y-104139285D02*
X234159955Y-104186904D01*
X234159955Y-104186904D02*
X233921860Y-104186904D01*
X233921860Y-104186904D02*
X233826622Y-104139285D01*
X233826622Y-104139285D02*
X233779003Y-104091666D01*
X233779003Y-104091666D02*
X233731384Y-103996428D01*
X233731384Y-103996428D02*
X233731384Y-103805952D01*
X233731384Y-103805952D02*
X233779003Y-103710714D01*
X233779003Y-103710714D02*
X233826622Y-103663095D01*
X233826622Y-103663095D02*
X233921860Y-103615476D01*
X191059580Y-115507142D02*
X191107200Y-115459523D01*
X191107200Y-115459523D02*
X191154819Y-115316666D01*
X191154819Y-115316666D02*
X191154819Y-115221428D01*
X191154819Y-115221428D02*
X191107200Y-115078571D01*
X191107200Y-115078571D02*
X191011961Y-114983333D01*
X191011961Y-114983333D02*
X190916723Y-114935714D01*
X190916723Y-114935714D02*
X190726247Y-114888095D01*
X190726247Y-114888095D02*
X190583390Y-114888095D01*
X190583390Y-114888095D02*
X190392914Y-114935714D01*
X190392914Y-114935714D02*
X190297676Y-114983333D01*
X190297676Y-114983333D02*
X190202438Y-115078571D01*
X190202438Y-115078571D02*
X190154819Y-115221428D01*
X190154819Y-115221428D02*
X190154819Y-115316666D01*
X190154819Y-115316666D02*
X190202438Y-115459523D01*
X190202438Y-115459523D02*
X190250057Y-115507142D01*
X190250057Y-115888095D02*
X190202438Y-115935714D01*
X190202438Y-115935714D02*
X190154819Y-116030952D01*
X190154819Y-116030952D02*
X190154819Y-116269047D01*
X190154819Y-116269047D02*
X190202438Y-116364285D01*
X190202438Y-116364285D02*
X190250057Y-116411904D01*
X190250057Y-116411904D02*
X190345295Y-116459523D01*
X190345295Y-116459523D02*
X190440533Y-116459523D01*
X190440533Y-116459523D02*
X190583390Y-116411904D01*
X190583390Y-116411904D02*
X191154819Y-115840476D01*
X191154819Y-115840476D02*
X191154819Y-116459523D01*
X191154819Y-116935714D02*
X191154819Y-117126190D01*
X191154819Y-117126190D02*
X191107200Y-117221428D01*
X191107200Y-117221428D02*
X191059580Y-117269047D01*
X191059580Y-117269047D02*
X190916723Y-117364285D01*
X190916723Y-117364285D02*
X190726247Y-117411904D01*
X190726247Y-117411904D02*
X190345295Y-117411904D01*
X190345295Y-117411904D02*
X190250057Y-117364285D01*
X190250057Y-117364285D02*
X190202438Y-117316666D01*
X190202438Y-117316666D02*
X190154819Y-117221428D01*
X190154819Y-117221428D02*
X190154819Y-117030952D01*
X190154819Y-117030952D02*
X190202438Y-116935714D01*
X190202438Y-116935714D02*
X190250057Y-116888095D01*
X190250057Y-116888095D02*
X190345295Y-116840476D01*
X190345295Y-116840476D02*
X190583390Y-116840476D01*
X190583390Y-116840476D02*
X190678628Y-116888095D01*
X190678628Y-116888095D02*
X190726247Y-116935714D01*
X190726247Y-116935714D02*
X190773866Y-117030952D01*
X190773866Y-117030952D02*
X190773866Y-117221428D01*
X190773866Y-117221428D02*
X190726247Y-117316666D01*
X190726247Y-117316666D02*
X190678628Y-117364285D01*
X190678628Y-117364285D02*
X190583390Y-117411904D01*
X214505707Y-114364517D02*
X214505707Y-113364517D01*
X214505707Y-113364517D02*
X214267612Y-113364517D01*
X214267612Y-113364517D02*
X214124755Y-113412136D01*
X214124755Y-113412136D02*
X214029517Y-113507374D01*
X214029517Y-113507374D02*
X213981898Y-113602612D01*
X213981898Y-113602612D02*
X213934279Y-113793088D01*
X213934279Y-113793088D02*
X213934279Y-113935945D01*
X213934279Y-113935945D02*
X213981898Y-114126421D01*
X213981898Y-114126421D02*
X214029517Y-114221659D01*
X214029517Y-114221659D02*
X214124755Y-114316898D01*
X214124755Y-114316898D02*
X214267612Y-114364517D01*
X214267612Y-114364517D02*
X214505707Y-114364517D01*
X213553326Y-113459755D02*
X213505707Y-113412136D01*
X213505707Y-113412136D02*
X213410469Y-113364517D01*
X213410469Y-113364517D02*
X213172374Y-113364517D01*
X213172374Y-113364517D02*
X213077136Y-113412136D01*
X213077136Y-113412136D02*
X213029517Y-113459755D01*
X213029517Y-113459755D02*
X212981898Y-113554993D01*
X212981898Y-113554993D02*
X212981898Y-113650231D01*
X212981898Y-113650231D02*
X213029517Y-113793088D01*
X213029517Y-113793088D02*
X213600945Y-114364517D01*
X213600945Y-114364517D02*
X212981898Y-114364517D01*
X153429580Y-58007142D02*
X153477200Y-57959523D01*
X153477200Y-57959523D02*
X153524819Y-57816666D01*
X153524819Y-57816666D02*
X153524819Y-57721428D01*
X153524819Y-57721428D02*
X153477200Y-57578571D01*
X153477200Y-57578571D02*
X153381961Y-57483333D01*
X153381961Y-57483333D02*
X153286723Y-57435714D01*
X153286723Y-57435714D02*
X153096247Y-57388095D01*
X153096247Y-57388095D02*
X152953390Y-57388095D01*
X152953390Y-57388095D02*
X152762914Y-57435714D01*
X152762914Y-57435714D02*
X152667676Y-57483333D01*
X152667676Y-57483333D02*
X152572438Y-57578571D01*
X152572438Y-57578571D02*
X152524819Y-57721428D01*
X152524819Y-57721428D02*
X152524819Y-57816666D01*
X152524819Y-57816666D02*
X152572438Y-57959523D01*
X152572438Y-57959523D02*
X152620057Y-58007142D01*
X152953390Y-58578571D02*
X152905771Y-58483333D01*
X152905771Y-58483333D02*
X152858152Y-58435714D01*
X152858152Y-58435714D02*
X152762914Y-58388095D01*
X152762914Y-58388095D02*
X152715295Y-58388095D01*
X152715295Y-58388095D02*
X152620057Y-58435714D01*
X152620057Y-58435714D02*
X152572438Y-58483333D01*
X152572438Y-58483333D02*
X152524819Y-58578571D01*
X152524819Y-58578571D02*
X152524819Y-58769047D01*
X152524819Y-58769047D02*
X152572438Y-58864285D01*
X152572438Y-58864285D02*
X152620057Y-58911904D01*
X152620057Y-58911904D02*
X152715295Y-58959523D01*
X152715295Y-58959523D02*
X152762914Y-58959523D01*
X152762914Y-58959523D02*
X152858152Y-58911904D01*
X152858152Y-58911904D02*
X152905771Y-58864285D01*
X152905771Y-58864285D02*
X152953390Y-58769047D01*
X152953390Y-58769047D02*
X152953390Y-58578571D01*
X152953390Y-58578571D02*
X153001009Y-58483333D01*
X153001009Y-58483333D02*
X153048628Y-58435714D01*
X153048628Y-58435714D02*
X153143866Y-58388095D01*
X153143866Y-58388095D02*
X153334342Y-58388095D01*
X153334342Y-58388095D02*
X153429580Y-58435714D01*
X153429580Y-58435714D02*
X153477200Y-58483333D01*
X153477200Y-58483333D02*
X153524819Y-58578571D01*
X153524819Y-58578571D02*
X153524819Y-58769047D01*
X153524819Y-58769047D02*
X153477200Y-58864285D01*
X153477200Y-58864285D02*
X153429580Y-58911904D01*
X153429580Y-58911904D02*
X153334342Y-58959523D01*
X153334342Y-58959523D02*
X153143866Y-58959523D01*
X153143866Y-58959523D02*
X153048628Y-58911904D01*
X153048628Y-58911904D02*
X153001009Y-58864285D01*
X153001009Y-58864285D02*
X152953390Y-58769047D01*
X152620057Y-59340476D02*
X152572438Y-59388095D01*
X152572438Y-59388095D02*
X152524819Y-59483333D01*
X152524819Y-59483333D02*
X152524819Y-59721428D01*
X152524819Y-59721428D02*
X152572438Y-59816666D01*
X152572438Y-59816666D02*
X152620057Y-59864285D01*
X152620057Y-59864285D02*
X152715295Y-59911904D01*
X152715295Y-59911904D02*
X152810533Y-59911904D01*
X152810533Y-59911904D02*
X152953390Y-59864285D01*
X152953390Y-59864285D02*
X153524819Y-59292857D01*
X153524819Y-59292857D02*
X153524819Y-59911904D01*
X166749870Y-122224180D02*
X166797489Y-122271800D01*
X166797489Y-122271800D02*
X166940346Y-122319419D01*
X166940346Y-122319419D02*
X167035584Y-122319419D01*
X167035584Y-122319419D02*
X167178441Y-122271800D01*
X167178441Y-122271800D02*
X167273679Y-122176561D01*
X167273679Y-122176561D02*
X167321298Y-122081323D01*
X167321298Y-122081323D02*
X167368917Y-121890847D01*
X167368917Y-121890847D02*
X167368917Y-121747990D01*
X167368917Y-121747990D02*
X167321298Y-121557514D01*
X167321298Y-121557514D02*
X167273679Y-121462276D01*
X167273679Y-121462276D02*
X167178441Y-121367038D01*
X167178441Y-121367038D02*
X167035584Y-121319419D01*
X167035584Y-121319419D02*
X166940346Y-121319419D01*
X166940346Y-121319419D02*
X166797489Y-121367038D01*
X166797489Y-121367038D02*
X166749870Y-121414657D01*
X165892727Y-121319419D02*
X166083203Y-121319419D01*
X166083203Y-121319419D02*
X166178441Y-121367038D01*
X166178441Y-121367038D02*
X166226060Y-121414657D01*
X166226060Y-121414657D02*
X166321298Y-121557514D01*
X166321298Y-121557514D02*
X166368917Y-121747990D01*
X166368917Y-121747990D02*
X166368917Y-122128942D01*
X166368917Y-122128942D02*
X166321298Y-122224180D01*
X166321298Y-122224180D02*
X166273679Y-122271800D01*
X166273679Y-122271800D02*
X166178441Y-122319419D01*
X166178441Y-122319419D02*
X165987965Y-122319419D01*
X165987965Y-122319419D02*
X165892727Y-122271800D01*
X165892727Y-122271800D02*
X165845108Y-122224180D01*
X165845108Y-122224180D02*
X165797489Y-122128942D01*
X165797489Y-122128942D02*
X165797489Y-121890847D01*
X165797489Y-121890847D02*
X165845108Y-121795609D01*
X165845108Y-121795609D02*
X165892727Y-121747990D01*
X165892727Y-121747990D02*
X165987965Y-121700371D01*
X165987965Y-121700371D02*
X166178441Y-121700371D01*
X166178441Y-121700371D02*
X166273679Y-121747990D01*
X166273679Y-121747990D02*
X166321298Y-121795609D01*
X166321298Y-121795609D02*
X166368917Y-121890847D01*
X164892727Y-121319419D02*
X165368917Y-121319419D01*
X165368917Y-121319419D02*
X165416536Y-121795609D01*
X165416536Y-121795609D02*
X165368917Y-121747990D01*
X165368917Y-121747990D02*
X165273679Y-121700371D01*
X165273679Y-121700371D02*
X165035584Y-121700371D01*
X165035584Y-121700371D02*
X164940346Y-121747990D01*
X164940346Y-121747990D02*
X164892727Y-121795609D01*
X164892727Y-121795609D02*
X164845108Y-121890847D01*
X164845108Y-121890847D02*
X164845108Y-122128942D01*
X164845108Y-122128942D02*
X164892727Y-122224180D01*
X164892727Y-122224180D02*
X164940346Y-122271800D01*
X164940346Y-122271800D02*
X165035584Y-122319419D01*
X165035584Y-122319419D02*
X165273679Y-122319419D01*
X165273679Y-122319419D02*
X165368917Y-122271800D01*
X165368917Y-122271800D02*
X165416536Y-122224180D01*
X170295238Y-96350057D02*
X170390476Y-96302438D01*
X170390476Y-96302438D02*
X170485714Y-96207200D01*
X170485714Y-96207200D02*
X170628571Y-96064342D01*
X170628571Y-96064342D02*
X170723809Y-96016723D01*
X170723809Y-96016723D02*
X170819047Y-96016723D01*
X170771428Y-96254819D02*
X170866666Y-96207200D01*
X170866666Y-96207200D02*
X170961904Y-96111961D01*
X170961904Y-96111961D02*
X171009523Y-95921485D01*
X171009523Y-95921485D02*
X171009523Y-95588152D01*
X171009523Y-95588152D02*
X170961904Y-95397676D01*
X170961904Y-95397676D02*
X170866666Y-95302438D01*
X170866666Y-95302438D02*
X170771428Y-95254819D01*
X170771428Y-95254819D02*
X170580952Y-95254819D01*
X170580952Y-95254819D02*
X170485714Y-95302438D01*
X170485714Y-95302438D02*
X170390476Y-95397676D01*
X170390476Y-95397676D02*
X170342857Y-95588152D01*
X170342857Y-95588152D02*
X170342857Y-95921485D01*
X170342857Y-95921485D02*
X170390476Y-96111961D01*
X170390476Y-96111961D02*
X170485714Y-96207200D01*
X170485714Y-96207200D02*
X170580952Y-96254819D01*
X170580952Y-96254819D02*
X170771428Y-96254819D01*
X170009523Y-95254819D02*
X169390476Y-95254819D01*
X169390476Y-95254819D02*
X169723809Y-95635771D01*
X169723809Y-95635771D02*
X169580952Y-95635771D01*
X169580952Y-95635771D02*
X169485714Y-95683390D01*
X169485714Y-95683390D02*
X169438095Y-95731009D01*
X169438095Y-95731009D02*
X169390476Y-95826247D01*
X169390476Y-95826247D02*
X169390476Y-96064342D01*
X169390476Y-96064342D02*
X169438095Y-96159580D01*
X169438095Y-96159580D02*
X169485714Y-96207200D01*
X169485714Y-96207200D02*
X169580952Y-96254819D01*
X169580952Y-96254819D02*
X169866666Y-96254819D01*
X169866666Y-96254819D02*
X169961904Y-96207200D01*
X169961904Y-96207200D02*
X170009523Y-96159580D01*
X166254819Y-96732142D02*
X165778628Y-96398809D01*
X166254819Y-96160714D02*
X165254819Y-96160714D01*
X165254819Y-96160714D02*
X165254819Y-96541666D01*
X165254819Y-96541666D02*
X165302438Y-96636904D01*
X165302438Y-96636904D02*
X165350057Y-96684523D01*
X165350057Y-96684523D02*
X165445295Y-96732142D01*
X165445295Y-96732142D02*
X165588152Y-96732142D01*
X165588152Y-96732142D02*
X165683390Y-96684523D01*
X165683390Y-96684523D02*
X165731009Y-96636904D01*
X165731009Y-96636904D02*
X165778628Y-96541666D01*
X165778628Y-96541666D02*
X165778628Y-96160714D01*
X165683390Y-97303571D02*
X165635771Y-97208333D01*
X165635771Y-97208333D02*
X165588152Y-97160714D01*
X165588152Y-97160714D02*
X165492914Y-97113095D01*
X165492914Y-97113095D02*
X165445295Y-97113095D01*
X165445295Y-97113095D02*
X165350057Y-97160714D01*
X165350057Y-97160714D02*
X165302438Y-97208333D01*
X165302438Y-97208333D02*
X165254819Y-97303571D01*
X165254819Y-97303571D02*
X165254819Y-97494047D01*
X165254819Y-97494047D02*
X165302438Y-97589285D01*
X165302438Y-97589285D02*
X165350057Y-97636904D01*
X165350057Y-97636904D02*
X165445295Y-97684523D01*
X165445295Y-97684523D02*
X165492914Y-97684523D01*
X165492914Y-97684523D02*
X165588152Y-97636904D01*
X165588152Y-97636904D02*
X165635771Y-97589285D01*
X165635771Y-97589285D02*
X165683390Y-97494047D01*
X165683390Y-97494047D02*
X165683390Y-97303571D01*
X165683390Y-97303571D02*
X165731009Y-97208333D01*
X165731009Y-97208333D02*
X165778628Y-97160714D01*
X165778628Y-97160714D02*
X165873866Y-97113095D01*
X165873866Y-97113095D02*
X166064342Y-97113095D01*
X166064342Y-97113095D02*
X166159580Y-97160714D01*
X166159580Y-97160714D02*
X166207200Y-97208333D01*
X166207200Y-97208333D02*
X166254819Y-97303571D01*
X166254819Y-97303571D02*
X166254819Y-97494047D01*
X166254819Y-97494047D02*
X166207200Y-97589285D01*
X166207200Y-97589285D02*
X166159580Y-97636904D01*
X166159580Y-97636904D02*
X166064342Y-97684523D01*
X166064342Y-97684523D02*
X165873866Y-97684523D01*
X165873866Y-97684523D02*
X165778628Y-97636904D01*
X165778628Y-97636904D02*
X165731009Y-97589285D01*
X165731009Y-97589285D02*
X165683390Y-97494047D01*
X165254819Y-98303571D02*
X165254819Y-98398809D01*
X165254819Y-98398809D02*
X165302438Y-98494047D01*
X165302438Y-98494047D02*
X165350057Y-98541666D01*
X165350057Y-98541666D02*
X165445295Y-98589285D01*
X165445295Y-98589285D02*
X165635771Y-98636904D01*
X165635771Y-98636904D02*
X165873866Y-98636904D01*
X165873866Y-98636904D02*
X166064342Y-98589285D01*
X166064342Y-98589285D02*
X166159580Y-98541666D01*
X166159580Y-98541666D02*
X166207200Y-98494047D01*
X166207200Y-98494047D02*
X166254819Y-98398809D01*
X166254819Y-98398809D02*
X166254819Y-98303571D01*
X166254819Y-98303571D02*
X166207200Y-98208333D01*
X166207200Y-98208333D02*
X166159580Y-98160714D01*
X166159580Y-98160714D02*
X166064342Y-98113095D01*
X166064342Y-98113095D02*
X165873866Y-98065476D01*
X165873866Y-98065476D02*
X165635771Y-98065476D01*
X165635771Y-98065476D02*
X165445295Y-98113095D01*
X165445295Y-98113095D02*
X165350057Y-98160714D01*
X165350057Y-98160714D02*
X165302438Y-98208333D01*
X165302438Y-98208333D02*
X165254819Y-98303571D01*
X160704670Y-119525419D02*
X161038003Y-119049228D01*
X161276098Y-119525419D02*
X161276098Y-118525419D01*
X161276098Y-118525419D02*
X160895146Y-118525419D01*
X160895146Y-118525419D02*
X160799908Y-118573038D01*
X160799908Y-118573038D02*
X160752289Y-118620657D01*
X160752289Y-118620657D02*
X160704670Y-118715895D01*
X160704670Y-118715895D02*
X160704670Y-118858752D01*
X160704670Y-118858752D02*
X160752289Y-118953990D01*
X160752289Y-118953990D02*
X160799908Y-119001609D01*
X160799908Y-119001609D02*
X160895146Y-119049228D01*
X160895146Y-119049228D02*
X161276098Y-119049228D01*
X159847527Y-118525419D02*
X160038003Y-118525419D01*
X160038003Y-118525419D02*
X160133241Y-118573038D01*
X160133241Y-118573038D02*
X160180860Y-118620657D01*
X160180860Y-118620657D02*
X160276098Y-118763514D01*
X160276098Y-118763514D02*
X160323717Y-118953990D01*
X160323717Y-118953990D02*
X160323717Y-119334942D01*
X160323717Y-119334942D02*
X160276098Y-119430180D01*
X160276098Y-119430180D02*
X160228479Y-119477800D01*
X160228479Y-119477800D02*
X160133241Y-119525419D01*
X160133241Y-119525419D02*
X159942765Y-119525419D01*
X159942765Y-119525419D02*
X159847527Y-119477800D01*
X159847527Y-119477800D02*
X159799908Y-119430180D01*
X159799908Y-119430180D02*
X159752289Y-119334942D01*
X159752289Y-119334942D02*
X159752289Y-119096847D01*
X159752289Y-119096847D02*
X159799908Y-119001609D01*
X159799908Y-119001609D02*
X159847527Y-118953990D01*
X159847527Y-118953990D02*
X159942765Y-118906371D01*
X159942765Y-118906371D02*
X160133241Y-118906371D01*
X160133241Y-118906371D02*
X160228479Y-118953990D01*
X160228479Y-118953990D02*
X160276098Y-119001609D01*
X160276098Y-119001609D02*
X160323717Y-119096847D01*
X159371336Y-118620657D02*
X159323717Y-118573038D01*
X159323717Y-118573038D02*
X159228479Y-118525419D01*
X159228479Y-118525419D02*
X158990384Y-118525419D01*
X158990384Y-118525419D02*
X158895146Y-118573038D01*
X158895146Y-118573038D02*
X158847527Y-118620657D01*
X158847527Y-118620657D02*
X158799908Y-118715895D01*
X158799908Y-118715895D02*
X158799908Y-118811133D01*
X158799908Y-118811133D02*
X158847527Y-118953990D01*
X158847527Y-118953990D02*
X159418955Y-119525419D01*
X159418955Y-119525419D02*
X158799908Y-119525419D01*
X166224819Y-93632142D02*
X165748628Y-93298809D01*
X166224819Y-93060714D02*
X165224819Y-93060714D01*
X165224819Y-93060714D02*
X165224819Y-93441666D01*
X165224819Y-93441666D02*
X165272438Y-93536904D01*
X165272438Y-93536904D02*
X165320057Y-93584523D01*
X165320057Y-93584523D02*
X165415295Y-93632142D01*
X165415295Y-93632142D02*
X165558152Y-93632142D01*
X165558152Y-93632142D02*
X165653390Y-93584523D01*
X165653390Y-93584523D02*
X165701009Y-93536904D01*
X165701009Y-93536904D02*
X165748628Y-93441666D01*
X165748628Y-93441666D02*
X165748628Y-93060714D01*
X165653390Y-94203571D02*
X165605771Y-94108333D01*
X165605771Y-94108333D02*
X165558152Y-94060714D01*
X165558152Y-94060714D02*
X165462914Y-94013095D01*
X165462914Y-94013095D02*
X165415295Y-94013095D01*
X165415295Y-94013095D02*
X165320057Y-94060714D01*
X165320057Y-94060714D02*
X165272438Y-94108333D01*
X165272438Y-94108333D02*
X165224819Y-94203571D01*
X165224819Y-94203571D02*
X165224819Y-94394047D01*
X165224819Y-94394047D02*
X165272438Y-94489285D01*
X165272438Y-94489285D02*
X165320057Y-94536904D01*
X165320057Y-94536904D02*
X165415295Y-94584523D01*
X165415295Y-94584523D02*
X165462914Y-94584523D01*
X165462914Y-94584523D02*
X165558152Y-94536904D01*
X165558152Y-94536904D02*
X165605771Y-94489285D01*
X165605771Y-94489285D02*
X165653390Y-94394047D01*
X165653390Y-94394047D02*
X165653390Y-94203571D01*
X165653390Y-94203571D02*
X165701009Y-94108333D01*
X165701009Y-94108333D02*
X165748628Y-94060714D01*
X165748628Y-94060714D02*
X165843866Y-94013095D01*
X165843866Y-94013095D02*
X166034342Y-94013095D01*
X166034342Y-94013095D02*
X166129580Y-94060714D01*
X166129580Y-94060714D02*
X166177200Y-94108333D01*
X166177200Y-94108333D02*
X166224819Y-94203571D01*
X166224819Y-94203571D02*
X166224819Y-94394047D01*
X166224819Y-94394047D02*
X166177200Y-94489285D01*
X166177200Y-94489285D02*
X166129580Y-94536904D01*
X166129580Y-94536904D02*
X166034342Y-94584523D01*
X166034342Y-94584523D02*
X165843866Y-94584523D01*
X165843866Y-94584523D02*
X165748628Y-94536904D01*
X165748628Y-94536904D02*
X165701009Y-94489285D01*
X165701009Y-94489285D02*
X165653390Y-94394047D01*
X165320057Y-94965476D02*
X165272438Y-95013095D01*
X165272438Y-95013095D02*
X165224819Y-95108333D01*
X165224819Y-95108333D02*
X165224819Y-95346428D01*
X165224819Y-95346428D02*
X165272438Y-95441666D01*
X165272438Y-95441666D02*
X165320057Y-95489285D01*
X165320057Y-95489285D02*
X165415295Y-95536904D01*
X165415295Y-95536904D02*
X165510533Y-95536904D01*
X165510533Y-95536904D02*
X165653390Y-95489285D01*
X165653390Y-95489285D02*
X166224819Y-94917857D01*
X166224819Y-94917857D02*
X166224819Y-95536904D01*
X204542857Y-114259580D02*
X204590476Y-114307200D01*
X204590476Y-114307200D02*
X204733333Y-114354819D01*
X204733333Y-114354819D02*
X204828571Y-114354819D01*
X204828571Y-114354819D02*
X204971428Y-114307200D01*
X204971428Y-114307200D02*
X205066666Y-114211961D01*
X205066666Y-114211961D02*
X205114285Y-114116723D01*
X205114285Y-114116723D02*
X205161904Y-113926247D01*
X205161904Y-113926247D02*
X205161904Y-113783390D01*
X205161904Y-113783390D02*
X205114285Y-113592914D01*
X205114285Y-113592914D02*
X205066666Y-113497676D01*
X205066666Y-113497676D02*
X204971428Y-113402438D01*
X204971428Y-113402438D02*
X204828571Y-113354819D01*
X204828571Y-113354819D02*
X204733333Y-113354819D01*
X204733333Y-113354819D02*
X204590476Y-113402438D01*
X204590476Y-113402438D02*
X204542857Y-113450057D01*
X204161904Y-113450057D02*
X204114285Y-113402438D01*
X204114285Y-113402438D02*
X204019047Y-113354819D01*
X204019047Y-113354819D02*
X203780952Y-113354819D01*
X203780952Y-113354819D02*
X203685714Y-113402438D01*
X203685714Y-113402438D02*
X203638095Y-113450057D01*
X203638095Y-113450057D02*
X203590476Y-113545295D01*
X203590476Y-113545295D02*
X203590476Y-113640533D01*
X203590476Y-113640533D02*
X203638095Y-113783390D01*
X203638095Y-113783390D02*
X204209523Y-114354819D01*
X204209523Y-114354819D02*
X203590476Y-114354819D01*
X203209523Y-113450057D02*
X203161904Y-113402438D01*
X203161904Y-113402438D02*
X203066666Y-113354819D01*
X203066666Y-113354819D02*
X202828571Y-113354819D01*
X202828571Y-113354819D02*
X202733333Y-113402438D01*
X202733333Y-113402438D02*
X202685714Y-113450057D01*
X202685714Y-113450057D02*
X202638095Y-113545295D01*
X202638095Y-113545295D02*
X202638095Y-113640533D01*
X202638095Y-113640533D02*
X202685714Y-113783390D01*
X202685714Y-113783390D02*
X203257142Y-114354819D01*
X203257142Y-114354819D02*
X202638095Y-114354819D01*
X183459580Y-136057142D02*
X183507200Y-136009523D01*
X183507200Y-136009523D02*
X183554819Y-135866666D01*
X183554819Y-135866666D02*
X183554819Y-135771428D01*
X183554819Y-135771428D02*
X183507200Y-135628571D01*
X183507200Y-135628571D02*
X183411961Y-135533333D01*
X183411961Y-135533333D02*
X183316723Y-135485714D01*
X183316723Y-135485714D02*
X183126247Y-135438095D01*
X183126247Y-135438095D02*
X182983390Y-135438095D01*
X182983390Y-135438095D02*
X182792914Y-135485714D01*
X182792914Y-135485714D02*
X182697676Y-135533333D01*
X182697676Y-135533333D02*
X182602438Y-135628571D01*
X182602438Y-135628571D02*
X182554819Y-135771428D01*
X182554819Y-135771428D02*
X182554819Y-135866666D01*
X182554819Y-135866666D02*
X182602438Y-136009523D01*
X182602438Y-136009523D02*
X182650057Y-136057142D01*
X182983390Y-136628571D02*
X182935771Y-136533333D01*
X182935771Y-136533333D02*
X182888152Y-136485714D01*
X182888152Y-136485714D02*
X182792914Y-136438095D01*
X182792914Y-136438095D02*
X182745295Y-136438095D01*
X182745295Y-136438095D02*
X182650057Y-136485714D01*
X182650057Y-136485714D02*
X182602438Y-136533333D01*
X182602438Y-136533333D02*
X182554819Y-136628571D01*
X182554819Y-136628571D02*
X182554819Y-136819047D01*
X182554819Y-136819047D02*
X182602438Y-136914285D01*
X182602438Y-136914285D02*
X182650057Y-136961904D01*
X182650057Y-136961904D02*
X182745295Y-137009523D01*
X182745295Y-137009523D02*
X182792914Y-137009523D01*
X182792914Y-137009523D02*
X182888152Y-136961904D01*
X182888152Y-136961904D02*
X182935771Y-136914285D01*
X182935771Y-136914285D02*
X182983390Y-136819047D01*
X182983390Y-136819047D02*
X182983390Y-136628571D01*
X182983390Y-136628571D02*
X183031009Y-136533333D01*
X183031009Y-136533333D02*
X183078628Y-136485714D01*
X183078628Y-136485714D02*
X183173866Y-136438095D01*
X183173866Y-136438095D02*
X183364342Y-136438095D01*
X183364342Y-136438095D02*
X183459580Y-136485714D01*
X183459580Y-136485714D02*
X183507200Y-136533333D01*
X183507200Y-136533333D02*
X183554819Y-136628571D01*
X183554819Y-136628571D02*
X183554819Y-136819047D01*
X183554819Y-136819047D02*
X183507200Y-136914285D01*
X183507200Y-136914285D02*
X183459580Y-136961904D01*
X183459580Y-136961904D02*
X183364342Y-137009523D01*
X183364342Y-137009523D02*
X183173866Y-137009523D01*
X183173866Y-137009523D02*
X183078628Y-136961904D01*
X183078628Y-136961904D02*
X183031009Y-136914285D01*
X183031009Y-136914285D02*
X182983390Y-136819047D01*
X183554819Y-137485714D02*
X183554819Y-137676190D01*
X183554819Y-137676190D02*
X183507200Y-137771428D01*
X183507200Y-137771428D02*
X183459580Y-137819047D01*
X183459580Y-137819047D02*
X183316723Y-137914285D01*
X183316723Y-137914285D02*
X183126247Y-137961904D01*
X183126247Y-137961904D02*
X182745295Y-137961904D01*
X182745295Y-137961904D02*
X182650057Y-137914285D01*
X182650057Y-137914285D02*
X182602438Y-137866666D01*
X182602438Y-137866666D02*
X182554819Y-137771428D01*
X182554819Y-137771428D02*
X182554819Y-137580952D01*
X182554819Y-137580952D02*
X182602438Y-137485714D01*
X182602438Y-137485714D02*
X182650057Y-137438095D01*
X182650057Y-137438095D02*
X182745295Y-137390476D01*
X182745295Y-137390476D02*
X182983390Y-137390476D01*
X182983390Y-137390476D02*
X183078628Y-137438095D01*
X183078628Y-137438095D02*
X183126247Y-137485714D01*
X183126247Y-137485714D02*
X183173866Y-137580952D01*
X183173866Y-137580952D02*
X183173866Y-137771428D01*
X183173866Y-137771428D02*
X183126247Y-137866666D01*
X183126247Y-137866666D02*
X183078628Y-137914285D01*
X183078628Y-137914285D02*
X182983390Y-137961904D01*
X195172857Y-139109580D02*
X195220476Y-139157200D01*
X195220476Y-139157200D02*
X195363333Y-139204819D01*
X195363333Y-139204819D02*
X195458571Y-139204819D01*
X195458571Y-139204819D02*
X195601428Y-139157200D01*
X195601428Y-139157200D02*
X195696666Y-139061961D01*
X195696666Y-139061961D02*
X195744285Y-138966723D01*
X195744285Y-138966723D02*
X195791904Y-138776247D01*
X195791904Y-138776247D02*
X195791904Y-138633390D01*
X195791904Y-138633390D02*
X195744285Y-138442914D01*
X195744285Y-138442914D02*
X195696666Y-138347676D01*
X195696666Y-138347676D02*
X195601428Y-138252438D01*
X195601428Y-138252438D02*
X195458571Y-138204819D01*
X195458571Y-138204819D02*
X195363333Y-138204819D01*
X195363333Y-138204819D02*
X195220476Y-138252438D01*
X195220476Y-138252438D02*
X195172857Y-138300057D01*
X194601428Y-138633390D02*
X194696666Y-138585771D01*
X194696666Y-138585771D02*
X194744285Y-138538152D01*
X194744285Y-138538152D02*
X194791904Y-138442914D01*
X194791904Y-138442914D02*
X194791904Y-138395295D01*
X194791904Y-138395295D02*
X194744285Y-138300057D01*
X194744285Y-138300057D02*
X194696666Y-138252438D01*
X194696666Y-138252438D02*
X194601428Y-138204819D01*
X194601428Y-138204819D02*
X194410952Y-138204819D01*
X194410952Y-138204819D02*
X194315714Y-138252438D01*
X194315714Y-138252438D02*
X194268095Y-138300057D01*
X194268095Y-138300057D02*
X194220476Y-138395295D01*
X194220476Y-138395295D02*
X194220476Y-138442914D01*
X194220476Y-138442914D02*
X194268095Y-138538152D01*
X194268095Y-138538152D02*
X194315714Y-138585771D01*
X194315714Y-138585771D02*
X194410952Y-138633390D01*
X194410952Y-138633390D02*
X194601428Y-138633390D01*
X194601428Y-138633390D02*
X194696666Y-138681009D01*
X194696666Y-138681009D02*
X194744285Y-138728628D01*
X194744285Y-138728628D02*
X194791904Y-138823866D01*
X194791904Y-138823866D02*
X194791904Y-139014342D01*
X194791904Y-139014342D02*
X194744285Y-139109580D01*
X194744285Y-139109580D02*
X194696666Y-139157200D01*
X194696666Y-139157200D02*
X194601428Y-139204819D01*
X194601428Y-139204819D02*
X194410952Y-139204819D01*
X194410952Y-139204819D02*
X194315714Y-139157200D01*
X194315714Y-139157200D02*
X194268095Y-139109580D01*
X194268095Y-139109580D02*
X194220476Y-139014342D01*
X194220476Y-139014342D02*
X194220476Y-138823866D01*
X194220476Y-138823866D02*
X194268095Y-138728628D01*
X194268095Y-138728628D02*
X194315714Y-138681009D01*
X194315714Y-138681009D02*
X194410952Y-138633390D01*
X193649047Y-138633390D02*
X193744285Y-138585771D01*
X193744285Y-138585771D02*
X193791904Y-138538152D01*
X193791904Y-138538152D02*
X193839523Y-138442914D01*
X193839523Y-138442914D02*
X193839523Y-138395295D01*
X193839523Y-138395295D02*
X193791904Y-138300057D01*
X193791904Y-138300057D02*
X193744285Y-138252438D01*
X193744285Y-138252438D02*
X193649047Y-138204819D01*
X193649047Y-138204819D02*
X193458571Y-138204819D01*
X193458571Y-138204819D02*
X193363333Y-138252438D01*
X193363333Y-138252438D02*
X193315714Y-138300057D01*
X193315714Y-138300057D02*
X193268095Y-138395295D01*
X193268095Y-138395295D02*
X193268095Y-138442914D01*
X193268095Y-138442914D02*
X193315714Y-138538152D01*
X193315714Y-138538152D02*
X193363333Y-138585771D01*
X193363333Y-138585771D02*
X193458571Y-138633390D01*
X193458571Y-138633390D02*
X193649047Y-138633390D01*
X193649047Y-138633390D02*
X193744285Y-138681009D01*
X193744285Y-138681009D02*
X193791904Y-138728628D01*
X193791904Y-138728628D02*
X193839523Y-138823866D01*
X193839523Y-138823866D02*
X193839523Y-139014342D01*
X193839523Y-139014342D02*
X193791904Y-139109580D01*
X193791904Y-139109580D02*
X193744285Y-139157200D01*
X193744285Y-139157200D02*
X193649047Y-139204819D01*
X193649047Y-139204819D02*
X193458571Y-139204819D01*
X193458571Y-139204819D02*
X193363333Y-139157200D01*
X193363333Y-139157200D02*
X193315714Y-139109580D01*
X193315714Y-139109580D02*
X193268095Y-139014342D01*
X193268095Y-139014342D02*
X193268095Y-138823866D01*
X193268095Y-138823866D02*
X193315714Y-138728628D01*
X193315714Y-138728628D02*
X193363333Y-138681009D01*
X193363333Y-138681009D02*
X193458571Y-138633390D01*
X175042857Y-91524819D02*
X175376190Y-91048628D01*
X175614285Y-91524819D02*
X175614285Y-90524819D01*
X175614285Y-90524819D02*
X175233333Y-90524819D01*
X175233333Y-90524819D02*
X175138095Y-90572438D01*
X175138095Y-90572438D02*
X175090476Y-90620057D01*
X175090476Y-90620057D02*
X175042857Y-90715295D01*
X175042857Y-90715295D02*
X175042857Y-90858152D01*
X175042857Y-90858152D02*
X175090476Y-90953390D01*
X175090476Y-90953390D02*
X175138095Y-91001009D01*
X175138095Y-91001009D02*
X175233333Y-91048628D01*
X175233333Y-91048628D02*
X175614285Y-91048628D01*
X174471428Y-90953390D02*
X174566666Y-90905771D01*
X174566666Y-90905771D02*
X174614285Y-90858152D01*
X174614285Y-90858152D02*
X174661904Y-90762914D01*
X174661904Y-90762914D02*
X174661904Y-90715295D01*
X174661904Y-90715295D02*
X174614285Y-90620057D01*
X174614285Y-90620057D02*
X174566666Y-90572438D01*
X174566666Y-90572438D02*
X174471428Y-90524819D01*
X174471428Y-90524819D02*
X174280952Y-90524819D01*
X174280952Y-90524819D02*
X174185714Y-90572438D01*
X174185714Y-90572438D02*
X174138095Y-90620057D01*
X174138095Y-90620057D02*
X174090476Y-90715295D01*
X174090476Y-90715295D02*
X174090476Y-90762914D01*
X174090476Y-90762914D02*
X174138095Y-90858152D01*
X174138095Y-90858152D02*
X174185714Y-90905771D01*
X174185714Y-90905771D02*
X174280952Y-90953390D01*
X174280952Y-90953390D02*
X174471428Y-90953390D01*
X174471428Y-90953390D02*
X174566666Y-91001009D01*
X174566666Y-91001009D02*
X174614285Y-91048628D01*
X174614285Y-91048628D02*
X174661904Y-91143866D01*
X174661904Y-91143866D02*
X174661904Y-91334342D01*
X174661904Y-91334342D02*
X174614285Y-91429580D01*
X174614285Y-91429580D02*
X174566666Y-91477200D01*
X174566666Y-91477200D02*
X174471428Y-91524819D01*
X174471428Y-91524819D02*
X174280952Y-91524819D01*
X174280952Y-91524819D02*
X174185714Y-91477200D01*
X174185714Y-91477200D02*
X174138095Y-91429580D01*
X174138095Y-91429580D02*
X174090476Y-91334342D01*
X174090476Y-91334342D02*
X174090476Y-91143866D01*
X174090476Y-91143866D02*
X174138095Y-91048628D01*
X174138095Y-91048628D02*
X174185714Y-91001009D01*
X174185714Y-91001009D02*
X174280952Y-90953390D01*
X173138095Y-91524819D02*
X173709523Y-91524819D01*
X173423809Y-91524819D02*
X173423809Y-90524819D01*
X173423809Y-90524819D02*
X173519047Y-90667676D01*
X173519047Y-90667676D02*
X173614285Y-90762914D01*
X173614285Y-90762914D02*
X173709523Y-90810533D01*
D11*
X225562742Y-60297500D02*
X226037258Y-60297500D01*
X225562742Y-61342500D02*
X226037258Y-61342500D01*
X240460613Y-103015580D02*
X240460613Y-102734420D01*
X241480613Y-103015580D02*
X241480613Y-102734420D01*
X173877613Y-143272258D02*
X173877613Y-142797742D01*
X174922613Y-143272258D02*
X174922613Y-142797742D01*
X208688326Y-111494698D02*
X208969486Y-111494698D01*
X208688326Y-112514698D02*
X208969486Y-112514698D01*
X199177500Y-135111249D02*
X199177500Y-134636733D01*
X200222500Y-135111249D02*
X200222500Y-134636733D01*
X189887328Y-126987991D02*
X190168488Y-126987991D01*
X189887328Y-128007991D02*
X190168488Y-128007991D01*
X208153033Y-130543991D02*
X208434193Y-130543991D01*
X208153033Y-131563991D02*
X208434193Y-131563991D01*
X225490000Y-123369580D02*
X225490000Y-123088420D01*
X226510000Y-123369580D02*
X226510000Y-123088420D01*
X202188326Y-130543991D02*
X202469486Y-130543991D01*
X202188326Y-131563991D02*
X202469486Y-131563991D01*
X158421713Y-130496858D02*
X158421713Y-130022342D01*
X159466713Y-130496858D02*
X159466713Y-130022342D01*
X170162500Y-91890000D02*
X169512500Y-91890000D01*
X170162500Y-91890000D02*
X170812500Y-91890000D01*
X170162500Y-95010000D02*
X169512500Y-95010000D01*
X170162500Y-95010000D02*
X170812500Y-95010000D01*
X171325000Y-91940000D02*
X171085000Y-91610000D01*
X171565000Y-91610000D01*
X171325000Y-91940000D01*
G36*
X171325000Y-91940000D02*
G01*
X171085000Y-91610000D01*
X171565000Y-91610000D01*
X171325000Y-91940000D01*
G37*
X181077500Y-133362258D02*
X181077500Y-132887742D01*
X182122500Y-133362258D02*
X182122500Y-132887742D01*
X207805908Y-117798571D02*
X207805908Y-117517411D01*
X208825908Y-117798571D02*
X208825908Y-117517411D01*
X191744328Y-129781991D02*
X192025488Y-129781991D01*
X191744328Y-130801991D02*
X192025488Y-130801991D01*
X170105513Y-143175780D02*
X170105513Y-142894620D01*
X171125513Y-143175780D02*
X171125513Y-142894620D01*
X204640355Y-108658198D02*
X205114871Y-108658198D01*
X204640355Y-109703198D02*
X205114871Y-109703198D01*
X207805908Y-124564411D02*
X207805908Y-124845571D01*
X208825908Y-124564411D02*
X208825908Y-124845571D01*
X207116164Y-133002500D02*
X206641648Y-133002500D01*
X207116164Y-134047500D02*
X206641648Y-134047500D01*
X200328486Y-108700698D02*
X200047326Y-108700698D01*
X200328486Y-109720698D02*
X200047326Y-109720698D01*
X162244213Y-129915820D02*
X162244213Y-130196980D01*
X163264213Y-129915820D02*
X163264213Y-130196980D01*
X184618420Y-109990000D02*
X184899580Y-109990000D01*
X184618420Y-111010000D02*
X184899580Y-111010000D01*
X167132213Y-128201020D02*
X167132213Y-128482180D01*
X168152213Y-128201020D02*
X168152213Y-128482180D01*
X160348465Y-132813600D02*
X159825961Y-132813600D01*
X160348465Y-134283600D02*
X159825961Y-134283600D01*
X168023793Y-130371600D02*
X167742633Y-130371600D01*
X168023793Y-131391600D02*
X167742633Y-131391600D01*
X196688326Y-130543991D02*
X196969486Y-130543991D01*
X196688326Y-131563991D02*
X196969486Y-131563991D01*
X161126613Y-124786180D02*
X161126613Y-124505020D01*
X162146613Y-124786180D02*
X162146613Y-124505020D01*
X223890000Y-54824420D02*
X223890000Y-55105580D01*
X224910000Y-54824420D02*
X224910000Y-55105580D01*
X194212742Y-141377500D02*
X194687258Y-141377500D01*
X194212742Y-142422500D02*
X194687258Y-142422500D01*
X209878033Y-121400698D02*
X210159193Y-121400698D01*
X209878033Y-122420698D02*
X210159193Y-122420698D01*
X160096413Y-130119020D02*
X160096413Y-130400180D01*
X161116413Y-130119020D02*
X161116413Y-130400180D01*
X169342013Y-123577420D02*
X169342013Y-123858580D01*
X170362013Y-123577420D02*
X170362013Y-123858580D01*
X200449158Y-105935698D02*
X199926654Y-105935698D01*
X200449158Y-107405698D02*
X199926654Y-107405698D01*
X165266433Y-128606600D02*
X165547593Y-128606600D01*
X165266433Y-129626600D02*
X165547593Y-129626600D01*
X174637258Y-96727500D02*
X174162742Y-96727500D01*
X174637258Y-97772500D02*
X174162742Y-97772500D01*
X185540580Y-131790000D02*
X185259420Y-131790000D01*
X185540580Y-132810000D02*
X185259420Y-132810000D01*
X192565908Y-133414571D02*
X192565908Y-133133411D01*
X193585908Y-133414571D02*
X193585908Y-133133411D01*
X163005833Y-121074400D02*
X163286993Y-121074400D01*
X163005833Y-122094400D02*
X163286993Y-122094400D01*
X171972613Y-142797742D02*
X171972613Y-143272258D01*
X173017613Y-142797742D02*
X173017613Y-143272258D01*
X197419486Y-114796698D02*
X197138326Y-114796698D01*
X197419486Y-115816698D02*
X197138326Y-115816698D01*
X234723113Y-102687742D02*
X234723113Y-103162258D01*
X235768113Y-102687742D02*
X235768113Y-103162258D01*
X191921613Y-116295571D02*
X191921613Y-116014411D01*
X192941613Y-116295571D02*
X192941613Y-116014411D01*
X211407613Y-111131698D02*
X215417613Y-111131698D01*
X211407613Y-113131698D02*
X211407613Y-111131698D01*
X211407613Y-113131698D02*
X215417613Y-113131698D01*
X153990000Y-58509420D02*
X153990000Y-58790580D01*
X155010000Y-58509420D02*
X155010000Y-58790580D01*
X165558833Y-122649200D02*
X165839993Y-122649200D01*
X165558833Y-123669200D02*
X165839993Y-123669200D01*
X170200000Y-96640000D02*
X169550000Y-96640000D01*
X170200000Y-96640000D02*
X170850000Y-96640000D01*
X170200000Y-99760000D02*
X169550000Y-99760000D01*
X170200000Y-99760000D02*
X170850000Y-99760000D01*
X171362500Y-96690000D02*
X171122500Y-96360000D01*
X171602500Y-96360000D01*
X171362500Y-96690000D01*
G36*
X171362500Y-96690000D02*
G01*
X171122500Y-96360000D01*
X171602500Y-96360000D01*
X171362500Y-96690000D01*
G37*
X166677500Y-97612258D02*
X166677500Y-97137742D01*
X167722500Y-97612258D02*
X167722500Y-97137742D01*
X160222871Y-119868900D02*
X159748355Y-119868900D01*
X160222871Y-120913900D02*
X159748355Y-120913900D01*
X166677500Y-94037742D02*
X166677500Y-94512258D01*
X167722500Y-94037742D02*
X167722500Y-94512258D01*
X202841328Y-114796698D02*
X203122488Y-114796698D01*
X202841328Y-115816698D02*
X203122488Y-115816698D01*
X181090000Y-136559420D02*
X181090000Y-136840580D01*
X182110000Y-136559420D02*
X182110000Y-136840580D01*
X194590580Y-139590000D02*
X194309420Y-139590000D01*
X194590580Y-140610000D02*
X194309420Y-140610000D01*
X174637258Y-91977500D02*
X174162742Y-91977500D01*
X174637258Y-93022500D02*
X174162742Y-93022500D01*
%LPC*%
D12*
X178642000Y-133000000D03*
D13*
X178642000Y-135540000D03*
X178642000Y-138080000D03*
X178642000Y-140620000D03*
D14*
X153775000Y-87770000D03*
X158675000Y-88370000D03*
X158675000Y-102870000D03*
X153775000Y-103470000D03*
D12*
X198998113Y-76060000D03*
D13*
X198998113Y-78600000D03*
X198998113Y-81140000D03*
X198998113Y-83680000D03*
X198998113Y-86220000D03*
X198998113Y-88760000D03*
X198998113Y-91300000D03*
X198998113Y-93840000D03*
X198998113Y-96380000D03*
X198998113Y-98920000D03*
X198998113Y-101460000D03*
D15*
X166173413Y-127034600D03*
X166173413Y-126034600D03*
X166173413Y-125034600D03*
X165173413Y-127034600D03*
X165173413Y-126034600D03*
X165173413Y-125034600D03*
X164173413Y-127034600D03*
X164173413Y-126034600D03*
X164173413Y-125034600D03*
D16*
X152020000Y-139594600D03*
D17*
X155020000Y-139904600D03*
X155020000Y-144744600D03*
D16*
X152020000Y-145054600D03*
D18*
X182490000Y-78687963D03*
X182490000Y-81227963D03*
X182490000Y-83767963D03*
X177148673Y-78690989D03*
X177148673Y-81230989D03*
X177148673Y-83770989D03*
D12*
X178678113Y-60820000D03*
D13*
X178678113Y-63360000D03*
X178678113Y-65900000D03*
D12*
X153500000Y-74670000D03*
D13*
X156040000Y-74670000D03*
X158580000Y-74670000D03*
D12*
X181182000Y-101492995D03*
D13*
X178642000Y-101492995D03*
X181182000Y-98952995D03*
X178642000Y-98952995D03*
X181182000Y-96412995D03*
X178642000Y-96412995D03*
X181182000Y-93872995D03*
X178642000Y-93872995D03*
X181182000Y-91332995D03*
X178642000Y-91332995D03*
D12*
X178642000Y-145700000D03*
D13*
X181182000Y-145700000D03*
D19*
X229171557Y-55740000D03*
D20*
X229171557Y-53240000D03*
D12*
X237080000Y-55740000D03*
D13*
X237080000Y-53200000D03*
X239620000Y-55740000D03*
X239620000Y-53200000D03*
X242160000Y-55740000D03*
X242160000Y-53200000D03*
X244700000Y-55740000D03*
X244700000Y-53200000D03*
D12*
X154712013Y-112544600D03*
D13*
X154712013Y-115084600D03*
X154712013Y-117624600D03*
D21*
X206618113Y-55740000D03*
D22*
X206618113Y-58280000D03*
X206618113Y-60820000D03*
X206618113Y-63360000D03*
X206618113Y-65900000D03*
X206618113Y-68440000D03*
X206618113Y-70980000D03*
X206618113Y-73520000D03*
X206618113Y-76060000D03*
X206618113Y-78600000D03*
X206618113Y-81140000D03*
X206618113Y-83680000D03*
X206618113Y-86220000D03*
X206618113Y-88760000D03*
X206618113Y-91300000D03*
X206618113Y-93840000D03*
X206618113Y-96380000D03*
X206618113Y-98920000D03*
X206618113Y-101460000D03*
X206618113Y-104000000D03*
X221858113Y-104000000D03*
X221858113Y-101460000D03*
X221858113Y-98920000D03*
X221858113Y-96380000D03*
X221858113Y-93840000D03*
X221858113Y-91300000D03*
X221858113Y-88760000D03*
X221858113Y-86220000D03*
X221858113Y-83680000D03*
X221858113Y-81140000D03*
X221858113Y-78600000D03*
X221858113Y-76060000D03*
X221858113Y-73520000D03*
X221858113Y-70980000D03*
X221858113Y-68440000D03*
X221858113Y-65900000D03*
X221858113Y-63360000D03*
X221858113Y-60820000D03*
X221858113Y-58280000D03*
X221858113Y-55740000D03*
D23*
X154500000Y-63200000D03*
X157000000Y-53200000D03*
X162000000Y-63200000D03*
X167000000Y-53200000D03*
X169500000Y-63200000D03*
X157000000Y-65700000D03*
X167000000Y-65740000D03*
D12*
X247240000Y-145700000D03*
D13*
X244700000Y-145700000D03*
X247240000Y-143160000D03*
X244700000Y-143160000D03*
X247240000Y-140620000D03*
X244700000Y-140620000D03*
X247240000Y-138080000D03*
X244700000Y-138080000D03*
X247240000Y-135540000D03*
X244700000Y-135540000D03*
X247240000Y-133000000D03*
X244700000Y-133000000D03*
X247240000Y-130460000D03*
X244700000Y-130460000D03*
X247240000Y-127920000D03*
X244700000Y-127920000D03*
X247240000Y-125380000D03*
X244700000Y-125380000D03*
X247240000Y-122840000D03*
X244700000Y-122840000D03*
X247240000Y-120300000D03*
X244700000Y-120300000D03*
X247240000Y-117760000D03*
X244700000Y-117760000D03*
X247240000Y-115220000D03*
X244700000Y-115220000D03*
X247240000Y-112680000D03*
X244700000Y-112680000D03*
X247240000Y-110140000D03*
X244700000Y-110140000D03*
X247240000Y-107600000D03*
X244700000Y-107600000D03*
X247240000Y-105060000D03*
X244700000Y-105060000D03*
X247240000Y-102520000D03*
X244700000Y-102520000D03*
X247240000Y-99980000D03*
X244700000Y-99980000D03*
X247240000Y-97440000D03*
X244700000Y-97440000D03*
X247240000Y-94900000D03*
X244700000Y-94900000D03*
X247240000Y-92360000D03*
X244700000Y-92360000D03*
X247240000Y-89820000D03*
X244700000Y-89820000D03*
X247240000Y-87280000D03*
X244700000Y-87280000D03*
X247240000Y-84740000D03*
X244700000Y-84740000D03*
X247240000Y-82200000D03*
X244700000Y-82200000D03*
X247240000Y-79660000D03*
X244700000Y-79660000D03*
X247240000Y-77120000D03*
X244700000Y-77120000D03*
X247240000Y-74580000D03*
X244700000Y-74580000D03*
X247240000Y-72040000D03*
X244700000Y-72040000D03*
X247240000Y-69500000D03*
X244700000Y-69500000D03*
X247240000Y-66960000D03*
X244700000Y-66960000D03*
D24*
X224975000Y-60820000D03*
X226625000Y-60820000D03*
D25*
X240970613Y-103650000D03*
X240970613Y-102100000D03*
D26*
X174400113Y-142210000D03*
X174400113Y-143860000D03*
D27*
X208053906Y-112004698D03*
X209603906Y-112004698D03*
D28*
X199700000Y-135698991D03*
X199700000Y-134048991D03*
D27*
X189252908Y-127497991D03*
X190802908Y-127497991D03*
X207518613Y-131053991D03*
X209068613Y-131053991D03*
D25*
X226000000Y-124004000D03*
X226000000Y-122454000D03*
D27*
X201553906Y-131053991D03*
X203103906Y-131053991D03*
D26*
X158944213Y-129434600D03*
X158944213Y-131084600D03*
D29*
X171100000Y-92500000D03*
X171100000Y-94400000D03*
X169225000Y-93450000D03*
D28*
X181600000Y-133950000D03*
X181600000Y-132300000D03*
D25*
X208315908Y-118432991D03*
X208315908Y-116882991D03*
D27*
X191109908Y-130291991D03*
X192659908Y-130291991D03*
D30*
X170615513Y-142260200D03*
X170615513Y-143810200D03*
D24*
X204052613Y-109180698D03*
X205702613Y-109180698D03*
D30*
X208315908Y-123929991D03*
X208315908Y-125479991D03*
D31*
X207703906Y-133525000D03*
X206053906Y-133525000D03*
D32*
X200962906Y-109210698D03*
X199412906Y-109210698D03*
D25*
X162754213Y-130831400D03*
X162754213Y-129281400D03*
D27*
X183984000Y-110500000D03*
X185534000Y-110500000D03*
D25*
X167642213Y-129116600D03*
X167642213Y-127566600D03*
D33*
X159137213Y-133548600D03*
X161037213Y-133548600D03*
D27*
X167108213Y-130881600D03*
X168658213Y-130881600D03*
X196053906Y-131053991D03*
X197603906Y-131053991D03*
D30*
X161636613Y-123870600D03*
X161636613Y-125420600D03*
X224400000Y-54190000D03*
X224400000Y-55740000D03*
D24*
X193625000Y-141900000D03*
X195275000Y-141900000D03*
D27*
X209243613Y-121910698D03*
X210793613Y-121910698D03*
D25*
X160606413Y-131034600D03*
X160606413Y-129484600D03*
X169852013Y-124493000D03*
X169852013Y-122943000D03*
D34*
X201137906Y-106670698D03*
X199237906Y-106670698D03*
D32*
X166182013Y-129116600D03*
X164632013Y-129116600D03*
D31*
X175225000Y-97250000D03*
X173575000Y-97250000D03*
D32*
X186175000Y-132300000D03*
X184625000Y-132300000D03*
D25*
X193075908Y-134048991D03*
X193075908Y-132498991D03*
D32*
X163921413Y-121584400D03*
X162371413Y-121584400D03*
D28*
X172495113Y-143860000D03*
X172495113Y-142210000D03*
D32*
X198053906Y-115306698D03*
X196503906Y-115306698D03*
D26*
X235245613Y-102100000D03*
X235245613Y-103750000D03*
D25*
X192431613Y-116929991D03*
X192431613Y-115379991D03*
D35*
X212117613Y-112131698D03*
X215417613Y-112131698D03*
D30*
X154500000Y-57875000D03*
X154500000Y-59425000D03*
D32*
X166474413Y-123159200D03*
X164924413Y-123159200D03*
D29*
X171137500Y-97250000D03*
X171137500Y-99150000D03*
X169262500Y-98200000D03*
D28*
X167200000Y-98200000D03*
X167200000Y-96550000D03*
D24*
X159160613Y-120391400D03*
X160810613Y-120391400D03*
D26*
X167200000Y-93450000D03*
X167200000Y-95100000D03*
D27*
X202206908Y-115306698D03*
X203756908Y-115306698D03*
D30*
X181600000Y-135925000D03*
X181600000Y-137475000D03*
D32*
X195225000Y-140100000D03*
X193675000Y-140100000D03*
D31*
X175225000Y-92500000D03*
X173575000Y-92500000D03*
%LPD*%
M02*
