G04 #@! TF.GenerationSoftware,KiCad,Pcbnew,9.0.3*
G04 #@! TF.CreationDate,2025-08-04T13:50:30+10:00*
G04 #@! TF.ProjectId,VideoFPGA_RevB,56696465-6f46-4504-9741-5f526576422e,rev?*
G04 #@! TF.SameCoordinates,Original*
G04 #@! TF.FileFunction,Paste,Bot*
G04 #@! TF.FilePolarity,Positive*
%FSLAX46Y46*%
G04 Gerber Fmt 4.6, Leading zero omitted, Abs format (unit mm)*
G04 Created by KiCad (PCBNEW 9.0.3) date 2025-08-04 13:50:30*
%MOMM*%
%LPD*%
G01*
G04 APERTURE LIST*
G04 Aperture macros list*
%AMRoundRect*
0 Rectangle with rounded corners*
0 $1 Rounding radius*
0 $2 $3 $4 $5 $6 $7 $8 $9 X,Y pos of 4 corners*
0 Add a 4 corners polygon primitive as box body*
4,1,4,$2,$3,$4,$5,$6,$7,$8,$9,$2,$3,0*
0 Add four circle primitives for the rounded corners*
1,1,$1+$1,$2,$3*
1,1,$1+$1,$4,$5*
1,1,$1+$1,$6,$7*
1,1,$1+$1,$8,$9*
0 Add four rect primitives between the rounded corners*
20,1,$1+$1,$2,$3,$4,$5,0*
20,1,$1+$1,$4,$5,$6,$7,0*
20,1,$1+$1,$6,$7,$8,$9,0*
20,1,$1+$1,$8,$9,$2,$3,0*%
G04 Aperture macros list end*
%ADD10RoundRect,0.200000X-0.200000X-0.275000X0.200000X-0.275000X0.200000X0.275000X-0.200000X0.275000X0*%
%ADD11RoundRect,0.225000X0.250000X-0.225000X0.250000X0.225000X-0.250000X0.225000X-0.250000X-0.225000X0*%
%ADD12RoundRect,0.200000X-0.275000X0.200000X-0.275000X-0.200000X0.275000X-0.200000X0.275000X0.200000X0*%
%ADD13RoundRect,0.225000X-0.225000X-0.250000X0.225000X-0.250000X0.225000X0.250000X-0.225000X0.250000X0*%
%ADD14RoundRect,0.200000X0.275000X-0.200000X0.275000X0.200000X-0.275000X0.200000X-0.275000X-0.200000X0*%
%ADD15RoundRect,0.150000X0.587500X0.150000X-0.587500X0.150000X-0.587500X-0.150000X0.587500X-0.150000X0*%
%ADD16RoundRect,0.225000X-0.250000X0.225000X-0.250000X-0.225000X0.250000X-0.225000X0.250000X0.225000X0*%
%ADD17RoundRect,0.200000X0.200000X0.275000X-0.200000X0.275000X-0.200000X-0.275000X0.200000X-0.275000X0*%
%ADD18RoundRect,0.225000X0.225000X0.250000X-0.225000X0.250000X-0.225000X-0.250000X0.225000X-0.250000X0*%
%ADD19RoundRect,0.250000X-0.250000X-0.475000X0.250000X-0.475000X0.250000X0.475000X-0.250000X0.475000X0*%
%ADD20RoundRect,0.250000X0.250000X0.475000X-0.250000X0.475000X-0.250000X-0.475000X0.250000X-0.475000X0*%
%ADD21RoundRect,0.225000X-0.225000X-0.375000X0.225000X-0.375000X0.225000X0.375000X-0.225000X0.375000X0*%
G04 APERTURE END LIST*
D10*
X224975000Y-60820000D03*
X226625000Y-60820000D03*
D11*
X240970613Y-103650000D03*
X240970613Y-102100000D03*
D12*
X174400113Y-142210000D03*
X174400113Y-143860000D03*
D13*
X208053906Y-112004698D03*
X209603906Y-112004698D03*
D14*
X199700000Y-135698991D03*
X199700000Y-134048991D03*
D13*
X189252908Y-127497991D03*
X190802908Y-127497991D03*
X207518613Y-131053991D03*
X209068613Y-131053991D03*
D11*
X226000000Y-124004000D03*
X226000000Y-122454000D03*
D13*
X201553906Y-131053991D03*
X203103906Y-131053991D03*
D12*
X158944213Y-129434600D03*
X158944213Y-131084600D03*
D15*
X171100000Y-92500000D03*
X171100000Y-94400000D03*
X169225000Y-93450000D03*
D14*
X181600000Y-133950000D03*
X181600000Y-132300000D03*
D11*
X208315908Y-118432991D03*
X208315908Y-116882991D03*
D13*
X191109908Y-130291991D03*
X192659908Y-130291991D03*
D16*
X170615513Y-142260200D03*
X170615513Y-143810200D03*
D10*
X204052613Y-109180698D03*
X205702613Y-109180698D03*
D16*
X208315908Y-123929991D03*
X208315908Y-125479991D03*
D17*
X207703906Y-133525000D03*
X206053906Y-133525000D03*
D18*
X200962906Y-109210698D03*
X199412906Y-109210698D03*
D11*
X162754213Y-130831400D03*
X162754213Y-129281400D03*
D13*
X183984000Y-110500000D03*
X185534000Y-110500000D03*
D11*
X167642213Y-129116600D03*
X167642213Y-127566600D03*
D19*
X159137213Y-133548600D03*
X161037213Y-133548600D03*
D13*
X167108213Y-130881600D03*
X168658213Y-130881600D03*
X196053906Y-131053991D03*
X197603906Y-131053991D03*
D16*
X161636613Y-123870600D03*
X161636613Y-125420600D03*
X224400000Y-54190000D03*
X224400000Y-55740000D03*
D10*
X193625000Y-141900000D03*
X195275000Y-141900000D03*
D13*
X209243613Y-121910698D03*
X210793613Y-121910698D03*
D11*
X160606413Y-131034600D03*
X160606413Y-129484600D03*
X169852013Y-124493000D03*
X169852013Y-122943000D03*
D20*
X201137906Y-106670698D03*
X199237906Y-106670698D03*
D18*
X166182013Y-129116600D03*
X164632013Y-129116600D03*
D17*
X175225000Y-97250000D03*
X173575000Y-97250000D03*
D18*
X186175000Y-132300000D03*
X184625000Y-132300000D03*
D11*
X193075908Y-134048991D03*
X193075908Y-132498991D03*
D18*
X163921413Y-121584400D03*
X162371413Y-121584400D03*
D14*
X172495113Y-143860000D03*
X172495113Y-142210000D03*
D18*
X198053906Y-115306698D03*
X196503906Y-115306698D03*
D12*
X235245613Y-102100000D03*
X235245613Y-103750000D03*
D11*
X192431613Y-116929991D03*
X192431613Y-115379991D03*
D21*
X212117613Y-112131698D03*
X215417613Y-112131698D03*
D16*
X154500000Y-57875000D03*
X154500000Y-59425000D03*
D18*
X166474413Y-123159200D03*
X164924413Y-123159200D03*
D15*
X171137500Y-97250000D03*
X171137500Y-99150000D03*
X169262500Y-98200000D03*
D14*
X167200000Y-98200000D03*
X167200000Y-96550000D03*
D10*
X159160613Y-120391400D03*
X160810613Y-120391400D03*
D12*
X167200000Y-93450000D03*
X167200000Y-95100000D03*
D13*
X202206908Y-115306698D03*
X203756908Y-115306698D03*
D16*
X181600000Y-135925000D03*
X181600000Y-137475000D03*
D18*
X195225000Y-140100000D03*
X193675000Y-140100000D03*
D17*
X175225000Y-92500000D03*
X173575000Y-92500000D03*
M02*
