%TF.GenerationSoftware,KiCad,Pcbnew,9.0.3*%
%TF.CreationDate,2025-08-04T13:50:25+10:00*%
%TF.ProjectId,VideoFPGA_RevB,56696465-6f46-4504-9741-5f526576422e,rev?*%
%TF.SameCoordinates,Original*%
%TF.FileFunction,Drillmap*%
%TF.FilePolarity,Positive*%
%FSLAX45Y45*%
G04 Gerber Fmt 4.5, Leading zero omitted, Abs format (unit mm)*
G04 Created by KiCad (PCBNEW 9.0.3) date 2025-08-04 13:50:25*
%MOMM*%
%LPD*%
G01*
G04 APERTURE LIST*
%ADD10C,0.100000*%
%ADD11C,0.200000*%
%ADD12C,0.133000*%
%ADD13C,0.160000*%
G04 APERTURE END LIST*
D10*
X15020000Y-14980000D02*
X25000000Y-14980000D01*
X15020000Y-5000000D02*
X15020000Y-14980000D01*
X25000000Y-5000000D02*
X25000000Y-14980000D01*
X15020000Y-5000000D02*
X25000000Y-5000000D01*
D11*
D10*
X15203000Y-12619000D02*
X15233000Y-12649000D01*
X15233000Y-12619000D02*
X15203000Y-12649000D01*
X15225000Y-10845000D02*
X15255000Y-10875000D01*
X15255000Y-10845000D02*
X15225000Y-10875000D01*
X15355000Y-12365000D02*
X15385000Y-12395000D01*
X15385000Y-12365000D02*
X15355000Y-12395000D01*
X15360269Y-9349731D02*
X15390269Y-9379731D01*
X15390269Y-9349731D02*
X15360269Y-9379731D01*
X15394000Y-10808000D02*
X15424000Y-10838000D01*
X15424000Y-10808000D02*
X15394000Y-10838000D01*
X15531000Y-10686000D02*
X15561000Y-10716000D01*
X15561000Y-10686000D02*
X15531000Y-10716000D01*
X15625000Y-9417231D02*
X15655000Y-9447231D01*
X15655000Y-9417231D02*
X15625000Y-9447231D01*
X15645000Y-9275000D02*
X15675000Y-9305000D01*
X15675000Y-9275000D02*
X15645000Y-9305000D01*
X15666561Y-13060460D02*
X15696561Y-13090460D01*
X15696561Y-13060460D02*
X15666561Y-13090460D01*
X15725000Y-8200000D02*
X15755000Y-8230000D01*
X15755000Y-8200000D02*
X15725000Y-8230000D01*
X15741000Y-9197000D02*
X15771000Y-9227000D01*
X15771000Y-9197000D02*
X15741000Y-9227000D01*
X15741000Y-9497000D02*
X15771000Y-9527000D01*
X15771000Y-9497000D02*
X15741000Y-9527000D01*
X15741000Y-9647000D02*
X15771000Y-9677000D01*
X15771000Y-9647000D02*
X15741000Y-9677000D01*
X15741000Y-9797000D02*
X15771000Y-9827000D01*
X15771000Y-9797000D02*
X15741000Y-9827000D01*
X15741000Y-9947000D02*
X15771000Y-9977000D01*
X15771000Y-9947000D02*
X15741000Y-9977000D01*
X15784171Y-13483370D02*
X15814171Y-13513370D01*
X15814171Y-13483370D02*
X15784171Y-13513370D01*
X15870000Y-11325000D02*
X15900000Y-11355000D01*
X15900000Y-11325000D02*
X15870000Y-11355000D01*
X15958161Y-13008460D02*
X15988161Y-13038460D01*
X15988161Y-13008460D02*
X15958161Y-13038460D01*
X15985000Y-12215000D02*
X16015000Y-12245000D01*
X16015000Y-12215000D02*
X15985000Y-12245000D01*
X15989310Y-12588460D02*
X16019310Y-12618460D01*
X16019310Y-12588460D02*
X15989310Y-12618460D01*
X15990890Y-13230586D02*
X16020890Y-13260586D01*
X16020890Y-13230586D02*
X15990890Y-13260586D01*
X16035481Y-11673320D02*
X16065481Y-11703320D01*
X16065481Y-11673320D02*
X16035481Y-11703320D01*
X16037000Y-11149000D02*
X16067000Y-11179000D01*
X16067000Y-11149000D02*
X16037000Y-11179000D01*
X16137231Y-12919490D02*
X16167231Y-12949490D01*
X16167231Y-12919490D02*
X16137231Y-12949490D01*
X16146213Y-12233840D02*
X16176213Y-12263840D01*
X16176213Y-12233840D02*
X16146213Y-12263840D01*
X16151201Y-13446540D02*
X16181201Y-13476540D01*
X16181201Y-13446540D02*
X16151201Y-13476540D01*
X16264203Y-12740000D02*
X16294203Y-12770000D01*
X16294203Y-12740000D02*
X16264203Y-12770000D01*
X16289289Y-12022520D02*
X16319289Y-12052520D01*
X16319289Y-12022520D02*
X16289289Y-12052520D01*
X16358061Y-12343224D02*
X16388061Y-12373224D01*
X16388061Y-12343224D02*
X16358061Y-12373224D01*
X16379290Y-12022520D02*
X16409290Y-12052520D01*
X16409290Y-12022520D02*
X16379290Y-12052520D01*
X16469290Y-12022520D02*
X16499290Y-12052520D01*
X16499290Y-12022520D02*
X16469290Y-12052520D01*
X16502341Y-12829320D02*
X16532341Y-12859320D01*
X16532341Y-12829320D02*
X16502341Y-12859320D01*
X16535861Y-11538700D02*
X16565861Y-11568700D01*
X16565861Y-11538700D02*
X16535861Y-11568700D01*
X16663011Y-14058680D02*
X16693011Y-14088680D01*
X16693011Y-14058680D02*
X16663011Y-14088680D01*
X16673550Y-7726849D02*
X16703550Y-7756849D01*
X16703550Y-7726849D02*
X16673550Y-7756849D01*
X16725000Y-8795000D02*
X16755000Y-8825000D01*
X16755000Y-8795000D02*
X16725000Y-8825000D01*
X16747341Y-12343460D02*
X16777341Y-12373460D01*
X16777341Y-12343460D02*
X16747341Y-12373460D01*
X16748932Y-12651591D02*
X16778932Y-12681591D01*
X16778932Y-12651591D02*
X16748932Y-12681591D01*
X16780000Y-11355000D02*
X16810000Y-11385000D01*
X16810000Y-11355000D02*
X16780000Y-11385000D01*
X16905581Y-11846340D02*
X16935581Y-11876340D01*
X16935581Y-11846340D02*
X16905581Y-11876340D01*
X16935000Y-12940000D02*
X16965000Y-12970000D01*
X16965000Y-12940000D02*
X16935000Y-12970000D01*
X17042591Y-13715000D02*
X17072591Y-13745000D01*
X17072591Y-13715000D02*
X17042591Y-13745000D01*
X17044011Y-14480320D02*
X17074011Y-14510320D01*
X17074011Y-14480320D02*
X17044011Y-14510320D01*
X17125000Y-8795000D02*
X17155000Y-8825000D01*
X17155000Y-8795000D02*
X17125000Y-8825000D01*
X17170000Y-10825000D02*
X17200000Y-10855000D01*
X17200000Y-10825000D02*
X17170000Y-10855000D01*
X17170000Y-11065000D02*
X17200000Y-11095000D01*
X17200000Y-11065000D02*
X17170000Y-11095000D01*
X17221200Y-7725000D02*
X17251200Y-7755000D01*
X17251200Y-7725000D02*
X17221200Y-7755000D01*
X17342500Y-9045000D02*
X17372500Y-9075000D01*
X17372500Y-9045000D02*
X17342500Y-9075000D01*
X17455000Y-9535000D02*
X17485000Y-9565000D01*
X17485000Y-9535000D02*
X17455000Y-9565000D01*
X17455000Y-11307500D02*
X17485000Y-11337500D01*
X17485000Y-11307500D02*
X17455000Y-11337500D01*
X17455000Y-11667500D02*
X17485000Y-11697500D01*
X17485000Y-11667500D02*
X17455000Y-11697500D01*
X17465000Y-8795000D02*
X17495000Y-8825000D01*
X17495000Y-8795000D02*
X17465000Y-8825000D01*
X17552500Y-10422500D02*
X17582500Y-10452500D01*
X17582500Y-10422500D02*
X17552500Y-10452500D01*
X17570000Y-11150000D02*
X17600000Y-11180000D01*
X17600000Y-11150000D02*
X17570000Y-11180000D01*
X17665000Y-10545000D02*
X17695000Y-10575000D01*
X17695000Y-10545000D02*
X17665000Y-10575000D01*
X17665000Y-11570000D02*
X17695000Y-11600000D01*
X17695000Y-11570000D02*
X17665000Y-11600000D01*
X17705000Y-8780000D02*
X17735000Y-8810000D01*
X17735000Y-8780000D02*
X17705000Y-8810000D01*
X17732500Y-10742500D02*
X17762500Y-10772500D01*
X17762500Y-10742500D02*
X17732500Y-10772500D01*
X18195000Y-13870000D02*
X18225000Y-13900000D01*
X18225000Y-13870000D02*
X18195000Y-13900000D01*
X18262500Y-12160000D02*
X18292500Y-12190000D01*
X18292500Y-12160000D02*
X18262500Y-12190000D01*
X18352180Y-6237600D02*
X18382180Y-6267600D01*
X18382180Y-6237600D02*
X18352180Y-6267600D01*
X18538400Y-11150000D02*
X18568400Y-11180000D01*
X18568400Y-11150000D02*
X18538400Y-11180000D01*
X18554300Y-6699800D02*
X18584300Y-6729800D01*
X18584300Y-6699800D02*
X18554300Y-6729800D01*
X18555880Y-6403200D02*
X18585880Y-6433200D01*
X18585880Y-6403200D02*
X18555880Y-6433200D01*
X18557500Y-13672500D02*
X18587500Y-13702500D01*
X18587500Y-13672500D02*
X18557500Y-13702500D01*
X18557500Y-14142500D02*
X18587500Y-14172500D01*
X18587500Y-14142500D02*
X18557500Y-14172500D01*
X18705000Y-8765000D02*
X18735000Y-8795000D01*
X18735000Y-8765000D02*
X18705000Y-8795000D01*
X18782500Y-13210000D02*
X18812500Y-13240000D01*
X18812500Y-13210000D02*
X18782500Y-13240000D01*
X18784591Y-12734799D02*
X18814591Y-12764799D01*
X18814591Y-12734799D02*
X18784591Y-12764799D01*
X18847500Y-8862500D02*
X18877500Y-8892500D01*
X18877500Y-8862500D02*
X18847500Y-8892500D01*
X18871000Y-9021000D02*
X18901000Y-9051000D01*
X18901000Y-9021000D02*
X18871000Y-9051000D01*
X18897961Y-13420670D02*
X18927961Y-13450670D01*
X18927961Y-13420670D02*
X18897961Y-13450670D01*
X18902706Y-9175000D02*
X18932706Y-9205000D01*
X18932706Y-9175000D02*
X18902706Y-9205000D01*
X19035000Y-13995000D02*
X19065000Y-14025000D01*
X19065000Y-13995000D02*
X19035000Y-14025000D01*
X19076691Y-11680699D02*
X19106691Y-11710699D01*
X19106691Y-11680699D02*
X19076691Y-11710699D01*
X19084316Y-13234315D02*
X19114316Y-13264315D01*
X19114316Y-13234315D02*
X19084316Y-13264315D01*
X19095991Y-12884599D02*
X19125991Y-12914599D01*
X19125991Y-12884599D02*
X19095991Y-12914599D01*
X19101161Y-11388670D02*
X19131161Y-11418670D01*
X19131161Y-11388670D02*
X19101161Y-11418670D01*
X19164661Y-11883970D02*
X19194661Y-11913970D01*
X19194661Y-11883970D02*
X19164661Y-11913970D01*
X19164661Y-12163370D02*
X19194661Y-12193370D01*
X19194661Y-12163370D02*
X19164661Y-12193370D01*
X19190380Y-6669400D02*
X19220380Y-6699400D01*
X19220380Y-6669400D02*
X19190380Y-6699400D01*
X19190991Y-12734799D02*
X19220991Y-12764799D01*
X19220991Y-12734799D02*
X19190991Y-12764799D01*
X19223500Y-13802500D02*
X19253500Y-13832500D01*
X19253500Y-13802500D02*
X19223500Y-13832500D01*
X19290391Y-13524399D02*
X19320391Y-13554399D01*
X19320391Y-13524399D02*
X19290391Y-13554399D01*
X19320000Y-8855200D02*
X19350000Y-8885200D01*
X19350000Y-8855200D02*
X19320000Y-8885200D01*
X19390000Y-9750000D02*
X19420000Y-9780000D01*
X19420000Y-9750000D02*
X19390000Y-9780000D01*
X19419591Y-13014199D02*
X19449591Y-13044199D01*
X19449591Y-13014199D02*
X19419591Y-13044199D01*
X19430000Y-10155000D02*
X19460000Y-10185000D01*
X19460000Y-10155000D02*
X19430000Y-10185000D01*
X19500000Y-6525000D02*
X19530000Y-6555000D01*
X19530000Y-6525000D02*
X19500000Y-6555000D01*
X19505000Y-5669589D02*
X19535000Y-5699589D01*
X19535000Y-5669589D02*
X19505000Y-5699589D01*
X19529500Y-8225000D02*
X19559500Y-8255000D01*
X19559500Y-8225000D02*
X19529500Y-8255000D01*
X19529500Y-8354500D02*
X19559500Y-8384500D01*
X19559500Y-8354500D02*
X19529500Y-8384500D01*
X19529500Y-8484000D02*
X19559500Y-8514000D01*
X19559500Y-8484000D02*
X19529500Y-8514000D01*
X19529500Y-8606500D02*
X19559500Y-8636500D01*
X19559500Y-8606500D02*
X19529500Y-8636500D01*
X19529500Y-8729000D02*
X19559500Y-8759000D01*
X19559500Y-8729000D02*
X19529500Y-8759000D01*
X19529500Y-8850000D02*
X19559500Y-8880000D01*
X19559500Y-8850000D02*
X19529500Y-8880000D01*
X19532961Y-11883970D02*
X19562961Y-11913970D01*
X19562961Y-11883970D02*
X19532961Y-11913970D01*
X19532961Y-12163370D02*
X19562961Y-12193370D01*
X19562961Y-12163370D02*
X19532961Y-12193370D01*
X19535000Y-7760000D02*
X19565000Y-7790000D01*
X19565000Y-7760000D02*
X19535000Y-7790000D01*
X19540000Y-7960000D02*
X19570000Y-7990000D01*
X19570000Y-7960000D02*
X19540000Y-7990000D01*
X19590391Y-13229199D02*
X19620391Y-13259199D01*
X19620391Y-13229199D02*
X19590391Y-13259199D01*
X19625000Y-5669589D02*
X19655000Y-5699589D01*
X19655000Y-5669589D02*
X19625000Y-5699589D01*
X19637000Y-11396000D02*
X19667000Y-11426000D01*
X19667000Y-11396000D02*
X19637000Y-11426000D01*
X19705000Y-8100000D02*
X19735000Y-8130000D01*
X19735000Y-8100000D02*
X19705000Y-8130000D01*
X19750000Y-6330000D02*
X19780000Y-6360000D01*
X19780000Y-6330000D02*
X19750000Y-6360000D01*
X19790391Y-11405000D02*
X19820391Y-11435000D01*
X19820391Y-11405000D02*
X19790391Y-11435000D01*
X19926661Y-11883970D02*
X19956661Y-11913970D01*
X19956661Y-11883970D02*
X19926661Y-11913970D01*
X19926661Y-12163370D02*
X19956661Y-12193370D01*
X19956661Y-12163370D02*
X19926661Y-12193370D01*
X19927591Y-13090399D02*
X19957591Y-13120399D01*
X19957591Y-13090399D02*
X19927591Y-13120399D01*
X19945000Y-7330000D02*
X19975000Y-7360000D01*
X19975000Y-7330000D02*
X19945000Y-7360000D01*
X19955726Y-11039340D02*
X19985726Y-11069340D01*
X19985726Y-11039340D02*
X19955726Y-11069340D01*
X20005000Y-10790000D02*
X20035000Y-10820000D01*
X20035000Y-10790000D02*
X20005000Y-10820000D01*
X20043049Y-11061129D02*
X20073049Y-11091129D01*
X20073049Y-11061129D02*
X20043049Y-11091129D01*
X20047991Y-13765000D02*
X20077991Y-13795000D01*
X20077991Y-13765000D02*
X20047991Y-13795000D01*
X20090000Y-10455000D02*
X20120000Y-10485000D01*
X20120000Y-10455000D02*
X20090000Y-10485000D01*
X20116000Y-14585000D02*
X20146000Y-14615000D01*
X20146000Y-14585000D02*
X20116000Y-14615000D01*
X20140391Y-13217399D02*
X20170391Y-13247399D01*
X20170391Y-13217399D02*
X20140391Y-13247399D01*
X20191350Y-11378470D02*
X20221350Y-11408470D01*
X20221350Y-11378470D02*
X20191350Y-11408470D01*
X20201667Y-10370000D02*
X20231667Y-10400000D01*
X20231667Y-10370000D02*
X20201667Y-10400000D01*
X20255000Y-13705000D02*
X20285000Y-13735000D01*
X20285000Y-13705000D02*
X20255000Y-13735000D01*
X20256000Y-14053000D02*
X20286000Y-14083000D01*
X20286000Y-14053000D02*
X20256000Y-14083000D01*
X20269561Y-11883970D02*
X20299561Y-11913970D01*
X20299561Y-11883970D02*
X20269561Y-11913970D01*
X20269561Y-12163370D02*
X20299561Y-12193370D01*
X20299561Y-12163370D02*
X20269561Y-12193370D01*
X20290000Y-10700000D02*
X20320000Y-10730000D01*
X20320000Y-10700000D02*
X20290000Y-10730000D01*
X20332000Y-13960000D02*
X20362000Y-13990000D01*
X20362000Y-13960000D02*
X20332000Y-13990000D01*
X20337791Y-13567183D02*
X20367791Y-13597183D01*
X20367791Y-13567183D02*
X20337791Y-13597183D01*
X20410637Y-13639996D02*
X20440637Y-13669996D01*
X20440637Y-13639996D02*
X20410637Y-13669996D01*
X20425000Y-10520000D02*
X20455000Y-10550000D01*
X20455000Y-10520000D02*
X20425000Y-10550000D01*
X20435591Y-13090399D02*
X20465591Y-13120399D01*
X20465591Y-13090399D02*
X20435591Y-13120399D01*
X20465000Y-11055000D02*
X20495000Y-11085000D01*
X20495000Y-11055000D02*
X20465000Y-11085000D01*
X20472891Y-13575000D02*
X20502891Y-13605000D01*
X20502891Y-13575000D02*
X20472891Y-13605000D01*
X20510861Y-11718870D02*
X20540861Y-11748870D01*
X20540861Y-11718870D02*
X20510861Y-11748870D01*
X20510861Y-12074470D02*
X20540861Y-12104470D01*
X20540861Y-12074470D02*
X20510861Y-12104470D01*
X20523561Y-11477570D02*
X20553561Y-11507570D01*
X20553561Y-11477570D02*
X20523561Y-11507570D01*
X20587991Y-13090399D02*
X20617991Y-13120399D01*
X20617991Y-13090399D02*
X20587991Y-13120399D01*
X20590391Y-13210000D02*
X20620391Y-13240000D01*
X20620391Y-13210000D02*
X20590391Y-13240000D01*
X20625000Y-14341500D02*
X20655000Y-14371500D01*
X20655000Y-14341500D02*
X20625000Y-14371500D01*
X20625161Y-11828299D02*
X20655161Y-11858299D01*
X20655161Y-11828299D02*
X20625161Y-11858299D01*
X20625161Y-12188770D02*
X20655161Y-12218770D01*
X20655161Y-12188770D02*
X20625161Y-12218770D01*
X20640000Y-11660000D02*
X20670000Y-11690000D01*
X20670000Y-11660000D02*
X20640000Y-11690000D01*
X20726761Y-12264970D02*
X20756761Y-12294970D01*
X20756761Y-12264970D02*
X20726761Y-12294970D01*
X20775000Y-14735000D02*
X20805000Y-14765000D01*
X20805000Y-14735000D02*
X20775000Y-14765000D01*
X20777561Y-12163370D02*
X20807561Y-12193370D01*
X20807561Y-12163370D02*
X20777561Y-12193370D01*
X20778981Y-11361850D02*
X20808981Y-11391850D01*
X20808981Y-11361850D02*
X20778981Y-11391850D01*
X20790261Y-12061770D02*
X20820261Y-12091770D01*
X20820261Y-12061770D02*
X20790261Y-12091770D01*
X20816591Y-12709399D02*
X20846591Y-12739399D01*
X20846591Y-12709399D02*
X20816591Y-12739399D01*
X20874111Y-10891250D02*
X20904111Y-10921250D01*
X20904111Y-10891250D02*
X20874111Y-10921250D01*
X20875000Y-10627250D02*
X20905000Y-10657250D01*
X20905000Y-10627250D02*
X20875000Y-10657250D01*
X20891861Y-13230170D02*
X20921861Y-13260170D01*
X20921861Y-13230170D02*
X20891861Y-13260170D01*
X20942661Y-11375970D02*
X20972661Y-11405970D01*
X20972661Y-11375970D02*
X20942661Y-11405970D01*
X20943591Y-11827999D02*
X20973591Y-11857999D01*
X20973591Y-11827999D02*
X20943591Y-11857999D01*
X20943591Y-12385799D02*
X20973591Y-12415799D01*
X20973591Y-12385799D02*
X20943591Y-12415799D01*
X21025000Y-14282000D02*
X21055000Y-14312000D01*
X21055000Y-14282000D02*
X21025000Y-14312000D01*
X21053000Y-14082000D02*
X21083000Y-14112000D01*
X21083000Y-14082000D02*
X21053000Y-14112000D01*
X21065000Y-11005000D02*
X21095000Y-11035000D01*
X21095000Y-11005000D02*
X21065000Y-11035000D01*
X21171261Y-11299770D02*
X21201261Y-11329770D01*
X21201261Y-11299770D02*
X21171261Y-11329770D01*
X21185000Y-10717250D02*
X21215000Y-10747250D01*
X21215000Y-10717250D02*
X21185000Y-10747250D01*
X21215000Y-14475000D02*
X21245000Y-14505000D01*
X21245000Y-14475000D02*
X21215000Y-14505000D01*
X21340000Y-14170000D02*
X21370000Y-14200000D01*
X21370000Y-14170000D02*
X21340000Y-14200000D01*
X21505000Y-8987000D02*
X21535000Y-9017000D01*
X21535000Y-8987000D02*
X21505000Y-9017000D01*
X21518275Y-12723064D02*
X21548275Y-12753064D01*
X21548275Y-12723064D02*
X21518275Y-12753064D01*
X21525000Y-9545000D02*
X21555000Y-9575000D01*
X21555000Y-9545000D02*
X21525000Y-9575000D01*
X21565845Y-11970845D02*
X21595845Y-12000845D01*
X21595845Y-11970845D02*
X21565845Y-12000845D01*
X21574776Y-12793119D02*
X21604776Y-12823119D01*
X21604776Y-12793119D02*
X21574776Y-12823119D01*
X21595000Y-9240744D02*
X21625000Y-9270744D01*
X21625000Y-9240744D02*
X21595000Y-9270744D01*
X21625000Y-6703265D02*
X21655000Y-6733265D01*
X21655000Y-6703265D02*
X21625000Y-6733265D01*
X21625000Y-7210000D02*
X21655000Y-7240000D01*
X21655000Y-7210000D02*
X21625000Y-7240000D01*
X21625000Y-7465000D02*
X21655000Y-7495000D01*
X21655000Y-7465000D02*
X21625000Y-7495000D01*
X21625000Y-7715000D02*
X21655000Y-7745000D01*
X21655000Y-7715000D02*
X21625000Y-7745000D01*
X21625000Y-7970000D02*
X21655000Y-8000000D01*
X21655000Y-7970000D02*
X21625000Y-8000000D01*
X21625000Y-8227000D02*
X21655000Y-8257000D01*
X21655000Y-8227000D02*
X21625000Y-8257000D01*
X21625000Y-8480000D02*
X21655000Y-8510000D01*
X21655000Y-8480000D02*
X21625000Y-8510000D01*
X21625000Y-8733000D02*
X21655000Y-8763000D01*
X21655000Y-8733000D02*
X21625000Y-8763000D01*
X21635000Y-12860000D02*
X21665000Y-12890000D01*
X21665000Y-12860000D02*
X21635000Y-12890000D01*
X21697500Y-9687500D02*
X21727500Y-9717500D01*
X21727500Y-9687500D02*
X21697500Y-9717500D01*
X21715000Y-10005000D02*
X21745000Y-10035000D01*
X21745000Y-10005000D02*
X21715000Y-10035000D01*
X21787000Y-12995000D02*
X21817000Y-13025000D01*
X21817000Y-12995000D02*
X21787000Y-13025000D01*
X21848230Y-13066600D02*
X21878230Y-13096600D01*
X21878230Y-13066600D02*
X21848230Y-13096600D01*
X21860000Y-6600000D02*
X21890000Y-6630000D01*
X21890000Y-6600000D02*
X21860000Y-6630000D01*
X21860000Y-7040000D02*
X21890000Y-7070000D01*
X21890000Y-7040000D02*
X21860000Y-7070000D01*
X21945000Y-9635000D02*
X21975000Y-9665000D01*
X21975000Y-9635000D02*
X21945000Y-9665000D01*
X21950000Y-13066600D02*
X21980000Y-13096600D01*
X21980000Y-13066600D02*
X21950000Y-13096600D01*
X22160000Y-12120000D02*
X22190000Y-12150000D01*
X22190000Y-12120000D02*
X22160000Y-12150000D01*
X22230000Y-12005000D02*
X22260000Y-12035000D01*
X22260000Y-12005000D02*
X22230000Y-12035000D01*
X22320000Y-13880000D02*
X22350000Y-13910000D01*
X22350000Y-13880000D02*
X22320000Y-13910000D01*
X22329461Y-11023000D02*
X22359461Y-11053000D01*
X22359461Y-11023000D02*
X22329461Y-11053000D01*
X22340000Y-12145000D02*
X22370000Y-12175000D01*
X22370000Y-12145000D02*
X22340000Y-12175000D01*
X22345000Y-11915000D02*
X22375000Y-11945000D01*
X22375000Y-11915000D02*
X22345000Y-11945000D01*
X22469600Y-12230400D02*
X22499600Y-12260400D01*
X22499600Y-12230400D02*
X22469600Y-12260400D01*
X22612000Y-10816000D02*
X22642000Y-10846000D01*
X22642000Y-10816000D02*
X22612000Y-10846000D01*
X22690000Y-10905000D02*
X22720000Y-10935000D01*
X22720000Y-10905000D02*
X22690000Y-10935000D01*
X22730000Y-7535000D02*
X22760000Y-7565000D01*
X22760000Y-7535000D02*
X22730000Y-7565000D01*
X22763778Y-10812000D02*
X22793778Y-10842000D01*
X22793778Y-10812000D02*
X22763778Y-10842000D01*
X22770000Y-7725000D02*
X22800000Y-7755000D01*
X22800000Y-7725000D02*
X22770000Y-7755000D01*
X22839667Y-10895000D02*
X22869667Y-10925000D01*
X22869667Y-10895000D02*
X22839667Y-10925000D01*
X22865000Y-9385000D02*
X22895000Y-9415000D01*
X22895000Y-9385000D02*
X22865000Y-9415000D01*
X22915556Y-10996809D02*
X22945556Y-11026809D01*
X22945556Y-10996809D02*
X22915556Y-11026809D01*
X22942200Y-9495000D02*
X22972200Y-9525000D01*
X22972200Y-9495000D02*
X22942200Y-9525000D01*
X22965000Y-9615000D02*
X22995000Y-9645000D01*
X22995000Y-9615000D02*
X22965000Y-9645000D01*
X22995000Y-11140000D02*
X23025000Y-11170000D01*
X23025000Y-11140000D02*
X22995000Y-11170000D01*
X23015000Y-11860000D02*
X23045000Y-11890000D01*
X23045000Y-11860000D02*
X23015000Y-11890000D01*
X23067333Y-10965000D02*
X23097333Y-10995000D01*
X23097333Y-10965000D02*
X23067333Y-10995000D01*
X23143222Y-11040000D02*
X23173222Y-11070000D01*
X23173222Y-11040000D02*
X23143222Y-11070000D01*
X23200000Y-8305000D02*
X23230000Y-8335000D01*
X23230000Y-8305000D02*
X23200000Y-8335000D01*
X23219111Y-11110000D02*
X23249111Y-11140000D01*
X23249111Y-11110000D02*
X23219111Y-11140000D01*
X23242730Y-8595000D02*
X23272730Y-8625000D01*
X23272730Y-8595000D02*
X23242730Y-8625000D01*
X23269231Y-8787500D02*
X23299231Y-8817500D01*
X23299231Y-8787500D02*
X23269231Y-8817500D01*
X23285076Y-8937500D02*
X23315076Y-8967500D01*
X23315076Y-8937500D02*
X23285076Y-8967500D01*
X23295000Y-10194000D02*
X23325000Y-10224000D01*
X23325000Y-10194000D02*
X23295000Y-10224000D01*
X23295000Y-11005000D02*
X23325000Y-11035000D01*
X23325000Y-11005000D02*
X23295000Y-11035000D01*
X23307000Y-10316000D02*
X23337000Y-10346000D01*
X23337000Y-10316000D02*
X23307000Y-10346000D01*
X23320769Y-8697500D02*
X23350769Y-8727500D01*
X23350769Y-8697500D02*
X23320769Y-8727500D01*
X23328206Y-8856334D02*
X23358206Y-8886334D01*
X23358206Y-8856334D02*
X23328206Y-8886334D01*
X23330000Y-12835000D02*
X23360000Y-12865000D01*
X23360000Y-12835000D02*
X23330000Y-12865000D01*
X23355000Y-9005000D02*
X23385000Y-9035000D01*
X23385000Y-9005000D02*
X23355000Y-9035000D01*
X23370000Y-10782500D02*
X23400000Y-10812500D01*
X23400000Y-10782500D02*
X23370000Y-10812500D01*
X23375000Y-10875000D02*
X23405000Y-10905000D01*
X23405000Y-10875000D02*
X23375000Y-10905000D01*
X23405000Y-11465000D02*
X23435000Y-11495000D01*
X23435000Y-11465000D02*
X23405000Y-11495000D01*
X23417500Y-11120000D02*
X23447500Y-11150000D01*
X23447500Y-11120000D02*
X23417500Y-11150000D01*
X23450000Y-6855000D02*
X23480000Y-6885000D01*
X23480000Y-6855000D02*
X23450000Y-6885000D01*
X23510000Y-10905000D02*
X23540000Y-10935000D01*
X23540000Y-10905000D02*
X23510000Y-10935000D01*
X23533500Y-12598500D02*
X23563500Y-12628500D01*
X23563500Y-12598500D02*
X23533500Y-12628500D01*
X23595000Y-9635000D02*
X23625000Y-9665000D01*
X23625000Y-9635000D02*
X23595000Y-9665000D01*
X23635000Y-12535000D02*
X23665000Y-12565000D01*
X23665000Y-12535000D02*
X23635000Y-12565000D01*
X23640000Y-10195000D02*
X23670000Y-10225000D01*
X23670000Y-10195000D02*
X23640000Y-10225000D01*
X23666000Y-10304000D02*
X23696000Y-10334000D01*
X23696000Y-10304000D02*
X23666000Y-10334000D01*
X23680000Y-9995000D02*
X23710000Y-10025000D01*
X23710000Y-9995000D02*
X23680000Y-10025000D01*
X23685000Y-9825000D02*
X23715000Y-9855000D01*
X23715000Y-9825000D02*
X23685000Y-9855000D01*
X23795000Y-8555000D02*
X23825000Y-8585000D01*
X23825000Y-8555000D02*
X23795000Y-8585000D01*
X23795000Y-12030000D02*
X23825000Y-12060000D01*
X23825000Y-12030000D02*
X23795000Y-12060000D01*
X23795000Y-12270000D02*
X23825000Y-12300000D01*
X23825000Y-12270000D02*
X23795000Y-12300000D01*
X23872730Y-11886000D02*
X23902730Y-11916000D01*
X23902730Y-11886000D02*
X23872730Y-11916000D01*
X23872730Y-12144000D02*
X23902730Y-12174000D01*
X23902730Y-12144000D02*
X23872730Y-12174000D01*
X23872730Y-12407270D02*
X23902730Y-12437270D01*
X23902730Y-12407270D02*
X23872730Y-12437270D01*
X23890000Y-13939000D02*
X23920000Y-13969000D01*
X23920000Y-13939000D02*
X23890000Y-13969000D01*
X23927000Y-13842000D02*
X23957000Y-13872000D01*
X23957000Y-13842000D02*
X23927000Y-13872000D01*
X23949736Y-8700000D02*
X23979736Y-8730000D01*
X23979736Y-8700000D02*
X23949736Y-8730000D01*
X23952000Y-10192500D02*
X23982000Y-10222500D01*
X23982000Y-10192500D02*
X23952000Y-10222500D01*
X23952000Y-10350000D02*
X23982000Y-10380000D01*
X23982000Y-10350000D02*
X23952000Y-10380000D01*
X23954000Y-13720000D02*
X23984000Y-13750000D01*
X23984000Y-13720000D02*
X23954000Y-13750000D01*
X23960000Y-12966000D02*
X23990000Y-12996000D01*
X23990000Y-12966000D02*
X23960000Y-12996000D01*
X24030000Y-13162000D02*
X24060000Y-13192000D01*
X24060000Y-13162000D02*
X24030000Y-13192000D01*
X24030000Y-14270000D02*
X24060000Y-14300000D01*
X24060000Y-14270000D02*
X24030000Y-14300000D01*
X24037439Y-13789510D02*
X24067439Y-13819510D01*
X24067439Y-13789510D02*
X24037439Y-13819510D01*
X24051500Y-13618500D02*
X24081500Y-13648500D01*
X24081500Y-13618500D02*
X24051500Y-13648500D01*
X24061000Y-13319000D02*
X24091000Y-13349000D01*
X24091000Y-13319000D02*
X24061000Y-13349000D01*
X24061000Y-13478000D02*
X24091000Y-13508000D01*
X24091000Y-13478000D02*
X24061000Y-13508000D01*
X24085000Y-7055000D02*
X24115000Y-7085000D01*
X24115000Y-7055000D02*
X24085000Y-7085000D01*
X24085000Y-10905000D02*
X24115000Y-10935000D01*
X24115000Y-10905000D02*
X24085000Y-10935000D01*
X24085000Y-12985000D02*
X24115000Y-13015000D01*
X24115000Y-12985000D02*
X24085000Y-13015000D01*
X24145000Y-12475000D02*
X24175000Y-12505000D01*
X24175000Y-12475000D02*
X24145000Y-12505000D01*
X24145000Y-13545500D02*
X24175000Y-13575500D01*
X24175000Y-13545500D02*
X24145000Y-13575500D01*
X24195000Y-6940000D02*
X24225000Y-6970000D01*
X24225000Y-6940000D02*
X24195000Y-6970000D01*
X24210000Y-13160000D02*
X24240000Y-13190000D01*
X24240000Y-13160000D02*
X24210000Y-13190000D01*
X24225000Y-13395000D02*
X24255000Y-13425000D01*
X24255000Y-13395000D02*
X24225000Y-13425000D01*
X24227270Y-8567270D02*
X24257270Y-8597270D01*
X24257270Y-8567270D02*
X24227270Y-8597270D01*
X24335000Y-9595000D02*
X24365000Y-9625000D01*
X24365000Y-9595000D02*
X24335000Y-9625000D01*
X16432341Y-12503460D02*
G75*
G02*
X16402341Y-12503460I-15000J0D01*
G01*
X16402341Y-12503460D02*
G75*
G02*
X16432341Y-12503460I15000J0D01*
G01*
X16432341Y-12603460D02*
G75*
G02*
X16402341Y-12603460I-15000J0D01*
G01*
X16402341Y-12603460D02*
G75*
G02*
X16432341Y-12603460I15000J0D01*
G01*
X16432341Y-12703460D02*
G75*
G02*
X16402341Y-12703460I-15000J0D01*
G01*
X16402341Y-12703460D02*
G75*
G02*
X16432341Y-12703460I15000J0D01*
G01*
X16532341Y-12503460D02*
G75*
G02*
X16502341Y-12503460I-15000J0D01*
G01*
X16502341Y-12503460D02*
G75*
G02*
X16532341Y-12503460I15000J0D01*
G01*
X16532341Y-12603460D02*
G75*
G02*
X16502341Y-12603460I-15000J0D01*
G01*
X16502341Y-12603460D02*
G75*
G02*
X16532341Y-12603460I15000J0D01*
G01*
X16532341Y-12703460D02*
G75*
G02*
X16502341Y-12703460I-15000J0D01*
G01*
X16502341Y-12703460D02*
G75*
G02*
X16532341Y-12703460I15000J0D01*
G01*
X16632341Y-12503460D02*
G75*
G02*
X16602341Y-12503460I-15000J0D01*
G01*
X16602341Y-12503460D02*
G75*
G02*
X16632341Y-12503460I15000J0D01*
G01*
X16632341Y-12603460D02*
G75*
G02*
X16602341Y-12603460I-15000J0D01*
G01*
X16602341Y-12603460D02*
G75*
G02*
X16632341Y-12603460I15000J0D01*
G01*
X16632341Y-12703460D02*
G75*
G02*
X16602341Y-12703460I-15000J0D01*
G01*
X16602341Y-12703460D02*
G75*
G02*
X16632341Y-12703460I15000J0D01*
G01*
X15502000Y-13957960D02*
X15502000Y-14022960D01*
X15469500Y-13990460D02*
X15534500Y-13990460D01*
X15482000Y-14022960D02*
X15522000Y-14022960D01*
X15522000Y-13957960D02*
G75*
G02*
X15522000Y-14022960I0J-32500D01*
G01*
X15522000Y-13957960D02*
X15482000Y-13957960D01*
X15482000Y-13957960D02*
G75*
G03*
X15482000Y-14022960I0J-32500D01*
G01*
X15502000Y-14441960D02*
X15502000Y-14506960D01*
X15469500Y-14474460D02*
X15534500Y-14474460D01*
X15482000Y-14506960D02*
X15522000Y-14506960D01*
X15522000Y-14441960D02*
G75*
G02*
X15522000Y-14506960I0J-32500D01*
G01*
X15522000Y-14441960D02*
X15482000Y-14441960D01*
X15482000Y-14441960D02*
G75*
G03*
X15482000Y-14506960I0J-32500D01*
G01*
X15226749Y-13984209D02*
X15226749Y-13934711D01*
X15177251Y-13934711D01*
X15177251Y-13984209D01*
X15226749Y-13984209D01*
X15177000Y-13994460D02*
X15227000Y-13994460D01*
X15227000Y-13924460D02*
G75*
G02*
X15227000Y-13994460I0J-35000D01*
G01*
X15227000Y-13924460D02*
X15177000Y-13924460D01*
X15177000Y-13924460D02*
G75*
G03*
X15177000Y-13994460I0J-35000D01*
G01*
X15226749Y-14530209D02*
X15226749Y-14480711D01*
X15177251Y-14480711D01*
X15177251Y-14530209D01*
X15226749Y-14530209D01*
X15177000Y-14540460D02*
X15227000Y-14540460D01*
X15227000Y-14470460D02*
G75*
G02*
X15227000Y-14540460I0J-35000D01*
G01*
X15227000Y-14470460D02*
X15177000Y-14470460D01*
X15177000Y-14470460D02*
G75*
G03*
X15177000Y-14540460I0J-35000D01*
G01*
X17714867Y-7909099D02*
X17754867Y-7869099D01*
X17714867Y-7829099D01*
X17674867Y-7869099D01*
X17714867Y-7909099D01*
X17714867Y-8163099D02*
X17754867Y-8123099D01*
X17714867Y-8083099D01*
X17674867Y-8123099D01*
X17714867Y-8163099D01*
X17714867Y-8417099D02*
X17754867Y-8377099D01*
X17714867Y-8337099D01*
X17674867Y-8377099D01*
X17714867Y-8417099D01*
X18249000Y-7908796D02*
X18289000Y-7868796D01*
X18249000Y-7828796D01*
X18209000Y-7868796D01*
X18249000Y-7908796D01*
X18249000Y-8162796D02*
X18289000Y-8122796D01*
X18249000Y-8082796D01*
X18209000Y-8122796D01*
X18249000Y-8162796D01*
X18249000Y-8416796D02*
X18289000Y-8376796D01*
X18249000Y-8336796D01*
X18209000Y-8376796D01*
X18249000Y-8416796D01*
X22917156Y-5364000D02*
X22957156Y-5324000D01*
X22917156Y-5284000D01*
X22877156Y-5324000D01*
X22917156Y-5364000D01*
X22917156Y-5614000D02*
X22957156Y-5574000D01*
X22917156Y-5534000D01*
X22877156Y-5574000D01*
X22917156Y-5614000D01*
X15300000Y-7417000D02*
X15400000Y-7517000D01*
X15400000Y-7417000D02*
X15300000Y-7517000D01*
X15400000Y-7467000D02*
G75*
G02*
X15300000Y-7467000I-50000J0D01*
G01*
X15300000Y-7467000D02*
G75*
G02*
X15400000Y-7467000I50000J0D01*
G01*
X15421201Y-11204460D02*
X15521201Y-11304460D01*
X15521201Y-11204460D02*
X15421201Y-11304460D01*
X15521201Y-11254460D02*
G75*
G02*
X15421201Y-11254460I-50000J0D01*
G01*
X15421201Y-11254460D02*
G75*
G02*
X15521201Y-11254460I50000J0D01*
G01*
X15421201Y-11458460D02*
X15521201Y-11558460D01*
X15521201Y-11458460D02*
X15421201Y-11558460D01*
X15521201Y-11508460D02*
G75*
G02*
X15421201Y-11508460I-50000J0D01*
G01*
X15421201Y-11508460D02*
G75*
G02*
X15521201Y-11508460I50000J0D01*
G01*
X15421201Y-11712460D02*
X15521201Y-11812460D01*
X15521201Y-11712460D02*
X15421201Y-11812460D01*
X15521201Y-11762460D02*
G75*
G02*
X15421201Y-11762460I-50000J0D01*
G01*
X15421201Y-11762460D02*
G75*
G02*
X15521201Y-11762460I50000J0D01*
G01*
X15554000Y-7417000D02*
X15654000Y-7517000D01*
X15654000Y-7417000D02*
X15554000Y-7517000D01*
X15654000Y-7467000D02*
G75*
G02*
X15554000Y-7467000I-50000J0D01*
G01*
X15554000Y-7467000D02*
G75*
G02*
X15654000Y-7467000I50000J0D01*
G01*
X15808000Y-7417000D02*
X15908000Y-7517000D01*
X15908000Y-7417000D02*
X15808000Y-7517000D01*
X15908000Y-7467000D02*
G75*
G02*
X15808000Y-7467000I-50000J0D01*
G01*
X15808000Y-7467000D02*
G75*
G02*
X15908000Y-7467000I50000J0D01*
G01*
X17814200Y-9083300D02*
X17914200Y-9183300D01*
X17914200Y-9083300D02*
X17814200Y-9183300D01*
X17914200Y-9133300D02*
G75*
G02*
X17814200Y-9133300I-50000J0D01*
G01*
X17814200Y-9133300D02*
G75*
G02*
X17914200Y-9133300I50000J0D01*
G01*
X17814200Y-9337300D02*
X17914200Y-9437300D01*
X17914200Y-9337300D02*
X17814200Y-9437300D01*
X17914200Y-9387300D02*
G75*
G02*
X17814200Y-9387300I-50000J0D01*
G01*
X17814200Y-9387300D02*
G75*
G02*
X17914200Y-9387300I50000J0D01*
G01*
X17814200Y-9591300D02*
X17914200Y-9691300D01*
X17914200Y-9591300D02*
X17814200Y-9691300D01*
X17914200Y-9641300D02*
G75*
G02*
X17814200Y-9641300I-50000J0D01*
G01*
X17814200Y-9641300D02*
G75*
G02*
X17914200Y-9641300I50000J0D01*
G01*
X17814200Y-9845300D02*
X17914200Y-9945300D01*
X17914200Y-9845300D02*
X17814200Y-9945300D01*
X17914200Y-9895300D02*
G75*
G02*
X17814200Y-9895300I-50000J0D01*
G01*
X17814200Y-9895300D02*
G75*
G02*
X17914200Y-9895300I50000J0D01*
G01*
X17814200Y-10099300D02*
X17914200Y-10199300D01*
X17914200Y-10099300D02*
X17814200Y-10199300D01*
X17914200Y-10149300D02*
G75*
G02*
X17814200Y-10149300I-50000J0D01*
G01*
X17814200Y-10149300D02*
G75*
G02*
X17914200Y-10149300I50000J0D01*
G01*
X17814200Y-13250000D02*
X17914200Y-13350000D01*
X17914200Y-13250000D02*
X17814200Y-13350000D01*
X17914200Y-13300000D02*
G75*
G02*
X17814200Y-13300000I-50000J0D01*
G01*
X17814200Y-13300000D02*
G75*
G02*
X17914200Y-13300000I50000J0D01*
G01*
X17814200Y-13504000D02*
X17914200Y-13604000D01*
X17914200Y-13504000D02*
X17814200Y-13604000D01*
X17914200Y-13554000D02*
G75*
G02*
X17814200Y-13554000I-50000J0D01*
G01*
X17814200Y-13554000D02*
G75*
G02*
X17914200Y-13554000I50000J0D01*
G01*
X17814200Y-13758000D02*
X17914200Y-13858000D01*
X17914200Y-13758000D02*
X17814200Y-13858000D01*
X17914200Y-13808000D02*
G75*
G02*
X17814200Y-13808000I-50000J0D01*
G01*
X17814200Y-13808000D02*
G75*
G02*
X17914200Y-13808000I50000J0D01*
G01*
X17814200Y-14012000D02*
X17914200Y-14112000D01*
X17914200Y-14012000D02*
X17814200Y-14112000D01*
X17914200Y-14062000D02*
G75*
G02*
X17814200Y-14062000I-50000J0D01*
G01*
X17814200Y-14062000D02*
G75*
G02*
X17914200Y-14062000I50000J0D01*
G01*
X17814200Y-14520000D02*
X17914200Y-14620000D01*
X17914200Y-14520000D02*
X17814200Y-14620000D01*
X17914200Y-14570000D02*
G75*
G02*
X17814200Y-14570000I-50000J0D01*
G01*
X17814200Y-14570000D02*
G75*
G02*
X17914200Y-14570000I50000J0D01*
G01*
X17817811Y-6032000D02*
X17917811Y-6132000D01*
X17917811Y-6032000D02*
X17817811Y-6132000D01*
X17917811Y-6082000D02*
G75*
G02*
X17817811Y-6082000I-50000J0D01*
G01*
X17817811Y-6082000D02*
G75*
G02*
X17917811Y-6082000I50000J0D01*
G01*
X17817811Y-6286000D02*
X17917811Y-6386000D01*
X17917811Y-6286000D02*
X17817811Y-6386000D01*
X17917811Y-6336000D02*
G75*
G02*
X17817811Y-6336000I-50000J0D01*
G01*
X17817811Y-6336000D02*
G75*
G02*
X17917811Y-6336000I50000J0D01*
G01*
X17817811Y-6540000D02*
X17917811Y-6640000D01*
X17917811Y-6540000D02*
X17817811Y-6640000D01*
X17917811Y-6590000D02*
G75*
G02*
X17817811Y-6590000I-50000J0D01*
G01*
X17817811Y-6590000D02*
G75*
G02*
X17917811Y-6590000I50000J0D01*
G01*
X18068200Y-9083300D02*
X18168200Y-9183300D01*
X18168200Y-9083300D02*
X18068200Y-9183300D01*
X18168200Y-9133300D02*
G75*
G02*
X18068200Y-9133300I-50000J0D01*
G01*
X18068200Y-9133300D02*
G75*
G02*
X18168200Y-9133300I50000J0D01*
G01*
X18068200Y-9337300D02*
X18168200Y-9437300D01*
X18168200Y-9337300D02*
X18068200Y-9437300D01*
X18168200Y-9387300D02*
G75*
G02*
X18068200Y-9387300I-50000J0D01*
G01*
X18068200Y-9387300D02*
G75*
G02*
X18168200Y-9387300I50000J0D01*
G01*
X18068200Y-9591300D02*
X18168200Y-9691300D01*
X18168200Y-9591300D02*
X18068200Y-9691300D01*
X18168200Y-9641300D02*
G75*
G02*
X18068200Y-9641300I-50000J0D01*
G01*
X18068200Y-9641300D02*
G75*
G02*
X18168200Y-9641300I50000J0D01*
G01*
X18068200Y-9845300D02*
X18168200Y-9945300D01*
X18168200Y-9845300D02*
X18068200Y-9945300D01*
X18168200Y-9895300D02*
G75*
G02*
X18068200Y-9895300I-50000J0D01*
G01*
X18068200Y-9895300D02*
G75*
G02*
X18168200Y-9895300I50000J0D01*
G01*
X18068200Y-10099300D02*
X18168200Y-10199300D01*
X18168200Y-10099300D02*
X18068200Y-10199300D01*
X18168200Y-10149300D02*
G75*
G02*
X18068200Y-10149300I-50000J0D01*
G01*
X18068200Y-10149300D02*
G75*
G02*
X18168200Y-10149300I50000J0D01*
G01*
X18068200Y-14520000D02*
X18168200Y-14620000D01*
X18168200Y-14520000D02*
X18068200Y-14620000D01*
X18168200Y-14570000D02*
G75*
G02*
X18068200Y-14570000I-50000J0D01*
G01*
X18068200Y-14570000D02*
G75*
G02*
X18168200Y-14570000I50000J0D01*
G01*
X19849811Y-7556000D02*
X19949811Y-7656000D01*
X19949811Y-7556000D02*
X19849811Y-7656000D01*
X19949811Y-7606000D02*
G75*
G02*
X19849811Y-7606000I-50000J0D01*
G01*
X19849811Y-7606000D02*
G75*
G02*
X19949811Y-7606000I50000J0D01*
G01*
X19849811Y-7810000D02*
X19949811Y-7910000D01*
X19949811Y-7810000D02*
X19849811Y-7910000D01*
X19949811Y-7860000D02*
G75*
G02*
X19849811Y-7860000I-50000J0D01*
G01*
X19849811Y-7860000D02*
G75*
G02*
X19949811Y-7860000I50000J0D01*
G01*
X19849811Y-8064000D02*
X19949811Y-8164000D01*
X19949811Y-8064000D02*
X19849811Y-8164000D01*
X19949811Y-8114000D02*
G75*
G02*
X19849811Y-8114000I-50000J0D01*
G01*
X19849811Y-8114000D02*
G75*
G02*
X19949811Y-8114000I50000J0D01*
G01*
X19849811Y-8318000D02*
X19949811Y-8418000D01*
X19949811Y-8318000D02*
X19849811Y-8418000D01*
X19949811Y-8368000D02*
G75*
G02*
X19849811Y-8368000I-50000J0D01*
G01*
X19849811Y-8368000D02*
G75*
G02*
X19949811Y-8368000I50000J0D01*
G01*
X19849811Y-8572000D02*
X19949811Y-8672000D01*
X19949811Y-8572000D02*
X19849811Y-8672000D01*
X19949811Y-8622000D02*
G75*
G02*
X19849811Y-8622000I-50000J0D01*
G01*
X19849811Y-8622000D02*
G75*
G02*
X19949811Y-8622000I50000J0D01*
G01*
X19849811Y-8826000D02*
X19949811Y-8926000D01*
X19949811Y-8826000D02*
X19849811Y-8926000D01*
X19949811Y-8876000D02*
G75*
G02*
X19849811Y-8876000I-50000J0D01*
G01*
X19849811Y-8876000D02*
G75*
G02*
X19949811Y-8876000I50000J0D01*
G01*
X19849811Y-9080000D02*
X19949811Y-9180000D01*
X19949811Y-9080000D02*
X19849811Y-9180000D01*
X19949811Y-9130000D02*
G75*
G02*
X19849811Y-9130000I-50000J0D01*
G01*
X19849811Y-9130000D02*
G75*
G02*
X19949811Y-9130000I50000J0D01*
G01*
X19849811Y-9334000D02*
X19949811Y-9434000D01*
X19949811Y-9334000D02*
X19849811Y-9434000D01*
X19949811Y-9384000D02*
G75*
G02*
X19849811Y-9384000I-50000J0D01*
G01*
X19849811Y-9384000D02*
G75*
G02*
X19949811Y-9384000I50000J0D01*
G01*
X19849811Y-9588000D02*
X19949811Y-9688000D01*
X19949811Y-9588000D02*
X19849811Y-9688000D01*
X19949811Y-9638000D02*
G75*
G02*
X19849811Y-9638000I-50000J0D01*
G01*
X19849811Y-9638000D02*
G75*
G02*
X19949811Y-9638000I50000J0D01*
G01*
X19849811Y-9842000D02*
X19949811Y-9942000D01*
X19949811Y-9842000D02*
X19849811Y-9942000D01*
X19949811Y-9892000D02*
G75*
G02*
X19849811Y-9892000I-50000J0D01*
G01*
X19849811Y-9892000D02*
G75*
G02*
X19949811Y-9892000I50000J0D01*
G01*
X19849811Y-10096000D02*
X19949811Y-10196000D01*
X19949811Y-10096000D02*
X19849811Y-10196000D01*
X19949811Y-10146000D02*
G75*
G02*
X19849811Y-10146000I-50000J0D01*
G01*
X19849811Y-10146000D02*
G75*
G02*
X19949811Y-10146000I50000J0D01*
G01*
X20611811Y-5524000D02*
X20711811Y-5624000D01*
X20711811Y-5524000D02*
X20611811Y-5624000D01*
X20711811Y-5574000D02*
G75*
G02*
X20611811Y-5574000I-50000J0D01*
G01*
X20611811Y-5574000D02*
G75*
G02*
X20711811Y-5574000I50000J0D01*
G01*
X20611811Y-5778000D02*
X20711811Y-5878000D01*
X20711811Y-5778000D02*
X20611811Y-5878000D01*
X20711811Y-5828000D02*
G75*
G02*
X20611811Y-5828000I-50000J0D01*
G01*
X20611811Y-5828000D02*
G75*
G02*
X20711811Y-5828000I50000J0D01*
G01*
X20611811Y-6032000D02*
X20711811Y-6132000D01*
X20711811Y-6032000D02*
X20611811Y-6132000D01*
X20711811Y-6082000D02*
G75*
G02*
X20611811Y-6082000I-50000J0D01*
G01*
X20611811Y-6082000D02*
G75*
G02*
X20711811Y-6082000I50000J0D01*
G01*
X20611811Y-6286000D02*
X20711811Y-6386000D01*
X20711811Y-6286000D02*
X20611811Y-6386000D01*
X20711811Y-6336000D02*
G75*
G02*
X20611811Y-6336000I-50000J0D01*
G01*
X20611811Y-6336000D02*
G75*
G02*
X20711811Y-6336000I50000J0D01*
G01*
X20611811Y-6540000D02*
X20711811Y-6640000D01*
X20711811Y-6540000D02*
X20611811Y-6640000D01*
X20711811Y-6590000D02*
G75*
G02*
X20611811Y-6590000I-50000J0D01*
G01*
X20611811Y-6590000D02*
G75*
G02*
X20711811Y-6590000I50000J0D01*
G01*
X20611811Y-6794000D02*
X20711811Y-6894000D01*
X20711811Y-6794000D02*
X20611811Y-6894000D01*
X20711811Y-6844000D02*
G75*
G02*
X20611811Y-6844000I-50000J0D01*
G01*
X20611811Y-6844000D02*
G75*
G02*
X20711811Y-6844000I50000J0D01*
G01*
X20611811Y-7048000D02*
X20711811Y-7148000D01*
X20711811Y-7048000D02*
X20611811Y-7148000D01*
X20711811Y-7098000D02*
G75*
G02*
X20611811Y-7098000I-50000J0D01*
G01*
X20611811Y-7098000D02*
G75*
G02*
X20711811Y-7098000I50000J0D01*
G01*
X20611811Y-7302000D02*
X20711811Y-7402000D01*
X20711811Y-7302000D02*
X20611811Y-7402000D01*
X20711811Y-7352000D02*
G75*
G02*
X20611811Y-7352000I-50000J0D01*
G01*
X20611811Y-7352000D02*
G75*
G02*
X20711811Y-7352000I50000J0D01*
G01*
X20611811Y-7556000D02*
X20711811Y-7656000D01*
X20711811Y-7556000D02*
X20611811Y-7656000D01*
X20711811Y-7606000D02*
G75*
G02*
X20611811Y-7606000I-50000J0D01*
G01*
X20611811Y-7606000D02*
G75*
G02*
X20711811Y-7606000I50000J0D01*
G01*
X20611811Y-7810000D02*
X20711811Y-7910000D01*
X20711811Y-7810000D02*
X20611811Y-7910000D01*
X20711811Y-7860000D02*
G75*
G02*
X20611811Y-7860000I-50000J0D01*
G01*
X20611811Y-7860000D02*
G75*
G02*
X20711811Y-7860000I50000J0D01*
G01*
X20611811Y-8064000D02*
X20711811Y-8164000D01*
X20711811Y-8064000D02*
X20611811Y-8164000D01*
X20711811Y-8114000D02*
G75*
G02*
X20611811Y-8114000I-50000J0D01*
G01*
X20611811Y-8114000D02*
G75*
G02*
X20711811Y-8114000I50000J0D01*
G01*
X20611811Y-8318000D02*
X20711811Y-8418000D01*
X20711811Y-8318000D02*
X20611811Y-8418000D01*
X20711811Y-8368000D02*
G75*
G02*
X20611811Y-8368000I-50000J0D01*
G01*
X20611811Y-8368000D02*
G75*
G02*
X20711811Y-8368000I50000J0D01*
G01*
X20611811Y-8572000D02*
X20711811Y-8672000D01*
X20711811Y-8572000D02*
X20611811Y-8672000D01*
X20711811Y-8622000D02*
G75*
G02*
X20611811Y-8622000I-50000J0D01*
G01*
X20611811Y-8622000D02*
G75*
G02*
X20711811Y-8622000I50000J0D01*
G01*
X20611811Y-8826000D02*
X20711811Y-8926000D01*
X20711811Y-8826000D02*
X20611811Y-8926000D01*
X20711811Y-8876000D02*
G75*
G02*
X20611811Y-8876000I-50000J0D01*
G01*
X20611811Y-8876000D02*
G75*
G02*
X20711811Y-8876000I50000J0D01*
G01*
X20611811Y-9080000D02*
X20711811Y-9180000D01*
X20711811Y-9080000D02*
X20611811Y-9180000D01*
X20711811Y-9130000D02*
G75*
G02*
X20611811Y-9130000I-50000J0D01*
G01*
X20611811Y-9130000D02*
G75*
G02*
X20711811Y-9130000I50000J0D01*
G01*
X20611811Y-9334000D02*
X20711811Y-9434000D01*
X20711811Y-9334000D02*
X20611811Y-9434000D01*
X20711811Y-9384000D02*
G75*
G02*
X20611811Y-9384000I-50000J0D01*
G01*
X20611811Y-9384000D02*
G75*
G02*
X20711811Y-9384000I50000J0D01*
G01*
X20611811Y-9588000D02*
X20711811Y-9688000D01*
X20711811Y-9588000D02*
X20611811Y-9688000D01*
X20711811Y-9638000D02*
G75*
G02*
X20611811Y-9638000I-50000J0D01*
G01*
X20611811Y-9638000D02*
G75*
G02*
X20711811Y-9638000I50000J0D01*
G01*
X20611811Y-9842000D02*
X20711811Y-9942000D01*
X20711811Y-9842000D02*
X20611811Y-9942000D01*
X20711811Y-9892000D02*
G75*
G02*
X20611811Y-9892000I-50000J0D01*
G01*
X20611811Y-9892000D02*
G75*
G02*
X20711811Y-9892000I50000J0D01*
G01*
X20611811Y-10096000D02*
X20711811Y-10196000D01*
X20711811Y-10096000D02*
X20611811Y-10196000D01*
X20711811Y-10146000D02*
G75*
G02*
X20611811Y-10146000I-50000J0D01*
G01*
X20611811Y-10146000D02*
G75*
G02*
X20711811Y-10146000I50000J0D01*
G01*
X20611811Y-10350000D02*
X20711811Y-10450000D01*
X20711811Y-10350000D02*
X20611811Y-10450000D01*
X20711811Y-10400000D02*
G75*
G02*
X20611811Y-10400000I-50000J0D01*
G01*
X20611811Y-10400000D02*
G75*
G02*
X20711811Y-10400000I50000J0D01*
G01*
X22135811Y-5524000D02*
X22235811Y-5624000D01*
X22235811Y-5524000D02*
X22135811Y-5624000D01*
X22235811Y-5574000D02*
G75*
G02*
X22135811Y-5574000I-50000J0D01*
G01*
X22135811Y-5574000D02*
G75*
G02*
X22235811Y-5574000I50000J0D01*
G01*
X22135811Y-5778000D02*
X22235811Y-5878000D01*
X22235811Y-5778000D02*
X22135811Y-5878000D01*
X22235811Y-5828000D02*
G75*
G02*
X22135811Y-5828000I-50000J0D01*
G01*
X22135811Y-5828000D02*
G75*
G02*
X22235811Y-5828000I50000J0D01*
G01*
X22135811Y-6032000D02*
X22235811Y-6132000D01*
X22235811Y-6032000D02*
X22135811Y-6132000D01*
X22235811Y-6082000D02*
G75*
G02*
X22135811Y-6082000I-50000J0D01*
G01*
X22135811Y-6082000D02*
G75*
G02*
X22235811Y-6082000I50000J0D01*
G01*
X22135811Y-6286000D02*
X22235811Y-6386000D01*
X22235811Y-6286000D02*
X22135811Y-6386000D01*
X22235811Y-6336000D02*
G75*
G02*
X22135811Y-6336000I-50000J0D01*
G01*
X22135811Y-6336000D02*
G75*
G02*
X22235811Y-6336000I50000J0D01*
G01*
X22135811Y-6540000D02*
X22235811Y-6640000D01*
X22235811Y-6540000D02*
X22135811Y-6640000D01*
X22235811Y-6590000D02*
G75*
G02*
X22135811Y-6590000I-50000J0D01*
G01*
X22135811Y-6590000D02*
G75*
G02*
X22235811Y-6590000I50000J0D01*
G01*
X22135811Y-6794000D02*
X22235811Y-6894000D01*
X22235811Y-6794000D02*
X22135811Y-6894000D01*
X22235811Y-6844000D02*
G75*
G02*
X22135811Y-6844000I-50000J0D01*
G01*
X22135811Y-6844000D02*
G75*
G02*
X22235811Y-6844000I50000J0D01*
G01*
X22135811Y-7048000D02*
X22235811Y-7148000D01*
X22235811Y-7048000D02*
X22135811Y-7148000D01*
X22235811Y-7098000D02*
G75*
G02*
X22135811Y-7098000I-50000J0D01*
G01*
X22135811Y-7098000D02*
G75*
G02*
X22235811Y-7098000I50000J0D01*
G01*
X22135811Y-7302000D02*
X22235811Y-7402000D01*
X22235811Y-7302000D02*
X22135811Y-7402000D01*
X22235811Y-7352000D02*
G75*
G02*
X22135811Y-7352000I-50000J0D01*
G01*
X22135811Y-7352000D02*
G75*
G02*
X22235811Y-7352000I50000J0D01*
G01*
X22135811Y-7556000D02*
X22235811Y-7656000D01*
X22235811Y-7556000D02*
X22135811Y-7656000D01*
X22235811Y-7606000D02*
G75*
G02*
X22135811Y-7606000I-50000J0D01*
G01*
X22135811Y-7606000D02*
G75*
G02*
X22235811Y-7606000I50000J0D01*
G01*
X22135811Y-7810000D02*
X22235811Y-7910000D01*
X22235811Y-7810000D02*
X22135811Y-7910000D01*
X22235811Y-7860000D02*
G75*
G02*
X22135811Y-7860000I-50000J0D01*
G01*
X22135811Y-7860000D02*
G75*
G02*
X22235811Y-7860000I50000J0D01*
G01*
X22135811Y-8064000D02*
X22235811Y-8164000D01*
X22235811Y-8064000D02*
X22135811Y-8164000D01*
X22235811Y-8114000D02*
G75*
G02*
X22135811Y-8114000I-50000J0D01*
G01*
X22135811Y-8114000D02*
G75*
G02*
X22235811Y-8114000I50000J0D01*
G01*
X22135811Y-8318000D02*
X22235811Y-8418000D01*
X22235811Y-8318000D02*
X22135811Y-8418000D01*
X22235811Y-8368000D02*
G75*
G02*
X22135811Y-8368000I-50000J0D01*
G01*
X22135811Y-8368000D02*
G75*
G02*
X22235811Y-8368000I50000J0D01*
G01*
X22135811Y-8572000D02*
X22235811Y-8672000D01*
X22235811Y-8572000D02*
X22135811Y-8672000D01*
X22235811Y-8622000D02*
G75*
G02*
X22135811Y-8622000I-50000J0D01*
G01*
X22135811Y-8622000D02*
G75*
G02*
X22235811Y-8622000I50000J0D01*
G01*
X22135811Y-8826000D02*
X22235811Y-8926000D01*
X22235811Y-8826000D02*
X22135811Y-8926000D01*
X22235811Y-8876000D02*
G75*
G02*
X22135811Y-8876000I-50000J0D01*
G01*
X22135811Y-8876000D02*
G75*
G02*
X22235811Y-8876000I50000J0D01*
G01*
X22135811Y-9080000D02*
X22235811Y-9180000D01*
X22235811Y-9080000D02*
X22135811Y-9180000D01*
X22235811Y-9130000D02*
G75*
G02*
X22135811Y-9130000I-50000J0D01*
G01*
X22135811Y-9130000D02*
G75*
G02*
X22235811Y-9130000I50000J0D01*
G01*
X22135811Y-9334000D02*
X22235811Y-9434000D01*
X22235811Y-9334000D02*
X22135811Y-9434000D01*
X22235811Y-9384000D02*
G75*
G02*
X22135811Y-9384000I-50000J0D01*
G01*
X22135811Y-9384000D02*
G75*
G02*
X22235811Y-9384000I50000J0D01*
G01*
X22135811Y-9588000D02*
X22235811Y-9688000D01*
X22235811Y-9588000D02*
X22135811Y-9688000D01*
X22235811Y-9638000D02*
G75*
G02*
X22135811Y-9638000I-50000J0D01*
G01*
X22135811Y-9638000D02*
G75*
G02*
X22235811Y-9638000I50000J0D01*
G01*
X22135811Y-9842000D02*
X22235811Y-9942000D01*
X22235811Y-9842000D02*
X22135811Y-9942000D01*
X22235811Y-9892000D02*
G75*
G02*
X22135811Y-9892000I-50000J0D01*
G01*
X22135811Y-9892000D02*
G75*
G02*
X22235811Y-9892000I50000J0D01*
G01*
X22135811Y-10096000D02*
X22235811Y-10196000D01*
X22235811Y-10096000D02*
X22135811Y-10196000D01*
X22235811Y-10146000D02*
G75*
G02*
X22135811Y-10146000I-50000J0D01*
G01*
X22135811Y-10146000D02*
G75*
G02*
X22235811Y-10146000I50000J0D01*
G01*
X22135811Y-10350000D02*
X22235811Y-10450000D01*
X22235811Y-10350000D02*
X22135811Y-10450000D01*
X22235811Y-10400000D02*
G75*
G02*
X22135811Y-10400000I-50000J0D01*
G01*
X22135811Y-10400000D02*
G75*
G02*
X22235811Y-10400000I50000J0D01*
G01*
X23658000Y-5270000D02*
X23758000Y-5370000D01*
X23758000Y-5270000D02*
X23658000Y-5370000D01*
X23758000Y-5320000D02*
G75*
G02*
X23658000Y-5320000I-50000J0D01*
G01*
X23658000Y-5320000D02*
G75*
G02*
X23758000Y-5320000I50000J0D01*
G01*
X23658000Y-5524000D02*
X23758000Y-5624000D01*
X23758000Y-5524000D02*
X23658000Y-5624000D01*
X23758000Y-5574000D02*
G75*
G02*
X23658000Y-5574000I-50000J0D01*
G01*
X23658000Y-5574000D02*
G75*
G02*
X23758000Y-5574000I50000J0D01*
G01*
X23912000Y-5270000D02*
X24012000Y-5370000D01*
X24012000Y-5270000D02*
X23912000Y-5370000D01*
X24012000Y-5320000D02*
G75*
G02*
X23912000Y-5320000I-50000J0D01*
G01*
X23912000Y-5320000D02*
G75*
G02*
X24012000Y-5320000I50000J0D01*
G01*
X23912000Y-5524000D02*
X24012000Y-5624000D01*
X24012000Y-5524000D02*
X23912000Y-5624000D01*
X24012000Y-5574000D02*
G75*
G02*
X23912000Y-5574000I-50000J0D01*
G01*
X23912000Y-5574000D02*
G75*
G02*
X24012000Y-5574000I50000J0D01*
G01*
X24166000Y-5270000D02*
X24266000Y-5370000D01*
X24266000Y-5270000D02*
X24166000Y-5370000D01*
X24266000Y-5320000D02*
G75*
G02*
X24166000Y-5320000I-50000J0D01*
G01*
X24166000Y-5320000D02*
G75*
G02*
X24266000Y-5320000I50000J0D01*
G01*
X24166000Y-5524000D02*
X24266000Y-5624000D01*
X24266000Y-5524000D02*
X24166000Y-5624000D01*
X24266000Y-5574000D02*
G75*
G02*
X24166000Y-5574000I-50000J0D01*
G01*
X24166000Y-5574000D02*
G75*
G02*
X24266000Y-5574000I50000J0D01*
G01*
X24420000Y-5270000D02*
X24520000Y-5370000D01*
X24520000Y-5270000D02*
X24420000Y-5370000D01*
X24520000Y-5320000D02*
G75*
G02*
X24420000Y-5320000I-50000J0D01*
G01*
X24420000Y-5320000D02*
G75*
G02*
X24520000Y-5320000I50000J0D01*
G01*
X24420000Y-5524000D02*
X24520000Y-5624000D01*
X24520000Y-5524000D02*
X24420000Y-5624000D01*
X24520000Y-5574000D02*
G75*
G02*
X24420000Y-5574000I-50000J0D01*
G01*
X24420000Y-5574000D02*
G75*
G02*
X24520000Y-5574000I50000J0D01*
G01*
X24420000Y-6646000D02*
X24520000Y-6746000D01*
X24520000Y-6646000D02*
X24420000Y-6746000D01*
X24520000Y-6696000D02*
G75*
G02*
X24420000Y-6696000I-50000J0D01*
G01*
X24420000Y-6696000D02*
G75*
G02*
X24520000Y-6696000I50000J0D01*
G01*
X24420000Y-6900000D02*
X24520000Y-7000000D01*
X24520000Y-6900000D02*
X24420000Y-7000000D01*
X24520000Y-6950000D02*
G75*
G02*
X24420000Y-6950000I-50000J0D01*
G01*
X24420000Y-6950000D02*
G75*
G02*
X24520000Y-6950000I50000J0D01*
G01*
X24420000Y-7154000D02*
X24520000Y-7254000D01*
X24520000Y-7154000D02*
X24420000Y-7254000D01*
X24520000Y-7204000D02*
G75*
G02*
X24420000Y-7204000I-50000J0D01*
G01*
X24420000Y-7204000D02*
G75*
G02*
X24520000Y-7204000I50000J0D01*
G01*
X24420000Y-7408000D02*
X24520000Y-7508000D01*
X24520000Y-7408000D02*
X24420000Y-7508000D01*
X24520000Y-7458000D02*
G75*
G02*
X24420000Y-7458000I-50000J0D01*
G01*
X24420000Y-7458000D02*
G75*
G02*
X24520000Y-7458000I50000J0D01*
G01*
X24420000Y-7662000D02*
X24520000Y-7762000D01*
X24520000Y-7662000D02*
X24420000Y-7762000D01*
X24520000Y-7712000D02*
G75*
G02*
X24420000Y-7712000I-50000J0D01*
G01*
X24420000Y-7712000D02*
G75*
G02*
X24520000Y-7712000I50000J0D01*
G01*
X24420000Y-7916000D02*
X24520000Y-8016000D01*
X24520000Y-7916000D02*
X24420000Y-8016000D01*
X24520000Y-7966000D02*
G75*
G02*
X24420000Y-7966000I-50000J0D01*
G01*
X24420000Y-7966000D02*
G75*
G02*
X24520000Y-7966000I50000J0D01*
G01*
X24420000Y-8170000D02*
X24520000Y-8270000D01*
X24520000Y-8170000D02*
X24420000Y-8270000D01*
X24520000Y-8220000D02*
G75*
G02*
X24420000Y-8220000I-50000J0D01*
G01*
X24420000Y-8220000D02*
G75*
G02*
X24520000Y-8220000I50000J0D01*
G01*
X24420000Y-8424000D02*
X24520000Y-8524000D01*
X24520000Y-8424000D02*
X24420000Y-8524000D01*
X24520000Y-8474000D02*
G75*
G02*
X24420000Y-8474000I-50000J0D01*
G01*
X24420000Y-8474000D02*
G75*
G02*
X24520000Y-8474000I50000J0D01*
G01*
X24420000Y-8678000D02*
X24520000Y-8778000D01*
X24520000Y-8678000D02*
X24420000Y-8778000D01*
X24520000Y-8728000D02*
G75*
G02*
X24420000Y-8728000I-50000J0D01*
G01*
X24420000Y-8728000D02*
G75*
G02*
X24520000Y-8728000I50000J0D01*
G01*
X24420000Y-8932000D02*
X24520000Y-9032000D01*
X24520000Y-8932000D02*
X24420000Y-9032000D01*
X24520000Y-8982000D02*
G75*
G02*
X24420000Y-8982000I-50000J0D01*
G01*
X24420000Y-8982000D02*
G75*
G02*
X24520000Y-8982000I50000J0D01*
G01*
X24420000Y-9186000D02*
X24520000Y-9286000D01*
X24520000Y-9186000D02*
X24420000Y-9286000D01*
X24520000Y-9236000D02*
G75*
G02*
X24420000Y-9236000I-50000J0D01*
G01*
X24420000Y-9236000D02*
G75*
G02*
X24520000Y-9236000I50000J0D01*
G01*
X24420000Y-9440000D02*
X24520000Y-9540000D01*
X24520000Y-9440000D02*
X24420000Y-9540000D01*
X24520000Y-9490000D02*
G75*
G02*
X24420000Y-9490000I-50000J0D01*
G01*
X24420000Y-9490000D02*
G75*
G02*
X24520000Y-9490000I50000J0D01*
G01*
X24420000Y-9694000D02*
X24520000Y-9794000D01*
X24520000Y-9694000D02*
X24420000Y-9794000D01*
X24520000Y-9744000D02*
G75*
G02*
X24420000Y-9744000I-50000J0D01*
G01*
X24420000Y-9744000D02*
G75*
G02*
X24520000Y-9744000I50000J0D01*
G01*
X24420000Y-9948000D02*
X24520000Y-10048000D01*
X24520000Y-9948000D02*
X24420000Y-10048000D01*
X24520000Y-9998000D02*
G75*
G02*
X24420000Y-9998000I-50000J0D01*
G01*
X24420000Y-9998000D02*
G75*
G02*
X24520000Y-9998000I50000J0D01*
G01*
X24420000Y-10202000D02*
X24520000Y-10302000D01*
X24520000Y-10202000D02*
X24420000Y-10302000D01*
X24520000Y-10252000D02*
G75*
G02*
X24420000Y-10252000I-50000J0D01*
G01*
X24420000Y-10252000D02*
G75*
G02*
X24520000Y-10252000I50000J0D01*
G01*
X24420000Y-10456000D02*
X24520000Y-10556000D01*
X24520000Y-10456000D02*
X24420000Y-10556000D01*
X24520000Y-10506000D02*
G75*
G02*
X24420000Y-10506000I-50000J0D01*
G01*
X24420000Y-10506000D02*
G75*
G02*
X24520000Y-10506000I50000J0D01*
G01*
X24420000Y-10710000D02*
X24520000Y-10810000D01*
X24520000Y-10710000D02*
X24420000Y-10810000D01*
X24520000Y-10760000D02*
G75*
G02*
X24420000Y-10760000I-50000J0D01*
G01*
X24420000Y-10760000D02*
G75*
G02*
X24520000Y-10760000I50000J0D01*
G01*
X24420000Y-10964000D02*
X24520000Y-11064000D01*
X24520000Y-10964000D02*
X24420000Y-11064000D01*
X24520000Y-11014000D02*
G75*
G02*
X24420000Y-11014000I-50000J0D01*
G01*
X24420000Y-11014000D02*
G75*
G02*
X24520000Y-11014000I50000J0D01*
G01*
X24420000Y-11218000D02*
X24520000Y-11318000D01*
X24520000Y-11218000D02*
X24420000Y-11318000D01*
X24520000Y-11268000D02*
G75*
G02*
X24420000Y-11268000I-50000J0D01*
G01*
X24420000Y-11268000D02*
G75*
G02*
X24520000Y-11268000I50000J0D01*
G01*
X24420000Y-11472000D02*
X24520000Y-11572000D01*
X24520000Y-11472000D02*
X24420000Y-11572000D01*
X24520000Y-11522000D02*
G75*
G02*
X24420000Y-11522000I-50000J0D01*
G01*
X24420000Y-11522000D02*
G75*
G02*
X24520000Y-11522000I50000J0D01*
G01*
X24420000Y-11726000D02*
X24520000Y-11826000D01*
X24520000Y-11726000D02*
X24420000Y-11826000D01*
X24520000Y-11776000D02*
G75*
G02*
X24420000Y-11776000I-50000J0D01*
G01*
X24420000Y-11776000D02*
G75*
G02*
X24520000Y-11776000I50000J0D01*
G01*
X24420000Y-11980000D02*
X24520000Y-12080000D01*
X24520000Y-11980000D02*
X24420000Y-12080000D01*
X24520000Y-12030000D02*
G75*
G02*
X24420000Y-12030000I-50000J0D01*
G01*
X24420000Y-12030000D02*
G75*
G02*
X24520000Y-12030000I50000J0D01*
G01*
X24420000Y-12234000D02*
X24520000Y-12334000D01*
X24520000Y-12234000D02*
X24420000Y-12334000D01*
X24520000Y-12284000D02*
G75*
G02*
X24420000Y-12284000I-50000J0D01*
G01*
X24420000Y-12284000D02*
G75*
G02*
X24520000Y-12284000I50000J0D01*
G01*
X24420000Y-12488000D02*
X24520000Y-12588000D01*
X24520000Y-12488000D02*
X24420000Y-12588000D01*
X24520000Y-12538000D02*
G75*
G02*
X24420000Y-12538000I-50000J0D01*
G01*
X24420000Y-12538000D02*
G75*
G02*
X24520000Y-12538000I50000J0D01*
G01*
X24420000Y-12742000D02*
X24520000Y-12842000D01*
X24520000Y-12742000D02*
X24420000Y-12842000D01*
X24520000Y-12792000D02*
G75*
G02*
X24420000Y-12792000I-50000J0D01*
G01*
X24420000Y-12792000D02*
G75*
G02*
X24520000Y-12792000I50000J0D01*
G01*
X24420000Y-12996000D02*
X24520000Y-13096000D01*
X24520000Y-12996000D02*
X24420000Y-13096000D01*
X24520000Y-13046000D02*
G75*
G02*
X24420000Y-13046000I-50000J0D01*
G01*
X24420000Y-13046000D02*
G75*
G02*
X24520000Y-13046000I50000J0D01*
G01*
X24420000Y-13250000D02*
X24520000Y-13350000D01*
X24520000Y-13250000D02*
X24420000Y-13350000D01*
X24520000Y-13300000D02*
G75*
G02*
X24420000Y-13300000I-50000J0D01*
G01*
X24420000Y-13300000D02*
G75*
G02*
X24520000Y-13300000I50000J0D01*
G01*
X24420000Y-13504000D02*
X24520000Y-13604000D01*
X24520000Y-13504000D02*
X24420000Y-13604000D01*
X24520000Y-13554000D02*
G75*
G02*
X24420000Y-13554000I-50000J0D01*
G01*
X24420000Y-13554000D02*
G75*
G02*
X24520000Y-13554000I50000J0D01*
G01*
X24420000Y-13758000D02*
X24520000Y-13858000D01*
X24520000Y-13758000D02*
X24420000Y-13858000D01*
X24520000Y-13808000D02*
G75*
G02*
X24420000Y-13808000I-50000J0D01*
G01*
X24420000Y-13808000D02*
G75*
G02*
X24520000Y-13808000I50000J0D01*
G01*
X24420000Y-14012000D02*
X24520000Y-14112000D01*
X24520000Y-14012000D02*
X24420000Y-14112000D01*
X24520000Y-14062000D02*
G75*
G02*
X24420000Y-14062000I-50000J0D01*
G01*
X24420000Y-14062000D02*
G75*
G02*
X24520000Y-14062000I50000J0D01*
G01*
X24420000Y-14266000D02*
X24520000Y-14366000D01*
X24520000Y-14266000D02*
X24420000Y-14366000D01*
X24520000Y-14316000D02*
G75*
G02*
X24420000Y-14316000I-50000J0D01*
G01*
X24420000Y-14316000D02*
G75*
G02*
X24520000Y-14316000I50000J0D01*
G01*
X24420000Y-14520000D02*
X24520000Y-14620000D01*
X24520000Y-14520000D02*
X24420000Y-14620000D01*
X24520000Y-14570000D02*
G75*
G02*
X24420000Y-14570000I-50000J0D01*
G01*
X24420000Y-14570000D02*
G75*
G02*
X24520000Y-14570000I50000J0D01*
G01*
X24674000Y-6646000D02*
X24774000Y-6746000D01*
X24774000Y-6646000D02*
X24674000Y-6746000D01*
X24774000Y-6696000D02*
G75*
G02*
X24674000Y-6696000I-50000J0D01*
G01*
X24674000Y-6696000D02*
G75*
G02*
X24774000Y-6696000I50000J0D01*
G01*
X24674000Y-6900000D02*
X24774000Y-7000000D01*
X24774000Y-6900000D02*
X24674000Y-7000000D01*
X24774000Y-6950000D02*
G75*
G02*
X24674000Y-6950000I-50000J0D01*
G01*
X24674000Y-6950000D02*
G75*
G02*
X24774000Y-6950000I50000J0D01*
G01*
X24674000Y-7154000D02*
X24774000Y-7254000D01*
X24774000Y-7154000D02*
X24674000Y-7254000D01*
X24774000Y-7204000D02*
G75*
G02*
X24674000Y-7204000I-50000J0D01*
G01*
X24674000Y-7204000D02*
G75*
G02*
X24774000Y-7204000I50000J0D01*
G01*
X24674000Y-7408000D02*
X24774000Y-7508000D01*
X24774000Y-7408000D02*
X24674000Y-7508000D01*
X24774000Y-7458000D02*
G75*
G02*
X24674000Y-7458000I-50000J0D01*
G01*
X24674000Y-7458000D02*
G75*
G02*
X24774000Y-7458000I50000J0D01*
G01*
X24674000Y-7662000D02*
X24774000Y-7762000D01*
X24774000Y-7662000D02*
X24674000Y-7762000D01*
X24774000Y-7712000D02*
G75*
G02*
X24674000Y-7712000I-50000J0D01*
G01*
X24674000Y-7712000D02*
G75*
G02*
X24774000Y-7712000I50000J0D01*
G01*
X24674000Y-7916000D02*
X24774000Y-8016000D01*
X24774000Y-7916000D02*
X24674000Y-8016000D01*
X24774000Y-7966000D02*
G75*
G02*
X24674000Y-7966000I-50000J0D01*
G01*
X24674000Y-7966000D02*
G75*
G02*
X24774000Y-7966000I50000J0D01*
G01*
X24674000Y-8170000D02*
X24774000Y-8270000D01*
X24774000Y-8170000D02*
X24674000Y-8270000D01*
X24774000Y-8220000D02*
G75*
G02*
X24674000Y-8220000I-50000J0D01*
G01*
X24674000Y-8220000D02*
G75*
G02*
X24774000Y-8220000I50000J0D01*
G01*
X24674000Y-8424000D02*
X24774000Y-8524000D01*
X24774000Y-8424000D02*
X24674000Y-8524000D01*
X24774000Y-8474000D02*
G75*
G02*
X24674000Y-8474000I-50000J0D01*
G01*
X24674000Y-8474000D02*
G75*
G02*
X24774000Y-8474000I50000J0D01*
G01*
X24674000Y-8678000D02*
X24774000Y-8778000D01*
X24774000Y-8678000D02*
X24674000Y-8778000D01*
X24774000Y-8728000D02*
G75*
G02*
X24674000Y-8728000I-50000J0D01*
G01*
X24674000Y-8728000D02*
G75*
G02*
X24774000Y-8728000I50000J0D01*
G01*
X24674000Y-8932000D02*
X24774000Y-9032000D01*
X24774000Y-8932000D02*
X24674000Y-9032000D01*
X24774000Y-8982000D02*
G75*
G02*
X24674000Y-8982000I-50000J0D01*
G01*
X24674000Y-8982000D02*
G75*
G02*
X24774000Y-8982000I50000J0D01*
G01*
X24674000Y-9186000D02*
X24774000Y-9286000D01*
X24774000Y-9186000D02*
X24674000Y-9286000D01*
X24774000Y-9236000D02*
G75*
G02*
X24674000Y-9236000I-50000J0D01*
G01*
X24674000Y-9236000D02*
G75*
G02*
X24774000Y-9236000I50000J0D01*
G01*
X24674000Y-9440000D02*
X24774000Y-9540000D01*
X24774000Y-9440000D02*
X24674000Y-9540000D01*
X24774000Y-9490000D02*
G75*
G02*
X24674000Y-9490000I-50000J0D01*
G01*
X24674000Y-9490000D02*
G75*
G02*
X24774000Y-9490000I50000J0D01*
G01*
X24674000Y-9694000D02*
X24774000Y-9794000D01*
X24774000Y-9694000D02*
X24674000Y-9794000D01*
X24774000Y-9744000D02*
G75*
G02*
X24674000Y-9744000I-50000J0D01*
G01*
X24674000Y-9744000D02*
G75*
G02*
X24774000Y-9744000I50000J0D01*
G01*
X24674000Y-9948000D02*
X24774000Y-10048000D01*
X24774000Y-9948000D02*
X24674000Y-10048000D01*
X24774000Y-9998000D02*
G75*
G02*
X24674000Y-9998000I-50000J0D01*
G01*
X24674000Y-9998000D02*
G75*
G02*
X24774000Y-9998000I50000J0D01*
G01*
X24674000Y-10202000D02*
X24774000Y-10302000D01*
X24774000Y-10202000D02*
X24674000Y-10302000D01*
X24774000Y-10252000D02*
G75*
G02*
X24674000Y-10252000I-50000J0D01*
G01*
X24674000Y-10252000D02*
G75*
G02*
X24774000Y-10252000I50000J0D01*
G01*
X24674000Y-10456000D02*
X24774000Y-10556000D01*
X24774000Y-10456000D02*
X24674000Y-10556000D01*
X24774000Y-10506000D02*
G75*
G02*
X24674000Y-10506000I-50000J0D01*
G01*
X24674000Y-10506000D02*
G75*
G02*
X24774000Y-10506000I50000J0D01*
G01*
X24674000Y-10710000D02*
X24774000Y-10810000D01*
X24774000Y-10710000D02*
X24674000Y-10810000D01*
X24774000Y-10760000D02*
G75*
G02*
X24674000Y-10760000I-50000J0D01*
G01*
X24674000Y-10760000D02*
G75*
G02*
X24774000Y-10760000I50000J0D01*
G01*
X24674000Y-10964000D02*
X24774000Y-11064000D01*
X24774000Y-10964000D02*
X24674000Y-11064000D01*
X24774000Y-11014000D02*
G75*
G02*
X24674000Y-11014000I-50000J0D01*
G01*
X24674000Y-11014000D02*
G75*
G02*
X24774000Y-11014000I50000J0D01*
G01*
X24674000Y-11218000D02*
X24774000Y-11318000D01*
X24774000Y-11218000D02*
X24674000Y-11318000D01*
X24774000Y-11268000D02*
G75*
G02*
X24674000Y-11268000I-50000J0D01*
G01*
X24674000Y-11268000D02*
G75*
G02*
X24774000Y-11268000I50000J0D01*
G01*
X24674000Y-11472000D02*
X24774000Y-11572000D01*
X24774000Y-11472000D02*
X24674000Y-11572000D01*
X24774000Y-11522000D02*
G75*
G02*
X24674000Y-11522000I-50000J0D01*
G01*
X24674000Y-11522000D02*
G75*
G02*
X24774000Y-11522000I50000J0D01*
G01*
X24674000Y-11726000D02*
X24774000Y-11826000D01*
X24774000Y-11726000D02*
X24674000Y-11826000D01*
X24774000Y-11776000D02*
G75*
G02*
X24674000Y-11776000I-50000J0D01*
G01*
X24674000Y-11776000D02*
G75*
G02*
X24774000Y-11776000I50000J0D01*
G01*
X24674000Y-11980000D02*
X24774000Y-12080000D01*
X24774000Y-11980000D02*
X24674000Y-12080000D01*
X24774000Y-12030000D02*
G75*
G02*
X24674000Y-12030000I-50000J0D01*
G01*
X24674000Y-12030000D02*
G75*
G02*
X24774000Y-12030000I50000J0D01*
G01*
X24674000Y-12234000D02*
X24774000Y-12334000D01*
X24774000Y-12234000D02*
X24674000Y-12334000D01*
X24774000Y-12284000D02*
G75*
G02*
X24674000Y-12284000I-50000J0D01*
G01*
X24674000Y-12284000D02*
G75*
G02*
X24774000Y-12284000I50000J0D01*
G01*
X24674000Y-12488000D02*
X24774000Y-12588000D01*
X24774000Y-12488000D02*
X24674000Y-12588000D01*
X24774000Y-12538000D02*
G75*
G02*
X24674000Y-12538000I-50000J0D01*
G01*
X24674000Y-12538000D02*
G75*
G02*
X24774000Y-12538000I50000J0D01*
G01*
X24674000Y-12742000D02*
X24774000Y-12842000D01*
X24774000Y-12742000D02*
X24674000Y-12842000D01*
X24774000Y-12792000D02*
G75*
G02*
X24674000Y-12792000I-50000J0D01*
G01*
X24674000Y-12792000D02*
G75*
G02*
X24774000Y-12792000I50000J0D01*
G01*
X24674000Y-12996000D02*
X24774000Y-13096000D01*
X24774000Y-12996000D02*
X24674000Y-13096000D01*
X24774000Y-13046000D02*
G75*
G02*
X24674000Y-13046000I-50000J0D01*
G01*
X24674000Y-13046000D02*
G75*
G02*
X24774000Y-13046000I50000J0D01*
G01*
X24674000Y-13250000D02*
X24774000Y-13350000D01*
X24774000Y-13250000D02*
X24674000Y-13350000D01*
X24774000Y-13300000D02*
G75*
G02*
X24674000Y-13300000I-50000J0D01*
G01*
X24674000Y-13300000D02*
G75*
G02*
X24774000Y-13300000I50000J0D01*
G01*
X24674000Y-13504000D02*
X24774000Y-13604000D01*
X24774000Y-13504000D02*
X24674000Y-13604000D01*
X24774000Y-13554000D02*
G75*
G02*
X24674000Y-13554000I-50000J0D01*
G01*
X24674000Y-13554000D02*
G75*
G02*
X24774000Y-13554000I50000J0D01*
G01*
X24674000Y-13758000D02*
X24774000Y-13858000D01*
X24774000Y-13758000D02*
X24674000Y-13858000D01*
X24774000Y-13808000D02*
G75*
G02*
X24674000Y-13808000I-50000J0D01*
G01*
X24674000Y-13808000D02*
G75*
G02*
X24774000Y-13808000I50000J0D01*
G01*
X24674000Y-14012000D02*
X24774000Y-14112000D01*
X24774000Y-14012000D02*
X24674000Y-14112000D01*
X24774000Y-14062000D02*
G75*
G02*
X24674000Y-14062000I-50000J0D01*
G01*
X24674000Y-14062000D02*
G75*
G02*
X24774000Y-14062000I50000J0D01*
G01*
X24674000Y-14266000D02*
X24774000Y-14366000D01*
X24774000Y-14266000D02*
X24674000Y-14366000D01*
X24774000Y-14316000D02*
G75*
G02*
X24674000Y-14316000I-50000J0D01*
G01*
X24674000Y-14316000D02*
G75*
G02*
X24774000Y-14316000I50000J0D01*
G01*
X24674000Y-14520000D02*
X24774000Y-14620000D01*
X24774000Y-14520000D02*
X24674000Y-14620000D01*
X24774000Y-14570000D02*
G75*
G02*
X24674000Y-14570000I-50000J0D01*
G01*
X24674000Y-14570000D02*
G75*
G02*
X24774000Y-14570000I50000J0D01*
G01*
D12*
X15311000Y-8710500D02*
X15444000Y-8843500D01*
X15444000Y-8710500D02*
X15311000Y-8843500D01*
X15377500Y-8710500D02*
X15377500Y-8843500D01*
X15311000Y-8777000D02*
X15444000Y-8777000D01*
X15311000Y-10280500D02*
X15444000Y-10413500D01*
X15444000Y-10280500D02*
X15311000Y-10413500D01*
X15377500Y-10280500D02*
X15377500Y-10413500D01*
X15311000Y-10347000D02*
X15444000Y-10347000D01*
X15801000Y-8770500D02*
X15934000Y-8903500D01*
X15934000Y-8770500D02*
X15801000Y-8903500D01*
X15867500Y-8770500D02*
X15867500Y-8903500D01*
X15801000Y-8837000D02*
X15934000Y-8837000D01*
X15801000Y-10220500D02*
X15934000Y-10353500D01*
X15934000Y-10220500D02*
X15801000Y-10353500D01*
X15867500Y-10220500D02*
X15867500Y-10353500D01*
X15801000Y-10287000D02*
X15934000Y-10287000D01*
D13*
X15370000Y-6240000D02*
X15530000Y-6400000D01*
X15530000Y-6240000D02*
X15370000Y-6400000D01*
X15506569Y-6376569D02*
X15506569Y-6263431D01*
X15393431Y-6263431D01*
X15393431Y-6376569D01*
X15506569Y-6376569D01*
X15620000Y-5240000D02*
X15780000Y-5400000D01*
X15780000Y-5240000D02*
X15620000Y-5400000D01*
X15756569Y-5376569D02*
X15756569Y-5263431D01*
X15643431Y-5263431D01*
X15643431Y-5376569D01*
X15756569Y-5376569D01*
X15620000Y-6490000D02*
X15780000Y-6650000D01*
X15780000Y-6490000D02*
X15620000Y-6650000D01*
X15756569Y-6626569D02*
X15756569Y-6513431D01*
X15643431Y-6513431D01*
X15643431Y-6626569D01*
X15756569Y-6626569D01*
X16120000Y-6240000D02*
X16280000Y-6400000D01*
X16280000Y-6240000D02*
X16120000Y-6400000D01*
X16256569Y-6376569D02*
X16256569Y-6263431D01*
X16143431Y-6263431D01*
X16143431Y-6376569D01*
X16256569Y-6376569D01*
X16620000Y-5240000D02*
X16780000Y-5400000D01*
X16780000Y-5240000D02*
X16620000Y-5400000D01*
X16756569Y-5376569D02*
X16756569Y-5263431D01*
X16643431Y-5263431D01*
X16643431Y-5376569D01*
X16756569Y-5376569D01*
X16620000Y-6494000D02*
X16780000Y-6654000D01*
X16780000Y-6494000D02*
X16620000Y-6654000D01*
X16756569Y-6630569D02*
X16756569Y-6517431D01*
X16643431Y-6517431D01*
X16643431Y-6630569D01*
X16756569Y-6630569D01*
X16870000Y-6240000D02*
X17030000Y-6400000D01*
X17030000Y-6240000D02*
X16870000Y-6400000D01*
X17006569Y-6376569D02*
X17006569Y-6263431D01*
X16893431Y-6263431D01*
X16893431Y-6376569D01*
X17006569Y-6376569D01*
D11*
X15275777Y-15296484D02*
X15275777Y-15096484D01*
X15275777Y-15096484D02*
X15323396Y-15096484D01*
X15323396Y-15096484D02*
X15351967Y-15106008D01*
X15351967Y-15106008D02*
X15371015Y-15125055D01*
X15371015Y-15125055D02*
X15380539Y-15144103D01*
X15380539Y-15144103D02*
X15390062Y-15182198D01*
X15390062Y-15182198D02*
X15390062Y-15210769D01*
X15390062Y-15210769D02*
X15380539Y-15248865D01*
X15380539Y-15248865D02*
X15371015Y-15267912D01*
X15371015Y-15267912D02*
X15351967Y-15286960D01*
X15351967Y-15286960D02*
X15323396Y-15296484D01*
X15323396Y-15296484D02*
X15275777Y-15296484D01*
X15475777Y-15296484D02*
X15475777Y-15163150D01*
X15475777Y-15201246D02*
X15485301Y-15182198D01*
X15485301Y-15182198D02*
X15494824Y-15172674D01*
X15494824Y-15172674D02*
X15513872Y-15163150D01*
X15513872Y-15163150D02*
X15532920Y-15163150D01*
X15599586Y-15296484D02*
X15599586Y-15163150D01*
X15599586Y-15096484D02*
X15590062Y-15106008D01*
X15590062Y-15106008D02*
X15599586Y-15115531D01*
X15599586Y-15115531D02*
X15609110Y-15106008D01*
X15609110Y-15106008D02*
X15599586Y-15096484D01*
X15599586Y-15096484D02*
X15599586Y-15115531D01*
X15723396Y-15296484D02*
X15704348Y-15286960D01*
X15704348Y-15286960D02*
X15694824Y-15267912D01*
X15694824Y-15267912D02*
X15694824Y-15096484D01*
X15828158Y-15296484D02*
X15809110Y-15286960D01*
X15809110Y-15286960D02*
X15799586Y-15267912D01*
X15799586Y-15267912D02*
X15799586Y-15096484D01*
X16056729Y-15296484D02*
X16056729Y-15096484D01*
X16056729Y-15096484D02*
X16123396Y-15239341D01*
X16123396Y-15239341D02*
X16190062Y-15096484D01*
X16190062Y-15096484D02*
X16190062Y-15296484D01*
X16371015Y-15296484D02*
X16371015Y-15191722D01*
X16371015Y-15191722D02*
X16361491Y-15172674D01*
X16361491Y-15172674D02*
X16342443Y-15163150D01*
X16342443Y-15163150D02*
X16304348Y-15163150D01*
X16304348Y-15163150D02*
X16285301Y-15172674D01*
X16371015Y-15286960D02*
X16351967Y-15296484D01*
X16351967Y-15296484D02*
X16304348Y-15296484D01*
X16304348Y-15296484D02*
X16285301Y-15286960D01*
X16285301Y-15286960D02*
X16275777Y-15267912D01*
X16275777Y-15267912D02*
X16275777Y-15248865D01*
X16275777Y-15248865D02*
X16285301Y-15229817D01*
X16285301Y-15229817D02*
X16304348Y-15220293D01*
X16304348Y-15220293D02*
X16351967Y-15220293D01*
X16351967Y-15220293D02*
X16371015Y-15210769D01*
X16466253Y-15163150D02*
X16466253Y-15363150D01*
X16466253Y-15172674D02*
X16485301Y-15163150D01*
X16485301Y-15163150D02*
X16523396Y-15163150D01*
X16523396Y-15163150D02*
X16542443Y-15172674D01*
X16542443Y-15172674D02*
X16551967Y-15182198D01*
X16551967Y-15182198D02*
X16561491Y-15201246D01*
X16561491Y-15201246D02*
X16561491Y-15258388D01*
X16561491Y-15258388D02*
X16551967Y-15277436D01*
X16551967Y-15277436D02*
X16542443Y-15286960D01*
X16542443Y-15286960D02*
X16523396Y-15296484D01*
X16523396Y-15296484D02*
X16485301Y-15296484D01*
X16485301Y-15296484D02*
X16466253Y-15286960D01*
X16647205Y-15277436D02*
X16656729Y-15286960D01*
X16656729Y-15286960D02*
X16647205Y-15296484D01*
X16647205Y-15296484D02*
X16637682Y-15286960D01*
X16637682Y-15286960D02*
X16647205Y-15277436D01*
X16647205Y-15277436D02*
X16647205Y-15296484D01*
X16647205Y-15172674D02*
X16656729Y-15182198D01*
X16656729Y-15182198D02*
X16647205Y-15191722D01*
X16647205Y-15191722D02*
X16637682Y-15182198D01*
X16637682Y-15182198D02*
X16647205Y-15172674D01*
X16647205Y-15172674D02*
X16647205Y-15191722D01*
D10*
X14985000Y-15610000D02*
X15015000Y-15640000D01*
X15015000Y-15610000D02*
X14985000Y-15640000D01*
D11*
X15313872Y-15516484D02*
X15332920Y-15516484D01*
X15332920Y-15516484D02*
X15351967Y-15526008D01*
X15351967Y-15526008D02*
X15361491Y-15535531D01*
X15361491Y-15535531D02*
X15371015Y-15554579D01*
X15371015Y-15554579D02*
X15380539Y-15592674D01*
X15380539Y-15592674D02*
X15380539Y-15640293D01*
X15380539Y-15640293D02*
X15371015Y-15678388D01*
X15371015Y-15678388D02*
X15361491Y-15697436D01*
X15361491Y-15697436D02*
X15351967Y-15706960D01*
X15351967Y-15706960D02*
X15332920Y-15716484D01*
X15332920Y-15716484D02*
X15313872Y-15716484D01*
X15313872Y-15716484D02*
X15294824Y-15706960D01*
X15294824Y-15706960D02*
X15285301Y-15697436D01*
X15285301Y-15697436D02*
X15275777Y-15678388D01*
X15275777Y-15678388D02*
X15266253Y-15640293D01*
X15266253Y-15640293D02*
X15266253Y-15592674D01*
X15266253Y-15592674D02*
X15275777Y-15554579D01*
X15275777Y-15554579D02*
X15285301Y-15535531D01*
X15285301Y-15535531D02*
X15294824Y-15526008D01*
X15294824Y-15526008D02*
X15313872Y-15516484D01*
X15466253Y-15697436D02*
X15475777Y-15706960D01*
X15475777Y-15706960D02*
X15466253Y-15716484D01*
X15466253Y-15716484D02*
X15456729Y-15706960D01*
X15456729Y-15706960D02*
X15466253Y-15697436D01*
X15466253Y-15697436D02*
X15466253Y-15716484D01*
X15542443Y-15516484D02*
X15666253Y-15516484D01*
X15666253Y-15516484D02*
X15599586Y-15592674D01*
X15599586Y-15592674D02*
X15628158Y-15592674D01*
X15628158Y-15592674D02*
X15647205Y-15602198D01*
X15647205Y-15602198D02*
X15656729Y-15611722D01*
X15656729Y-15611722D02*
X15666253Y-15630769D01*
X15666253Y-15630769D02*
X15666253Y-15678388D01*
X15666253Y-15678388D02*
X15656729Y-15697436D01*
X15656729Y-15697436D02*
X15647205Y-15706960D01*
X15647205Y-15706960D02*
X15628158Y-15716484D01*
X15628158Y-15716484D02*
X15571015Y-15716484D01*
X15571015Y-15716484D02*
X15551967Y-15706960D01*
X15551967Y-15706960D02*
X15542443Y-15697436D01*
X15790062Y-15516484D02*
X15809110Y-15516484D01*
X15809110Y-15516484D02*
X15828158Y-15526008D01*
X15828158Y-15526008D02*
X15837682Y-15535531D01*
X15837682Y-15535531D02*
X15847205Y-15554579D01*
X15847205Y-15554579D02*
X15856729Y-15592674D01*
X15856729Y-15592674D02*
X15856729Y-15640293D01*
X15856729Y-15640293D02*
X15847205Y-15678388D01*
X15847205Y-15678388D02*
X15837682Y-15697436D01*
X15837682Y-15697436D02*
X15828158Y-15706960D01*
X15828158Y-15706960D02*
X15809110Y-15716484D01*
X15809110Y-15716484D02*
X15790062Y-15716484D01*
X15790062Y-15716484D02*
X15771015Y-15706960D01*
X15771015Y-15706960D02*
X15761491Y-15697436D01*
X15761491Y-15697436D02*
X15751967Y-15678388D01*
X15751967Y-15678388D02*
X15742443Y-15640293D01*
X15742443Y-15640293D02*
X15742443Y-15592674D01*
X15742443Y-15592674D02*
X15751967Y-15554579D01*
X15751967Y-15554579D02*
X15761491Y-15535531D01*
X15761491Y-15535531D02*
X15771015Y-15526008D01*
X15771015Y-15526008D02*
X15790062Y-15516484D01*
X15980539Y-15516484D02*
X15999586Y-15516484D01*
X15999586Y-15516484D02*
X16018634Y-15526008D01*
X16018634Y-15526008D02*
X16028158Y-15535531D01*
X16028158Y-15535531D02*
X16037682Y-15554579D01*
X16037682Y-15554579D02*
X16047205Y-15592674D01*
X16047205Y-15592674D02*
X16047205Y-15640293D01*
X16047205Y-15640293D02*
X16037682Y-15678388D01*
X16037682Y-15678388D02*
X16028158Y-15697436D01*
X16028158Y-15697436D02*
X16018634Y-15706960D01*
X16018634Y-15706960D02*
X15999586Y-15716484D01*
X15999586Y-15716484D02*
X15980539Y-15716484D01*
X15980539Y-15716484D02*
X15961491Y-15706960D01*
X15961491Y-15706960D02*
X15951967Y-15697436D01*
X15951967Y-15697436D02*
X15942443Y-15678388D01*
X15942443Y-15678388D02*
X15932920Y-15640293D01*
X15932920Y-15640293D02*
X15932920Y-15592674D01*
X15932920Y-15592674D02*
X15942443Y-15554579D01*
X15942443Y-15554579D02*
X15951967Y-15535531D01*
X15951967Y-15535531D02*
X15961491Y-15526008D01*
X15961491Y-15526008D02*
X15980539Y-15516484D01*
X16132920Y-15716484D02*
X16132920Y-15583150D01*
X16132920Y-15602198D02*
X16142443Y-15592674D01*
X16142443Y-15592674D02*
X16161491Y-15583150D01*
X16161491Y-15583150D02*
X16190063Y-15583150D01*
X16190063Y-15583150D02*
X16209110Y-15592674D01*
X16209110Y-15592674D02*
X16218634Y-15611722D01*
X16218634Y-15611722D02*
X16218634Y-15716484D01*
X16218634Y-15611722D02*
X16228158Y-15592674D01*
X16228158Y-15592674D02*
X16247205Y-15583150D01*
X16247205Y-15583150D02*
X16275777Y-15583150D01*
X16275777Y-15583150D02*
X16294824Y-15592674D01*
X16294824Y-15592674D02*
X16304348Y-15611722D01*
X16304348Y-15611722D02*
X16304348Y-15716484D01*
X16399586Y-15716484D02*
X16399586Y-15583150D01*
X16399586Y-15602198D02*
X16409110Y-15592674D01*
X16409110Y-15592674D02*
X16428158Y-15583150D01*
X16428158Y-15583150D02*
X16456729Y-15583150D01*
X16456729Y-15583150D02*
X16475777Y-15592674D01*
X16475777Y-15592674D02*
X16485301Y-15611722D01*
X16485301Y-15611722D02*
X16485301Y-15716484D01*
X16485301Y-15611722D02*
X16494824Y-15592674D01*
X16494824Y-15592674D02*
X16513872Y-15583150D01*
X16513872Y-15583150D02*
X16542443Y-15583150D01*
X16542443Y-15583150D02*
X16561491Y-15592674D01*
X16561491Y-15592674D02*
X16571015Y-15611722D01*
X16571015Y-15611722D02*
X16571015Y-15716484D01*
X16961491Y-15506960D02*
X16790063Y-15764103D01*
X17218634Y-15516484D02*
X17237682Y-15516484D01*
X17237682Y-15516484D02*
X17256729Y-15526008D01*
X17256729Y-15526008D02*
X17266253Y-15535531D01*
X17266253Y-15535531D02*
X17275777Y-15554579D01*
X17275777Y-15554579D02*
X17285301Y-15592674D01*
X17285301Y-15592674D02*
X17285301Y-15640293D01*
X17285301Y-15640293D02*
X17275777Y-15678388D01*
X17275777Y-15678388D02*
X17266253Y-15697436D01*
X17266253Y-15697436D02*
X17256729Y-15706960D01*
X17256729Y-15706960D02*
X17237682Y-15716484D01*
X17237682Y-15716484D02*
X17218634Y-15716484D01*
X17218634Y-15716484D02*
X17199587Y-15706960D01*
X17199587Y-15706960D02*
X17190063Y-15697436D01*
X17190063Y-15697436D02*
X17180539Y-15678388D01*
X17180539Y-15678388D02*
X17171015Y-15640293D01*
X17171015Y-15640293D02*
X17171015Y-15592674D01*
X17171015Y-15592674D02*
X17180539Y-15554579D01*
X17180539Y-15554579D02*
X17190063Y-15535531D01*
X17190063Y-15535531D02*
X17199587Y-15526008D01*
X17199587Y-15526008D02*
X17218634Y-15516484D01*
X17371015Y-15697436D02*
X17380539Y-15706960D01*
X17380539Y-15706960D02*
X17371015Y-15716484D01*
X17371015Y-15716484D02*
X17361491Y-15706960D01*
X17361491Y-15706960D02*
X17371015Y-15697436D01*
X17371015Y-15697436D02*
X17371015Y-15716484D01*
X17504348Y-15516484D02*
X17523396Y-15516484D01*
X17523396Y-15516484D02*
X17542444Y-15526008D01*
X17542444Y-15526008D02*
X17551968Y-15535531D01*
X17551968Y-15535531D02*
X17561491Y-15554579D01*
X17561491Y-15554579D02*
X17571015Y-15592674D01*
X17571015Y-15592674D02*
X17571015Y-15640293D01*
X17571015Y-15640293D02*
X17561491Y-15678388D01*
X17561491Y-15678388D02*
X17551968Y-15697436D01*
X17551968Y-15697436D02*
X17542444Y-15706960D01*
X17542444Y-15706960D02*
X17523396Y-15716484D01*
X17523396Y-15716484D02*
X17504348Y-15716484D01*
X17504348Y-15716484D02*
X17485301Y-15706960D01*
X17485301Y-15706960D02*
X17475777Y-15697436D01*
X17475777Y-15697436D02*
X17466253Y-15678388D01*
X17466253Y-15678388D02*
X17456729Y-15640293D01*
X17456729Y-15640293D02*
X17456729Y-15592674D01*
X17456729Y-15592674D02*
X17466253Y-15554579D01*
X17466253Y-15554579D02*
X17475777Y-15535531D01*
X17475777Y-15535531D02*
X17485301Y-15526008D01*
X17485301Y-15526008D02*
X17504348Y-15516484D01*
X17761491Y-15716484D02*
X17647206Y-15716484D01*
X17704348Y-15716484D02*
X17704348Y-15516484D01*
X17704348Y-15516484D02*
X17685301Y-15545055D01*
X17685301Y-15545055D02*
X17666253Y-15564103D01*
X17666253Y-15564103D02*
X17647206Y-15573627D01*
X17951968Y-15716484D02*
X17837682Y-15716484D01*
X17894825Y-15716484D02*
X17894825Y-15516484D01*
X17894825Y-15516484D02*
X17875777Y-15545055D01*
X17875777Y-15545055D02*
X17856729Y-15564103D01*
X17856729Y-15564103D02*
X17837682Y-15573627D01*
X18066253Y-15602198D02*
X18047206Y-15592674D01*
X18047206Y-15592674D02*
X18037682Y-15583150D01*
X18037682Y-15583150D02*
X18028158Y-15564103D01*
X18028158Y-15564103D02*
X18028158Y-15554579D01*
X18028158Y-15554579D02*
X18037682Y-15535531D01*
X18037682Y-15535531D02*
X18047206Y-15526008D01*
X18047206Y-15526008D02*
X18066253Y-15516484D01*
X18066253Y-15516484D02*
X18104349Y-15516484D01*
X18104349Y-15516484D02*
X18123396Y-15526008D01*
X18123396Y-15526008D02*
X18132920Y-15535531D01*
X18132920Y-15535531D02*
X18142444Y-15554579D01*
X18142444Y-15554579D02*
X18142444Y-15564103D01*
X18142444Y-15564103D02*
X18132920Y-15583150D01*
X18132920Y-15583150D02*
X18123396Y-15592674D01*
X18123396Y-15592674D02*
X18104349Y-15602198D01*
X18104349Y-15602198D02*
X18066253Y-15602198D01*
X18066253Y-15602198D02*
X18047206Y-15611722D01*
X18047206Y-15611722D02*
X18037682Y-15621246D01*
X18037682Y-15621246D02*
X18028158Y-15640293D01*
X18028158Y-15640293D02*
X18028158Y-15678388D01*
X18028158Y-15678388D02*
X18037682Y-15697436D01*
X18037682Y-15697436D02*
X18047206Y-15706960D01*
X18047206Y-15706960D02*
X18066253Y-15716484D01*
X18066253Y-15716484D02*
X18104349Y-15716484D01*
X18104349Y-15716484D02*
X18123396Y-15706960D01*
X18123396Y-15706960D02*
X18132920Y-15697436D01*
X18132920Y-15697436D02*
X18142444Y-15678388D01*
X18142444Y-15678388D02*
X18142444Y-15640293D01*
X18142444Y-15640293D02*
X18132920Y-15621246D01*
X18132920Y-15621246D02*
X18123396Y-15611722D01*
X18123396Y-15611722D02*
X18104349Y-15602198D01*
X18218634Y-15516484D02*
X18218634Y-15554579D01*
X18294825Y-15516484D02*
X18294825Y-15554579D01*
X18590063Y-15792674D02*
X18580539Y-15783150D01*
X18580539Y-15783150D02*
X18561491Y-15754579D01*
X18561491Y-15754579D02*
X18551968Y-15735531D01*
X18551968Y-15735531D02*
X18542444Y-15706960D01*
X18542444Y-15706960D02*
X18532920Y-15659341D01*
X18532920Y-15659341D02*
X18532920Y-15621246D01*
X18532920Y-15621246D02*
X18542444Y-15573627D01*
X18542444Y-15573627D02*
X18551968Y-15545055D01*
X18551968Y-15545055D02*
X18561491Y-15526008D01*
X18561491Y-15526008D02*
X18580539Y-15497436D01*
X18580539Y-15497436D02*
X18590063Y-15487912D01*
X18656730Y-15535531D02*
X18666253Y-15526008D01*
X18666253Y-15526008D02*
X18685301Y-15516484D01*
X18685301Y-15516484D02*
X18732920Y-15516484D01*
X18732920Y-15516484D02*
X18751968Y-15526008D01*
X18751968Y-15526008D02*
X18761491Y-15535531D01*
X18761491Y-15535531D02*
X18771015Y-15554579D01*
X18771015Y-15554579D02*
X18771015Y-15573627D01*
X18771015Y-15573627D02*
X18761491Y-15602198D01*
X18761491Y-15602198D02*
X18647206Y-15716484D01*
X18647206Y-15716484D02*
X18771015Y-15716484D01*
X18951968Y-15516484D02*
X18856730Y-15516484D01*
X18856730Y-15516484D02*
X18847206Y-15611722D01*
X18847206Y-15611722D02*
X18856730Y-15602198D01*
X18856730Y-15602198D02*
X18875777Y-15592674D01*
X18875777Y-15592674D02*
X18923396Y-15592674D01*
X18923396Y-15592674D02*
X18942444Y-15602198D01*
X18942444Y-15602198D02*
X18951968Y-15611722D01*
X18951968Y-15611722D02*
X18961491Y-15630769D01*
X18961491Y-15630769D02*
X18961491Y-15678388D01*
X18961491Y-15678388D02*
X18951968Y-15697436D01*
X18951968Y-15697436D02*
X18942444Y-15706960D01*
X18942444Y-15706960D02*
X18923396Y-15716484D01*
X18923396Y-15716484D02*
X18875777Y-15716484D01*
X18875777Y-15716484D02*
X18856730Y-15706960D01*
X18856730Y-15706960D02*
X18847206Y-15697436D01*
X19028158Y-15516484D02*
X19161491Y-15516484D01*
X19161491Y-15516484D02*
X19075777Y-15716484D01*
X19390063Y-15716484D02*
X19390063Y-15516484D01*
X19475777Y-15716484D02*
X19475777Y-15611722D01*
X19475777Y-15611722D02*
X19466253Y-15592674D01*
X19466253Y-15592674D02*
X19447206Y-15583150D01*
X19447206Y-15583150D02*
X19418634Y-15583150D01*
X19418634Y-15583150D02*
X19399587Y-15592674D01*
X19399587Y-15592674D02*
X19390063Y-15602198D01*
X19599587Y-15716484D02*
X19580539Y-15706960D01*
X19580539Y-15706960D02*
X19571015Y-15697436D01*
X19571015Y-15697436D02*
X19561492Y-15678388D01*
X19561492Y-15678388D02*
X19561492Y-15621246D01*
X19561492Y-15621246D02*
X19571015Y-15602198D01*
X19571015Y-15602198D02*
X19580539Y-15592674D01*
X19580539Y-15592674D02*
X19599587Y-15583150D01*
X19599587Y-15583150D02*
X19628158Y-15583150D01*
X19628158Y-15583150D02*
X19647206Y-15592674D01*
X19647206Y-15592674D02*
X19656730Y-15602198D01*
X19656730Y-15602198D02*
X19666253Y-15621246D01*
X19666253Y-15621246D02*
X19666253Y-15678388D01*
X19666253Y-15678388D02*
X19656730Y-15697436D01*
X19656730Y-15697436D02*
X19647206Y-15706960D01*
X19647206Y-15706960D02*
X19628158Y-15716484D01*
X19628158Y-15716484D02*
X19599587Y-15716484D01*
X19780539Y-15716484D02*
X19761492Y-15706960D01*
X19761492Y-15706960D02*
X19751968Y-15687912D01*
X19751968Y-15687912D02*
X19751968Y-15516484D01*
X19932920Y-15706960D02*
X19913873Y-15716484D01*
X19913873Y-15716484D02*
X19875777Y-15716484D01*
X19875777Y-15716484D02*
X19856730Y-15706960D01*
X19856730Y-15706960D02*
X19847206Y-15687912D01*
X19847206Y-15687912D02*
X19847206Y-15611722D01*
X19847206Y-15611722D02*
X19856730Y-15592674D01*
X19856730Y-15592674D02*
X19875777Y-15583150D01*
X19875777Y-15583150D02*
X19913873Y-15583150D01*
X19913873Y-15583150D02*
X19932920Y-15592674D01*
X19932920Y-15592674D02*
X19942444Y-15611722D01*
X19942444Y-15611722D02*
X19942444Y-15630769D01*
X19942444Y-15630769D02*
X19847206Y-15649817D01*
X20018634Y-15706960D02*
X20037682Y-15716484D01*
X20037682Y-15716484D02*
X20075777Y-15716484D01*
X20075777Y-15716484D02*
X20094825Y-15706960D01*
X20094825Y-15706960D02*
X20104349Y-15687912D01*
X20104349Y-15687912D02*
X20104349Y-15678388D01*
X20104349Y-15678388D02*
X20094825Y-15659341D01*
X20094825Y-15659341D02*
X20075777Y-15649817D01*
X20075777Y-15649817D02*
X20047206Y-15649817D01*
X20047206Y-15649817D02*
X20028158Y-15640293D01*
X20028158Y-15640293D02*
X20018634Y-15621246D01*
X20018634Y-15621246D02*
X20018634Y-15611722D01*
X20018634Y-15611722D02*
X20028158Y-15592674D01*
X20028158Y-15592674D02*
X20047206Y-15583150D01*
X20047206Y-15583150D02*
X20075777Y-15583150D01*
X20075777Y-15583150D02*
X20094825Y-15592674D01*
X20171015Y-15792674D02*
X20180539Y-15783150D01*
X20180539Y-15783150D02*
X20199587Y-15754579D01*
X20199587Y-15754579D02*
X20209111Y-15735531D01*
X20209111Y-15735531D02*
X20218634Y-15706960D01*
X20218634Y-15706960D02*
X20228158Y-15659341D01*
X20228158Y-15659341D02*
X20228158Y-15621246D01*
X20228158Y-15621246D02*
X20218634Y-15573627D01*
X20218634Y-15573627D02*
X20209111Y-15545055D01*
X20209111Y-15545055D02*
X20199587Y-15526008D01*
X20199587Y-15526008D02*
X20180539Y-15497436D01*
X20180539Y-15497436D02*
X20171015Y-15487912D01*
D10*
X15015000Y-15889000D02*
G75*
G02*
X14985000Y-15889000I-15000J0D01*
G01*
X14985000Y-15889000D02*
G75*
G02*
X15015000Y-15889000I15000J0D01*
G01*
D11*
X15313872Y-15780484D02*
X15332920Y-15780484D01*
X15332920Y-15780484D02*
X15351967Y-15790008D01*
X15351967Y-15790008D02*
X15361491Y-15799531D01*
X15361491Y-15799531D02*
X15371015Y-15818579D01*
X15371015Y-15818579D02*
X15380539Y-15856674D01*
X15380539Y-15856674D02*
X15380539Y-15904293D01*
X15380539Y-15904293D02*
X15371015Y-15942388D01*
X15371015Y-15942388D02*
X15361491Y-15961436D01*
X15361491Y-15961436D02*
X15351967Y-15970960D01*
X15351967Y-15970960D02*
X15332920Y-15980484D01*
X15332920Y-15980484D02*
X15313872Y-15980484D01*
X15313872Y-15980484D02*
X15294824Y-15970960D01*
X15294824Y-15970960D02*
X15285301Y-15961436D01*
X15285301Y-15961436D02*
X15275777Y-15942388D01*
X15275777Y-15942388D02*
X15266253Y-15904293D01*
X15266253Y-15904293D02*
X15266253Y-15856674D01*
X15266253Y-15856674D02*
X15275777Y-15818579D01*
X15275777Y-15818579D02*
X15285301Y-15799531D01*
X15285301Y-15799531D02*
X15294824Y-15790008D01*
X15294824Y-15790008D02*
X15313872Y-15780484D01*
X15466253Y-15961436D02*
X15475777Y-15970960D01*
X15475777Y-15970960D02*
X15466253Y-15980484D01*
X15466253Y-15980484D02*
X15456729Y-15970960D01*
X15456729Y-15970960D02*
X15466253Y-15961436D01*
X15466253Y-15961436D02*
X15466253Y-15980484D01*
X15542443Y-15780484D02*
X15666253Y-15780484D01*
X15666253Y-15780484D02*
X15599586Y-15856674D01*
X15599586Y-15856674D02*
X15628158Y-15856674D01*
X15628158Y-15856674D02*
X15647205Y-15866198D01*
X15647205Y-15866198D02*
X15656729Y-15875722D01*
X15656729Y-15875722D02*
X15666253Y-15894769D01*
X15666253Y-15894769D02*
X15666253Y-15942388D01*
X15666253Y-15942388D02*
X15656729Y-15961436D01*
X15656729Y-15961436D02*
X15647205Y-15970960D01*
X15647205Y-15970960D02*
X15628158Y-15980484D01*
X15628158Y-15980484D02*
X15571015Y-15980484D01*
X15571015Y-15980484D02*
X15551967Y-15970960D01*
X15551967Y-15970960D02*
X15542443Y-15961436D01*
X15790062Y-15780484D02*
X15809110Y-15780484D01*
X15809110Y-15780484D02*
X15828158Y-15790008D01*
X15828158Y-15790008D02*
X15837682Y-15799531D01*
X15837682Y-15799531D02*
X15847205Y-15818579D01*
X15847205Y-15818579D02*
X15856729Y-15856674D01*
X15856729Y-15856674D02*
X15856729Y-15904293D01*
X15856729Y-15904293D02*
X15847205Y-15942388D01*
X15847205Y-15942388D02*
X15837682Y-15961436D01*
X15837682Y-15961436D02*
X15828158Y-15970960D01*
X15828158Y-15970960D02*
X15809110Y-15980484D01*
X15809110Y-15980484D02*
X15790062Y-15980484D01*
X15790062Y-15980484D02*
X15771015Y-15970960D01*
X15771015Y-15970960D02*
X15761491Y-15961436D01*
X15761491Y-15961436D02*
X15751967Y-15942388D01*
X15751967Y-15942388D02*
X15742443Y-15904293D01*
X15742443Y-15904293D02*
X15742443Y-15856674D01*
X15742443Y-15856674D02*
X15751967Y-15818579D01*
X15751967Y-15818579D02*
X15761491Y-15799531D01*
X15761491Y-15799531D02*
X15771015Y-15790008D01*
X15771015Y-15790008D02*
X15790062Y-15780484D01*
X15980539Y-15780484D02*
X15999586Y-15780484D01*
X15999586Y-15780484D02*
X16018634Y-15790008D01*
X16018634Y-15790008D02*
X16028158Y-15799531D01*
X16028158Y-15799531D02*
X16037682Y-15818579D01*
X16037682Y-15818579D02*
X16047205Y-15856674D01*
X16047205Y-15856674D02*
X16047205Y-15904293D01*
X16047205Y-15904293D02*
X16037682Y-15942388D01*
X16037682Y-15942388D02*
X16028158Y-15961436D01*
X16028158Y-15961436D02*
X16018634Y-15970960D01*
X16018634Y-15970960D02*
X15999586Y-15980484D01*
X15999586Y-15980484D02*
X15980539Y-15980484D01*
X15980539Y-15980484D02*
X15961491Y-15970960D01*
X15961491Y-15970960D02*
X15951967Y-15961436D01*
X15951967Y-15961436D02*
X15942443Y-15942388D01*
X15942443Y-15942388D02*
X15932920Y-15904293D01*
X15932920Y-15904293D02*
X15932920Y-15856674D01*
X15932920Y-15856674D02*
X15942443Y-15818579D01*
X15942443Y-15818579D02*
X15951967Y-15799531D01*
X15951967Y-15799531D02*
X15961491Y-15790008D01*
X15961491Y-15790008D02*
X15980539Y-15780484D01*
X16132920Y-15980484D02*
X16132920Y-15847150D01*
X16132920Y-15866198D02*
X16142443Y-15856674D01*
X16142443Y-15856674D02*
X16161491Y-15847150D01*
X16161491Y-15847150D02*
X16190063Y-15847150D01*
X16190063Y-15847150D02*
X16209110Y-15856674D01*
X16209110Y-15856674D02*
X16218634Y-15875722D01*
X16218634Y-15875722D02*
X16218634Y-15980484D01*
X16218634Y-15875722D02*
X16228158Y-15856674D01*
X16228158Y-15856674D02*
X16247205Y-15847150D01*
X16247205Y-15847150D02*
X16275777Y-15847150D01*
X16275777Y-15847150D02*
X16294824Y-15856674D01*
X16294824Y-15856674D02*
X16304348Y-15875722D01*
X16304348Y-15875722D02*
X16304348Y-15980484D01*
X16399586Y-15980484D02*
X16399586Y-15847150D01*
X16399586Y-15866198D02*
X16409110Y-15856674D01*
X16409110Y-15856674D02*
X16428158Y-15847150D01*
X16428158Y-15847150D02*
X16456729Y-15847150D01*
X16456729Y-15847150D02*
X16475777Y-15856674D01*
X16475777Y-15856674D02*
X16485301Y-15875722D01*
X16485301Y-15875722D02*
X16485301Y-15980484D01*
X16485301Y-15875722D02*
X16494824Y-15856674D01*
X16494824Y-15856674D02*
X16513872Y-15847150D01*
X16513872Y-15847150D02*
X16542443Y-15847150D01*
X16542443Y-15847150D02*
X16561491Y-15856674D01*
X16561491Y-15856674D02*
X16571015Y-15875722D01*
X16571015Y-15875722D02*
X16571015Y-15980484D01*
X16961491Y-15770960D02*
X16790063Y-16028103D01*
X17218634Y-15780484D02*
X17237682Y-15780484D01*
X17237682Y-15780484D02*
X17256729Y-15790008D01*
X17256729Y-15790008D02*
X17266253Y-15799531D01*
X17266253Y-15799531D02*
X17275777Y-15818579D01*
X17275777Y-15818579D02*
X17285301Y-15856674D01*
X17285301Y-15856674D02*
X17285301Y-15904293D01*
X17285301Y-15904293D02*
X17275777Y-15942388D01*
X17275777Y-15942388D02*
X17266253Y-15961436D01*
X17266253Y-15961436D02*
X17256729Y-15970960D01*
X17256729Y-15970960D02*
X17237682Y-15980484D01*
X17237682Y-15980484D02*
X17218634Y-15980484D01*
X17218634Y-15980484D02*
X17199587Y-15970960D01*
X17199587Y-15970960D02*
X17190063Y-15961436D01*
X17190063Y-15961436D02*
X17180539Y-15942388D01*
X17180539Y-15942388D02*
X17171015Y-15904293D01*
X17171015Y-15904293D02*
X17171015Y-15856674D01*
X17171015Y-15856674D02*
X17180539Y-15818579D01*
X17180539Y-15818579D02*
X17190063Y-15799531D01*
X17190063Y-15799531D02*
X17199587Y-15790008D01*
X17199587Y-15790008D02*
X17218634Y-15780484D01*
X17371015Y-15961436D02*
X17380539Y-15970960D01*
X17380539Y-15970960D02*
X17371015Y-15980484D01*
X17371015Y-15980484D02*
X17361491Y-15970960D01*
X17361491Y-15970960D02*
X17371015Y-15961436D01*
X17371015Y-15961436D02*
X17371015Y-15980484D01*
X17504348Y-15780484D02*
X17523396Y-15780484D01*
X17523396Y-15780484D02*
X17542444Y-15790008D01*
X17542444Y-15790008D02*
X17551968Y-15799531D01*
X17551968Y-15799531D02*
X17561491Y-15818579D01*
X17561491Y-15818579D02*
X17571015Y-15856674D01*
X17571015Y-15856674D02*
X17571015Y-15904293D01*
X17571015Y-15904293D02*
X17561491Y-15942388D01*
X17561491Y-15942388D02*
X17551968Y-15961436D01*
X17551968Y-15961436D02*
X17542444Y-15970960D01*
X17542444Y-15970960D02*
X17523396Y-15980484D01*
X17523396Y-15980484D02*
X17504348Y-15980484D01*
X17504348Y-15980484D02*
X17485301Y-15970960D01*
X17485301Y-15970960D02*
X17475777Y-15961436D01*
X17475777Y-15961436D02*
X17466253Y-15942388D01*
X17466253Y-15942388D02*
X17456729Y-15904293D01*
X17456729Y-15904293D02*
X17456729Y-15856674D01*
X17456729Y-15856674D02*
X17466253Y-15818579D01*
X17466253Y-15818579D02*
X17475777Y-15799531D01*
X17475777Y-15799531D02*
X17485301Y-15790008D01*
X17485301Y-15790008D02*
X17504348Y-15780484D01*
X17761491Y-15980484D02*
X17647206Y-15980484D01*
X17704348Y-15980484D02*
X17704348Y-15780484D01*
X17704348Y-15780484D02*
X17685301Y-15809055D01*
X17685301Y-15809055D02*
X17666253Y-15828103D01*
X17666253Y-15828103D02*
X17647206Y-15837627D01*
X17951968Y-15980484D02*
X17837682Y-15980484D01*
X17894825Y-15980484D02*
X17894825Y-15780484D01*
X17894825Y-15780484D02*
X17875777Y-15809055D01*
X17875777Y-15809055D02*
X17856729Y-15828103D01*
X17856729Y-15828103D02*
X17837682Y-15837627D01*
X18066253Y-15866198D02*
X18047206Y-15856674D01*
X18047206Y-15856674D02*
X18037682Y-15847150D01*
X18037682Y-15847150D02*
X18028158Y-15828103D01*
X18028158Y-15828103D02*
X18028158Y-15818579D01*
X18028158Y-15818579D02*
X18037682Y-15799531D01*
X18037682Y-15799531D02*
X18047206Y-15790008D01*
X18047206Y-15790008D02*
X18066253Y-15780484D01*
X18066253Y-15780484D02*
X18104349Y-15780484D01*
X18104349Y-15780484D02*
X18123396Y-15790008D01*
X18123396Y-15790008D02*
X18132920Y-15799531D01*
X18132920Y-15799531D02*
X18142444Y-15818579D01*
X18142444Y-15818579D02*
X18142444Y-15828103D01*
X18142444Y-15828103D02*
X18132920Y-15847150D01*
X18132920Y-15847150D02*
X18123396Y-15856674D01*
X18123396Y-15856674D02*
X18104349Y-15866198D01*
X18104349Y-15866198D02*
X18066253Y-15866198D01*
X18066253Y-15866198D02*
X18047206Y-15875722D01*
X18047206Y-15875722D02*
X18037682Y-15885246D01*
X18037682Y-15885246D02*
X18028158Y-15904293D01*
X18028158Y-15904293D02*
X18028158Y-15942388D01*
X18028158Y-15942388D02*
X18037682Y-15961436D01*
X18037682Y-15961436D02*
X18047206Y-15970960D01*
X18047206Y-15970960D02*
X18066253Y-15980484D01*
X18066253Y-15980484D02*
X18104349Y-15980484D01*
X18104349Y-15980484D02*
X18123396Y-15970960D01*
X18123396Y-15970960D02*
X18132920Y-15961436D01*
X18132920Y-15961436D02*
X18142444Y-15942388D01*
X18142444Y-15942388D02*
X18142444Y-15904293D01*
X18142444Y-15904293D02*
X18132920Y-15885246D01*
X18132920Y-15885246D02*
X18123396Y-15875722D01*
X18123396Y-15875722D02*
X18104349Y-15866198D01*
X18218634Y-15780484D02*
X18218634Y-15818579D01*
X18294825Y-15780484D02*
X18294825Y-15818579D01*
X18590063Y-16056674D02*
X18580539Y-16047150D01*
X18580539Y-16047150D02*
X18561491Y-16018579D01*
X18561491Y-16018579D02*
X18551968Y-15999531D01*
X18551968Y-15999531D02*
X18542444Y-15970960D01*
X18542444Y-15970960D02*
X18532920Y-15923341D01*
X18532920Y-15923341D02*
X18532920Y-15885246D01*
X18532920Y-15885246D02*
X18542444Y-15837627D01*
X18542444Y-15837627D02*
X18551968Y-15809055D01*
X18551968Y-15809055D02*
X18561491Y-15790008D01*
X18561491Y-15790008D02*
X18580539Y-15761436D01*
X18580539Y-15761436D02*
X18590063Y-15751912D01*
X18675777Y-15980484D02*
X18713872Y-15980484D01*
X18713872Y-15980484D02*
X18732920Y-15970960D01*
X18732920Y-15970960D02*
X18742444Y-15961436D01*
X18742444Y-15961436D02*
X18761491Y-15932865D01*
X18761491Y-15932865D02*
X18771015Y-15894769D01*
X18771015Y-15894769D02*
X18771015Y-15818579D01*
X18771015Y-15818579D02*
X18761491Y-15799531D01*
X18761491Y-15799531D02*
X18751968Y-15790008D01*
X18751968Y-15790008D02*
X18732920Y-15780484D01*
X18732920Y-15780484D02*
X18694825Y-15780484D01*
X18694825Y-15780484D02*
X18675777Y-15790008D01*
X18675777Y-15790008D02*
X18666253Y-15799531D01*
X18666253Y-15799531D02*
X18656730Y-15818579D01*
X18656730Y-15818579D02*
X18656730Y-15866198D01*
X18656730Y-15866198D02*
X18666253Y-15885246D01*
X18666253Y-15885246D02*
X18675777Y-15894769D01*
X18675777Y-15894769D02*
X18694825Y-15904293D01*
X18694825Y-15904293D02*
X18732920Y-15904293D01*
X18732920Y-15904293D02*
X18751968Y-15894769D01*
X18751968Y-15894769D02*
X18761491Y-15885246D01*
X18761491Y-15885246D02*
X18771015Y-15866198D01*
X19009111Y-15980484D02*
X19009111Y-15780484D01*
X19094825Y-15980484D02*
X19094825Y-15875722D01*
X19094825Y-15875722D02*
X19085301Y-15856674D01*
X19085301Y-15856674D02*
X19066253Y-15847150D01*
X19066253Y-15847150D02*
X19037682Y-15847150D01*
X19037682Y-15847150D02*
X19018634Y-15856674D01*
X19018634Y-15856674D02*
X19009111Y-15866198D01*
X19218634Y-15980484D02*
X19199587Y-15970960D01*
X19199587Y-15970960D02*
X19190063Y-15961436D01*
X19190063Y-15961436D02*
X19180539Y-15942388D01*
X19180539Y-15942388D02*
X19180539Y-15885246D01*
X19180539Y-15885246D02*
X19190063Y-15866198D01*
X19190063Y-15866198D02*
X19199587Y-15856674D01*
X19199587Y-15856674D02*
X19218634Y-15847150D01*
X19218634Y-15847150D02*
X19247206Y-15847150D01*
X19247206Y-15847150D02*
X19266253Y-15856674D01*
X19266253Y-15856674D02*
X19275777Y-15866198D01*
X19275777Y-15866198D02*
X19285301Y-15885246D01*
X19285301Y-15885246D02*
X19285301Y-15942388D01*
X19285301Y-15942388D02*
X19275777Y-15961436D01*
X19275777Y-15961436D02*
X19266253Y-15970960D01*
X19266253Y-15970960D02*
X19247206Y-15980484D01*
X19247206Y-15980484D02*
X19218634Y-15980484D01*
X19399587Y-15980484D02*
X19380539Y-15970960D01*
X19380539Y-15970960D02*
X19371015Y-15951912D01*
X19371015Y-15951912D02*
X19371015Y-15780484D01*
X19551968Y-15970960D02*
X19532920Y-15980484D01*
X19532920Y-15980484D02*
X19494825Y-15980484D01*
X19494825Y-15980484D02*
X19475777Y-15970960D01*
X19475777Y-15970960D02*
X19466253Y-15951912D01*
X19466253Y-15951912D02*
X19466253Y-15875722D01*
X19466253Y-15875722D02*
X19475777Y-15856674D01*
X19475777Y-15856674D02*
X19494825Y-15847150D01*
X19494825Y-15847150D02*
X19532920Y-15847150D01*
X19532920Y-15847150D02*
X19551968Y-15856674D01*
X19551968Y-15856674D02*
X19561492Y-15875722D01*
X19561492Y-15875722D02*
X19561492Y-15894769D01*
X19561492Y-15894769D02*
X19466253Y-15913817D01*
X19637682Y-15970960D02*
X19656730Y-15980484D01*
X19656730Y-15980484D02*
X19694825Y-15980484D01*
X19694825Y-15980484D02*
X19713873Y-15970960D01*
X19713873Y-15970960D02*
X19723396Y-15951912D01*
X19723396Y-15951912D02*
X19723396Y-15942388D01*
X19723396Y-15942388D02*
X19713873Y-15923341D01*
X19713873Y-15923341D02*
X19694825Y-15913817D01*
X19694825Y-15913817D02*
X19666253Y-15913817D01*
X19666253Y-15913817D02*
X19647206Y-15904293D01*
X19647206Y-15904293D02*
X19637682Y-15885246D01*
X19637682Y-15885246D02*
X19637682Y-15875722D01*
X19637682Y-15875722D02*
X19647206Y-15856674D01*
X19647206Y-15856674D02*
X19666253Y-15847150D01*
X19666253Y-15847150D02*
X19694825Y-15847150D01*
X19694825Y-15847150D02*
X19713873Y-15856674D01*
X19790063Y-16056674D02*
X19799587Y-16047150D01*
X19799587Y-16047150D02*
X19818634Y-16018579D01*
X19818634Y-16018579D02*
X19828158Y-15999531D01*
X19828158Y-15999531D02*
X19837682Y-15970960D01*
X19837682Y-15970960D02*
X19847206Y-15923341D01*
X19847206Y-15923341D02*
X19847206Y-15885246D01*
X19847206Y-15885246D02*
X19837682Y-15837627D01*
X19837682Y-15837627D02*
X19828158Y-15809055D01*
X19828158Y-15809055D02*
X19818634Y-15790008D01*
X19818634Y-15790008D02*
X19799587Y-15761436D01*
X19799587Y-15761436D02*
X19790063Y-15751912D01*
D10*
X14982500Y-16120500D02*
X14982500Y-16185500D01*
X14950000Y-16153000D02*
X15015000Y-16153000D01*
D11*
X15313872Y-16044484D02*
X15332920Y-16044484D01*
X15332920Y-16044484D02*
X15351967Y-16054008D01*
X15351967Y-16054008D02*
X15361491Y-16063531D01*
X15361491Y-16063531D02*
X15371015Y-16082579D01*
X15371015Y-16082579D02*
X15380539Y-16120674D01*
X15380539Y-16120674D02*
X15380539Y-16168293D01*
X15380539Y-16168293D02*
X15371015Y-16206388D01*
X15371015Y-16206388D02*
X15361491Y-16225436D01*
X15361491Y-16225436D02*
X15351967Y-16234960D01*
X15351967Y-16234960D02*
X15332920Y-16244484D01*
X15332920Y-16244484D02*
X15313872Y-16244484D01*
X15313872Y-16244484D02*
X15294824Y-16234960D01*
X15294824Y-16234960D02*
X15285301Y-16225436D01*
X15285301Y-16225436D02*
X15275777Y-16206388D01*
X15275777Y-16206388D02*
X15266253Y-16168293D01*
X15266253Y-16168293D02*
X15266253Y-16120674D01*
X15266253Y-16120674D02*
X15275777Y-16082579D01*
X15275777Y-16082579D02*
X15285301Y-16063531D01*
X15285301Y-16063531D02*
X15294824Y-16054008D01*
X15294824Y-16054008D02*
X15313872Y-16044484D01*
X15466253Y-16225436D02*
X15475777Y-16234960D01*
X15475777Y-16234960D02*
X15466253Y-16244484D01*
X15466253Y-16244484D02*
X15456729Y-16234960D01*
X15456729Y-16234960D02*
X15466253Y-16225436D01*
X15466253Y-16225436D02*
X15466253Y-16244484D01*
X15647205Y-16044484D02*
X15609110Y-16044484D01*
X15609110Y-16044484D02*
X15590062Y-16054008D01*
X15590062Y-16054008D02*
X15580539Y-16063531D01*
X15580539Y-16063531D02*
X15561491Y-16092103D01*
X15561491Y-16092103D02*
X15551967Y-16130198D01*
X15551967Y-16130198D02*
X15551967Y-16206388D01*
X15551967Y-16206388D02*
X15561491Y-16225436D01*
X15561491Y-16225436D02*
X15571015Y-16234960D01*
X15571015Y-16234960D02*
X15590062Y-16244484D01*
X15590062Y-16244484D02*
X15628158Y-16244484D01*
X15628158Y-16244484D02*
X15647205Y-16234960D01*
X15647205Y-16234960D02*
X15656729Y-16225436D01*
X15656729Y-16225436D02*
X15666253Y-16206388D01*
X15666253Y-16206388D02*
X15666253Y-16158769D01*
X15666253Y-16158769D02*
X15656729Y-16139722D01*
X15656729Y-16139722D02*
X15647205Y-16130198D01*
X15647205Y-16130198D02*
X15628158Y-16120674D01*
X15628158Y-16120674D02*
X15590062Y-16120674D01*
X15590062Y-16120674D02*
X15571015Y-16130198D01*
X15571015Y-16130198D02*
X15561491Y-16139722D01*
X15561491Y-16139722D02*
X15551967Y-16158769D01*
X15847205Y-16044484D02*
X15751967Y-16044484D01*
X15751967Y-16044484D02*
X15742443Y-16139722D01*
X15742443Y-16139722D02*
X15751967Y-16130198D01*
X15751967Y-16130198D02*
X15771015Y-16120674D01*
X15771015Y-16120674D02*
X15818634Y-16120674D01*
X15818634Y-16120674D02*
X15837682Y-16130198D01*
X15837682Y-16130198D02*
X15847205Y-16139722D01*
X15847205Y-16139722D02*
X15856729Y-16158769D01*
X15856729Y-16158769D02*
X15856729Y-16206388D01*
X15856729Y-16206388D02*
X15847205Y-16225436D01*
X15847205Y-16225436D02*
X15837682Y-16234960D01*
X15837682Y-16234960D02*
X15818634Y-16244484D01*
X15818634Y-16244484D02*
X15771015Y-16244484D01*
X15771015Y-16244484D02*
X15751967Y-16234960D01*
X15751967Y-16234960D02*
X15742443Y-16225436D01*
X15980539Y-16044484D02*
X15999586Y-16044484D01*
X15999586Y-16044484D02*
X16018634Y-16054008D01*
X16018634Y-16054008D02*
X16028158Y-16063531D01*
X16028158Y-16063531D02*
X16037682Y-16082579D01*
X16037682Y-16082579D02*
X16047205Y-16120674D01*
X16047205Y-16120674D02*
X16047205Y-16168293D01*
X16047205Y-16168293D02*
X16037682Y-16206388D01*
X16037682Y-16206388D02*
X16028158Y-16225436D01*
X16028158Y-16225436D02*
X16018634Y-16234960D01*
X16018634Y-16234960D02*
X15999586Y-16244484D01*
X15999586Y-16244484D02*
X15980539Y-16244484D01*
X15980539Y-16244484D02*
X15961491Y-16234960D01*
X15961491Y-16234960D02*
X15951967Y-16225436D01*
X15951967Y-16225436D02*
X15942443Y-16206388D01*
X15942443Y-16206388D02*
X15932920Y-16168293D01*
X15932920Y-16168293D02*
X15932920Y-16120674D01*
X15932920Y-16120674D02*
X15942443Y-16082579D01*
X15942443Y-16082579D02*
X15951967Y-16063531D01*
X15951967Y-16063531D02*
X15961491Y-16054008D01*
X15961491Y-16054008D02*
X15980539Y-16044484D01*
X16132920Y-16244484D02*
X16132920Y-16111150D01*
X16132920Y-16130198D02*
X16142443Y-16120674D01*
X16142443Y-16120674D02*
X16161491Y-16111150D01*
X16161491Y-16111150D02*
X16190063Y-16111150D01*
X16190063Y-16111150D02*
X16209110Y-16120674D01*
X16209110Y-16120674D02*
X16218634Y-16139722D01*
X16218634Y-16139722D02*
X16218634Y-16244484D01*
X16218634Y-16139722D02*
X16228158Y-16120674D01*
X16228158Y-16120674D02*
X16247205Y-16111150D01*
X16247205Y-16111150D02*
X16275777Y-16111150D01*
X16275777Y-16111150D02*
X16294824Y-16120674D01*
X16294824Y-16120674D02*
X16304348Y-16139722D01*
X16304348Y-16139722D02*
X16304348Y-16244484D01*
X16399586Y-16244484D02*
X16399586Y-16111150D01*
X16399586Y-16130198D02*
X16409110Y-16120674D01*
X16409110Y-16120674D02*
X16428158Y-16111150D01*
X16428158Y-16111150D02*
X16456729Y-16111150D01*
X16456729Y-16111150D02*
X16475777Y-16120674D01*
X16475777Y-16120674D02*
X16485301Y-16139722D01*
X16485301Y-16139722D02*
X16485301Y-16244484D01*
X16485301Y-16139722D02*
X16494824Y-16120674D01*
X16494824Y-16120674D02*
X16513872Y-16111150D01*
X16513872Y-16111150D02*
X16542443Y-16111150D01*
X16542443Y-16111150D02*
X16561491Y-16120674D01*
X16561491Y-16120674D02*
X16571015Y-16139722D01*
X16571015Y-16139722D02*
X16571015Y-16244484D01*
X16961491Y-16034960D02*
X16790063Y-16292103D01*
X17218634Y-16044484D02*
X17237682Y-16044484D01*
X17237682Y-16044484D02*
X17256729Y-16054008D01*
X17256729Y-16054008D02*
X17266253Y-16063531D01*
X17266253Y-16063531D02*
X17275777Y-16082579D01*
X17275777Y-16082579D02*
X17285301Y-16120674D01*
X17285301Y-16120674D02*
X17285301Y-16168293D01*
X17285301Y-16168293D02*
X17275777Y-16206388D01*
X17275777Y-16206388D02*
X17266253Y-16225436D01*
X17266253Y-16225436D02*
X17256729Y-16234960D01*
X17256729Y-16234960D02*
X17237682Y-16244484D01*
X17237682Y-16244484D02*
X17218634Y-16244484D01*
X17218634Y-16244484D02*
X17199587Y-16234960D01*
X17199587Y-16234960D02*
X17190063Y-16225436D01*
X17190063Y-16225436D02*
X17180539Y-16206388D01*
X17180539Y-16206388D02*
X17171015Y-16168293D01*
X17171015Y-16168293D02*
X17171015Y-16120674D01*
X17171015Y-16120674D02*
X17180539Y-16082579D01*
X17180539Y-16082579D02*
X17190063Y-16063531D01*
X17190063Y-16063531D02*
X17199587Y-16054008D01*
X17199587Y-16054008D02*
X17218634Y-16044484D01*
X17371015Y-16225436D02*
X17380539Y-16234960D01*
X17380539Y-16234960D02*
X17371015Y-16244484D01*
X17371015Y-16244484D02*
X17361491Y-16234960D01*
X17361491Y-16234960D02*
X17371015Y-16225436D01*
X17371015Y-16225436D02*
X17371015Y-16244484D01*
X17504348Y-16044484D02*
X17523396Y-16044484D01*
X17523396Y-16044484D02*
X17542444Y-16054008D01*
X17542444Y-16054008D02*
X17551968Y-16063531D01*
X17551968Y-16063531D02*
X17561491Y-16082579D01*
X17561491Y-16082579D02*
X17571015Y-16120674D01*
X17571015Y-16120674D02*
X17571015Y-16168293D01*
X17571015Y-16168293D02*
X17561491Y-16206388D01*
X17561491Y-16206388D02*
X17551968Y-16225436D01*
X17551968Y-16225436D02*
X17542444Y-16234960D01*
X17542444Y-16234960D02*
X17523396Y-16244484D01*
X17523396Y-16244484D02*
X17504348Y-16244484D01*
X17504348Y-16244484D02*
X17485301Y-16234960D01*
X17485301Y-16234960D02*
X17475777Y-16225436D01*
X17475777Y-16225436D02*
X17466253Y-16206388D01*
X17466253Y-16206388D02*
X17456729Y-16168293D01*
X17456729Y-16168293D02*
X17456729Y-16120674D01*
X17456729Y-16120674D02*
X17466253Y-16082579D01*
X17466253Y-16082579D02*
X17475777Y-16063531D01*
X17475777Y-16063531D02*
X17485301Y-16054008D01*
X17485301Y-16054008D02*
X17504348Y-16044484D01*
X17647206Y-16063531D02*
X17656729Y-16054008D01*
X17656729Y-16054008D02*
X17675777Y-16044484D01*
X17675777Y-16044484D02*
X17723396Y-16044484D01*
X17723396Y-16044484D02*
X17742444Y-16054008D01*
X17742444Y-16054008D02*
X17751968Y-16063531D01*
X17751968Y-16063531D02*
X17761491Y-16082579D01*
X17761491Y-16082579D02*
X17761491Y-16101627D01*
X17761491Y-16101627D02*
X17751968Y-16130198D01*
X17751968Y-16130198D02*
X17637682Y-16244484D01*
X17637682Y-16244484D02*
X17761491Y-16244484D01*
X17942444Y-16044484D02*
X17847206Y-16044484D01*
X17847206Y-16044484D02*
X17837682Y-16139722D01*
X17837682Y-16139722D02*
X17847206Y-16130198D01*
X17847206Y-16130198D02*
X17866253Y-16120674D01*
X17866253Y-16120674D02*
X17913872Y-16120674D01*
X17913872Y-16120674D02*
X17932920Y-16130198D01*
X17932920Y-16130198D02*
X17942444Y-16139722D01*
X17942444Y-16139722D02*
X17951968Y-16158769D01*
X17951968Y-16158769D02*
X17951968Y-16206388D01*
X17951968Y-16206388D02*
X17942444Y-16225436D01*
X17942444Y-16225436D02*
X17932920Y-16234960D01*
X17932920Y-16234960D02*
X17913872Y-16244484D01*
X17913872Y-16244484D02*
X17866253Y-16244484D01*
X17866253Y-16244484D02*
X17847206Y-16234960D01*
X17847206Y-16234960D02*
X17837682Y-16225436D01*
X18123396Y-16044484D02*
X18085301Y-16044484D01*
X18085301Y-16044484D02*
X18066253Y-16054008D01*
X18066253Y-16054008D02*
X18056729Y-16063531D01*
X18056729Y-16063531D02*
X18037682Y-16092103D01*
X18037682Y-16092103D02*
X18028158Y-16130198D01*
X18028158Y-16130198D02*
X18028158Y-16206388D01*
X18028158Y-16206388D02*
X18037682Y-16225436D01*
X18037682Y-16225436D02*
X18047206Y-16234960D01*
X18047206Y-16234960D02*
X18066253Y-16244484D01*
X18066253Y-16244484D02*
X18104349Y-16244484D01*
X18104349Y-16244484D02*
X18123396Y-16234960D01*
X18123396Y-16234960D02*
X18132920Y-16225436D01*
X18132920Y-16225436D02*
X18142444Y-16206388D01*
X18142444Y-16206388D02*
X18142444Y-16158769D01*
X18142444Y-16158769D02*
X18132920Y-16139722D01*
X18132920Y-16139722D02*
X18123396Y-16130198D01*
X18123396Y-16130198D02*
X18104349Y-16120674D01*
X18104349Y-16120674D02*
X18066253Y-16120674D01*
X18066253Y-16120674D02*
X18047206Y-16130198D01*
X18047206Y-16130198D02*
X18037682Y-16139722D01*
X18037682Y-16139722D02*
X18028158Y-16158769D01*
X18218634Y-16044484D02*
X18218634Y-16082579D01*
X18294825Y-16044484D02*
X18294825Y-16082579D01*
X18590063Y-16320674D02*
X18580539Y-16311150D01*
X18580539Y-16311150D02*
X18561491Y-16282579D01*
X18561491Y-16282579D02*
X18551968Y-16263531D01*
X18551968Y-16263531D02*
X18542444Y-16234960D01*
X18542444Y-16234960D02*
X18532920Y-16187341D01*
X18532920Y-16187341D02*
X18532920Y-16149246D01*
X18532920Y-16149246D02*
X18542444Y-16101627D01*
X18542444Y-16101627D02*
X18551968Y-16073055D01*
X18551968Y-16073055D02*
X18561491Y-16054008D01*
X18561491Y-16054008D02*
X18580539Y-16025436D01*
X18580539Y-16025436D02*
X18590063Y-16015912D01*
X18704349Y-16044484D02*
X18723396Y-16044484D01*
X18723396Y-16044484D02*
X18742444Y-16054008D01*
X18742444Y-16054008D02*
X18751968Y-16063531D01*
X18751968Y-16063531D02*
X18761491Y-16082579D01*
X18761491Y-16082579D02*
X18771015Y-16120674D01*
X18771015Y-16120674D02*
X18771015Y-16168293D01*
X18771015Y-16168293D02*
X18761491Y-16206388D01*
X18761491Y-16206388D02*
X18751968Y-16225436D01*
X18751968Y-16225436D02*
X18742444Y-16234960D01*
X18742444Y-16234960D02*
X18723396Y-16244484D01*
X18723396Y-16244484D02*
X18704349Y-16244484D01*
X18704349Y-16244484D02*
X18685301Y-16234960D01*
X18685301Y-16234960D02*
X18675777Y-16225436D01*
X18675777Y-16225436D02*
X18666253Y-16206388D01*
X18666253Y-16206388D02*
X18656730Y-16168293D01*
X18656730Y-16168293D02*
X18656730Y-16120674D01*
X18656730Y-16120674D02*
X18666253Y-16082579D01*
X18666253Y-16082579D02*
X18675777Y-16063531D01*
X18675777Y-16063531D02*
X18685301Y-16054008D01*
X18685301Y-16054008D02*
X18704349Y-16044484D01*
X19009111Y-16244484D02*
X19009111Y-16044484D01*
X19094825Y-16244484D02*
X19094825Y-16139722D01*
X19094825Y-16139722D02*
X19085301Y-16120674D01*
X19085301Y-16120674D02*
X19066253Y-16111150D01*
X19066253Y-16111150D02*
X19037682Y-16111150D01*
X19037682Y-16111150D02*
X19018634Y-16120674D01*
X19018634Y-16120674D02*
X19009111Y-16130198D01*
X19218634Y-16244484D02*
X19199587Y-16234960D01*
X19199587Y-16234960D02*
X19190063Y-16225436D01*
X19190063Y-16225436D02*
X19180539Y-16206388D01*
X19180539Y-16206388D02*
X19180539Y-16149246D01*
X19180539Y-16149246D02*
X19190063Y-16130198D01*
X19190063Y-16130198D02*
X19199587Y-16120674D01*
X19199587Y-16120674D02*
X19218634Y-16111150D01*
X19218634Y-16111150D02*
X19247206Y-16111150D01*
X19247206Y-16111150D02*
X19266253Y-16120674D01*
X19266253Y-16120674D02*
X19275777Y-16130198D01*
X19275777Y-16130198D02*
X19285301Y-16149246D01*
X19285301Y-16149246D02*
X19285301Y-16206388D01*
X19285301Y-16206388D02*
X19275777Y-16225436D01*
X19275777Y-16225436D02*
X19266253Y-16234960D01*
X19266253Y-16234960D02*
X19247206Y-16244484D01*
X19247206Y-16244484D02*
X19218634Y-16244484D01*
X19399587Y-16244484D02*
X19380539Y-16234960D01*
X19380539Y-16234960D02*
X19371015Y-16215912D01*
X19371015Y-16215912D02*
X19371015Y-16044484D01*
X19551968Y-16234960D02*
X19532920Y-16244484D01*
X19532920Y-16244484D02*
X19494825Y-16244484D01*
X19494825Y-16244484D02*
X19475777Y-16234960D01*
X19475777Y-16234960D02*
X19466253Y-16215912D01*
X19466253Y-16215912D02*
X19466253Y-16139722D01*
X19466253Y-16139722D02*
X19475777Y-16120674D01*
X19475777Y-16120674D02*
X19494825Y-16111150D01*
X19494825Y-16111150D02*
X19532920Y-16111150D01*
X19532920Y-16111150D02*
X19551968Y-16120674D01*
X19551968Y-16120674D02*
X19561492Y-16139722D01*
X19561492Y-16139722D02*
X19561492Y-16158769D01*
X19561492Y-16158769D02*
X19466253Y-16177817D01*
X19637682Y-16234960D02*
X19656730Y-16244484D01*
X19656730Y-16244484D02*
X19694825Y-16244484D01*
X19694825Y-16244484D02*
X19713873Y-16234960D01*
X19713873Y-16234960D02*
X19723396Y-16215912D01*
X19723396Y-16215912D02*
X19723396Y-16206388D01*
X19723396Y-16206388D02*
X19713873Y-16187341D01*
X19713873Y-16187341D02*
X19694825Y-16177817D01*
X19694825Y-16177817D02*
X19666253Y-16177817D01*
X19666253Y-16177817D02*
X19647206Y-16168293D01*
X19647206Y-16168293D02*
X19637682Y-16149246D01*
X19637682Y-16149246D02*
X19637682Y-16139722D01*
X19637682Y-16139722D02*
X19647206Y-16120674D01*
X19647206Y-16120674D02*
X19666253Y-16111150D01*
X19666253Y-16111150D02*
X19694825Y-16111150D01*
X19694825Y-16111150D02*
X19713873Y-16120674D01*
X19961492Y-16168293D02*
X20113873Y-16168293D01*
X20037682Y-16244484D02*
X20037682Y-16092103D01*
X20351968Y-16063531D02*
X20361492Y-16054008D01*
X20361492Y-16054008D02*
X20380539Y-16044484D01*
X20380539Y-16044484D02*
X20428158Y-16044484D01*
X20428158Y-16044484D02*
X20447206Y-16054008D01*
X20447206Y-16054008D02*
X20456730Y-16063531D01*
X20456730Y-16063531D02*
X20466254Y-16082579D01*
X20466254Y-16082579D02*
X20466254Y-16101627D01*
X20466254Y-16101627D02*
X20456730Y-16130198D01*
X20456730Y-16130198D02*
X20342444Y-16244484D01*
X20342444Y-16244484D02*
X20466254Y-16244484D01*
X20694825Y-16234960D02*
X20713873Y-16244484D01*
X20713873Y-16244484D02*
X20751968Y-16244484D01*
X20751968Y-16244484D02*
X20771016Y-16234960D01*
X20771016Y-16234960D02*
X20780539Y-16215912D01*
X20780539Y-16215912D02*
X20780539Y-16206388D01*
X20780539Y-16206388D02*
X20771016Y-16187341D01*
X20771016Y-16187341D02*
X20751968Y-16177817D01*
X20751968Y-16177817D02*
X20723396Y-16177817D01*
X20723396Y-16177817D02*
X20704349Y-16168293D01*
X20704349Y-16168293D02*
X20694825Y-16149246D01*
X20694825Y-16149246D02*
X20694825Y-16139722D01*
X20694825Y-16139722D02*
X20704349Y-16120674D01*
X20704349Y-16120674D02*
X20723396Y-16111150D01*
X20723396Y-16111150D02*
X20751968Y-16111150D01*
X20751968Y-16111150D02*
X20771016Y-16120674D01*
X20894825Y-16244484D02*
X20875777Y-16234960D01*
X20875777Y-16234960D02*
X20866254Y-16215912D01*
X20866254Y-16215912D02*
X20866254Y-16044484D01*
X20999587Y-16244484D02*
X20980539Y-16234960D01*
X20980539Y-16234960D02*
X20971016Y-16225436D01*
X20971016Y-16225436D02*
X20961492Y-16206388D01*
X20961492Y-16206388D02*
X20961492Y-16149246D01*
X20961492Y-16149246D02*
X20971016Y-16130198D01*
X20971016Y-16130198D02*
X20980539Y-16120674D01*
X20980539Y-16120674D02*
X20999587Y-16111150D01*
X20999587Y-16111150D02*
X21028158Y-16111150D01*
X21028158Y-16111150D02*
X21047206Y-16120674D01*
X21047206Y-16120674D02*
X21056730Y-16130198D01*
X21056730Y-16130198D02*
X21066254Y-16149246D01*
X21066254Y-16149246D02*
X21066254Y-16206388D01*
X21066254Y-16206388D02*
X21056730Y-16225436D01*
X21056730Y-16225436D02*
X21047206Y-16234960D01*
X21047206Y-16234960D02*
X21028158Y-16244484D01*
X21028158Y-16244484D02*
X20999587Y-16244484D01*
X21123397Y-16111150D02*
X21199587Y-16111150D01*
X21151968Y-16044484D02*
X21151968Y-16215912D01*
X21151968Y-16215912D02*
X21161492Y-16234960D01*
X21161492Y-16234960D02*
X21180539Y-16244484D01*
X21180539Y-16244484D02*
X21199587Y-16244484D01*
X21256730Y-16234960D02*
X21275777Y-16244484D01*
X21275777Y-16244484D02*
X21313873Y-16244484D01*
X21313873Y-16244484D02*
X21332920Y-16234960D01*
X21332920Y-16234960D02*
X21342444Y-16215912D01*
X21342444Y-16215912D02*
X21342444Y-16206388D01*
X21342444Y-16206388D02*
X21332920Y-16187341D01*
X21332920Y-16187341D02*
X21313873Y-16177817D01*
X21313873Y-16177817D02*
X21285301Y-16177817D01*
X21285301Y-16177817D02*
X21266254Y-16168293D01*
X21266254Y-16168293D02*
X21256730Y-16149246D01*
X21256730Y-16149246D02*
X21256730Y-16139722D01*
X21256730Y-16139722D02*
X21266254Y-16120674D01*
X21266254Y-16120674D02*
X21285301Y-16111150D01*
X21285301Y-16111150D02*
X21313873Y-16111150D01*
X21313873Y-16111150D02*
X21332920Y-16120674D01*
X21409111Y-16320674D02*
X21418635Y-16311150D01*
X21418635Y-16311150D02*
X21437682Y-16282579D01*
X21437682Y-16282579D02*
X21447206Y-16263531D01*
X21447206Y-16263531D02*
X21456730Y-16234960D01*
X21456730Y-16234960D02*
X21466254Y-16187341D01*
X21466254Y-16187341D02*
X21466254Y-16149246D01*
X21466254Y-16149246D02*
X21456730Y-16101627D01*
X21456730Y-16101627D02*
X21447206Y-16073055D01*
X21447206Y-16073055D02*
X21437682Y-16054008D01*
X21437682Y-16054008D02*
X21418635Y-16025436D01*
X21418635Y-16025436D02*
X21409111Y-16015912D01*
D10*
X15004749Y-16441749D02*
X15004749Y-16392251D01*
X14955251Y-16392251D01*
X14955251Y-16441749D01*
X15004749Y-16441749D01*
D11*
X15313872Y-16308484D02*
X15332920Y-16308484D01*
X15332920Y-16308484D02*
X15351967Y-16318008D01*
X15351967Y-16318008D02*
X15361491Y-16327531D01*
X15361491Y-16327531D02*
X15371015Y-16346579D01*
X15371015Y-16346579D02*
X15380539Y-16384674D01*
X15380539Y-16384674D02*
X15380539Y-16432293D01*
X15380539Y-16432293D02*
X15371015Y-16470388D01*
X15371015Y-16470388D02*
X15361491Y-16489436D01*
X15361491Y-16489436D02*
X15351967Y-16498960D01*
X15351967Y-16498960D02*
X15332920Y-16508484D01*
X15332920Y-16508484D02*
X15313872Y-16508484D01*
X15313872Y-16508484D02*
X15294824Y-16498960D01*
X15294824Y-16498960D02*
X15285301Y-16489436D01*
X15285301Y-16489436D02*
X15275777Y-16470388D01*
X15275777Y-16470388D02*
X15266253Y-16432293D01*
X15266253Y-16432293D02*
X15266253Y-16384674D01*
X15266253Y-16384674D02*
X15275777Y-16346579D01*
X15275777Y-16346579D02*
X15285301Y-16327531D01*
X15285301Y-16327531D02*
X15294824Y-16318008D01*
X15294824Y-16318008D02*
X15313872Y-16308484D01*
X15466253Y-16489436D02*
X15475777Y-16498960D01*
X15475777Y-16498960D02*
X15466253Y-16508484D01*
X15466253Y-16508484D02*
X15456729Y-16498960D01*
X15456729Y-16498960D02*
X15466253Y-16489436D01*
X15466253Y-16489436D02*
X15466253Y-16508484D01*
X15542443Y-16308484D02*
X15675777Y-16308484D01*
X15675777Y-16308484D02*
X15590062Y-16508484D01*
X15790062Y-16308484D02*
X15809110Y-16308484D01*
X15809110Y-16308484D02*
X15828158Y-16318008D01*
X15828158Y-16318008D02*
X15837682Y-16327531D01*
X15837682Y-16327531D02*
X15847205Y-16346579D01*
X15847205Y-16346579D02*
X15856729Y-16384674D01*
X15856729Y-16384674D02*
X15856729Y-16432293D01*
X15856729Y-16432293D02*
X15847205Y-16470388D01*
X15847205Y-16470388D02*
X15837682Y-16489436D01*
X15837682Y-16489436D02*
X15828158Y-16498960D01*
X15828158Y-16498960D02*
X15809110Y-16508484D01*
X15809110Y-16508484D02*
X15790062Y-16508484D01*
X15790062Y-16508484D02*
X15771015Y-16498960D01*
X15771015Y-16498960D02*
X15761491Y-16489436D01*
X15761491Y-16489436D02*
X15751967Y-16470388D01*
X15751967Y-16470388D02*
X15742443Y-16432293D01*
X15742443Y-16432293D02*
X15742443Y-16384674D01*
X15742443Y-16384674D02*
X15751967Y-16346579D01*
X15751967Y-16346579D02*
X15761491Y-16327531D01*
X15761491Y-16327531D02*
X15771015Y-16318008D01*
X15771015Y-16318008D02*
X15790062Y-16308484D01*
X15980539Y-16308484D02*
X15999586Y-16308484D01*
X15999586Y-16308484D02*
X16018634Y-16318008D01*
X16018634Y-16318008D02*
X16028158Y-16327531D01*
X16028158Y-16327531D02*
X16037682Y-16346579D01*
X16037682Y-16346579D02*
X16047205Y-16384674D01*
X16047205Y-16384674D02*
X16047205Y-16432293D01*
X16047205Y-16432293D02*
X16037682Y-16470388D01*
X16037682Y-16470388D02*
X16028158Y-16489436D01*
X16028158Y-16489436D02*
X16018634Y-16498960D01*
X16018634Y-16498960D02*
X15999586Y-16508484D01*
X15999586Y-16508484D02*
X15980539Y-16508484D01*
X15980539Y-16508484D02*
X15961491Y-16498960D01*
X15961491Y-16498960D02*
X15951967Y-16489436D01*
X15951967Y-16489436D02*
X15942443Y-16470388D01*
X15942443Y-16470388D02*
X15932920Y-16432293D01*
X15932920Y-16432293D02*
X15932920Y-16384674D01*
X15932920Y-16384674D02*
X15942443Y-16346579D01*
X15942443Y-16346579D02*
X15951967Y-16327531D01*
X15951967Y-16327531D02*
X15961491Y-16318008D01*
X15961491Y-16318008D02*
X15980539Y-16308484D01*
X16132920Y-16508484D02*
X16132920Y-16375150D01*
X16132920Y-16394198D02*
X16142443Y-16384674D01*
X16142443Y-16384674D02*
X16161491Y-16375150D01*
X16161491Y-16375150D02*
X16190063Y-16375150D01*
X16190063Y-16375150D02*
X16209110Y-16384674D01*
X16209110Y-16384674D02*
X16218634Y-16403722D01*
X16218634Y-16403722D02*
X16218634Y-16508484D01*
X16218634Y-16403722D02*
X16228158Y-16384674D01*
X16228158Y-16384674D02*
X16247205Y-16375150D01*
X16247205Y-16375150D02*
X16275777Y-16375150D01*
X16275777Y-16375150D02*
X16294824Y-16384674D01*
X16294824Y-16384674D02*
X16304348Y-16403722D01*
X16304348Y-16403722D02*
X16304348Y-16508484D01*
X16399586Y-16508484D02*
X16399586Y-16375150D01*
X16399586Y-16394198D02*
X16409110Y-16384674D01*
X16409110Y-16384674D02*
X16428158Y-16375150D01*
X16428158Y-16375150D02*
X16456729Y-16375150D01*
X16456729Y-16375150D02*
X16475777Y-16384674D01*
X16475777Y-16384674D02*
X16485301Y-16403722D01*
X16485301Y-16403722D02*
X16485301Y-16508484D01*
X16485301Y-16403722D02*
X16494824Y-16384674D01*
X16494824Y-16384674D02*
X16513872Y-16375150D01*
X16513872Y-16375150D02*
X16542443Y-16375150D01*
X16542443Y-16375150D02*
X16561491Y-16384674D01*
X16561491Y-16384674D02*
X16571015Y-16403722D01*
X16571015Y-16403722D02*
X16571015Y-16508484D01*
X16961491Y-16298960D02*
X16790063Y-16556103D01*
X17218634Y-16308484D02*
X17237682Y-16308484D01*
X17237682Y-16308484D02*
X17256729Y-16318008D01*
X17256729Y-16318008D02*
X17266253Y-16327531D01*
X17266253Y-16327531D02*
X17275777Y-16346579D01*
X17275777Y-16346579D02*
X17285301Y-16384674D01*
X17285301Y-16384674D02*
X17285301Y-16432293D01*
X17285301Y-16432293D02*
X17275777Y-16470388D01*
X17275777Y-16470388D02*
X17266253Y-16489436D01*
X17266253Y-16489436D02*
X17256729Y-16498960D01*
X17256729Y-16498960D02*
X17237682Y-16508484D01*
X17237682Y-16508484D02*
X17218634Y-16508484D01*
X17218634Y-16508484D02*
X17199587Y-16498960D01*
X17199587Y-16498960D02*
X17190063Y-16489436D01*
X17190063Y-16489436D02*
X17180539Y-16470388D01*
X17180539Y-16470388D02*
X17171015Y-16432293D01*
X17171015Y-16432293D02*
X17171015Y-16384674D01*
X17171015Y-16384674D02*
X17180539Y-16346579D01*
X17180539Y-16346579D02*
X17190063Y-16327531D01*
X17190063Y-16327531D02*
X17199587Y-16318008D01*
X17199587Y-16318008D02*
X17218634Y-16308484D01*
X17371015Y-16489436D02*
X17380539Y-16498960D01*
X17380539Y-16498960D02*
X17371015Y-16508484D01*
X17371015Y-16508484D02*
X17361491Y-16498960D01*
X17361491Y-16498960D02*
X17371015Y-16489436D01*
X17371015Y-16489436D02*
X17371015Y-16508484D01*
X17504348Y-16308484D02*
X17523396Y-16308484D01*
X17523396Y-16308484D02*
X17542444Y-16318008D01*
X17542444Y-16318008D02*
X17551968Y-16327531D01*
X17551968Y-16327531D02*
X17561491Y-16346579D01*
X17561491Y-16346579D02*
X17571015Y-16384674D01*
X17571015Y-16384674D02*
X17571015Y-16432293D01*
X17571015Y-16432293D02*
X17561491Y-16470388D01*
X17561491Y-16470388D02*
X17551968Y-16489436D01*
X17551968Y-16489436D02*
X17542444Y-16498960D01*
X17542444Y-16498960D02*
X17523396Y-16508484D01*
X17523396Y-16508484D02*
X17504348Y-16508484D01*
X17504348Y-16508484D02*
X17485301Y-16498960D01*
X17485301Y-16498960D02*
X17475777Y-16489436D01*
X17475777Y-16489436D02*
X17466253Y-16470388D01*
X17466253Y-16470388D02*
X17456729Y-16432293D01*
X17456729Y-16432293D02*
X17456729Y-16384674D01*
X17456729Y-16384674D02*
X17466253Y-16346579D01*
X17466253Y-16346579D02*
X17475777Y-16327531D01*
X17475777Y-16327531D02*
X17485301Y-16318008D01*
X17485301Y-16318008D02*
X17504348Y-16308484D01*
X17647206Y-16327531D02*
X17656729Y-16318008D01*
X17656729Y-16318008D02*
X17675777Y-16308484D01*
X17675777Y-16308484D02*
X17723396Y-16308484D01*
X17723396Y-16308484D02*
X17742444Y-16318008D01*
X17742444Y-16318008D02*
X17751968Y-16327531D01*
X17751968Y-16327531D02*
X17761491Y-16346579D01*
X17761491Y-16346579D02*
X17761491Y-16365627D01*
X17761491Y-16365627D02*
X17751968Y-16394198D01*
X17751968Y-16394198D02*
X17637682Y-16508484D01*
X17637682Y-16508484D02*
X17761491Y-16508484D01*
X17828158Y-16308484D02*
X17961491Y-16308484D01*
X17961491Y-16308484D02*
X17875777Y-16508484D01*
X18123396Y-16308484D02*
X18085301Y-16308484D01*
X18085301Y-16308484D02*
X18066253Y-16318008D01*
X18066253Y-16318008D02*
X18056729Y-16327531D01*
X18056729Y-16327531D02*
X18037682Y-16356103D01*
X18037682Y-16356103D02*
X18028158Y-16394198D01*
X18028158Y-16394198D02*
X18028158Y-16470388D01*
X18028158Y-16470388D02*
X18037682Y-16489436D01*
X18037682Y-16489436D02*
X18047206Y-16498960D01*
X18047206Y-16498960D02*
X18066253Y-16508484D01*
X18066253Y-16508484D02*
X18104349Y-16508484D01*
X18104349Y-16508484D02*
X18123396Y-16498960D01*
X18123396Y-16498960D02*
X18132920Y-16489436D01*
X18132920Y-16489436D02*
X18142444Y-16470388D01*
X18142444Y-16470388D02*
X18142444Y-16422769D01*
X18142444Y-16422769D02*
X18132920Y-16403722D01*
X18132920Y-16403722D02*
X18123396Y-16394198D01*
X18123396Y-16394198D02*
X18104349Y-16384674D01*
X18104349Y-16384674D02*
X18066253Y-16384674D01*
X18066253Y-16384674D02*
X18047206Y-16394198D01*
X18047206Y-16394198D02*
X18037682Y-16403722D01*
X18037682Y-16403722D02*
X18028158Y-16422769D01*
X18218634Y-16308484D02*
X18218634Y-16346579D01*
X18294825Y-16308484D02*
X18294825Y-16346579D01*
X18590063Y-16584674D02*
X18580539Y-16575150D01*
X18580539Y-16575150D02*
X18561491Y-16546579D01*
X18561491Y-16546579D02*
X18551968Y-16527531D01*
X18551968Y-16527531D02*
X18542444Y-16498960D01*
X18542444Y-16498960D02*
X18532920Y-16451341D01*
X18532920Y-16451341D02*
X18532920Y-16413246D01*
X18532920Y-16413246D02*
X18542444Y-16365627D01*
X18542444Y-16365627D02*
X18551968Y-16337055D01*
X18551968Y-16337055D02*
X18561491Y-16318008D01*
X18561491Y-16318008D02*
X18580539Y-16289436D01*
X18580539Y-16289436D02*
X18590063Y-16279912D01*
X18704349Y-16308484D02*
X18723396Y-16308484D01*
X18723396Y-16308484D02*
X18742444Y-16318008D01*
X18742444Y-16318008D02*
X18751968Y-16327531D01*
X18751968Y-16327531D02*
X18761491Y-16346579D01*
X18761491Y-16346579D02*
X18771015Y-16384674D01*
X18771015Y-16384674D02*
X18771015Y-16432293D01*
X18771015Y-16432293D02*
X18761491Y-16470388D01*
X18761491Y-16470388D02*
X18751968Y-16489436D01*
X18751968Y-16489436D02*
X18742444Y-16498960D01*
X18742444Y-16498960D02*
X18723396Y-16508484D01*
X18723396Y-16508484D02*
X18704349Y-16508484D01*
X18704349Y-16508484D02*
X18685301Y-16498960D01*
X18685301Y-16498960D02*
X18675777Y-16489436D01*
X18675777Y-16489436D02*
X18666253Y-16470388D01*
X18666253Y-16470388D02*
X18656730Y-16432293D01*
X18656730Y-16432293D02*
X18656730Y-16384674D01*
X18656730Y-16384674D02*
X18666253Y-16346579D01*
X18666253Y-16346579D02*
X18675777Y-16327531D01*
X18675777Y-16327531D02*
X18685301Y-16318008D01*
X18685301Y-16318008D02*
X18704349Y-16308484D01*
X19009111Y-16508484D02*
X19009111Y-16308484D01*
X19094825Y-16508484D02*
X19094825Y-16403722D01*
X19094825Y-16403722D02*
X19085301Y-16384674D01*
X19085301Y-16384674D02*
X19066253Y-16375150D01*
X19066253Y-16375150D02*
X19037682Y-16375150D01*
X19037682Y-16375150D02*
X19018634Y-16384674D01*
X19018634Y-16384674D02*
X19009111Y-16394198D01*
X19218634Y-16508484D02*
X19199587Y-16498960D01*
X19199587Y-16498960D02*
X19190063Y-16489436D01*
X19190063Y-16489436D02*
X19180539Y-16470388D01*
X19180539Y-16470388D02*
X19180539Y-16413246D01*
X19180539Y-16413246D02*
X19190063Y-16394198D01*
X19190063Y-16394198D02*
X19199587Y-16384674D01*
X19199587Y-16384674D02*
X19218634Y-16375150D01*
X19218634Y-16375150D02*
X19247206Y-16375150D01*
X19247206Y-16375150D02*
X19266253Y-16384674D01*
X19266253Y-16384674D02*
X19275777Y-16394198D01*
X19275777Y-16394198D02*
X19285301Y-16413246D01*
X19285301Y-16413246D02*
X19285301Y-16470388D01*
X19285301Y-16470388D02*
X19275777Y-16489436D01*
X19275777Y-16489436D02*
X19266253Y-16498960D01*
X19266253Y-16498960D02*
X19247206Y-16508484D01*
X19247206Y-16508484D02*
X19218634Y-16508484D01*
X19399587Y-16508484D02*
X19380539Y-16498960D01*
X19380539Y-16498960D02*
X19371015Y-16479912D01*
X19371015Y-16479912D02*
X19371015Y-16308484D01*
X19551968Y-16498960D02*
X19532920Y-16508484D01*
X19532920Y-16508484D02*
X19494825Y-16508484D01*
X19494825Y-16508484D02*
X19475777Y-16498960D01*
X19475777Y-16498960D02*
X19466253Y-16479912D01*
X19466253Y-16479912D02*
X19466253Y-16403722D01*
X19466253Y-16403722D02*
X19475777Y-16384674D01*
X19475777Y-16384674D02*
X19494825Y-16375150D01*
X19494825Y-16375150D02*
X19532920Y-16375150D01*
X19532920Y-16375150D02*
X19551968Y-16384674D01*
X19551968Y-16384674D02*
X19561492Y-16403722D01*
X19561492Y-16403722D02*
X19561492Y-16422769D01*
X19561492Y-16422769D02*
X19466253Y-16441817D01*
X19637682Y-16498960D02*
X19656730Y-16508484D01*
X19656730Y-16508484D02*
X19694825Y-16508484D01*
X19694825Y-16508484D02*
X19713873Y-16498960D01*
X19713873Y-16498960D02*
X19723396Y-16479912D01*
X19723396Y-16479912D02*
X19723396Y-16470388D01*
X19723396Y-16470388D02*
X19713873Y-16451341D01*
X19713873Y-16451341D02*
X19694825Y-16441817D01*
X19694825Y-16441817D02*
X19666253Y-16441817D01*
X19666253Y-16441817D02*
X19647206Y-16432293D01*
X19647206Y-16432293D02*
X19637682Y-16413246D01*
X19637682Y-16413246D02*
X19637682Y-16403722D01*
X19637682Y-16403722D02*
X19647206Y-16384674D01*
X19647206Y-16384674D02*
X19666253Y-16375150D01*
X19666253Y-16375150D02*
X19694825Y-16375150D01*
X19694825Y-16375150D02*
X19713873Y-16384674D01*
X19961492Y-16432293D02*
X20113873Y-16432293D01*
X20037682Y-16508484D02*
X20037682Y-16356103D01*
X20351968Y-16327531D02*
X20361492Y-16318008D01*
X20361492Y-16318008D02*
X20380539Y-16308484D01*
X20380539Y-16308484D02*
X20428158Y-16308484D01*
X20428158Y-16308484D02*
X20447206Y-16318008D01*
X20447206Y-16318008D02*
X20456730Y-16327531D01*
X20456730Y-16327531D02*
X20466254Y-16346579D01*
X20466254Y-16346579D02*
X20466254Y-16365627D01*
X20466254Y-16365627D02*
X20456730Y-16394198D01*
X20456730Y-16394198D02*
X20342444Y-16508484D01*
X20342444Y-16508484D02*
X20466254Y-16508484D01*
X20694825Y-16498960D02*
X20713873Y-16508484D01*
X20713873Y-16508484D02*
X20751968Y-16508484D01*
X20751968Y-16508484D02*
X20771016Y-16498960D01*
X20771016Y-16498960D02*
X20780539Y-16479912D01*
X20780539Y-16479912D02*
X20780539Y-16470388D01*
X20780539Y-16470388D02*
X20771016Y-16451341D01*
X20771016Y-16451341D02*
X20751968Y-16441817D01*
X20751968Y-16441817D02*
X20723396Y-16441817D01*
X20723396Y-16441817D02*
X20704349Y-16432293D01*
X20704349Y-16432293D02*
X20694825Y-16413246D01*
X20694825Y-16413246D02*
X20694825Y-16403722D01*
X20694825Y-16403722D02*
X20704349Y-16384674D01*
X20704349Y-16384674D02*
X20723396Y-16375150D01*
X20723396Y-16375150D02*
X20751968Y-16375150D01*
X20751968Y-16375150D02*
X20771016Y-16384674D01*
X20894825Y-16508484D02*
X20875777Y-16498960D01*
X20875777Y-16498960D02*
X20866254Y-16479912D01*
X20866254Y-16479912D02*
X20866254Y-16308484D01*
X20999587Y-16508484D02*
X20980539Y-16498960D01*
X20980539Y-16498960D02*
X20971016Y-16489436D01*
X20971016Y-16489436D02*
X20961492Y-16470388D01*
X20961492Y-16470388D02*
X20961492Y-16413246D01*
X20961492Y-16413246D02*
X20971016Y-16394198D01*
X20971016Y-16394198D02*
X20980539Y-16384674D01*
X20980539Y-16384674D02*
X20999587Y-16375150D01*
X20999587Y-16375150D02*
X21028158Y-16375150D01*
X21028158Y-16375150D02*
X21047206Y-16384674D01*
X21047206Y-16384674D02*
X21056730Y-16394198D01*
X21056730Y-16394198D02*
X21066254Y-16413246D01*
X21066254Y-16413246D02*
X21066254Y-16470388D01*
X21066254Y-16470388D02*
X21056730Y-16489436D01*
X21056730Y-16489436D02*
X21047206Y-16498960D01*
X21047206Y-16498960D02*
X21028158Y-16508484D01*
X21028158Y-16508484D02*
X20999587Y-16508484D01*
X21123397Y-16375150D02*
X21199587Y-16375150D01*
X21151968Y-16308484D02*
X21151968Y-16479912D01*
X21151968Y-16479912D02*
X21161492Y-16498960D01*
X21161492Y-16498960D02*
X21180539Y-16508484D01*
X21180539Y-16508484D02*
X21199587Y-16508484D01*
X21256730Y-16498960D02*
X21275777Y-16508484D01*
X21275777Y-16508484D02*
X21313873Y-16508484D01*
X21313873Y-16508484D02*
X21332920Y-16498960D01*
X21332920Y-16498960D02*
X21342444Y-16479912D01*
X21342444Y-16479912D02*
X21342444Y-16470388D01*
X21342444Y-16470388D02*
X21332920Y-16451341D01*
X21332920Y-16451341D02*
X21313873Y-16441817D01*
X21313873Y-16441817D02*
X21285301Y-16441817D01*
X21285301Y-16441817D02*
X21266254Y-16432293D01*
X21266254Y-16432293D02*
X21256730Y-16413246D01*
X21256730Y-16413246D02*
X21256730Y-16403722D01*
X21256730Y-16403722D02*
X21266254Y-16384674D01*
X21266254Y-16384674D02*
X21285301Y-16375150D01*
X21285301Y-16375150D02*
X21313873Y-16375150D01*
X21313873Y-16375150D02*
X21332920Y-16384674D01*
X21409111Y-16584674D02*
X21418635Y-16575150D01*
X21418635Y-16575150D02*
X21437682Y-16546579D01*
X21437682Y-16546579D02*
X21447206Y-16527531D01*
X21447206Y-16527531D02*
X21456730Y-16498960D01*
X21456730Y-16498960D02*
X21466254Y-16451341D01*
X21466254Y-16451341D02*
X21466254Y-16413246D01*
X21466254Y-16413246D02*
X21456730Y-16365627D01*
X21456730Y-16365627D02*
X21447206Y-16337055D01*
X21447206Y-16337055D02*
X21437682Y-16318008D01*
X21437682Y-16318008D02*
X21418635Y-16289436D01*
X21418635Y-16289436D02*
X21409111Y-16279912D01*
D10*
X14975000Y-16721000D02*
X15015000Y-16681000D01*
X14975000Y-16641000D01*
X14935000Y-16681000D01*
X14975000Y-16721000D01*
D11*
X15313872Y-16572484D02*
X15332920Y-16572484D01*
X15332920Y-16572484D02*
X15351967Y-16582008D01*
X15351967Y-16582008D02*
X15361491Y-16591531D01*
X15361491Y-16591531D02*
X15371015Y-16610579D01*
X15371015Y-16610579D02*
X15380539Y-16648674D01*
X15380539Y-16648674D02*
X15380539Y-16696293D01*
X15380539Y-16696293D02*
X15371015Y-16734388D01*
X15371015Y-16734388D02*
X15361491Y-16753436D01*
X15361491Y-16753436D02*
X15351967Y-16762960D01*
X15351967Y-16762960D02*
X15332920Y-16772484D01*
X15332920Y-16772484D02*
X15313872Y-16772484D01*
X15313872Y-16772484D02*
X15294824Y-16762960D01*
X15294824Y-16762960D02*
X15285301Y-16753436D01*
X15285301Y-16753436D02*
X15275777Y-16734388D01*
X15275777Y-16734388D02*
X15266253Y-16696293D01*
X15266253Y-16696293D02*
X15266253Y-16648674D01*
X15266253Y-16648674D02*
X15275777Y-16610579D01*
X15275777Y-16610579D02*
X15285301Y-16591531D01*
X15285301Y-16591531D02*
X15294824Y-16582008D01*
X15294824Y-16582008D02*
X15313872Y-16572484D01*
X15466253Y-16753436D02*
X15475777Y-16762960D01*
X15475777Y-16762960D02*
X15466253Y-16772484D01*
X15466253Y-16772484D02*
X15456729Y-16762960D01*
X15456729Y-16762960D02*
X15466253Y-16753436D01*
X15466253Y-16753436D02*
X15466253Y-16772484D01*
X15590062Y-16658198D02*
X15571015Y-16648674D01*
X15571015Y-16648674D02*
X15561491Y-16639150D01*
X15561491Y-16639150D02*
X15551967Y-16620103D01*
X15551967Y-16620103D02*
X15551967Y-16610579D01*
X15551967Y-16610579D02*
X15561491Y-16591531D01*
X15561491Y-16591531D02*
X15571015Y-16582008D01*
X15571015Y-16582008D02*
X15590062Y-16572484D01*
X15590062Y-16572484D02*
X15628158Y-16572484D01*
X15628158Y-16572484D02*
X15647205Y-16582008D01*
X15647205Y-16582008D02*
X15656729Y-16591531D01*
X15656729Y-16591531D02*
X15666253Y-16610579D01*
X15666253Y-16610579D02*
X15666253Y-16620103D01*
X15666253Y-16620103D02*
X15656729Y-16639150D01*
X15656729Y-16639150D02*
X15647205Y-16648674D01*
X15647205Y-16648674D02*
X15628158Y-16658198D01*
X15628158Y-16658198D02*
X15590062Y-16658198D01*
X15590062Y-16658198D02*
X15571015Y-16667722D01*
X15571015Y-16667722D02*
X15561491Y-16677246D01*
X15561491Y-16677246D02*
X15551967Y-16696293D01*
X15551967Y-16696293D02*
X15551967Y-16734388D01*
X15551967Y-16734388D02*
X15561491Y-16753436D01*
X15561491Y-16753436D02*
X15571015Y-16762960D01*
X15571015Y-16762960D02*
X15590062Y-16772484D01*
X15590062Y-16772484D02*
X15628158Y-16772484D01*
X15628158Y-16772484D02*
X15647205Y-16762960D01*
X15647205Y-16762960D02*
X15656729Y-16753436D01*
X15656729Y-16753436D02*
X15666253Y-16734388D01*
X15666253Y-16734388D02*
X15666253Y-16696293D01*
X15666253Y-16696293D02*
X15656729Y-16677246D01*
X15656729Y-16677246D02*
X15647205Y-16667722D01*
X15647205Y-16667722D02*
X15628158Y-16658198D01*
X15790062Y-16572484D02*
X15809110Y-16572484D01*
X15809110Y-16572484D02*
X15828158Y-16582008D01*
X15828158Y-16582008D02*
X15837682Y-16591531D01*
X15837682Y-16591531D02*
X15847205Y-16610579D01*
X15847205Y-16610579D02*
X15856729Y-16648674D01*
X15856729Y-16648674D02*
X15856729Y-16696293D01*
X15856729Y-16696293D02*
X15847205Y-16734388D01*
X15847205Y-16734388D02*
X15837682Y-16753436D01*
X15837682Y-16753436D02*
X15828158Y-16762960D01*
X15828158Y-16762960D02*
X15809110Y-16772484D01*
X15809110Y-16772484D02*
X15790062Y-16772484D01*
X15790062Y-16772484D02*
X15771015Y-16762960D01*
X15771015Y-16762960D02*
X15761491Y-16753436D01*
X15761491Y-16753436D02*
X15751967Y-16734388D01*
X15751967Y-16734388D02*
X15742443Y-16696293D01*
X15742443Y-16696293D02*
X15742443Y-16648674D01*
X15742443Y-16648674D02*
X15751967Y-16610579D01*
X15751967Y-16610579D02*
X15761491Y-16591531D01*
X15761491Y-16591531D02*
X15771015Y-16582008D01*
X15771015Y-16582008D02*
X15790062Y-16572484D01*
X15980539Y-16572484D02*
X15999586Y-16572484D01*
X15999586Y-16572484D02*
X16018634Y-16582008D01*
X16018634Y-16582008D02*
X16028158Y-16591531D01*
X16028158Y-16591531D02*
X16037682Y-16610579D01*
X16037682Y-16610579D02*
X16047205Y-16648674D01*
X16047205Y-16648674D02*
X16047205Y-16696293D01*
X16047205Y-16696293D02*
X16037682Y-16734388D01*
X16037682Y-16734388D02*
X16028158Y-16753436D01*
X16028158Y-16753436D02*
X16018634Y-16762960D01*
X16018634Y-16762960D02*
X15999586Y-16772484D01*
X15999586Y-16772484D02*
X15980539Y-16772484D01*
X15980539Y-16772484D02*
X15961491Y-16762960D01*
X15961491Y-16762960D02*
X15951967Y-16753436D01*
X15951967Y-16753436D02*
X15942443Y-16734388D01*
X15942443Y-16734388D02*
X15932920Y-16696293D01*
X15932920Y-16696293D02*
X15932920Y-16648674D01*
X15932920Y-16648674D02*
X15942443Y-16610579D01*
X15942443Y-16610579D02*
X15951967Y-16591531D01*
X15951967Y-16591531D02*
X15961491Y-16582008D01*
X15961491Y-16582008D02*
X15980539Y-16572484D01*
X16132920Y-16772484D02*
X16132920Y-16639150D01*
X16132920Y-16658198D02*
X16142443Y-16648674D01*
X16142443Y-16648674D02*
X16161491Y-16639150D01*
X16161491Y-16639150D02*
X16190063Y-16639150D01*
X16190063Y-16639150D02*
X16209110Y-16648674D01*
X16209110Y-16648674D02*
X16218634Y-16667722D01*
X16218634Y-16667722D02*
X16218634Y-16772484D01*
X16218634Y-16667722D02*
X16228158Y-16648674D01*
X16228158Y-16648674D02*
X16247205Y-16639150D01*
X16247205Y-16639150D02*
X16275777Y-16639150D01*
X16275777Y-16639150D02*
X16294824Y-16648674D01*
X16294824Y-16648674D02*
X16304348Y-16667722D01*
X16304348Y-16667722D02*
X16304348Y-16772484D01*
X16399586Y-16772484D02*
X16399586Y-16639150D01*
X16399586Y-16658198D02*
X16409110Y-16648674D01*
X16409110Y-16648674D02*
X16428158Y-16639150D01*
X16428158Y-16639150D02*
X16456729Y-16639150D01*
X16456729Y-16639150D02*
X16475777Y-16648674D01*
X16475777Y-16648674D02*
X16485301Y-16667722D01*
X16485301Y-16667722D02*
X16485301Y-16772484D01*
X16485301Y-16667722D02*
X16494824Y-16648674D01*
X16494824Y-16648674D02*
X16513872Y-16639150D01*
X16513872Y-16639150D02*
X16542443Y-16639150D01*
X16542443Y-16639150D02*
X16561491Y-16648674D01*
X16561491Y-16648674D02*
X16571015Y-16667722D01*
X16571015Y-16667722D02*
X16571015Y-16772484D01*
X16961491Y-16562960D02*
X16790063Y-16820103D01*
X17218634Y-16572484D02*
X17237682Y-16572484D01*
X17237682Y-16572484D02*
X17256729Y-16582008D01*
X17256729Y-16582008D02*
X17266253Y-16591531D01*
X17266253Y-16591531D02*
X17275777Y-16610579D01*
X17275777Y-16610579D02*
X17285301Y-16648674D01*
X17285301Y-16648674D02*
X17285301Y-16696293D01*
X17285301Y-16696293D02*
X17275777Y-16734388D01*
X17275777Y-16734388D02*
X17266253Y-16753436D01*
X17266253Y-16753436D02*
X17256729Y-16762960D01*
X17256729Y-16762960D02*
X17237682Y-16772484D01*
X17237682Y-16772484D02*
X17218634Y-16772484D01*
X17218634Y-16772484D02*
X17199587Y-16762960D01*
X17199587Y-16762960D02*
X17190063Y-16753436D01*
X17190063Y-16753436D02*
X17180539Y-16734388D01*
X17180539Y-16734388D02*
X17171015Y-16696293D01*
X17171015Y-16696293D02*
X17171015Y-16648674D01*
X17171015Y-16648674D02*
X17180539Y-16610579D01*
X17180539Y-16610579D02*
X17190063Y-16591531D01*
X17190063Y-16591531D02*
X17199587Y-16582008D01*
X17199587Y-16582008D02*
X17218634Y-16572484D01*
X17371015Y-16753436D02*
X17380539Y-16762960D01*
X17380539Y-16762960D02*
X17371015Y-16772484D01*
X17371015Y-16772484D02*
X17361491Y-16762960D01*
X17361491Y-16762960D02*
X17371015Y-16753436D01*
X17371015Y-16753436D02*
X17371015Y-16772484D01*
X17504348Y-16572484D02*
X17523396Y-16572484D01*
X17523396Y-16572484D02*
X17542444Y-16582008D01*
X17542444Y-16582008D02*
X17551968Y-16591531D01*
X17551968Y-16591531D02*
X17561491Y-16610579D01*
X17561491Y-16610579D02*
X17571015Y-16648674D01*
X17571015Y-16648674D02*
X17571015Y-16696293D01*
X17571015Y-16696293D02*
X17561491Y-16734388D01*
X17561491Y-16734388D02*
X17551968Y-16753436D01*
X17551968Y-16753436D02*
X17542444Y-16762960D01*
X17542444Y-16762960D02*
X17523396Y-16772484D01*
X17523396Y-16772484D02*
X17504348Y-16772484D01*
X17504348Y-16772484D02*
X17485301Y-16762960D01*
X17485301Y-16762960D02*
X17475777Y-16753436D01*
X17475777Y-16753436D02*
X17466253Y-16734388D01*
X17466253Y-16734388D02*
X17456729Y-16696293D01*
X17456729Y-16696293D02*
X17456729Y-16648674D01*
X17456729Y-16648674D02*
X17466253Y-16610579D01*
X17466253Y-16610579D02*
X17475777Y-16591531D01*
X17475777Y-16591531D02*
X17485301Y-16582008D01*
X17485301Y-16582008D02*
X17504348Y-16572484D01*
X17637682Y-16572484D02*
X17761491Y-16572484D01*
X17761491Y-16572484D02*
X17694825Y-16648674D01*
X17694825Y-16648674D02*
X17723396Y-16648674D01*
X17723396Y-16648674D02*
X17742444Y-16658198D01*
X17742444Y-16658198D02*
X17751968Y-16667722D01*
X17751968Y-16667722D02*
X17761491Y-16686769D01*
X17761491Y-16686769D02*
X17761491Y-16734388D01*
X17761491Y-16734388D02*
X17751968Y-16753436D01*
X17751968Y-16753436D02*
X17742444Y-16762960D01*
X17742444Y-16762960D02*
X17723396Y-16772484D01*
X17723396Y-16772484D02*
X17666253Y-16772484D01*
X17666253Y-16772484D02*
X17647206Y-16762960D01*
X17647206Y-16762960D02*
X17637682Y-16753436D01*
X17951968Y-16772484D02*
X17837682Y-16772484D01*
X17894825Y-16772484D02*
X17894825Y-16572484D01*
X17894825Y-16572484D02*
X17875777Y-16601055D01*
X17875777Y-16601055D02*
X17856729Y-16620103D01*
X17856729Y-16620103D02*
X17837682Y-16629627D01*
X18132920Y-16572484D02*
X18037682Y-16572484D01*
X18037682Y-16572484D02*
X18028158Y-16667722D01*
X18028158Y-16667722D02*
X18037682Y-16658198D01*
X18037682Y-16658198D02*
X18056729Y-16648674D01*
X18056729Y-16648674D02*
X18104349Y-16648674D01*
X18104349Y-16648674D02*
X18123396Y-16658198D01*
X18123396Y-16658198D02*
X18132920Y-16667722D01*
X18132920Y-16667722D02*
X18142444Y-16686769D01*
X18142444Y-16686769D02*
X18142444Y-16734388D01*
X18142444Y-16734388D02*
X18132920Y-16753436D01*
X18132920Y-16753436D02*
X18123396Y-16762960D01*
X18123396Y-16762960D02*
X18104349Y-16772484D01*
X18104349Y-16772484D02*
X18056729Y-16772484D01*
X18056729Y-16772484D02*
X18037682Y-16762960D01*
X18037682Y-16762960D02*
X18028158Y-16753436D01*
X18218634Y-16572484D02*
X18218634Y-16610579D01*
X18294825Y-16572484D02*
X18294825Y-16610579D01*
X18590063Y-16848674D02*
X18580539Y-16839150D01*
X18580539Y-16839150D02*
X18561491Y-16810579D01*
X18561491Y-16810579D02*
X18551968Y-16791531D01*
X18551968Y-16791531D02*
X18542444Y-16762960D01*
X18542444Y-16762960D02*
X18532920Y-16715341D01*
X18532920Y-16715341D02*
X18532920Y-16677246D01*
X18532920Y-16677246D02*
X18542444Y-16629627D01*
X18542444Y-16629627D02*
X18551968Y-16601055D01*
X18551968Y-16601055D02*
X18561491Y-16582008D01*
X18561491Y-16582008D02*
X18580539Y-16553436D01*
X18580539Y-16553436D02*
X18590063Y-16543912D01*
X18694825Y-16658198D02*
X18675777Y-16648674D01*
X18675777Y-16648674D02*
X18666253Y-16639150D01*
X18666253Y-16639150D02*
X18656730Y-16620103D01*
X18656730Y-16620103D02*
X18656730Y-16610579D01*
X18656730Y-16610579D02*
X18666253Y-16591531D01*
X18666253Y-16591531D02*
X18675777Y-16582008D01*
X18675777Y-16582008D02*
X18694825Y-16572484D01*
X18694825Y-16572484D02*
X18732920Y-16572484D01*
X18732920Y-16572484D02*
X18751968Y-16582008D01*
X18751968Y-16582008D02*
X18761491Y-16591531D01*
X18761491Y-16591531D02*
X18771015Y-16610579D01*
X18771015Y-16610579D02*
X18771015Y-16620103D01*
X18771015Y-16620103D02*
X18761491Y-16639150D01*
X18761491Y-16639150D02*
X18751968Y-16648674D01*
X18751968Y-16648674D02*
X18732920Y-16658198D01*
X18732920Y-16658198D02*
X18694825Y-16658198D01*
X18694825Y-16658198D02*
X18675777Y-16667722D01*
X18675777Y-16667722D02*
X18666253Y-16677246D01*
X18666253Y-16677246D02*
X18656730Y-16696293D01*
X18656730Y-16696293D02*
X18656730Y-16734388D01*
X18656730Y-16734388D02*
X18666253Y-16753436D01*
X18666253Y-16753436D02*
X18675777Y-16762960D01*
X18675777Y-16762960D02*
X18694825Y-16772484D01*
X18694825Y-16772484D02*
X18732920Y-16772484D01*
X18732920Y-16772484D02*
X18751968Y-16762960D01*
X18751968Y-16762960D02*
X18761491Y-16753436D01*
X18761491Y-16753436D02*
X18771015Y-16734388D01*
X18771015Y-16734388D02*
X18771015Y-16696293D01*
X18771015Y-16696293D02*
X18761491Y-16677246D01*
X18761491Y-16677246D02*
X18751968Y-16667722D01*
X18751968Y-16667722D02*
X18732920Y-16658198D01*
X19009111Y-16772484D02*
X19009111Y-16572484D01*
X19094825Y-16772484D02*
X19094825Y-16667722D01*
X19094825Y-16667722D02*
X19085301Y-16648674D01*
X19085301Y-16648674D02*
X19066253Y-16639150D01*
X19066253Y-16639150D02*
X19037682Y-16639150D01*
X19037682Y-16639150D02*
X19018634Y-16648674D01*
X19018634Y-16648674D02*
X19009111Y-16658198D01*
X19218634Y-16772484D02*
X19199587Y-16762960D01*
X19199587Y-16762960D02*
X19190063Y-16753436D01*
X19190063Y-16753436D02*
X19180539Y-16734388D01*
X19180539Y-16734388D02*
X19180539Y-16677246D01*
X19180539Y-16677246D02*
X19190063Y-16658198D01*
X19190063Y-16658198D02*
X19199587Y-16648674D01*
X19199587Y-16648674D02*
X19218634Y-16639150D01*
X19218634Y-16639150D02*
X19247206Y-16639150D01*
X19247206Y-16639150D02*
X19266253Y-16648674D01*
X19266253Y-16648674D02*
X19275777Y-16658198D01*
X19275777Y-16658198D02*
X19285301Y-16677246D01*
X19285301Y-16677246D02*
X19285301Y-16734388D01*
X19285301Y-16734388D02*
X19275777Y-16753436D01*
X19275777Y-16753436D02*
X19266253Y-16762960D01*
X19266253Y-16762960D02*
X19247206Y-16772484D01*
X19247206Y-16772484D02*
X19218634Y-16772484D01*
X19399587Y-16772484D02*
X19380539Y-16762960D01*
X19380539Y-16762960D02*
X19371015Y-16743912D01*
X19371015Y-16743912D02*
X19371015Y-16572484D01*
X19551968Y-16762960D02*
X19532920Y-16772484D01*
X19532920Y-16772484D02*
X19494825Y-16772484D01*
X19494825Y-16772484D02*
X19475777Y-16762960D01*
X19475777Y-16762960D02*
X19466253Y-16743912D01*
X19466253Y-16743912D02*
X19466253Y-16667722D01*
X19466253Y-16667722D02*
X19475777Y-16648674D01*
X19475777Y-16648674D02*
X19494825Y-16639150D01*
X19494825Y-16639150D02*
X19532920Y-16639150D01*
X19532920Y-16639150D02*
X19551968Y-16648674D01*
X19551968Y-16648674D02*
X19561492Y-16667722D01*
X19561492Y-16667722D02*
X19561492Y-16686769D01*
X19561492Y-16686769D02*
X19466253Y-16705817D01*
X19637682Y-16762960D02*
X19656730Y-16772484D01*
X19656730Y-16772484D02*
X19694825Y-16772484D01*
X19694825Y-16772484D02*
X19713873Y-16762960D01*
X19713873Y-16762960D02*
X19723396Y-16743912D01*
X19723396Y-16743912D02*
X19723396Y-16734388D01*
X19723396Y-16734388D02*
X19713873Y-16715341D01*
X19713873Y-16715341D02*
X19694825Y-16705817D01*
X19694825Y-16705817D02*
X19666253Y-16705817D01*
X19666253Y-16705817D02*
X19647206Y-16696293D01*
X19647206Y-16696293D02*
X19637682Y-16677246D01*
X19637682Y-16677246D02*
X19637682Y-16667722D01*
X19637682Y-16667722D02*
X19647206Y-16648674D01*
X19647206Y-16648674D02*
X19666253Y-16639150D01*
X19666253Y-16639150D02*
X19694825Y-16639150D01*
X19694825Y-16639150D02*
X19713873Y-16648674D01*
X19790063Y-16848674D02*
X19799587Y-16839150D01*
X19799587Y-16839150D02*
X19818634Y-16810579D01*
X19818634Y-16810579D02*
X19828158Y-16791531D01*
X19828158Y-16791531D02*
X19837682Y-16762960D01*
X19837682Y-16762960D02*
X19847206Y-16715341D01*
X19847206Y-16715341D02*
X19847206Y-16677246D01*
X19847206Y-16677246D02*
X19837682Y-16629627D01*
X19837682Y-16629627D02*
X19828158Y-16601055D01*
X19828158Y-16601055D02*
X19818634Y-16582008D01*
X19818634Y-16582008D02*
X19799587Y-16553436D01*
X19799587Y-16553436D02*
X19790063Y-16543912D01*
D10*
X14915000Y-16895000D02*
X15015000Y-16995000D01*
X15015000Y-16895000D02*
X14915000Y-16995000D01*
X15015000Y-16945000D02*
G75*
G02*
X14915000Y-16945000I-50000J0D01*
G01*
X14915000Y-16945000D02*
G75*
G02*
X15015000Y-16945000I50000J0D01*
G01*
D11*
X15380539Y-17036484D02*
X15266253Y-17036484D01*
X15323396Y-17036484D02*
X15323396Y-16836484D01*
X15323396Y-16836484D02*
X15304348Y-16865055D01*
X15304348Y-16865055D02*
X15285301Y-16884103D01*
X15285301Y-16884103D02*
X15266253Y-16893627D01*
X15466253Y-17017436D02*
X15475777Y-17026960D01*
X15475777Y-17026960D02*
X15466253Y-17036484D01*
X15466253Y-17036484D02*
X15456729Y-17026960D01*
X15456729Y-17026960D02*
X15466253Y-17017436D01*
X15466253Y-17017436D02*
X15466253Y-17036484D01*
X15599586Y-16836484D02*
X15618634Y-16836484D01*
X15618634Y-16836484D02*
X15637682Y-16846008D01*
X15637682Y-16846008D02*
X15647205Y-16855531D01*
X15647205Y-16855531D02*
X15656729Y-16874579D01*
X15656729Y-16874579D02*
X15666253Y-16912674D01*
X15666253Y-16912674D02*
X15666253Y-16960293D01*
X15666253Y-16960293D02*
X15656729Y-16998389D01*
X15656729Y-16998389D02*
X15647205Y-17017436D01*
X15647205Y-17017436D02*
X15637682Y-17026960D01*
X15637682Y-17026960D02*
X15618634Y-17036484D01*
X15618634Y-17036484D02*
X15599586Y-17036484D01*
X15599586Y-17036484D02*
X15580539Y-17026960D01*
X15580539Y-17026960D02*
X15571015Y-17017436D01*
X15571015Y-17017436D02*
X15561491Y-16998389D01*
X15561491Y-16998389D02*
X15551967Y-16960293D01*
X15551967Y-16960293D02*
X15551967Y-16912674D01*
X15551967Y-16912674D02*
X15561491Y-16874579D01*
X15561491Y-16874579D02*
X15571015Y-16855531D01*
X15571015Y-16855531D02*
X15580539Y-16846008D01*
X15580539Y-16846008D02*
X15599586Y-16836484D01*
X15790062Y-16836484D02*
X15809110Y-16836484D01*
X15809110Y-16836484D02*
X15828158Y-16846008D01*
X15828158Y-16846008D02*
X15837682Y-16855531D01*
X15837682Y-16855531D02*
X15847205Y-16874579D01*
X15847205Y-16874579D02*
X15856729Y-16912674D01*
X15856729Y-16912674D02*
X15856729Y-16960293D01*
X15856729Y-16960293D02*
X15847205Y-16998389D01*
X15847205Y-16998389D02*
X15837682Y-17017436D01*
X15837682Y-17017436D02*
X15828158Y-17026960D01*
X15828158Y-17026960D02*
X15809110Y-17036484D01*
X15809110Y-17036484D02*
X15790062Y-17036484D01*
X15790062Y-17036484D02*
X15771015Y-17026960D01*
X15771015Y-17026960D02*
X15761491Y-17017436D01*
X15761491Y-17017436D02*
X15751967Y-16998389D01*
X15751967Y-16998389D02*
X15742443Y-16960293D01*
X15742443Y-16960293D02*
X15742443Y-16912674D01*
X15742443Y-16912674D02*
X15751967Y-16874579D01*
X15751967Y-16874579D02*
X15761491Y-16855531D01*
X15761491Y-16855531D02*
X15771015Y-16846008D01*
X15771015Y-16846008D02*
X15790062Y-16836484D01*
X15980539Y-16836484D02*
X15999586Y-16836484D01*
X15999586Y-16836484D02*
X16018634Y-16846008D01*
X16018634Y-16846008D02*
X16028158Y-16855531D01*
X16028158Y-16855531D02*
X16037682Y-16874579D01*
X16037682Y-16874579D02*
X16047205Y-16912674D01*
X16047205Y-16912674D02*
X16047205Y-16960293D01*
X16047205Y-16960293D02*
X16037682Y-16998389D01*
X16037682Y-16998389D02*
X16028158Y-17017436D01*
X16028158Y-17017436D02*
X16018634Y-17026960D01*
X16018634Y-17026960D02*
X15999586Y-17036484D01*
X15999586Y-17036484D02*
X15980539Y-17036484D01*
X15980539Y-17036484D02*
X15961491Y-17026960D01*
X15961491Y-17026960D02*
X15951967Y-17017436D01*
X15951967Y-17017436D02*
X15942443Y-16998389D01*
X15942443Y-16998389D02*
X15932920Y-16960293D01*
X15932920Y-16960293D02*
X15932920Y-16912674D01*
X15932920Y-16912674D02*
X15942443Y-16874579D01*
X15942443Y-16874579D02*
X15951967Y-16855531D01*
X15951967Y-16855531D02*
X15961491Y-16846008D01*
X15961491Y-16846008D02*
X15980539Y-16836484D01*
X16132920Y-17036484D02*
X16132920Y-16903150D01*
X16132920Y-16922198D02*
X16142443Y-16912674D01*
X16142443Y-16912674D02*
X16161491Y-16903150D01*
X16161491Y-16903150D02*
X16190063Y-16903150D01*
X16190063Y-16903150D02*
X16209110Y-16912674D01*
X16209110Y-16912674D02*
X16218634Y-16931722D01*
X16218634Y-16931722D02*
X16218634Y-17036484D01*
X16218634Y-16931722D02*
X16228158Y-16912674D01*
X16228158Y-16912674D02*
X16247205Y-16903150D01*
X16247205Y-16903150D02*
X16275777Y-16903150D01*
X16275777Y-16903150D02*
X16294824Y-16912674D01*
X16294824Y-16912674D02*
X16304348Y-16931722D01*
X16304348Y-16931722D02*
X16304348Y-17036484D01*
X16399586Y-17036484D02*
X16399586Y-16903150D01*
X16399586Y-16922198D02*
X16409110Y-16912674D01*
X16409110Y-16912674D02*
X16428158Y-16903150D01*
X16428158Y-16903150D02*
X16456729Y-16903150D01*
X16456729Y-16903150D02*
X16475777Y-16912674D01*
X16475777Y-16912674D02*
X16485301Y-16931722D01*
X16485301Y-16931722D02*
X16485301Y-17036484D01*
X16485301Y-16931722D02*
X16494824Y-16912674D01*
X16494824Y-16912674D02*
X16513872Y-16903150D01*
X16513872Y-16903150D02*
X16542443Y-16903150D01*
X16542443Y-16903150D02*
X16561491Y-16912674D01*
X16561491Y-16912674D02*
X16571015Y-16931722D01*
X16571015Y-16931722D02*
X16571015Y-17036484D01*
X16961491Y-16826960D02*
X16790063Y-17084103D01*
X17218634Y-16836484D02*
X17237682Y-16836484D01*
X17237682Y-16836484D02*
X17256729Y-16846008D01*
X17256729Y-16846008D02*
X17266253Y-16855531D01*
X17266253Y-16855531D02*
X17275777Y-16874579D01*
X17275777Y-16874579D02*
X17285301Y-16912674D01*
X17285301Y-16912674D02*
X17285301Y-16960293D01*
X17285301Y-16960293D02*
X17275777Y-16998389D01*
X17275777Y-16998389D02*
X17266253Y-17017436D01*
X17266253Y-17017436D02*
X17256729Y-17026960D01*
X17256729Y-17026960D02*
X17237682Y-17036484D01*
X17237682Y-17036484D02*
X17218634Y-17036484D01*
X17218634Y-17036484D02*
X17199587Y-17026960D01*
X17199587Y-17026960D02*
X17190063Y-17017436D01*
X17190063Y-17017436D02*
X17180539Y-16998389D01*
X17180539Y-16998389D02*
X17171015Y-16960293D01*
X17171015Y-16960293D02*
X17171015Y-16912674D01*
X17171015Y-16912674D02*
X17180539Y-16874579D01*
X17180539Y-16874579D02*
X17190063Y-16855531D01*
X17190063Y-16855531D02*
X17199587Y-16846008D01*
X17199587Y-16846008D02*
X17218634Y-16836484D01*
X17371015Y-17017436D02*
X17380539Y-17026960D01*
X17380539Y-17026960D02*
X17371015Y-17036484D01*
X17371015Y-17036484D02*
X17361491Y-17026960D01*
X17361491Y-17026960D02*
X17371015Y-17017436D01*
X17371015Y-17017436D02*
X17371015Y-17036484D01*
X17504348Y-16836484D02*
X17523396Y-16836484D01*
X17523396Y-16836484D02*
X17542444Y-16846008D01*
X17542444Y-16846008D02*
X17551968Y-16855531D01*
X17551968Y-16855531D02*
X17561491Y-16874579D01*
X17561491Y-16874579D02*
X17571015Y-16912674D01*
X17571015Y-16912674D02*
X17571015Y-16960293D01*
X17571015Y-16960293D02*
X17561491Y-16998389D01*
X17561491Y-16998389D02*
X17551968Y-17017436D01*
X17551968Y-17017436D02*
X17542444Y-17026960D01*
X17542444Y-17026960D02*
X17523396Y-17036484D01*
X17523396Y-17036484D02*
X17504348Y-17036484D01*
X17504348Y-17036484D02*
X17485301Y-17026960D01*
X17485301Y-17026960D02*
X17475777Y-17017436D01*
X17475777Y-17017436D02*
X17466253Y-16998389D01*
X17466253Y-16998389D02*
X17456729Y-16960293D01*
X17456729Y-16960293D02*
X17456729Y-16912674D01*
X17456729Y-16912674D02*
X17466253Y-16874579D01*
X17466253Y-16874579D02*
X17475777Y-16855531D01*
X17475777Y-16855531D02*
X17485301Y-16846008D01*
X17485301Y-16846008D02*
X17504348Y-16836484D01*
X17637682Y-16836484D02*
X17761491Y-16836484D01*
X17761491Y-16836484D02*
X17694825Y-16912674D01*
X17694825Y-16912674D02*
X17723396Y-16912674D01*
X17723396Y-16912674D02*
X17742444Y-16922198D01*
X17742444Y-16922198D02*
X17751968Y-16931722D01*
X17751968Y-16931722D02*
X17761491Y-16950770D01*
X17761491Y-16950770D02*
X17761491Y-16998389D01*
X17761491Y-16998389D02*
X17751968Y-17017436D01*
X17751968Y-17017436D02*
X17742444Y-17026960D01*
X17742444Y-17026960D02*
X17723396Y-17036484D01*
X17723396Y-17036484D02*
X17666253Y-17036484D01*
X17666253Y-17036484D02*
X17647206Y-17026960D01*
X17647206Y-17026960D02*
X17637682Y-17017436D01*
X17856729Y-17036484D02*
X17894825Y-17036484D01*
X17894825Y-17036484D02*
X17913872Y-17026960D01*
X17913872Y-17026960D02*
X17923396Y-17017436D01*
X17923396Y-17017436D02*
X17942444Y-16988865D01*
X17942444Y-16988865D02*
X17951968Y-16950770D01*
X17951968Y-16950770D02*
X17951968Y-16874579D01*
X17951968Y-16874579D02*
X17942444Y-16855531D01*
X17942444Y-16855531D02*
X17932920Y-16846008D01*
X17932920Y-16846008D02*
X17913872Y-16836484D01*
X17913872Y-16836484D02*
X17875777Y-16836484D01*
X17875777Y-16836484D02*
X17856729Y-16846008D01*
X17856729Y-16846008D02*
X17847206Y-16855531D01*
X17847206Y-16855531D02*
X17837682Y-16874579D01*
X17837682Y-16874579D02*
X17837682Y-16922198D01*
X17837682Y-16922198D02*
X17847206Y-16941246D01*
X17847206Y-16941246D02*
X17856729Y-16950770D01*
X17856729Y-16950770D02*
X17875777Y-16960293D01*
X17875777Y-16960293D02*
X17913872Y-16960293D01*
X17913872Y-16960293D02*
X17932920Y-16950770D01*
X17932920Y-16950770D02*
X17942444Y-16941246D01*
X17942444Y-16941246D02*
X17951968Y-16922198D01*
X18123396Y-16903150D02*
X18123396Y-17036484D01*
X18075777Y-16826960D02*
X18028158Y-16969817D01*
X18028158Y-16969817D02*
X18151968Y-16969817D01*
X18218634Y-16836484D02*
X18218634Y-16874579D01*
X18294825Y-16836484D02*
X18294825Y-16874579D01*
X18590063Y-17112674D02*
X18580539Y-17103150D01*
X18580539Y-17103150D02*
X18561491Y-17074579D01*
X18561491Y-17074579D02*
X18551968Y-17055531D01*
X18551968Y-17055531D02*
X18542444Y-17026960D01*
X18542444Y-17026960D02*
X18532920Y-16979341D01*
X18532920Y-16979341D02*
X18532920Y-16941246D01*
X18532920Y-16941246D02*
X18542444Y-16893627D01*
X18542444Y-16893627D02*
X18551968Y-16865055D01*
X18551968Y-16865055D02*
X18561491Y-16846008D01*
X18561491Y-16846008D02*
X18580539Y-16817436D01*
X18580539Y-16817436D02*
X18590063Y-16807912D01*
X18771015Y-17036484D02*
X18656730Y-17036484D01*
X18713872Y-17036484D02*
X18713872Y-16836484D01*
X18713872Y-16836484D02*
X18694825Y-16865055D01*
X18694825Y-16865055D02*
X18675777Y-16884103D01*
X18675777Y-16884103D02*
X18656730Y-16893627D01*
X18942444Y-16903150D02*
X18942444Y-17036484D01*
X18894825Y-16826960D02*
X18847206Y-16969817D01*
X18847206Y-16969817D02*
X18971015Y-16969817D01*
X19075777Y-16922198D02*
X19056730Y-16912674D01*
X19056730Y-16912674D02*
X19047206Y-16903150D01*
X19047206Y-16903150D02*
X19037682Y-16884103D01*
X19037682Y-16884103D02*
X19037682Y-16874579D01*
X19037682Y-16874579D02*
X19047206Y-16855531D01*
X19047206Y-16855531D02*
X19056730Y-16846008D01*
X19056730Y-16846008D02*
X19075777Y-16836484D01*
X19075777Y-16836484D02*
X19113872Y-16836484D01*
X19113872Y-16836484D02*
X19132920Y-16846008D01*
X19132920Y-16846008D02*
X19142444Y-16855531D01*
X19142444Y-16855531D02*
X19151968Y-16874579D01*
X19151968Y-16874579D02*
X19151968Y-16884103D01*
X19151968Y-16884103D02*
X19142444Y-16903150D01*
X19142444Y-16903150D02*
X19132920Y-16912674D01*
X19132920Y-16912674D02*
X19113872Y-16922198D01*
X19113872Y-16922198D02*
X19075777Y-16922198D01*
X19075777Y-16922198D02*
X19056730Y-16931722D01*
X19056730Y-16931722D02*
X19047206Y-16941246D01*
X19047206Y-16941246D02*
X19037682Y-16960293D01*
X19037682Y-16960293D02*
X19037682Y-16998389D01*
X19037682Y-16998389D02*
X19047206Y-17017436D01*
X19047206Y-17017436D02*
X19056730Y-17026960D01*
X19056730Y-17026960D02*
X19075777Y-17036484D01*
X19075777Y-17036484D02*
X19113872Y-17036484D01*
X19113872Y-17036484D02*
X19132920Y-17026960D01*
X19132920Y-17026960D02*
X19142444Y-17017436D01*
X19142444Y-17017436D02*
X19151968Y-16998389D01*
X19151968Y-16998389D02*
X19151968Y-16960293D01*
X19151968Y-16960293D02*
X19142444Y-16941246D01*
X19142444Y-16941246D02*
X19132920Y-16931722D01*
X19132920Y-16931722D02*
X19113872Y-16922198D01*
X19390063Y-17036484D02*
X19390063Y-16836484D01*
X19475777Y-17036484D02*
X19475777Y-16931722D01*
X19475777Y-16931722D02*
X19466253Y-16912674D01*
X19466253Y-16912674D02*
X19447206Y-16903150D01*
X19447206Y-16903150D02*
X19418634Y-16903150D01*
X19418634Y-16903150D02*
X19399587Y-16912674D01*
X19399587Y-16912674D02*
X19390063Y-16922198D01*
X19599587Y-17036484D02*
X19580539Y-17026960D01*
X19580539Y-17026960D02*
X19571015Y-17017436D01*
X19571015Y-17017436D02*
X19561492Y-16998389D01*
X19561492Y-16998389D02*
X19561492Y-16941246D01*
X19561492Y-16941246D02*
X19571015Y-16922198D01*
X19571015Y-16922198D02*
X19580539Y-16912674D01*
X19580539Y-16912674D02*
X19599587Y-16903150D01*
X19599587Y-16903150D02*
X19628158Y-16903150D01*
X19628158Y-16903150D02*
X19647206Y-16912674D01*
X19647206Y-16912674D02*
X19656730Y-16922198D01*
X19656730Y-16922198D02*
X19666253Y-16941246D01*
X19666253Y-16941246D02*
X19666253Y-16998389D01*
X19666253Y-16998389D02*
X19656730Y-17017436D01*
X19656730Y-17017436D02*
X19647206Y-17026960D01*
X19647206Y-17026960D02*
X19628158Y-17036484D01*
X19628158Y-17036484D02*
X19599587Y-17036484D01*
X19780539Y-17036484D02*
X19761492Y-17026960D01*
X19761492Y-17026960D02*
X19751968Y-17007912D01*
X19751968Y-17007912D02*
X19751968Y-16836484D01*
X19932920Y-17026960D02*
X19913873Y-17036484D01*
X19913873Y-17036484D02*
X19875777Y-17036484D01*
X19875777Y-17036484D02*
X19856730Y-17026960D01*
X19856730Y-17026960D02*
X19847206Y-17007912D01*
X19847206Y-17007912D02*
X19847206Y-16931722D01*
X19847206Y-16931722D02*
X19856730Y-16912674D01*
X19856730Y-16912674D02*
X19875777Y-16903150D01*
X19875777Y-16903150D02*
X19913873Y-16903150D01*
X19913873Y-16903150D02*
X19932920Y-16912674D01*
X19932920Y-16912674D02*
X19942444Y-16931722D01*
X19942444Y-16931722D02*
X19942444Y-16950770D01*
X19942444Y-16950770D02*
X19847206Y-16969817D01*
X20018634Y-17026960D02*
X20037682Y-17036484D01*
X20037682Y-17036484D02*
X20075777Y-17036484D01*
X20075777Y-17036484D02*
X20094825Y-17026960D01*
X20094825Y-17026960D02*
X20104349Y-17007912D01*
X20104349Y-17007912D02*
X20104349Y-16998389D01*
X20104349Y-16998389D02*
X20094825Y-16979341D01*
X20094825Y-16979341D02*
X20075777Y-16969817D01*
X20075777Y-16969817D02*
X20047206Y-16969817D01*
X20047206Y-16969817D02*
X20028158Y-16960293D01*
X20028158Y-16960293D02*
X20018634Y-16941246D01*
X20018634Y-16941246D02*
X20018634Y-16931722D01*
X20018634Y-16931722D02*
X20028158Y-16912674D01*
X20028158Y-16912674D02*
X20047206Y-16903150D01*
X20047206Y-16903150D02*
X20075777Y-16903150D01*
X20075777Y-16903150D02*
X20094825Y-16912674D01*
X20171015Y-17112674D02*
X20180539Y-17103150D01*
X20180539Y-17103150D02*
X20199587Y-17074579D01*
X20199587Y-17074579D02*
X20209111Y-17055531D01*
X20209111Y-17055531D02*
X20218634Y-17026960D01*
X20218634Y-17026960D02*
X20228158Y-16979341D01*
X20228158Y-16979341D02*
X20228158Y-16941246D01*
X20228158Y-16941246D02*
X20218634Y-16893627D01*
X20218634Y-16893627D02*
X20209111Y-16865055D01*
X20209111Y-16865055D02*
X20199587Y-16846008D01*
X20199587Y-16846008D02*
X20180539Y-16817436D01*
X20180539Y-16817436D02*
X20171015Y-16807912D01*
D12*
X14882000Y-17142500D02*
X15015000Y-17275500D01*
X15015000Y-17142500D02*
X14882000Y-17275500D01*
X14948500Y-17142500D02*
X14948500Y-17275500D01*
X14882000Y-17209000D02*
X15015000Y-17209000D01*
D11*
X15380539Y-17300484D02*
X15266253Y-17300484D01*
X15323396Y-17300484D02*
X15323396Y-17100484D01*
X15323396Y-17100484D02*
X15304348Y-17129055D01*
X15304348Y-17129055D02*
X15285301Y-17148103D01*
X15285301Y-17148103D02*
X15266253Y-17157627D01*
X15466253Y-17281436D02*
X15475777Y-17290960D01*
X15475777Y-17290960D02*
X15466253Y-17300484D01*
X15466253Y-17300484D02*
X15456729Y-17290960D01*
X15456729Y-17290960D02*
X15466253Y-17281436D01*
X15466253Y-17281436D02*
X15466253Y-17300484D01*
X15542443Y-17100484D02*
X15666253Y-17100484D01*
X15666253Y-17100484D02*
X15599586Y-17176674D01*
X15599586Y-17176674D02*
X15628158Y-17176674D01*
X15628158Y-17176674D02*
X15647205Y-17186198D01*
X15647205Y-17186198D02*
X15656729Y-17195722D01*
X15656729Y-17195722D02*
X15666253Y-17214770D01*
X15666253Y-17214770D02*
X15666253Y-17262389D01*
X15666253Y-17262389D02*
X15656729Y-17281436D01*
X15656729Y-17281436D02*
X15647205Y-17290960D01*
X15647205Y-17290960D02*
X15628158Y-17300484D01*
X15628158Y-17300484D02*
X15571015Y-17300484D01*
X15571015Y-17300484D02*
X15551967Y-17290960D01*
X15551967Y-17290960D02*
X15542443Y-17281436D01*
X15732920Y-17100484D02*
X15856729Y-17100484D01*
X15856729Y-17100484D02*
X15790062Y-17176674D01*
X15790062Y-17176674D02*
X15818634Y-17176674D01*
X15818634Y-17176674D02*
X15837682Y-17186198D01*
X15837682Y-17186198D02*
X15847205Y-17195722D01*
X15847205Y-17195722D02*
X15856729Y-17214770D01*
X15856729Y-17214770D02*
X15856729Y-17262389D01*
X15856729Y-17262389D02*
X15847205Y-17281436D01*
X15847205Y-17281436D02*
X15837682Y-17290960D01*
X15837682Y-17290960D02*
X15818634Y-17300484D01*
X15818634Y-17300484D02*
X15761491Y-17300484D01*
X15761491Y-17300484D02*
X15742443Y-17290960D01*
X15742443Y-17290960D02*
X15732920Y-17281436D01*
X15980539Y-17100484D02*
X15999586Y-17100484D01*
X15999586Y-17100484D02*
X16018634Y-17110008D01*
X16018634Y-17110008D02*
X16028158Y-17119531D01*
X16028158Y-17119531D02*
X16037682Y-17138579D01*
X16037682Y-17138579D02*
X16047205Y-17176674D01*
X16047205Y-17176674D02*
X16047205Y-17224293D01*
X16047205Y-17224293D02*
X16037682Y-17262389D01*
X16037682Y-17262389D02*
X16028158Y-17281436D01*
X16028158Y-17281436D02*
X16018634Y-17290960D01*
X16018634Y-17290960D02*
X15999586Y-17300484D01*
X15999586Y-17300484D02*
X15980539Y-17300484D01*
X15980539Y-17300484D02*
X15961491Y-17290960D01*
X15961491Y-17290960D02*
X15951967Y-17281436D01*
X15951967Y-17281436D02*
X15942443Y-17262389D01*
X15942443Y-17262389D02*
X15932920Y-17224293D01*
X15932920Y-17224293D02*
X15932920Y-17176674D01*
X15932920Y-17176674D02*
X15942443Y-17138579D01*
X15942443Y-17138579D02*
X15951967Y-17119531D01*
X15951967Y-17119531D02*
X15961491Y-17110008D01*
X15961491Y-17110008D02*
X15980539Y-17100484D01*
X16132920Y-17300484D02*
X16132920Y-17167150D01*
X16132920Y-17186198D02*
X16142443Y-17176674D01*
X16142443Y-17176674D02*
X16161491Y-17167150D01*
X16161491Y-17167150D02*
X16190063Y-17167150D01*
X16190063Y-17167150D02*
X16209110Y-17176674D01*
X16209110Y-17176674D02*
X16218634Y-17195722D01*
X16218634Y-17195722D02*
X16218634Y-17300484D01*
X16218634Y-17195722D02*
X16228158Y-17176674D01*
X16228158Y-17176674D02*
X16247205Y-17167150D01*
X16247205Y-17167150D02*
X16275777Y-17167150D01*
X16275777Y-17167150D02*
X16294824Y-17176674D01*
X16294824Y-17176674D02*
X16304348Y-17195722D01*
X16304348Y-17195722D02*
X16304348Y-17300484D01*
X16399586Y-17300484D02*
X16399586Y-17167150D01*
X16399586Y-17186198D02*
X16409110Y-17176674D01*
X16409110Y-17176674D02*
X16428158Y-17167150D01*
X16428158Y-17167150D02*
X16456729Y-17167150D01*
X16456729Y-17167150D02*
X16475777Y-17176674D01*
X16475777Y-17176674D02*
X16485301Y-17195722D01*
X16485301Y-17195722D02*
X16485301Y-17300484D01*
X16485301Y-17195722D02*
X16494824Y-17176674D01*
X16494824Y-17176674D02*
X16513872Y-17167150D01*
X16513872Y-17167150D02*
X16542443Y-17167150D01*
X16542443Y-17167150D02*
X16561491Y-17176674D01*
X16561491Y-17176674D02*
X16571015Y-17195722D01*
X16571015Y-17195722D02*
X16571015Y-17300484D01*
X16961491Y-17090960D02*
X16790063Y-17348103D01*
X17218634Y-17100484D02*
X17237682Y-17100484D01*
X17237682Y-17100484D02*
X17256729Y-17110008D01*
X17256729Y-17110008D02*
X17266253Y-17119531D01*
X17266253Y-17119531D02*
X17275777Y-17138579D01*
X17275777Y-17138579D02*
X17285301Y-17176674D01*
X17285301Y-17176674D02*
X17285301Y-17224293D01*
X17285301Y-17224293D02*
X17275777Y-17262389D01*
X17275777Y-17262389D02*
X17266253Y-17281436D01*
X17266253Y-17281436D02*
X17256729Y-17290960D01*
X17256729Y-17290960D02*
X17237682Y-17300484D01*
X17237682Y-17300484D02*
X17218634Y-17300484D01*
X17218634Y-17300484D02*
X17199587Y-17290960D01*
X17199587Y-17290960D02*
X17190063Y-17281436D01*
X17190063Y-17281436D02*
X17180539Y-17262389D01*
X17180539Y-17262389D02*
X17171015Y-17224293D01*
X17171015Y-17224293D02*
X17171015Y-17176674D01*
X17171015Y-17176674D02*
X17180539Y-17138579D01*
X17180539Y-17138579D02*
X17190063Y-17119531D01*
X17190063Y-17119531D02*
X17199587Y-17110008D01*
X17199587Y-17110008D02*
X17218634Y-17100484D01*
X17371015Y-17281436D02*
X17380539Y-17290960D01*
X17380539Y-17290960D02*
X17371015Y-17300484D01*
X17371015Y-17300484D02*
X17361491Y-17290960D01*
X17361491Y-17290960D02*
X17371015Y-17281436D01*
X17371015Y-17281436D02*
X17371015Y-17300484D01*
X17504348Y-17100484D02*
X17523396Y-17100484D01*
X17523396Y-17100484D02*
X17542444Y-17110008D01*
X17542444Y-17110008D02*
X17551968Y-17119531D01*
X17551968Y-17119531D02*
X17561491Y-17138579D01*
X17561491Y-17138579D02*
X17571015Y-17176674D01*
X17571015Y-17176674D02*
X17571015Y-17224293D01*
X17571015Y-17224293D02*
X17561491Y-17262389D01*
X17561491Y-17262389D02*
X17551968Y-17281436D01*
X17551968Y-17281436D02*
X17542444Y-17290960D01*
X17542444Y-17290960D02*
X17523396Y-17300484D01*
X17523396Y-17300484D02*
X17504348Y-17300484D01*
X17504348Y-17300484D02*
X17485301Y-17290960D01*
X17485301Y-17290960D02*
X17475777Y-17281436D01*
X17475777Y-17281436D02*
X17466253Y-17262389D01*
X17466253Y-17262389D02*
X17456729Y-17224293D01*
X17456729Y-17224293D02*
X17456729Y-17176674D01*
X17456729Y-17176674D02*
X17466253Y-17138579D01*
X17466253Y-17138579D02*
X17475777Y-17119531D01*
X17475777Y-17119531D02*
X17485301Y-17110008D01*
X17485301Y-17110008D02*
X17504348Y-17100484D01*
X17751968Y-17100484D02*
X17656729Y-17100484D01*
X17656729Y-17100484D02*
X17647206Y-17195722D01*
X17647206Y-17195722D02*
X17656729Y-17186198D01*
X17656729Y-17186198D02*
X17675777Y-17176674D01*
X17675777Y-17176674D02*
X17723396Y-17176674D01*
X17723396Y-17176674D02*
X17742444Y-17186198D01*
X17742444Y-17186198D02*
X17751968Y-17195722D01*
X17751968Y-17195722D02*
X17761491Y-17214770D01*
X17761491Y-17214770D02*
X17761491Y-17262389D01*
X17761491Y-17262389D02*
X17751968Y-17281436D01*
X17751968Y-17281436D02*
X17742444Y-17290960D01*
X17742444Y-17290960D02*
X17723396Y-17300484D01*
X17723396Y-17300484D02*
X17675777Y-17300484D01*
X17675777Y-17300484D02*
X17656729Y-17290960D01*
X17656729Y-17290960D02*
X17647206Y-17281436D01*
X17837682Y-17119531D02*
X17847206Y-17110008D01*
X17847206Y-17110008D02*
X17866253Y-17100484D01*
X17866253Y-17100484D02*
X17913872Y-17100484D01*
X17913872Y-17100484D02*
X17932920Y-17110008D01*
X17932920Y-17110008D02*
X17942444Y-17119531D01*
X17942444Y-17119531D02*
X17951968Y-17138579D01*
X17951968Y-17138579D02*
X17951968Y-17157627D01*
X17951968Y-17157627D02*
X17942444Y-17186198D01*
X17942444Y-17186198D02*
X17828158Y-17300484D01*
X17828158Y-17300484D02*
X17951968Y-17300484D01*
X18123396Y-17167150D02*
X18123396Y-17300484D01*
X18075777Y-17090960D02*
X18028158Y-17233817D01*
X18028158Y-17233817D02*
X18151968Y-17233817D01*
X18218634Y-17100484D02*
X18218634Y-17138579D01*
X18294825Y-17100484D02*
X18294825Y-17138579D01*
X18590063Y-17376674D02*
X18580539Y-17367150D01*
X18580539Y-17367150D02*
X18561491Y-17338579D01*
X18561491Y-17338579D02*
X18551968Y-17319531D01*
X18551968Y-17319531D02*
X18542444Y-17290960D01*
X18542444Y-17290960D02*
X18532920Y-17243341D01*
X18532920Y-17243341D02*
X18532920Y-17205246D01*
X18532920Y-17205246D02*
X18542444Y-17157627D01*
X18542444Y-17157627D02*
X18551968Y-17129055D01*
X18551968Y-17129055D02*
X18561491Y-17110008D01*
X18561491Y-17110008D02*
X18580539Y-17081436D01*
X18580539Y-17081436D02*
X18590063Y-17071912D01*
X18751968Y-17167150D02*
X18751968Y-17300484D01*
X18704349Y-17090960D02*
X18656730Y-17233817D01*
X18656730Y-17233817D02*
X18780539Y-17233817D01*
X19009111Y-17300484D02*
X19009111Y-17100484D01*
X19094825Y-17300484D02*
X19094825Y-17195722D01*
X19094825Y-17195722D02*
X19085301Y-17176674D01*
X19085301Y-17176674D02*
X19066253Y-17167150D01*
X19066253Y-17167150D02*
X19037682Y-17167150D01*
X19037682Y-17167150D02*
X19018634Y-17176674D01*
X19018634Y-17176674D02*
X19009111Y-17186198D01*
X19218634Y-17300484D02*
X19199587Y-17290960D01*
X19199587Y-17290960D02*
X19190063Y-17281436D01*
X19190063Y-17281436D02*
X19180539Y-17262389D01*
X19180539Y-17262389D02*
X19180539Y-17205246D01*
X19180539Y-17205246D02*
X19190063Y-17186198D01*
X19190063Y-17186198D02*
X19199587Y-17176674D01*
X19199587Y-17176674D02*
X19218634Y-17167150D01*
X19218634Y-17167150D02*
X19247206Y-17167150D01*
X19247206Y-17167150D02*
X19266253Y-17176674D01*
X19266253Y-17176674D02*
X19275777Y-17186198D01*
X19275777Y-17186198D02*
X19285301Y-17205246D01*
X19285301Y-17205246D02*
X19285301Y-17262389D01*
X19285301Y-17262389D02*
X19275777Y-17281436D01*
X19275777Y-17281436D02*
X19266253Y-17290960D01*
X19266253Y-17290960D02*
X19247206Y-17300484D01*
X19247206Y-17300484D02*
X19218634Y-17300484D01*
X19399587Y-17300484D02*
X19380539Y-17290960D01*
X19380539Y-17290960D02*
X19371015Y-17271912D01*
X19371015Y-17271912D02*
X19371015Y-17100484D01*
X19551968Y-17290960D02*
X19532920Y-17300484D01*
X19532920Y-17300484D02*
X19494825Y-17300484D01*
X19494825Y-17300484D02*
X19475777Y-17290960D01*
X19475777Y-17290960D02*
X19466253Y-17271912D01*
X19466253Y-17271912D02*
X19466253Y-17195722D01*
X19466253Y-17195722D02*
X19475777Y-17176674D01*
X19475777Y-17176674D02*
X19494825Y-17167150D01*
X19494825Y-17167150D02*
X19532920Y-17167150D01*
X19532920Y-17167150D02*
X19551968Y-17176674D01*
X19551968Y-17176674D02*
X19561492Y-17195722D01*
X19561492Y-17195722D02*
X19561492Y-17214770D01*
X19561492Y-17214770D02*
X19466253Y-17233817D01*
X19637682Y-17290960D02*
X19656730Y-17300484D01*
X19656730Y-17300484D02*
X19694825Y-17300484D01*
X19694825Y-17300484D02*
X19713873Y-17290960D01*
X19713873Y-17290960D02*
X19723396Y-17271912D01*
X19723396Y-17271912D02*
X19723396Y-17262389D01*
X19723396Y-17262389D02*
X19713873Y-17243341D01*
X19713873Y-17243341D02*
X19694825Y-17233817D01*
X19694825Y-17233817D02*
X19666253Y-17233817D01*
X19666253Y-17233817D02*
X19647206Y-17224293D01*
X19647206Y-17224293D02*
X19637682Y-17205246D01*
X19637682Y-17205246D02*
X19637682Y-17195722D01*
X19637682Y-17195722D02*
X19647206Y-17176674D01*
X19647206Y-17176674D02*
X19666253Y-17167150D01*
X19666253Y-17167150D02*
X19694825Y-17167150D01*
X19694825Y-17167150D02*
X19713873Y-17176674D01*
X19790063Y-17376674D02*
X19799587Y-17367150D01*
X19799587Y-17367150D02*
X19818634Y-17338579D01*
X19818634Y-17338579D02*
X19828158Y-17319531D01*
X19828158Y-17319531D02*
X19837682Y-17290960D01*
X19837682Y-17290960D02*
X19847206Y-17243341D01*
X19847206Y-17243341D02*
X19847206Y-17205246D01*
X19847206Y-17205246D02*
X19837682Y-17157627D01*
X19837682Y-17157627D02*
X19828158Y-17129055D01*
X19828158Y-17129055D02*
X19818634Y-17110008D01*
X19818634Y-17110008D02*
X19799587Y-17081436D01*
X19799587Y-17081436D02*
X19790063Y-17071912D01*
D13*
X14855000Y-17393000D02*
X15015000Y-17553000D01*
X15015000Y-17393000D02*
X14855000Y-17553000D01*
X14991569Y-17529569D02*
X14991569Y-17416431D01*
X14878431Y-17416431D01*
X14878431Y-17529569D01*
X14991569Y-17529569D01*
D11*
X15380539Y-17564484D02*
X15266253Y-17564484D01*
X15323396Y-17564484D02*
X15323396Y-17364484D01*
X15323396Y-17364484D02*
X15304348Y-17393055D01*
X15304348Y-17393055D02*
X15285301Y-17412103D01*
X15285301Y-17412103D02*
X15266253Y-17421627D01*
X15466253Y-17545436D02*
X15475777Y-17554960D01*
X15475777Y-17554960D02*
X15466253Y-17564484D01*
X15466253Y-17564484D02*
X15456729Y-17554960D01*
X15456729Y-17554960D02*
X15466253Y-17545436D01*
X15466253Y-17545436D02*
X15466253Y-17564484D01*
X15647205Y-17364484D02*
X15609110Y-17364484D01*
X15609110Y-17364484D02*
X15590062Y-17374008D01*
X15590062Y-17374008D02*
X15580539Y-17383531D01*
X15580539Y-17383531D02*
X15561491Y-17412103D01*
X15561491Y-17412103D02*
X15551967Y-17450198D01*
X15551967Y-17450198D02*
X15551967Y-17526389D01*
X15551967Y-17526389D02*
X15561491Y-17545436D01*
X15561491Y-17545436D02*
X15571015Y-17554960D01*
X15571015Y-17554960D02*
X15590062Y-17564484D01*
X15590062Y-17564484D02*
X15628158Y-17564484D01*
X15628158Y-17564484D02*
X15647205Y-17554960D01*
X15647205Y-17554960D02*
X15656729Y-17545436D01*
X15656729Y-17545436D02*
X15666253Y-17526389D01*
X15666253Y-17526389D02*
X15666253Y-17478770D01*
X15666253Y-17478770D02*
X15656729Y-17459722D01*
X15656729Y-17459722D02*
X15647205Y-17450198D01*
X15647205Y-17450198D02*
X15628158Y-17440674D01*
X15628158Y-17440674D02*
X15590062Y-17440674D01*
X15590062Y-17440674D02*
X15571015Y-17450198D01*
X15571015Y-17450198D02*
X15561491Y-17459722D01*
X15561491Y-17459722D02*
X15551967Y-17478770D01*
X15790062Y-17364484D02*
X15809110Y-17364484D01*
X15809110Y-17364484D02*
X15828158Y-17374008D01*
X15828158Y-17374008D02*
X15837682Y-17383531D01*
X15837682Y-17383531D02*
X15847205Y-17402579D01*
X15847205Y-17402579D02*
X15856729Y-17440674D01*
X15856729Y-17440674D02*
X15856729Y-17488293D01*
X15856729Y-17488293D02*
X15847205Y-17526389D01*
X15847205Y-17526389D02*
X15837682Y-17545436D01*
X15837682Y-17545436D02*
X15828158Y-17554960D01*
X15828158Y-17554960D02*
X15809110Y-17564484D01*
X15809110Y-17564484D02*
X15790062Y-17564484D01*
X15790062Y-17564484D02*
X15771015Y-17554960D01*
X15771015Y-17554960D02*
X15761491Y-17545436D01*
X15761491Y-17545436D02*
X15751967Y-17526389D01*
X15751967Y-17526389D02*
X15742443Y-17488293D01*
X15742443Y-17488293D02*
X15742443Y-17440674D01*
X15742443Y-17440674D02*
X15751967Y-17402579D01*
X15751967Y-17402579D02*
X15761491Y-17383531D01*
X15761491Y-17383531D02*
X15771015Y-17374008D01*
X15771015Y-17374008D02*
X15790062Y-17364484D01*
X15980539Y-17364484D02*
X15999586Y-17364484D01*
X15999586Y-17364484D02*
X16018634Y-17374008D01*
X16018634Y-17374008D02*
X16028158Y-17383531D01*
X16028158Y-17383531D02*
X16037682Y-17402579D01*
X16037682Y-17402579D02*
X16047205Y-17440674D01*
X16047205Y-17440674D02*
X16047205Y-17488293D01*
X16047205Y-17488293D02*
X16037682Y-17526389D01*
X16037682Y-17526389D02*
X16028158Y-17545436D01*
X16028158Y-17545436D02*
X16018634Y-17554960D01*
X16018634Y-17554960D02*
X15999586Y-17564484D01*
X15999586Y-17564484D02*
X15980539Y-17564484D01*
X15980539Y-17564484D02*
X15961491Y-17554960D01*
X15961491Y-17554960D02*
X15951967Y-17545436D01*
X15951967Y-17545436D02*
X15942443Y-17526389D01*
X15942443Y-17526389D02*
X15932920Y-17488293D01*
X15932920Y-17488293D02*
X15932920Y-17440674D01*
X15932920Y-17440674D02*
X15942443Y-17402579D01*
X15942443Y-17402579D02*
X15951967Y-17383531D01*
X15951967Y-17383531D02*
X15961491Y-17374008D01*
X15961491Y-17374008D02*
X15980539Y-17364484D01*
X16132920Y-17564484D02*
X16132920Y-17431150D01*
X16132920Y-17450198D02*
X16142443Y-17440674D01*
X16142443Y-17440674D02*
X16161491Y-17431150D01*
X16161491Y-17431150D02*
X16190063Y-17431150D01*
X16190063Y-17431150D02*
X16209110Y-17440674D01*
X16209110Y-17440674D02*
X16218634Y-17459722D01*
X16218634Y-17459722D02*
X16218634Y-17564484D01*
X16218634Y-17459722D02*
X16228158Y-17440674D01*
X16228158Y-17440674D02*
X16247205Y-17431150D01*
X16247205Y-17431150D02*
X16275777Y-17431150D01*
X16275777Y-17431150D02*
X16294824Y-17440674D01*
X16294824Y-17440674D02*
X16304348Y-17459722D01*
X16304348Y-17459722D02*
X16304348Y-17564484D01*
X16399586Y-17564484D02*
X16399586Y-17431150D01*
X16399586Y-17450198D02*
X16409110Y-17440674D01*
X16409110Y-17440674D02*
X16428158Y-17431150D01*
X16428158Y-17431150D02*
X16456729Y-17431150D01*
X16456729Y-17431150D02*
X16475777Y-17440674D01*
X16475777Y-17440674D02*
X16485301Y-17459722D01*
X16485301Y-17459722D02*
X16485301Y-17564484D01*
X16485301Y-17459722D02*
X16494824Y-17440674D01*
X16494824Y-17440674D02*
X16513872Y-17431150D01*
X16513872Y-17431150D02*
X16542443Y-17431150D01*
X16542443Y-17431150D02*
X16561491Y-17440674D01*
X16561491Y-17440674D02*
X16571015Y-17459722D01*
X16571015Y-17459722D02*
X16571015Y-17564484D01*
X16961491Y-17354960D02*
X16790063Y-17612103D01*
X17218634Y-17364484D02*
X17237682Y-17364484D01*
X17237682Y-17364484D02*
X17256729Y-17374008D01*
X17256729Y-17374008D02*
X17266253Y-17383531D01*
X17266253Y-17383531D02*
X17275777Y-17402579D01*
X17275777Y-17402579D02*
X17285301Y-17440674D01*
X17285301Y-17440674D02*
X17285301Y-17488293D01*
X17285301Y-17488293D02*
X17275777Y-17526389D01*
X17275777Y-17526389D02*
X17266253Y-17545436D01*
X17266253Y-17545436D02*
X17256729Y-17554960D01*
X17256729Y-17554960D02*
X17237682Y-17564484D01*
X17237682Y-17564484D02*
X17218634Y-17564484D01*
X17218634Y-17564484D02*
X17199587Y-17554960D01*
X17199587Y-17554960D02*
X17190063Y-17545436D01*
X17190063Y-17545436D02*
X17180539Y-17526389D01*
X17180539Y-17526389D02*
X17171015Y-17488293D01*
X17171015Y-17488293D02*
X17171015Y-17440674D01*
X17171015Y-17440674D02*
X17180539Y-17402579D01*
X17180539Y-17402579D02*
X17190063Y-17383531D01*
X17190063Y-17383531D02*
X17199587Y-17374008D01*
X17199587Y-17374008D02*
X17218634Y-17364484D01*
X17371015Y-17545436D02*
X17380539Y-17554960D01*
X17380539Y-17554960D02*
X17371015Y-17564484D01*
X17371015Y-17564484D02*
X17361491Y-17554960D01*
X17361491Y-17554960D02*
X17371015Y-17545436D01*
X17371015Y-17545436D02*
X17371015Y-17564484D01*
X17504348Y-17364484D02*
X17523396Y-17364484D01*
X17523396Y-17364484D02*
X17542444Y-17374008D01*
X17542444Y-17374008D02*
X17551968Y-17383531D01*
X17551968Y-17383531D02*
X17561491Y-17402579D01*
X17561491Y-17402579D02*
X17571015Y-17440674D01*
X17571015Y-17440674D02*
X17571015Y-17488293D01*
X17571015Y-17488293D02*
X17561491Y-17526389D01*
X17561491Y-17526389D02*
X17551968Y-17545436D01*
X17551968Y-17545436D02*
X17542444Y-17554960D01*
X17542444Y-17554960D02*
X17523396Y-17564484D01*
X17523396Y-17564484D02*
X17504348Y-17564484D01*
X17504348Y-17564484D02*
X17485301Y-17554960D01*
X17485301Y-17554960D02*
X17475777Y-17545436D01*
X17475777Y-17545436D02*
X17466253Y-17526389D01*
X17466253Y-17526389D02*
X17456729Y-17488293D01*
X17456729Y-17488293D02*
X17456729Y-17440674D01*
X17456729Y-17440674D02*
X17466253Y-17402579D01*
X17466253Y-17402579D02*
X17475777Y-17383531D01*
X17475777Y-17383531D02*
X17485301Y-17374008D01*
X17485301Y-17374008D02*
X17504348Y-17364484D01*
X17742444Y-17364484D02*
X17704348Y-17364484D01*
X17704348Y-17364484D02*
X17685301Y-17374008D01*
X17685301Y-17374008D02*
X17675777Y-17383531D01*
X17675777Y-17383531D02*
X17656729Y-17412103D01*
X17656729Y-17412103D02*
X17647206Y-17450198D01*
X17647206Y-17450198D02*
X17647206Y-17526389D01*
X17647206Y-17526389D02*
X17656729Y-17545436D01*
X17656729Y-17545436D02*
X17666253Y-17554960D01*
X17666253Y-17554960D02*
X17685301Y-17564484D01*
X17685301Y-17564484D02*
X17723396Y-17564484D01*
X17723396Y-17564484D02*
X17742444Y-17554960D01*
X17742444Y-17554960D02*
X17751968Y-17545436D01*
X17751968Y-17545436D02*
X17761491Y-17526389D01*
X17761491Y-17526389D02*
X17761491Y-17478770D01*
X17761491Y-17478770D02*
X17751968Y-17459722D01*
X17751968Y-17459722D02*
X17742444Y-17450198D01*
X17742444Y-17450198D02*
X17723396Y-17440674D01*
X17723396Y-17440674D02*
X17685301Y-17440674D01*
X17685301Y-17440674D02*
X17666253Y-17450198D01*
X17666253Y-17450198D02*
X17656729Y-17459722D01*
X17656729Y-17459722D02*
X17647206Y-17478770D01*
X17828158Y-17364484D02*
X17951968Y-17364484D01*
X17951968Y-17364484D02*
X17885301Y-17440674D01*
X17885301Y-17440674D02*
X17913872Y-17440674D01*
X17913872Y-17440674D02*
X17932920Y-17450198D01*
X17932920Y-17450198D02*
X17942444Y-17459722D01*
X17942444Y-17459722D02*
X17951968Y-17478770D01*
X17951968Y-17478770D02*
X17951968Y-17526389D01*
X17951968Y-17526389D02*
X17942444Y-17545436D01*
X17942444Y-17545436D02*
X17932920Y-17554960D01*
X17932920Y-17554960D02*
X17913872Y-17564484D01*
X17913872Y-17564484D02*
X17856729Y-17564484D01*
X17856729Y-17564484D02*
X17837682Y-17554960D01*
X17837682Y-17554960D02*
X17828158Y-17545436D01*
X18075777Y-17364484D02*
X18094825Y-17364484D01*
X18094825Y-17364484D02*
X18113872Y-17374008D01*
X18113872Y-17374008D02*
X18123396Y-17383531D01*
X18123396Y-17383531D02*
X18132920Y-17402579D01*
X18132920Y-17402579D02*
X18142444Y-17440674D01*
X18142444Y-17440674D02*
X18142444Y-17488293D01*
X18142444Y-17488293D02*
X18132920Y-17526389D01*
X18132920Y-17526389D02*
X18123396Y-17545436D01*
X18123396Y-17545436D02*
X18113872Y-17554960D01*
X18113872Y-17554960D02*
X18094825Y-17564484D01*
X18094825Y-17564484D02*
X18075777Y-17564484D01*
X18075777Y-17564484D02*
X18056729Y-17554960D01*
X18056729Y-17554960D02*
X18047206Y-17545436D01*
X18047206Y-17545436D02*
X18037682Y-17526389D01*
X18037682Y-17526389D02*
X18028158Y-17488293D01*
X18028158Y-17488293D02*
X18028158Y-17440674D01*
X18028158Y-17440674D02*
X18037682Y-17402579D01*
X18037682Y-17402579D02*
X18047206Y-17383531D01*
X18047206Y-17383531D02*
X18056729Y-17374008D01*
X18056729Y-17374008D02*
X18075777Y-17364484D01*
X18218634Y-17364484D02*
X18218634Y-17402579D01*
X18294825Y-17364484D02*
X18294825Y-17402579D01*
X18590063Y-17640674D02*
X18580539Y-17631150D01*
X18580539Y-17631150D02*
X18561491Y-17602579D01*
X18561491Y-17602579D02*
X18551968Y-17583531D01*
X18551968Y-17583531D02*
X18542444Y-17554960D01*
X18542444Y-17554960D02*
X18532920Y-17507341D01*
X18532920Y-17507341D02*
X18532920Y-17469246D01*
X18532920Y-17469246D02*
X18542444Y-17421627D01*
X18542444Y-17421627D02*
X18551968Y-17393055D01*
X18551968Y-17393055D02*
X18561491Y-17374008D01*
X18561491Y-17374008D02*
X18580539Y-17345436D01*
X18580539Y-17345436D02*
X18590063Y-17335912D01*
X18647206Y-17364484D02*
X18780539Y-17364484D01*
X18780539Y-17364484D02*
X18694825Y-17564484D01*
X19009111Y-17564484D02*
X19009111Y-17364484D01*
X19094825Y-17564484D02*
X19094825Y-17459722D01*
X19094825Y-17459722D02*
X19085301Y-17440674D01*
X19085301Y-17440674D02*
X19066253Y-17431150D01*
X19066253Y-17431150D02*
X19037682Y-17431150D01*
X19037682Y-17431150D02*
X19018634Y-17440674D01*
X19018634Y-17440674D02*
X19009111Y-17450198D01*
X19218634Y-17564484D02*
X19199587Y-17554960D01*
X19199587Y-17554960D02*
X19190063Y-17545436D01*
X19190063Y-17545436D02*
X19180539Y-17526389D01*
X19180539Y-17526389D02*
X19180539Y-17469246D01*
X19180539Y-17469246D02*
X19190063Y-17450198D01*
X19190063Y-17450198D02*
X19199587Y-17440674D01*
X19199587Y-17440674D02*
X19218634Y-17431150D01*
X19218634Y-17431150D02*
X19247206Y-17431150D01*
X19247206Y-17431150D02*
X19266253Y-17440674D01*
X19266253Y-17440674D02*
X19275777Y-17450198D01*
X19275777Y-17450198D02*
X19285301Y-17469246D01*
X19285301Y-17469246D02*
X19285301Y-17526389D01*
X19285301Y-17526389D02*
X19275777Y-17545436D01*
X19275777Y-17545436D02*
X19266253Y-17554960D01*
X19266253Y-17554960D02*
X19247206Y-17564484D01*
X19247206Y-17564484D02*
X19218634Y-17564484D01*
X19399587Y-17564484D02*
X19380539Y-17554960D01*
X19380539Y-17554960D02*
X19371015Y-17535912D01*
X19371015Y-17535912D02*
X19371015Y-17364484D01*
X19551968Y-17554960D02*
X19532920Y-17564484D01*
X19532920Y-17564484D02*
X19494825Y-17564484D01*
X19494825Y-17564484D02*
X19475777Y-17554960D01*
X19475777Y-17554960D02*
X19466253Y-17535912D01*
X19466253Y-17535912D02*
X19466253Y-17459722D01*
X19466253Y-17459722D02*
X19475777Y-17440674D01*
X19475777Y-17440674D02*
X19494825Y-17431150D01*
X19494825Y-17431150D02*
X19532920Y-17431150D01*
X19532920Y-17431150D02*
X19551968Y-17440674D01*
X19551968Y-17440674D02*
X19561492Y-17459722D01*
X19561492Y-17459722D02*
X19561492Y-17478770D01*
X19561492Y-17478770D02*
X19466253Y-17497817D01*
X19637682Y-17554960D02*
X19656730Y-17564484D01*
X19656730Y-17564484D02*
X19694825Y-17564484D01*
X19694825Y-17564484D02*
X19713873Y-17554960D01*
X19713873Y-17554960D02*
X19723396Y-17535912D01*
X19723396Y-17535912D02*
X19723396Y-17526389D01*
X19723396Y-17526389D02*
X19713873Y-17507341D01*
X19713873Y-17507341D02*
X19694825Y-17497817D01*
X19694825Y-17497817D02*
X19666253Y-17497817D01*
X19666253Y-17497817D02*
X19647206Y-17488293D01*
X19647206Y-17488293D02*
X19637682Y-17469246D01*
X19637682Y-17469246D02*
X19637682Y-17459722D01*
X19637682Y-17459722D02*
X19647206Y-17440674D01*
X19647206Y-17440674D02*
X19666253Y-17431150D01*
X19666253Y-17431150D02*
X19694825Y-17431150D01*
X19694825Y-17431150D02*
X19713873Y-17440674D01*
X19790063Y-17640674D02*
X19799587Y-17631150D01*
X19799587Y-17631150D02*
X19818634Y-17602579D01*
X19818634Y-17602579D02*
X19828158Y-17583531D01*
X19828158Y-17583531D02*
X19837682Y-17554960D01*
X19837682Y-17554960D02*
X19847206Y-17507341D01*
X19847206Y-17507341D02*
X19847206Y-17469246D01*
X19847206Y-17469246D02*
X19837682Y-17421627D01*
X19837682Y-17421627D02*
X19828158Y-17393055D01*
X19828158Y-17393055D02*
X19818634Y-17374008D01*
X19818634Y-17374008D02*
X19799587Y-17345436D01*
X19799587Y-17345436D02*
X19790063Y-17335912D01*
M02*
