M48
; DRILL file {KiCad 9.0.3} date 2025-08-04T13:50:25+1000
; FORMAT={-:-/ absolute / metric / decimal}
; #@! TF.CreationDate,2025-08-04T13:50:25+10:00
; #@! TF.GenerationSoftware,Kicad,Pcbnew,9.0.3
; #@! TF.FileFunction,Plated,1,2,PTH
FMAT,2
METRIC
; #@! TA.AperFunction,Plated,PTH,ViaDrill
T1C0.300
; #@! TA.AperFunction,Plated,PTH,ComponentDrill
T2C0.300
; #@! TA.AperFunction,Plated,PTH,ComponentDrill
T3C0.650
; #@! TA.AperFunction,Plated,PTH,ComponentDrill
T4C0.700
; #@! TA.AperFunction,Plated,PTH,ComponentDrill
T5C0.800
; #@! TA.AperFunction,Plated,PTH,ComponentDrill
T6C1.000
; #@! TA.AperFunction,Plated,PTH,ComponentDrill
T7C1.330
; #@! TA.AperFunction,Plated,PTH,ComponentDrill
T8C1.600
%
G90
G05
T1
X152.18Y-126.34
X152.4Y-108.6
X153.7Y-123.8
X153.753Y-93.647
X154.09Y-108.23
X155.46Y-107.01
X156.4Y-94.322
X156.6Y-92.9
X156.816Y-130.755
X157.4Y-82.15
X157.56Y-92.12
X157.56Y-95.12
X157.56Y-96.62
X157.56Y-98.12
X157.56Y-99.62
X157.992Y-134.984
X158.85Y-113.4
X159.732Y-130.235
X160.0Y-122.3
X160.043Y-126.035
X160.059Y-132.456
X160.505Y-116.883
X160.52Y-111.64
X161.522Y-129.345
X161.612Y-122.488
X161.662Y-134.615
X162.792Y-127.55
X163.043Y-120.375
X163.731Y-123.582
X163.943Y-120.375
X164.843Y-120.375
X165.173Y-128.443
X165.509Y-115.537
X166.78Y-140.737
X166.885Y-77.418
X167.4Y-88.1
X167.623Y-123.585
X167.639Y-126.666
X167.95Y-113.7
X169.206Y-118.613
X169.5Y-129.55
X170.576Y-137.3
X170.59Y-144.953
X171.4Y-88.1
X171.85Y-108.4
X171.85Y-110.8
X172.362Y-77.4
X173.575Y-90.6
X174.7Y-95.5
X174.7Y-113.225
X174.7Y-116.825
X174.8Y-88.1
X175.675Y-104.375
X175.85Y-111.65
X176.8Y-105.6
X176.8Y-115.85
X177.2Y-87.95
X177.475Y-107.575
X182.1Y-138.85
X182.775Y-121.75
X183.672Y-62.526
X185.534Y-111.65
X185.693Y-67.148
X185.709Y-64.182
X185.725Y-136.875
X185.725Y-141.575
X187.2Y-87.8
X187.975Y-132.25
X187.996Y-127.498
X188.625Y-88.775
X188.86Y-90.36
X189.13Y-134.357
X189.177Y-91.9
X190.5Y-140.1
X190.917Y-116.957
X190.993Y-132.493
X191.11Y-128.996
X191.162Y-114.037
X191.797Y-118.99
X191.797Y-121.784
X192.054Y-66.844
X192.06Y-127.498
X192.385Y-138.175
X193.054Y-135.394
X193.35Y-88.702
X194.05Y-97.65
X194.346Y-130.292
X194.45Y-101.7
X195.15Y-65.4
X195.2Y-56.846
X195.445Y-82.4
X195.445Y-83.695
X195.445Y-84.99
X195.445Y-86.215
X195.445Y-87.44
X195.445Y-88.65
X195.48Y-118.99
X195.48Y-121.784
X195.5Y-77.75
X195.55Y-79.75
X196.054Y-132.442
X196.4Y-56.846
X196.52Y-114.11
X197.2Y-81.15
X197.65Y-63.45
X198.054Y-114.2
X199.417Y-118.99
X199.417Y-121.784
X199.426Y-131.054
X199.6Y-73.45
X199.707Y-110.543
X200.2Y-108.05
X200.58Y-110.761
X200.63Y-137.8
X201.05Y-104.7
X201.31Y-146.0
X201.554Y-132.324
X202.064Y-113.935
X202.167Y-103.85
X202.7Y-137.2
X202.71Y-140.68
X202.846Y-118.99
X202.846Y-121.784
X203.05Y-107.15
X203.47Y-139.75
X203.528Y-135.822
X204.256Y-136.55
X204.4Y-105.35
X204.506Y-131.054
X204.8Y-110.7
X204.879Y-135.9
X205.259Y-117.339
X205.259Y-120.895
X205.386Y-114.926
X206.03Y-131.054
X206.054Y-132.25
X206.4Y-143.565
X206.402Y-118.433
X206.402Y-122.038
X206.55Y-116.75
X207.418Y-122.8
X207.9Y-147.5
X207.926Y-121.784
X207.94Y-113.768
X208.053Y-120.768
X208.316Y-127.244
X208.891Y-109.062
X208.9Y-106.422
X209.069Y-132.452
X209.577Y-113.91
X209.586Y-118.43
X209.586Y-124.008
X210.4Y-142.97
X210.68Y-140.97
X210.8Y-110.2
X211.863Y-113.148
X212.0Y-107.322
X212.3Y-144.9
X213.55Y-141.85
X215.2Y-90.02
X215.333Y-127.381
X215.4Y-95.6
X215.808Y-119.858
X215.898Y-128.081
X216.1Y-92.557
X216.4Y-67.183
X216.4Y-72.25
X216.4Y-74.8
X216.4Y-77.3
X216.4Y-79.85
X216.4Y-82.42
X216.4Y-84.95
X216.4Y-87.48
X216.5Y-128.75
X217.125Y-97.025
X217.3Y-100.2
X218.02Y-130.1
X218.632Y-130.816
X218.75Y-66.15
X218.75Y-70.55
X219.6Y-96.5
X219.65Y-130.816
X221.75Y-121.35
X222.45Y-120.2
X223.35Y-138.95
X223.445Y-110.38
X223.55Y-121.6
X223.6Y-119.3
X224.846Y-122.454
X226.27Y-108.31
X227.05Y-109.2
X227.45Y-75.5
X227.788Y-108.27
X227.85Y-77.4
X228.547Y-109.1
X228.8Y-94.0
X229.306Y-110.118
X229.572Y-95.1
X229.8Y-96.3
X230.1Y-111.55
X230.3Y-118.75
X230.823Y-109.8
X231.582Y-110.55
X232.15Y-83.2
X232.341Y-111.25
X232.577Y-86.1
X232.842Y-88.025
X233.001Y-89.525
X233.1Y-102.09
X233.1Y-110.2
X233.22Y-103.31
X233.358Y-87.125
X233.432Y-88.713
X233.45Y-128.5
X233.7Y-90.2
X233.85Y-107.975
X233.9Y-108.9
X234.2Y-114.8
X234.325Y-111.35
X234.65Y-68.7
X235.25Y-109.2
X235.485Y-126.135
X236.1Y-96.5
X236.5Y-125.5
X236.55Y-102.1
X236.81Y-103.19
X236.95Y-100.1
X237.0Y-98.4
X238.1Y-85.7
X238.1Y-120.45
X238.1Y-122.85
X238.877Y-119.01
X238.877Y-121.59
X238.877Y-124.223
X239.05Y-139.54
X239.42Y-138.57
X239.647Y-87.15
X239.67Y-102.075
X239.67Y-103.65
X239.69Y-137.35
X239.75Y-129.81
X240.45Y-131.77
X240.45Y-142.85
X240.524Y-138.045
X240.665Y-136.335
X240.76Y-133.34
X240.76Y-134.93
X241.0Y-70.7
X241.0Y-109.2
X241.0Y-130.0
X241.6Y-124.9
X241.6Y-135.605
X242.1Y-69.55
X242.25Y-131.75
X242.4Y-134.1
X242.423Y-85.823
X243.5Y-96.1
T2
X164.173Y-125.035
X164.173Y-126.035
X164.173Y-127.035
X165.173Y-125.035
X165.173Y-126.035
X165.173Y-127.035
X166.173Y-125.035
X166.173Y-126.035
X166.173Y-127.035
T5
X177.149Y-78.691
X177.149Y-81.231
X177.149Y-83.771
X182.49Y-78.688
X182.49Y-81.228
X182.49Y-83.768
X229.172Y-53.24
X229.172Y-55.74
T6
X153.5Y-74.67
X154.712Y-112.545
X154.712Y-115.085
X154.712Y-117.625
X156.04Y-74.67
X158.58Y-74.67
X178.642Y-91.333
X178.642Y-93.873
X178.642Y-96.413
X178.642Y-98.953
X178.642Y-101.493
X178.642Y-133.0
X178.642Y-135.54
X178.642Y-138.08
X178.642Y-140.62
X178.642Y-145.7
X178.678Y-60.82
X178.678Y-63.36
X178.678Y-65.9
X181.182Y-91.333
X181.182Y-93.873
X181.182Y-96.413
X181.182Y-98.953
X181.182Y-101.493
X181.182Y-145.7
X198.998Y-76.06
X198.998Y-78.6
X198.998Y-81.14
X198.998Y-83.68
X198.998Y-86.22
X198.998Y-88.76
X198.998Y-91.3
X198.998Y-93.84
X198.998Y-96.38
X198.998Y-98.92
X198.998Y-101.46
X206.618Y-55.74
X206.618Y-58.28
X206.618Y-60.82
X206.618Y-63.36
X206.618Y-65.9
X206.618Y-68.44
X206.618Y-70.98
X206.618Y-73.52
X206.618Y-76.06
X206.618Y-78.6
X206.618Y-81.14
X206.618Y-83.68
X206.618Y-86.22
X206.618Y-88.76
X206.618Y-91.3
X206.618Y-93.84
X206.618Y-96.38
X206.618Y-98.92
X206.618Y-101.46
X206.618Y-104.0
X221.858Y-55.74
X221.858Y-58.28
X221.858Y-60.82
X221.858Y-63.36
X221.858Y-65.9
X221.858Y-68.44
X221.858Y-70.98
X221.858Y-73.52
X221.858Y-76.06
X221.858Y-78.6
X221.858Y-81.14
X221.858Y-83.68
X221.858Y-86.22
X221.858Y-88.76
X221.858Y-91.3
X221.858Y-93.84
X221.858Y-96.38
X221.858Y-98.92
X221.858Y-101.46
X221.858Y-104.0
X237.08Y-53.2
X237.08Y-55.74
X239.62Y-53.2
X239.62Y-55.74
X242.16Y-53.2
X242.16Y-55.74
X244.7Y-53.2
X244.7Y-55.74
X244.7Y-66.96
X244.7Y-69.5
X244.7Y-72.04
X244.7Y-74.58
X244.7Y-77.12
X244.7Y-79.66
X244.7Y-82.2
X244.7Y-84.74
X244.7Y-87.28
X244.7Y-89.82
X244.7Y-92.36
X244.7Y-94.9
X244.7Y-97.44
X244.7Y-99.98
X244.7Y-102.52
X244.7Y-105.06
X244.7Y-107.6
X244.7Y-110.14
X244.7Y-112.68
X244.7Y-115.22
X244.7Y-117.76
X244.7Y-120.3
X244.7Y-122.84
X244.7Y-125.38
X244.7Y-127.92
X244.7Y-130.46
X244.7Y-133.0
X244.7Y-135.54
X244.7Y-138.08
X244.7Y-140.62
X244.7Y-143.16
X244.7Y-145.7
X247.24Y-66.96
X247.24Y-69.5
X247.24Y-72.04
X247.24Y-74.58
X247.24Y-77.12
X247.24Y-79.66
X247.24Y-82.2
X247.24Y-84.74
X247.24Y-87.28
X247.24Y-89.82
X247.24Y-92.36
X247.24Y-94.9
X247.24Y-97.44
X247.24Y-99.98
X247.24Y-102.52
X247.24Y-105.06
X247.24Y-107.6
X247.24Y-110.14
X247.24Y-112.68
X247.24Y-115.22
X247.24Y-117.76
X247.24Y-120.3
X247.24Y-122.84
X247.24Y-125.38
X247.24Y-127.92
X247.24Y-130.46
X247.24Y-133.0
X247.24Y-135.54
X247.24Y-138.08
X247.24Y-140.62
X247.24Y-143.16
X247.24Y-145.7
T7
X153.775Y-87.77
X153.775Y-103.47
X158.675Y-88.37
X158.675Y-102.87
T8
X154.5Y-63.2
X157.0Y-53.2
X157.0Y-65.7
X162.0Y-63.2
X167.0Y-53.2
X167.0Y-65.74
X169.5Y-63.2
T3
X154.82Y-139.905G85X155.22Y-139.905
G05
X154.82Y-144.745G85X155.22Y-144.745
G05
T4
X151.77Y-139.595G85X152.27Y-139.595
G05
X151.77Y-145.055G85X152.27Y-145.055
G05
M30
