G04 #@! TF.GenerationSoftware,KiCad,Pcbnew,9.0.3*
G04 #@! TF.CreationDate,2025-08-04T13:50:30+10:00*
G04 #@! TF.ProjectId,VideoFPGA_RevB,56696465-6f46-4504-9741-5f526576422e,rev?*
G04 #@! TF.SameCoordinates,Original*
G04 #@! TF.FileFunction,Paste,Top*
G04 #@! TF.FilePolarity,Positive*
%FSLAX46Y46*%
G04 Gerber Fmt 4.6, Leading zero omitted, Abs format (unit mm)*
G04 Created by KiCad (PCBNEW 9.0.3) date 2025-08-04 13:50:30*
%MOMM*%
%LPD*%
G01*
G04 APERTURE LIST*
G04 Aperture macros list*
%AMRoundRect*
0 Rectangle with rounded corners*
0 $1 Rounding radius*
0 $2 $3 $4 $5 $6 $7 $8 $9 X,Y pos of 4 corners*
0 Add a 4 corners polygon primitive as box body*
4,1,4,$2,$3,$4,$5,$6,$7,$8,$9,$2,$3,0*
0 Add four circle primitives for the rounded corners*
1,1,$1+$1,$2,$3*
1,1,$1+$1,$4,$5*
1,1,$1+$1,$6,$7*
1,1,$1+$1,$8,$9*
0 Add four rect primitives between the rounded corners*
20,1,$1+$1,$2,$3,$4,$5,0*
20,1,$1+$1,$4,$5,$6,$7,0*
20,1,$1+$1,$6,$7,$8,$9,0*
20,1,$1+$1,$8,$9,$2,$3,0*%
%AMOutline5P*
0 Free polygon, 5 corners , with rotation*
0 The origin of the aperture is its center*
0 number of corners: always 5*
0 $1 to $10 corner X, Y*
0 $11 Rotation angle, in degrees counterclockwise*
0 create outline with 5 corners*
4,1,5,$1,$2,$3,$4,$5,$6,$7,$8,$9,$10,$1,$2,$11*%
%AMOutline6P*
0 Free polygon, 6 corners , with rotation*
0 The origin of the aperture is its center*
0 number of corners: always 6*
0 $1 to $12 corner X, Y*
0 $13 Rotation angle, in degrees counterclockwise*
0 create outline with 6 corners*
4,1,6,$1,$2,$3,$4,$5,$6,$7,$8,$9,$10,$11,$12,$1,$2,$13*%
%AMOutline7P*
0 Free polygon, 7 corners , with rotation*
0 The origin of the aperture is its center*
0 number of corners: always 7*
0 $1 to $14 corner X, Y*
0 $15 Rotation angle, in degrees counterclockwise*
0 create outline with 7 corners*
4,1,7,$1,$2,$3,$4,$5,$6,$7,$8,$9,$10,$11,$12,$13,$14,$1,$2,$15*%
%AMOutline8P*
0 Free polygon, 8 corners , with rotation*
0 The origin of the aperture is its center*
0 number of corners: always 8*
0 $1 to $16 corner X, Y*
0 $17 Rotation angle, in degrees counterclockwise*
0 create outline with 8 corners*
4,1,8,$1,$2,$3,$4,$5,$6,$7,$8,$9,$10,$11,$12,$13,$14,$15,$16,$1,$2,$17*%
G04 Aperture macros list end*
%ADD10RoundRect,0.200000X0.200000X0.275000X-0.200000X0.275000X-0.200000X-0.275000X0.200000X-0.275000X0*%
%ADD11RoundRect,0.200000X0.275000X-0.200000X0.275000X0.200000X-0.275000X0.200000X-0.275000X-0.200000X0*%
%ADD12R,1.528000X0.650000*%
%ADD13RoundRect,0.200000X-0.200000X-0.275000X0.200000X-0.275000X0.200000X0.275000X-0.200000X0.275000X0*%
%ADD14RoundRect,0.225000X0.225000X0.250000X-0.225000X0.250000X-0.225000X-0.250000X0.225000X-0.250000X0*%
%ADD15R,0.950000X1.400000*%
%ADD16R,1.900000X0.300000*%
%ADD17RoundRect,0.100000X-0.637500X-0.100000X0.637500X-0.100000X0.637500X0.100000X-0.637500X0.100000X0*%
%ADD18RoundRect,0.250000X0.475000X-0.250000X0.475000X0.250000X-0.475000X0.250000X-0.475000X-0.250000X0*%
%ADD19R,1.475000X0.300000*%
%ADD20R,0.300000X1.475000*%
%ADD21RoundRect,0.225000X-0.225000X-0.250000X0.225000X-0.250000X0.225000X0.250000X-0.225000X0.250000X0*%
%ADD22RoundRect,0.250000X-0.475000X0.250000X-0.475000X-0.250000X0.475000X-0.250000X0.475000X0.250000X0*%
%ADD23RoundRect,0.200000X-0.275000X0.200000X-0.275000X-0.200000X0.275000X-0.200000X0.275000X0.200000X0*%
%ADD24R,1.525000X0.430000*%
%ADD25R,1.400000X0.950000*%
%ADD26R,0.100000X0.100000*%
%ADD27Outline5P,-0.100000X0.437500X0.100000X0.437500X0.100000X-0.387500X0.050000X-0.437500X-0.100000X-0.437500X270.000000*%
%ADD28R,0.875000X0.200000*%
%ADD29Outline5P,-0.100000X0.437500X0.100000X0.437500X0.100000X-0.437500X-0.050000X-0.437500X-0.100000X-0.387500X270.000000*%
%ADD30Outline5P,-0.100000X0.387500X-0.050000X0.437500X0.100000X0.437500X0.100000X-0.437500X-0.100000X-0.437500X180.000000*%
%ADD31R,0.200000X0.875000*%
%ADD32Outline5P,-0.100000X0.437500X0.050000X0.437500X0.100000X0.387500X0.100000X-0.437500X-0.100000X-0.437500X180.000000*%
%ADD33Outline5P,-0.100000X0.387500X-0.050000X0.437500X0.100000X0.437500X0.100000X-0.437500X-0.100000X-0.437500X270.000000*%
%ADD34Outline5P,-0.100000X0.437500X0.050000X0.437500X0.100000X0.387500X0.100000X-0.437500X-0.100000X-0.437500X270.000000*%
%ADD35Outline5P,-0.100000X0.437500X0.100000X0.437500X0.100000X-0.387500X0.050000X-0.437500X-0.100000X-0.437500X180.000000*%
%ADD36Outline5P,-0.100000X0.437500X0.100000X0.437500X0.100000X-0.437500X-0.050000X-0.437500X-0.100000X-0.387500X180.000000*%
%ADD37R,3.400000X3.400000*%
%ADD38R,1.650000X0.400000*%
%ADD39R,0.700000X1.825000*%
%ADD40R,1.500000X2.000000*%
%ADD41R,2.000000X1.350000*%
%ADD42R,2.500000X1.430000*%
%ADD43RoundRect,0.250000X-0.250000X-0.475000X0.250000X-0.475000X0.250000X0.475000X-0.250000X0.475000X0*%
%ADD44RoundRect,0.225000X0.250000X-0.225000X0.250000X0.225000X-0.250000X0.225000X-0.250000X-0.225000X0*%
%ADD45RoundRect,0.250000X0.250000X0.475000X-0.250000X0.475000X-0.250000X-0.475000X0.250000X-0.475000X0*%
%ADD46RoundRect,0.375000X0.375000X-0.625000X0.375000X0.625000X-0.375000X0.625000X-0.375000X-0.625000X0*%
%ADD47RoundRect,0.500000X1.400000X-0.500000X1.400000X0.500000X-1.400000X0.500000X-1.400000X-0.500000X0*%
%ADD48RoundRect,0.150000X-0.150000X0.512500X-0.150000X-0.512500X0.150000X-0.512500X0.150000X0.512500X0*%
%ADD49RoundRect,0.150000X-0.725000X-0.150000X0.725000X-0.150000X0.725000X0.150000X-0.725000X0.150000X0*%
%ADD50RoundRect,0.225000X-0.250000X0.225000X-0.250000X-0.225000X0.250000X-0.225000X0.250000X0.225000X0*%
%ADD51RoundRect,0.150000X-0.650000X-0.150000X0.650000X-0.150000X0.650000X0.150000X-0.650000X0.150000X0*%
%ADD52RoundRect,0.150000X-0.150000X0.650000X-0.150000X-0.650000X0.150000X-0.650000X0.150000X0.650000X0*%
%ADD53RoundRect,0.225000X0.375000X-0.225000X0.375000X0.225000X-0.375000X0.225000X-0.375000X-0.225000X0*%
%ADD54RoundRect,0.150000X0.587500X0.150000X-0.587500X0.150000X-0.587500X-0.150000X0.587500X-0.150000X0*%
%ADD55R,0.430000X1.525000*%
%ADD56RoundRect,0.250000X0.450000X0.350000X-0.450000X0.350000X-0.450000X-0.350000X0.450000X-0.350000X0*%
%ADD57RoundRect,0.150000X-0.512500X-0.150000X0.512500X-0.150000X0.512500X0.150000X-0.512500X0.150000X0*%
G04 APERTURE END LIST*
D10*
X164715000Y-93887200D03*
X163065000Y-93887200D03*
D11*
X162900000Y-76315000D03*
X162900000Y-74665000D03*
X235245613Y-95225000D03*
X235245613Y-93575000D03*
D10*
X237925000Y-72400000D03*
X236275000Y-72400000D03*
D12*
X170940000Y-81210000D03*
X170940000Y-79940000D03*
X170940000Y-78670000D03*
X170940000Y-77400000D03*
X165518000Y-77400000D03*
X165518000Y-78670000D03*
X165518000Y-79940000D03*
X165518000Y-81210000D03*
D13*
X161703997Y-83410989D03*
X163353997Y-83410989D03*
D10*
X164715000Y-96833600D03*
X163065000Y-96833600D03*
D14*
X200454906Y-136641991D03*
X198904906Y-136641991D03*
D15*
X198450000Y-146000000D03*
X200350000Y-146000000D03*
D16*
X159575000Y-100120000D03*
X159575000Y-99620000D03*
X159575000Y-99120000D03*
X159575000Y-98620000D03*
X159575000Y-98120000D03*
X159575000Y-97620000D03*
X159575000Y-97120000D03*
X159575000Y-96620000D03*
X159575000Y-96120000D03*
X159575000Y-95620000D03*
X159575000Y-95120000D03*
X159575000Y-94620000D03*
X159575000Y-94120000D03*
X159575000Y-93620000D03*
X159575000Y-93120000D03*
X159575000Y-92620000D03*
X159575000Y-92120000D03*
X159575000Y-91620000D03*
X159575000Y-91120000D03*
D11*
X224990000Y-109245000D03*
X224990000Y-107595000D03*
D10*
X194020094Y-146000000D03*
X192370094Y-146000000D03*
X170050000Y-88100000D03*
X168400000Y-88100000D03*
D17*
X235245613Y-85850000D03*
X235245613Y-86500000D03*
X235245613Y-87150000D03*
X235245613Y-87800000D03*
X235245613Y-88450000D03*
X235245613Y-89100000D03*
X235245613Y-89750000D03*
X235245613Y-90400000D03*
X235245613Y-91050000D03*
X235245613Y-91700000D03*
X240970613Y-91700000D03*
X240970613Y-91050000D03*
X240970613Y-90400000D03*
X240970613Y-89750000D03*
X240970613Y-89100000D03*
X240970613Y-88450000D03*
X240970613Y-87800000D03*
X240970613Y-87150000D03*
X240970613Y-86500000D03*
X240970613Y-85850000D03*
D18*
X156810613Y-135616200D03*
X156810613Y-133716200D03*
D13*
X209050000Y-137300000D03*
X210700000Y-137300000D03*
D10*
X164715000Y-95360400D03*
X163065000Y-95360400D03*
D19*
X189565906Y-114429991D03*
X189565906Y-114929991D03*
X189565906Y-115429991D03*
X189565906Y-115929991D03*
X189565906Y-116429991D03*
X189565906Y-116929991D03*
X189565906Y-117429991D03*
X189565906Y-117929991D03*
X189565906Y-118429991D03*
X189565906Y-118929991D03*
X189565906Y-119429991D03*
X189565906Y-119929991D03*
X189565906Y-120429991D03*
X189565906Y-120929991D03*
X189565906Y-121429991D03*
X189565906Y-121929991D03*
X189565906Y-122429991D03*
X189565906Y-122929991D03*
X189565906Y-123429991D03*
X189565906Y-123929991D03*
X189565906Y-124429991D03*
X189565906Y-124929991D03*
X189565906Y-125429991D03*
X189565906Y-125929991D03*
X189565906Y-126429991D03*
X189565906Y-126929991D03*
X189565906Y-127429991D03*
X189565906Y-127929991D03*
X189565906Y-128429991D03*
X189565906Y-128929991D03*
X189565906Y-129429991D03*
X189565906Y-129929991D03*
X189565906Y-130429991D03*
X189565906Y-130929991D03*
X189565906Y-131429991D03*
X189565906Y-131929991D03*
D20*
X191553906Y-133917991D03*
X192053906Y-133917991D03*
X192553906Y-133917991D03*
X193053906Y-133917991D03*
X193553906Y-133917991D03*
X194053906Y-133917991D03*
X194553906Y-133917991D03*
X195053906Y-133917991D03*
X195553906Y-133917991D03*
X196053906Y-133917991D03*
X196553906Y-133917991D03*
X197053906Y-133917991D03*
X197553906Y-133917991D03*
X198053906Y-133917991D03*
X198553906Y-133917991D03*
X199053906Y-133917991D03*
X199553906Y-133917991D03*
X200053906Y-133917991D03*
X200553906Y-133917991D03*
X201053906Y-133917991D03*
X201553906Y-133917991D03*
X202053906Y-133917991D03*
X202553906Y-133917991D03*
X203053906Y-133917991D03*
X203553906Y-133917991D03*
X204053906Y-133917991D03*
X204553906Y-133917991D03*
X205053906Y-133917991D03*
X205553906Y-133917991D03*
X206053906Y-133917991D03*
X206553906Y-133917991D03*
X207053906Y-133917991D03*
X207553906Y-133917991D03*
X208053906Y-133917991D03*
X208553906Y-133917991D03*
X209053906Y-133917991D03*
D19*
X211041906Y-131929991D03*
X211041906Y-131429991D03*
X211041906Y-130929991D03*
X211041906Y-130429991D03*
X211041906Y-129929991D03*
X211041906Y-129429991D03*
X211041906Y-128929991D03*
X211041906Y-128429991D03*
X211041906Y-127929991D03*
X211041906Y-127429991D03*
X211041906Y-126929991D03*
X211041906Y-126429991D03*
X211041906Y-125929991D03*
X211041906Y-125429991D03*
X211041906Y-124929991D03*
X211041906Y-124429991D03*
X211041906Y-123929991D03*
X211041906Y-123429991D03*
X211041906Y-122929991D03*
X211041906Y-122429991D03*
X211041906Y-121929991D03*
X211041906Y-121429991D03*
X211041906Y-120929991D03*
X211041906Y-120429991D03*
X211041906Y-119929991D03*
X211041906Y-119429991D03*
X211041906Y-118929991D03*
X211041906Y-118429991D03*
X211041906Y-117929991D03*
X211041906Y-117429991D03*
X211041906Y-116929991D03*
X211041906Y-116429991D03*
X211041906Y-115929991D03*
X211041906Y-115429991D03*
X211041906Y-114929991D03*
X211041906Y-114429991D03*
D20*
X209053906Y-112441991D03*
X208553906Y-112441991D03*
X208053906Y-112441991D03*
X207553906Y-112441991D03*
X207053906Y-112441991D03*
X206553906Y-112441991D03*
X206053906Y-112441991D03*
X205553906Y-112441991D03*
X205053906Y-112441991D03*
X204553906Y-112441991D03*
X204053906Y-112441991D03*
X203553906Y-112441991D03*
X203053906Y-112441991D03*
X202553906Y-112441991D03*
X202053906Y-112441991D03*
X201553906Y-112441991D03*
X201053906Y-112441991D03*
X200553906Y-112441991D03*
X200053906Y-112441991D03*
X199553906Y-112441991D03*
X199053906Y-112441991D03*
X198553906Y-112441991D03*
X198053906Y-112441991D03*
X197553906Y-112441991D03*
X197053906Y-112441991D03*
X196553906Y-112441991D03*
X196053906Y-112441991D03*
X195553906Y-112441991D03*
X195053906Y-112441991D03*
X194553906Y-112441991D03*
X194053906Y-112441991D03*
X193553906Y-112441991D03*
X193053906Y-112441991D03*
X192553906Y-112441991D03*
X192053906Y-112441991D03*
X191553906Y-112441991D03*
D11*
X237153946Y-95225000D03*
X237153946Y-93575000D03*
D21*
X239420613Y-84130000D03*
X240970613Y-84130000D03*
D22*
X212000113Y-108300000D03*
X212000113Y-110200000D03*
D23*
X163730613Y-131275000D03*
X163730613Y-132925000D03*
D13*
X218525000Y-143587500D03*
X220175000Y-143587500D03*
D24*
X218020613Y-111337198D03*
X218020613Y-111971198D03*
X218020613Y-112607198D03*
X218020613Y-113241198D03*
X218020613Y-113877198D03*
X218020613Y-114511198D03*
X218020613Y-115147198D03*
X218020613Y-115781198D03*
X218020613Y-116417198D03*
X218020613Y-117051198D03*
X218020613Y-117687198D03*
X218020613Y-118321198D03*
X223444613Y-118321198D03*
X223444613Y-117687198D03*
X223444613Y-117051198D03*
X223444613Y-116417198D03*
X223444613Y-115781198D03*
X223444613Y-115147198D03*
X223444613Y-114511198D03*
X223444613Y-113877198D03*
X223444613Y-113241198D03*
X223444613Y-112607198D03*
X223444613Y-111971198D03*
X223444613Y-111337198D03*
D10*
X220175000Y-141875000D03*
X218525000Y-141875000D03*
D25*
X248100000Y-53515000D03*
X248100000Y-55415000D03*
D11*
X240500000Y-95225000D03*
X240500000Y-93575000D03*
D26*
X166448413Y-127309600D03*
X166448413Y-126459600D03*
X166448413Y-125609600D03*
X166448413Y-124759600D03*
X165598413Y-127309600D03*
X165598413Y-126459600D03*
X165598413Y-125609600D03*
X165598413Y-124759600D03*
X164748413Y-127309600D03*
X164748413Y-126459600D03*
X164748413Y-125609600D03*
X164748413Y-124759600D03*
X163898413Y-127309600D03*
X163898413Y-126459600D03*
X163898413Y-125609600D03*
X163898413Y-124759600D03*
D27*
X168610913Y-128834600D03*
D28*
X168610913Y-128434600D03*
X168610913Y-128034600D03*
X168610913Y-127634600D03*
X168610913Y-127234600D03*
X168610913Y-126834600D03*
X168610913Y-126434600D03*
X168610913Y-126034600D03*
X168610913Y-125634600D03*
X168610913Y-125234600D03*
X168610913Y-124834600D03*
X168610913Y-124434600D03*
X168610913Y-124034600D03*
X168610913Y-123634600D03*
D29*
X168610913Y-123234600D03*
D30*
X167973413Y-122597100D03*
D31*
X167573413Y-122597100D03*
X167173413Y-122597100D03*
X166773413Y-122597100D03*
X166373413Y-122597100D03*
X165973413Y-122597100D03*
X165573413Y-122597100D03*
X165173413Y-122597100D03*
X164773413Y-122597100D03*
X164373413Y-122597100D03*
X163973413Y-122597100D03*
X163573413Y-122597100D03*
X163173413Y-122597100D03*
X162773413Y-122597100D03*
D32*
X162373413Y-122597100D03*
D33*
X161735913Y-123234600D03*
D28*
X161735913Y-123634600D03*
X161735913Y-124034600D03*
X161735913Y-124434600D03*
X161735913Y-124834600D03*
X161735913Y-125234600D03*
X161735913Y-125634600D03*
X161735913Y-126034600D03*
X161735913Y-126434600D03*
X161735913Y-126834600D03*
X161735913Y-127234600D03*
X161735913Y-127634600D03*
X161735913Y-128034600D03*
X161735913Y-128434600D03*
D34*
X161735913Y-128834600D03*
D35*
X162373413Y-129472100D03*
D31*
X162773413Y-129472100D03*
X163173413Y-129472100D03*
X163573413Y-129472100D03*
X163973413Y-129472100D03*
X164373413Y-129472100D03*
X164773413Y-129472100D03*
X165173413Y-129472100D03*
X165573413Y-129472100D03*
X165973413Y-129472100D03*
X166373413Y-129472100D03*
X166773413Y-129472100D03*
X167173413Y-129472100D03*
X167573413Y-129472100D03*
D36*
X167973413Y-129472100D03*
D37*
X165173413Y-126034600D03*
D13*
X200975000Y-142800000D03*
X202625000Y-142800000D03*
D24*
X231208613Y-130840000D03*
X231208613Y-131474000D03*
X231208613Y-132110000D03*
X231208613Y-132744000D03*
X231208613Y-133380000D03*
X231208613Y-134014000D03*
X231208613Y-134650000D03*
X231208613Y-135284000D03*
X231208613Y-135920000D03*
X231208613Y-136554000D03*
X231208613Y-137190000D03*
X231208613Y-137824000D03*
X236632613Y-137824000D03*
X236632613Y-137190000D03*
X236632613Y-136554000D03*
X236632613Y-135920000D03*
X236632613Y-135284000D03*
X236632613Y-134650000D03*
X236632613Y-134014000D03*
X236632613Y-133380000D03*
X236632613Y-132744000D03*
X236632613Y-132110000D03*
X236632613Y-131474000D03*
X236632613Y-130840000D03*
D21*
X213550000Y-140300000D03*
X215100000Y-140300000D03*
D10*
X166608997Y-83390989D03*
X164958997Y-83390989D03*
X166425000Y-88100000D03*
X164775000Y-88100000D03*
X164715000Y-98306800D03*
X163065000Y-98306800D03*
D38*
X154900000Y-141024600D03*
X154900000Y-141674600D03*
X154900000Y-142324600D03*
X154900000Y-142974600D03*
X154900000Y-143624600D03*
D39*
X153700000Y-139374600D03*
D40*
X155000000Y-139474600D03*
D41*
X152950000Y-139594600D03*
D42*
X151750000Y-141364600D03*
X151750000Y-143284600D03*
D41*
X152950000Y-145074600D03*
D40*
X155020000Y-145224600D03*
D39*
X153700000Y-145324600D03*
D14*
X191825000Y-65447000D03*
X190275000Y-65447000D03*
D43*
X185698000Y-65697000D03*
X187598000Y-65697000D03*
D44*
X235700000Y-76320000D03*
X235700000Y-74770000D03*
X195700000Y-99000000D03*
X195700000Y-97450000D03*
D10*
X164715000Y-102726400D03*
X163065000Y-102726400D03*
D45*
X200629906Y-139181991D03*
X198729906Y-139181991D03*
D23*
X173500000Y-75750000D03*
X173500000Y-77400000D03*
D46*
X185448000Y-62501000D03*
X187748000Y-62501000D03*
D47*
X187748000Y-56201000D03*
D46*
X190048000Y-62501000D03*
D10*
X161703997Y-81660989D03*
X160053997Y-81660989D03*
D24*
X218020613Y-122486000D03*
X218020613Y-123120000D03*
X218020613Y-123756000D03*
X218020613Y-124390000D03*
X218020613Y-125026000D03*
X218020613Y-125660000D03*
X218020613Y-126296000D03*
X218020613Y-126930000D03*
X218020613Y-127566000D03*
X218020613Y-128200000D03*
X218020613Y-128836000D03*
X218020613Y-129470000D03*
X223444613Y-129470000D03*
X223444613Y-128836000D03*
X223444613Y-128200000D03*
X223444613Y-127566000D03*
X223444613Y-126930000D03*
X223444613Y-126296000D03*
X223444613Y-125660000D03*
X223444613Y-125026000D03*
X223444613Y-124390000D03*
X223444613Y-123756000D03*
X223444613Y-123120000D03*
X223444613Y-122486000D03*
D48*
X209841113Y-107925000D03*
X208891113Y-107925000D03*
X207941113Y-107925000D03*
X207941113Y-110200000D03*
X209841113Y-110200000D03*
D44*
X170182213Y-118600200D03*
X170182213Y-117050200D03*
D49*
X183700000Y-137590000D03*
X183700000Y-138860000D03*
X183700000Y-140130000D03*
X183700000Y-141400000D03*
X188850000Y-141400000D03*
X188850000Y-140130000D03*
X188850000Y-138860000D03*
X188850000Y-137590000D03*
D10*
X163353997Y-79940000D03*
X161703997Y-79940000D03*
D45*
X161023013Y-131567400D03*
X159123013Y-131567400D03*
D13*
X225975000Y-121100000D03*
X227625000Y-121100000D03*
D10*
X164715000Y-99780000D03*
X163065000Y-99780000D03*
D17*
X235245613Y-102100000D03*
X235245613Y-102750000D03*
X235245613Y-103400000D03*
X235245613Y-104050000D03*
X235245613Y-104700000D03*
X235245613Y-105350000D03*
X235245613Y-106000000D03*
X235245613Y-106650000D03*
X235245613Y-107300000D03*
X235245613Y-107950000D03*
X240970613Y-107950000D03*
X240970613Y-107300000D03*
X240970613Y-106650000D03*
X240970613Y-106000000D03*
X240970613Y-105350000D03*
X240970613Y-104700000D03*
X240970613Y-104050000D03*
X240970613Y-103400000D03*
X240970613Y-102750000D03*
X240970613Y-102100000D03*
D10*
X234625000Y-70300000D03*
X232975000Y-70300000D03*
D23*
X165229213Y-131275000D03*
X165229213Y-132925000D03*
D50*
X173280000Y-81210000D03*
X173280000Y-82760000D03*
D21*
X169390000Y-75220000D03*
X170940000Y-75220000D03*
D10*
X167225000Y-112500000D03*
X165575000Y-112500000D03*
D11*
X205200000Y-145215000D03*
X205200000Y-143565000D03*
D21*
X235082613Y-128510000D03*
X236632613Y-128510000D03*
D51*
X207900000Y-142295000D03*
X207900000Y-143565000D03*
X207900000Y-144835000D03*
X207900000Y-146105000D03*
X215100000Y-146105000D03*
X215100000Y-144835000D03*
X215100000Y-143565000D03*
X215100000Y-142295000D03*
D11*
X242075000Y-95225000D03*
X242075000Y-93575000D03*
D44*
X238550000Y-76320000D03*
X238550000Y-74770000D03*
D11*
X248100000Y-59825000D03*
X248100000Y-58175000D03*
D52*
X170575913Y-139245000D03*
X169305913Y-139245000D03*
X168035913Y-139245000D03*
X166765913Y-139245000D03*
X166765913Y-146445000D03*
X168035913Y-146445000D03*
X169305913Y-146445000D03*
X170575913Y-146445000D03*
D23*
X195700000Y-100675000D03*
X195700000Y-102325000D03*
D10*
X234745613Y-140300000D03*
X233095613Y-140300000D03*
X164715000Y-92414000D03*
X163065000Y-92414000D03*
D13*
X233595613Y-83200000D03*
X235245613Y-83200000D03*
D10*
X164715000Y-101253200D03*
X163065000Y-101253200D03*
D21*
X161672413Y-116875200D03*
X163222413Y-116875200D03*
D18*
X232975000Y-67750000D03*
X232975000Y-65850000D03*
D53*
X193248000Y-60145888D03*
X193248000Y-56845888D03*
D54*
X233000000Y-74800000D03*
X233000000Y-72900000D03*
X231125000Y-73850000D03*
D55*
X193582057Y-93576000D03*
X192948057Y-93576000D03*
X192312057Y-93576000D03*
X191678057Y-93576000D03*
X191042057Y-93576000D03*
X190408057Y-93576000D03*
X189772057Y-93576000D03*
X189138057Y-93576000D03*
X188502057Y-93576000D03*
X187868057Y-93576000D03*
X187232057Y-93576000D03*
X186598057Y-93576000D03*
X186598057Y-99000000D03*
X187232057Y-99000000D03*
X187868057Y-99000000D03*
X188502057Y-99000000D03*
X189138057Y-99000000D03*
X189772057Y-99000000D03*
X190408057Y-99000000D03*
X191042057Y-99000000D03*
X191678057Y-99000000D03*
X192312057Y-99000000D03*
X192948057Y-99000000D03*
X193582057Y-99000000D03*
D56*
X167908613Y-116875200D03*
X165508613Y-116875200D03*
X165508613Y-118775200D03*
X167908613Y-118775200D03*
D21*
X221894613Y-109170000D03*
X223444613Y-109170000D03*
D11*
X188900000Y-109925000D03*
X188900000Y-108275000D03*
D21*
X185725000Y-135675000D03*
X187275000Y-135675000D03*
D55*
X185534000Y-107588000D03*
X184900000Y-107588000D03*
X184264000Y-107588000D03*
X183630000Y-107588000D03*
X182994000Y-107588000D03*
X182360000Y-107588000D03*
X181724000Y-107588000D03*
X181090000Y-107588000D03*
X180454000Y-107588000D03*
X179820000Y-107588000D03*
X179184000Y-107588000D03*
X178550000Y-107588000D03*
X178550000Y-113012000D03*
X179184000Y-113012000D03*
X179820000Y-113012000D03*
X180454000Y-113012000D03*
X181090000Y-113012000D03*
X181724000Y-113012000D03*
X182360000Y-113012000D03*
X182994000Y-113012000D03*
X183630000Y-113012000D03*
X184264000Y-113012000D03*
X184900000Y-113012000D03*
X185534000Y-113012000D03*
D10*
X163272413Y-118775200D03*
X161622413Y-118775200D03*
D57*
X159051313Y-133690800D03*
X159051313Y-134640800D03*
X159051313Y-135590800D03*
X161326313Y-135590800D03*
X161326313Y-133690800D03*
D13*
X236250000Y-70310000D03*
X237900000Y-70310000D03*
D14*
X169813997Y-83390989D03*
X168263997Y-83390989D03*
M02*
