G04 #@! TF.GenerationSoftware,KiCad,Pcbnew,9.0.3*
G04 #@! TF.CreationDate,2025-08-04T13:50:30+10:00*
G04 #@! TF.ProjectId,VideoFPGA_RevB,56696465-6f46-4504-9741-5f526576422e,rev?*
G04 #@! TF.SameCoordinates,Original*
G04 #@! TF.FileFunction,Soldermask,Bot*
G04 #@! TF.FilePolarity,Negative*
%FSLAX46Y46*%
G04 Gerber Fmt 4.6, Leading zero omitted, Abs format (unit mm)*
G04 Created by KiCad (PCBNEW 9.0.3) date 2025-08-04 13:50:30*
%MOMM*%
%LPD*%
G01*
G04 APERTURE LIST*
G04 Aperture macros list*
%AMRoundRect*
0 Rectangle with rounded corners*
0 $1 Rounding radius*
0 $2 $3 $4 $5 $6 $7 $8 $9 X,Y pos of 4 corners*
0 Add a 4 corners polygon primitive as box body*
4,1,4,$2,$3,$4,$5,$6,$7,$8,$9,$2,$3,0*
0 Add four circle primitives for the rounded corners*
1,1,$1+$1,$2,$3*
1,1,$1+$1,$4,$5*
1,1,$1+$1,$6,$7*
1,1,$1+$1,$8,$9*
0 Add four rect primitives between the rounded corners*
20,1,$1+$1,$2,$3,$4,$5,0*
20,1,$1+$1,$4,$5,$6,$7,0*
20,1,$1+$1,$6,$7,$8,$9,0*
20,1,$1+$1,$8,$9,$2,$3,0*%
G04 Aperture macros list end*
%ADD10R,1.700000X1.700000*%
%ADD11C,1.700000*%
%ADD12C,1.995000*%
%ADD13C,0.700000*%
%ADD14O,1.700000X1.350000*%
%ADD15O,1.500000X1.100000*%
%ADD16C,1.440000*%
%ADD17RoundRect,0.250000X0.550000X-0.550000X0.550000X0.550000X-0.550000X0.550000X-0.550000X-0.550000X0*%
%ADD18C,1.600000*%
%ADD19R,2.400000X1.700000*%
%ADD20O,2.400000X1.700000*%
%ADD21C,3.000000*%
%ADD22RoundRect,0.200000X-0.200000X-0.275000X0.200000X-0.275000X0.200000X0.275000X-0.200000X0.275000X0*%
%ADD23RoundRect,0.225000X0.250000X-0.225000X0.250000X0.225000X-0.250000X0.225000X-0.250000X-0.225000X0*%
%ADD24RoundRect,0.200000X-0.275000X0.200000X-0.275000X-0.200000X0.275000X-0.200000X0.275000X0.200000X0*%
%ADD25RoundRect,0.225000X-0.225000X-0.250000X0.225000X-0.250000X0.225000X0.250000X-0.225000X0.250000X0*%
%ADD26RoundRect,0.200000X0.275000X-0.200000X0.275000X0.200000X-0.275000X0.200000X-0.275000X-0.200000X0*%
%ADD27RoundRect,0.150000X0.587500X0.150000X-0.587500X0.150000X-0.587500X-0.150000X0.587500X-0.150000X0*%
%ADD28RoundRect,0.225000X-0.250000X0.225000X-0.250000X-0.225000X0.250000X-0.225000X0.250000X0.225000X0*%
%ADD29RoundRect,0.200000X0.200000X0.275000X-0.200000X0.275000X-0.200000X-0.275000X0.200000X-0.275000X0*%
%ADD30RoundRect,0.225000X0.225000X0.250000X-0.225000X0.250000X-0.225000X-0.250000X0.225000X-0.250000X0*%
%ADD31RoundRect,0.250000X-0.250000X-0.475000X0.250000X-0.475000X0.250000X0.475000X-0.250000X0.475000X0*%
%ADD32RoundRect,0.250000X0.250000X0.475000X-0.250000X0.475000X-0.250000X-0.475000X0.250000X-0.475000X0*%
%ADD33RoundRect,0.225000X-0.225000X-0.375000X0.225000X-0.375000X0.225000X0.375000X-0.225000X0.375000X0*%
G04 APERTURE END LIST*
D10*
X178642000Y-133000000D03*
D11*
X178642000Y-135540000D03*
X178642000Y-138080000D03*
X178642000Y-140620000D03*
D12*
X153775000Y-87770000D03*
X158675000Y-88370000D03*
X158675000Y-102870000D03*
X153775000Y-103470000D03*
D10*
X198998113Y-76060000D03*
D11*
X198998113Y-78600000D03*
X198998113Y-81140000D03*
X198998113Y-83680000D03*
X198998113Y-86220000D03*
X198998113Y-88760000D03*
X198998113Y-91300000D03*
X198998113Y-93840000D03*
X198998113Y-96380000D03*
X198998113Y-98920000D03*
X198998113Y-101460000D03*
D13*
X166173413Y-127034600D03*
X166173413Y-126034600D03*
X166173413Y-125034600D03*
X165173413Y-127034600D03*
X165173413Y-126034600D03*
X165173413Y-125034600D03*
X164173413Y-127034600D03*
X164173413Y-126034600D03*
X164173413Y-125034600D03*
D14*
X152020000Y-139594600D03*
D15*
X155020000Y-139904600D03*
X155020000Y-144744600D03*
D14*
X152020000Y-145054600D03*
D16*
X182490000Y-78687963D03*
X182490000Y-81227963D03*
X182490000Y-83767963D03*
X177148673Y-78690989D03*
X177148673Y-81230989D03*
X177148673Y-83770989D03*
D10*
X178678113Y-60820000D03*
D11*
X178678113Y-63360000D03*
X178678113Y-65900000D03*
D10*
X153500000Y-74670000D03*
D11*
X156040000Y-74670000D03*
X158580000Y-74670000D03*
D10*
X181182000Y-101492995D03*
D11*
X178642000Y-101492995D03*
X181182000Y-98952995D03*
X178642000Y-98952995D03*
X181182000Y-96412995D03*
X178642000Y-96412995D03*
X181182000Y-93872995D03*
X178642000Y-93872995D03*
X181182000Y-91332995D03*
X178642000Y-91332995D03*
D10*
X178642000Y-145700000D03*
D11*
X181182000Y-145700000D03*
D17*
X229171557Y-55740000D03*
D18*
X229171557Y-53240000D03*
D10*
X237080000Y-55740000D03*
D11*
X237080000Y-53200000D03*
X239620000Y-55740000D03*
X239620000Y-53200000D03*
X242160000Y-55740000D03*
X242160000Y-53200000D03*
X244700000Y-55740000D03*
X244700000Y-53200000D03*
D10*
X154712013Y-112544600D03*
D11*
X154712013Y-115084600D03*
X154712013Y-117624600D03*
D19*
X206618113Y-55740000D03*
D20*
X206618113Y-58280000D03*
X206618113Y-60820000D03*
X206618113Y-63360000D03*
X206618113Y-65900000D03*
X206618113Y-68440000D03*
X206618113Y-70980000D03*
X206618113Y-73520000D03*
X206618113Y-76060000D03*
X206618113Y-78600000D03*
X206618113Y-81140000D03*
X206618113Y-83680000D03*
X206618113Y-86220000D03*
X206618113Y-88760000D03*
X206618113Y-91300000D03*
X206618113Y-93840000D03*
X206618113Y-96380000D03*
X206618113Y-98920000D03*
X206618113Y-101460000D03*
X206618113Y-104000000D03*
X221858113Y-104000000D03*
X221858113Y-101460000D03*
X221858113Y-98920000D03*
X221858113Y-96380000D03*
X221858113Y-93840000D03*
X221858113Y-91300000D03*
X221858113Y-88760000D03*
X221858113Y-86220000D03*
X221858113Y-83680000D03*
X221858113Y-81140000D03*
X221858113Y-78600000D03*
X221858113Y-76060000D03*
X221858113Y-73520000D03*
X221858113Y-70980000D03*
X221858113Y-68440000D03*
X221858113Y-65900000D03*
X221858113Y-63360000D03*
X221858113Y-60820000D03*
X221858113Y-58280000D03*
X221858113Y-55740000D03*
D21*
X154500000Y-63200000D03*
X157000000Y-53200000D03*
X162000000Y-63200000D03*
X167000000Y-53200000D03*
X169500000Y-63200000D03*
X157000000Y-65700000D03*
X167000000Y-65740000D03*
D10*
X247240000Y-145700000D03*
D11*
X244700000Y-145700000D03*
X247240000Y-143160000D03*
X244700000Y-143160000D03*
X247240000Y-140620000D03*
X244700000Y-140620000D03*
X247240000Y-138080000D03*
X244700000Y-138080000D03*
X247240000Y-135540000D03*
X244700000Y-135540000D03*
X247240000Y-133000000D03*
X244700000Y-133000000D03*
X247240000Y-130460000D03*
X244700000Y-130460000D03*
X247240000Y-127920000D03*
X244700000Y-127920000D03*
X247240000Y-125380000D03*
X244700000Y-125380000D03*
X247240000Y-122840000D03*
X244700000Y-122840000D03*
X247240000Y-120300000D03*
X244700000Y-120300000D03*
X247240000Y-117760000D03*
X244700000Y-117760000D03*
X247240000Y-115220000D03*
X244700000Y-115220000D03*
X247240000Y-112680000D03*
X244700000Y-112680000D03*
X247240000Y-110140000D03*
X244700000Y-110140000D03*
X247240000Y-107600000D03*
X244700000Y-107600000D03*
X247240000Y-105060000D03*
X244700000Y-105060000D03*
X247240000Y-102520000D03*
X244700000Y-102520000D03*
X247240000Y-99980000D03*
X244700000Y-99980000D03*
X247240000Y-97440000D03*
X244700000Y-97440000D03*
X247240000Y-94900000D03*
X244700000Y-94900000D03*
X247240000Y-92360000D03*
X244700000Y-92360000D03*
X247240000Y-89820000D03*
X244700000Y-89820000D03*
X247240000Y-87280000D03*
X244700000Y-87280000D03*
X247240000Y-84740000D03*
X244700000Y-84740000D03*
X247240000Y-82200000D03*
X244700000Y-82200000D03*
X247240000Y-79660000D03*
X244700000Y-79660000D03*
X247240000Y-77120000D03*
X244700000Y-77120000D03*
X247240000Y-74580000D03*
X244700000Y-74580000D03*
X247240000Y-72040000D03*
X244700000Y-72040000D03*
X247240000Y-69500000D03*
X244700000Y-69500000D03*
X247240000Y-66960000D03*
X244700000Y-66960000D03*
D22*
X224975000Y-60820000D03*
X226625000Y-60820000D03*
D23*
X240970613Y-103650000D03*
X240970613Y-102100000D03*
D24*
X174400113Y-142210000D03*
X174400113Y-143860000D03*
D25*
X208053906Y-112004698D03*
X209603906Y-112004698D03*
D26*
X199700000Y-135698991D03*
X199700000Y-134048991D03*
D25*
X189252908Y-127497991D03*
X190802908Y-127497991D03*
X207518613Y-131053991D03*
X209068613Y-131053991D03*
D23*
X226000000Y-124004000D03*
X226000000Y-122454000D03*
D25*
X201553906Y-131053991D03*
X203103906Y-131053991D03*
D24*
X158944213Y-129434600D03*
X158944213Y-131084600D03*
D27*
X171100000Y-92500000D03*
X171100000Y-94400000D03*
X169225000Y-93450000D03*
D26*
X181600000Y-133950000D03*
X181600000Y-132300000D03*
D23*
X208315908Y-118432991D03*
X208315908Y-116882991D03*
D25*
X191109908Y-130291991D03*
X192659908Y-130291991D03*
D28*
X170615513Y-142260200D03*
X170615513Y-143810200D03*
D22*
X204052613Y-109180698D03*
X205702613Y-109180698D03*
D28*
X208315908Y-123929991D03*
X208315908Y-125479991D03*
D29*
X207703906Y-133525000D03*
X206053906Y-133525000D03*
D30*
X200962906Y-109210698D03*
X199412906Y-109210698D03*
D23*
X162754213Y-130831400D03*
X162754213Y-129281400D03*
D25*
X183984000Y-110500000D03*
X185534000Y-110500000D03*
D23*
X167642213Y-129116600D03*
X167642213Y-127566600D03*
D31*
X159137213Y-133548600D03*
X161037213Y-133548600D03*
D25*
X167108213Y-130881600D03*
X168658213Y-130881600D03*
X196053906Y-131053991D03*
X197603906Y-131053991D03*
D28*
X161636613Y-123870600D03*
X161636613Y-125420600D03*
X224400000Y-54190000D03*
X224400000Y-55740000D03*
D22*
X193625000Y-141900000D03*
X195275000Y-141900000D03*
D25*
X209243613Y-121910698D03*
X210793613Y-121910698D03*
D23*
X160606413Y-131034600D03*
X160606413Y-129484600D03*
X169852013Y-124493000D03*
X169852013Y-122943000D03*
D32*
X201137906Y-106670698D03*
X199237906Y-106670698D03*
D30*
X166182013Y-129116600D03*
X164632013Y-129116600D03*
D29*
X175225000Y-97250000D03*
X173575000Y-97250000D03*
D30*
X186175000Y-132300000D03*
X184625000Y-132300000D03*
D23*
X193075908Y-134048991D03*
X193075908Y-132498991D03*
D30*
X163921413Y-121584400D03*
X162371413Y-121584400D03*
D26*
X172495113Y-143860000D03*
X172495113Y-142210000D03*
D30*
X198053906Y-115306698D03*
X196503906Y-115306698D03*
D24*
X235245613Y-102100000D03*
X235245613Y-103750000D03*
D23*
X192431613Y-116929991D03*
X192431613Y-115379991D03*
D33*
X212117613Y-112131698D03*
X215417613Y-112131698D03*
D28*
X154500000Y-57875000D03*
X154500000Y-59425000D03*
D30*
X166474413Y-123159200D03*
X164924413Y-123159200D03*
D27*
X171137500Y-97250000D03*
X171137500Y-99150000D03*
X169262500Y-98200000D03*
D26*
X167200000Y-98200000D03*
X167200000Y-96550000D03*
D22*
X159160613Y-120391400D03*
X160810613Y-120391400D03*
D24*
X167200000Y-93450000D03*
X167200000Y-95100000D03*
D25*
X202206908Y-115306698D03*
X203756908Y-115306698D03*
D28*
X181600000Y-135925000D03*
X181600000Y-137475000D03*
D30*
X195225000Y-140100000D03*
X193675000Y-140100000D03*
D29*
X175225000Y-92500000D03*
X173575000Y-92500000D03*
M02*
