G04 #@! TF.GenerationSoftware,KiCad,Pcbnew,9.0.3*
G04 #@! TF.CreationDate,2025-08-09T12:56:23+10:00*
G04 #@! TF.ProjectId,RP2350_VIA_IO,52503233-3530-45f5-9649-415f494f2e6b,rev?*
G04 #@! TF.SameCoordinates,Original*
G04 #@! TF.FileFunction,Profile,NP*
%FSLAX46Y46*%
G04 Gerber Fmt 4.6, Leading zero omitted, Abs format (unit mm)*
G04 Created by KiCad (PCBNEW 9.0.3) date 2025-08-09 12:56:23*
%MOMM*%
%LPD*%
G01*
G04 APERTURE LIST*
G04 #@! TA.AperFunction,Profile*
%ADD10C,0.100000*%
G04 #@! TD*
G04 APERTURE END LIST*
D10*
X150000000Y-50000000D02*
X150000000Y-138250000D01*
X76987500Y-138250000D02*
X99200000Y-138247500D01*
X50000000Y-50000000D02*
X50000000Y-138247500D01*
X50000000Y-50000000D02*
X150000000Y-50000000D01*
X99200000Y-149042500D02*
X99200000Y-138247500D01*
X100152500Y-149995000D02*
X99200000Y-149042500D01*
X103264000Y-149995000D02*
X100152500Y-149995000D01*
X104216500Y-139835000D02*
X104216500Y-149042500D01*
X104216500Y-149042500D02*
X103264000Y-149995000D01*
X105486500Y-139835000D02*
X104216500Y-139835000D01*
X105486500Y-149042500D02*
X105486500Y-139835000D01*
X105486500Y-149042500D02*
X106439000Y-149995000D01*
X138887500Y-149995000D02*
X106439000Y-149995000D01*
X139840000Y-139835000D02*
X139840000Y-149042500D01*
X139840000Y-149042500D02*
X138887500Y-149995000D01*
X141110000Y-139835000D02*
X139840000Y-139835000D01*
X141110000Y-149042500D02*
X141110000Y-139835000D01*
X142062500Y-149995000D02*
X141110000Y-149042500D01*
X149047500Y-149995000D02*
X142062500Y-149995000D01*
X150000000Y-138250000D02*
X150000000Y-149042500D01*
X150000000Y-149042500D02*
X149047500Y-149995000D01*
X50000000Y-149045000D02*
X50000000Y-138250000D01*
X50952500Y-149997500D02*
X50000000Y-149045000D01*
X57937500Y-149997500D02*
X50952500Y-149997500D01*
X58890000Y-139837500D02*
X58890000Y-149045000D01*
X58890000Y-149045000D02*
X57937500Y-149997500D01*
X60160000Y-139837500D02*
X58890000Y-139837500D01*
X60160000Y-149045000D02*
X60160000Y-139837500D01*
X61112500Y-149997500D02*
X60160000Y-149045000D01*
X76035000Y-149997500D02*
X61112500Y-149997500D01*
X76987500Y-138250000D02*
X76987500Y-149045000D01*
X76987500Y-149045000D02*
X76035000Y-149997500D01*
M02*
