G04 #@! TF.GenerationSoftware,KiCad,Pcbnew,9.0.3*
G04 #@! TF.CreationDate,2025-08-09T12:56:23+10:00*
G04 #@! TF.ProjectId,RP2350_VIA_IO,52503233-3530-45f5-9649-415f494f2e6b,rev?*
G04 #@! TF.SameCoordinates,Original*
G04 #@! TF.FileFunction,Legend,Bot*
G04 #@! TF.FilePolarity,Positive*
%FSLAX46Y46*%
G04 Gerber Fmt 4.6, Leading zero omitted, Abs format (unit mm)*
G04 Created by KiCad (PCBNEW 9.0.3) date 2025-08-09 12:56:23*
%MOMM*%
%LPD*%
G01*
G04 APERTURE LIST*
G04 Aperture macros list*
%AMRoundRect*
0 Rectangle with rounded corners*
0 $1 Rounding radius*
0 $2 $3 $4 $5 $6 $7 $8 $9 X,Y pos of 4 corners*
0 Add a 4 corners polygon primitive as box body*
4,1,4,$2,$3,$4,$5,$6,$7,$8,$9,$2,$3,0*
0 Add four circle primitives for the rounded corners*
1,1,$1+$1,$2,$3*
1,1,$1+$1,$4,$5*
1,1,$1+$1,$6,$7*
1,1,$1+$1,$8,$9*
0 Add four rect primitives between the rounded corners*
20,1,$1+$1,$2,$3,$4,$5,0*
20,1,$1+$1,$4,$5,$6,$7,0*
20,1,$1+$1,$6,$7,$8,$9,0*
20,1,$1+$1,$8,$9,$2,$3,0*%
G04 Aperture macros list end*
%ADD10C,0.150000*%
%ADD11C,0.120000*%
%ADD12R,1.700000X1.700000*%
%ADD13C,1.700000*%
%ADD14R,2.400000X1.700000*%
%ADD15O,2.400000X1.700000*%
%ADD16C,0.425000*%
%ADD17O,2.410000X8.760000*%
%ADD18RoundRect,0.250000X-0.550000X0.550000X-0.550000X-0.550000X0.550000X-0.550000X0.550000X0.550000X0*%
%ADD19C,1.600000*%
%ADD20C,4.770000*%
%ADD21R,1.785000X1.785000*%
%ADD22C,1.785000*%
%ADD23C,3.000000*%
%ADD24O,1.350000X1.700000*%
%ADD25O,1.100000X1.500000*%
%ADD26C,1.800000*%
%ADD27RoundRect,0.200000X-0.275000X0.200000X-0.275000X-0.200000X0.275000X-0.200000X0.275000X0.200000X0*%
%ADD28RoundRect,0.225000X0.225000X0.250000X-0.225000X0.250000X-0.225000X-0.250000X0.225000X-0.250000X0*%
%ADD29RoundRect,0.250000X0.450000X-0.262500X0.450000X0.262500X-0.450000X0.262500X-0.450000X-0.262500X0*%
%ADD30RoundRect,0.225000X-0.250000X0.225000X-0.250000X-0.225000X0.250000X-0.225000X0.250000X0.225000X0*%
%ADD31R,1.000000X1.000000*%
%ADD32RoundRect,0.225000X-0.225000X-0.250000X0.225000X-0.250000X0.225000X0.250000X-0.225000X0.250000X0*%
%ADD33RoundRect,0.225000X0.250000X-0.225000X0.250000X0.225000X-0.250000X0.225000X-0.250000X-0.225000X0*%
%ADD34RoundRect,0.200000X0.200000X0.275000X-0.200000X0.275000X-0.200000X-0.275000X0.200000X-0.275000X0*%
%ADD35RoundRect,0.200000X-0.200000X-0.275000X0.200000X-0.275000X0.200000X0.275000X-0.200000X0.275000X0*%
%ADD36RoundRect,0.200000X0.275000X-0.200000X0.275000X0.200000X-0.275000X0.200000X-0.275000X-0.200000X0*%
G04 APERTURE END LIST*
D10*
X121164819Y-70442142D02*
X120688628Y-70108809D01*
X121164819Y-69870714D02*
X120164819Y-69870714D01*
X120164819Y-69870714D02*
X120164819Y-70251666D01*
X120164819Y-70251666D02*
X120212438Y-70346904D01*
X120212438Y-70346904D02*
X120260057Y-70394523D01*
X120260057Y-70394523D02*
X120355295Y-70442142D01*
X120355295Y-70442142D02*
X120498152Y-70442142D01*
X120498152Y-70442142D02*
X120593390Y-70394523D01*
X120593390Y-70394523D02*
X120641009Y-70346904D01*
X120641009Y-70346904D02*
X120688628Y-70251666D01*
X120688628Y-70251666D02*
X120688628Y-69870714D01*
X120164819Y-71299285D02*
X120164819Y-71108809D01*
X120164819Y-71108809D02*
X120212438Y-71013571D01*
X120212438Y-71013571D02*
X120260057Y-70965952D01*
X120260057Y-70965952D02*
X120402914Y-70870714D01*
X120402914Y-70870714D02*
X120593390Y-70823095D01*
X120593390Y-70823095D02*
X120974342Y-70823095D01*
X120974342Y-70823095D02*
X121069580Y-70870714D01*
X121069580Y-70870714D02*
X121117200Y-70918333D01*
X121117200Y-70918333D02*
X121164819Y-71013571D01*
X121164819Y-71013571D02*
X121164819Y-71204047D01*
X121164819Y-71204047D02*
X121117200Y-71299285D01*
X121117200Y-71299285D02*
X121069580Y-71346904D01*
X121069580Y-71346904D02*
X120974342Y-71394523D01*
X120974342Y-71394523D02*
X120736247Y-71394523D01*
X120736247Y-71394523D02*
X120641009Y-71346904D01*
X120641009Y-71346904D02*
X120593390Y-71299285D01*
X120593390Y-71299285D02*
X120545771Y-71204047D01*
X120545771Y-71204047D02*
X120545771Y-71013571D01*
X120545771Y-71013571D02*
X120593390Y-70918333D01*
X120593390Y-70918333D02*
X120641009Y-70870714D01*
X120641009Y-70870714D02*
X120736247Y-70823095D01*
X120164819Y-72251666D02*
X120164819Y-72061190D01*
X120164819Y-72061190D02*
X120212438Y-71965952D01*
X120212438Y-71965952D02*
X120260057Y-71918333D01*
X120260057Y-71918333D02*
X120402914Y-71823095D01*
X120402914Y-71823095D02*
X120593390Y-71775476D01*
X120593390Y-71775476D02*
X120974342Y-71775476D01*
X120974342Y-71775476D02*
X121069580Y-71823095D01*
X121069580Y-71823095D02*
X121117200Y-71870714D01*
X121117200Y-71870714D02*
X121164819Y-71965952D01*
X121164819Y-71965952D02*
X121164819Y-72156428D01*
X121164819Y-72156428D02*
X121117200Y-72251666D01*
X121117200Y-72251666D02*
X121069580Y-72299285D01*
X121069580Y-72299285D02*
X120974342Y-72346904D01*
X120974342Y-72346904D02*
X120736247Y-72346904D01*
X120736247Y-72346904D02*
X120641009Y-72299285D01*
X120641009Y-72299285D02*
X120593390Y-72251666D01*
X120593390Y-72251666D02*
X120545771Y-72156428D01*
X120545771Y-72156428D02*
X120545771Y-71965952D01*
X120545771Y-71965952D02*
X120593390Y-71870714D01*
X120593390Y-71870714D02*
X120641009Y-71823095D01*
X120641009Y-71823095D02*
X120736247Y-71775476D01*
X129842857Y-130359580D02*
X129890476Y-130407200D01*
X129890476Y-130407200D02*
X130033333Y-130454819D01*
X130033333Y-130454819D02*
X130128571Y-130454819D01*
X130128571Y-130454819D02*
X130271428Y-130407200D01*
X130271428Y-130407200D02*
X130366666Y-130311961D01*
X130366666Y-130311961D02*
X130414285Y-130216723D01*
X130414285Y-130216723D02*
X130461904Y-130026247D01*
X130461904Y-130026247D02*
X130461904Y-129883390D01*
X130461904Y-129883390D02*
X130414285Y-129692914D01*
X130414285Y-129692914D02*
X130366666Y-129597676D01*
X130366666Y-129597676D02*
X130271428Y-129502438D01*
X130271428Y-129502438D02*
X130128571Y-129454819D01*
X130128571Y-129454819D02*
X130033333Y-129454819D01*
X130033333Y-129454819D02*
X129890476Y-129502438D01*
X129890476Y-129502438D02*
X129842857Y-129550057D01*
X129461904Y-129550057D02*
X129414285Y-129502438D01*
X129414285Y-129502438D02*
X129319047Y-129454819D01*
X129319047Y-129454819D02*
X129080952Y-129454819D01*
X129080952Y-129454819D02*
X128985714Y-129502438D01*
X128985714Y-129502438D02*
X128938095Y-129550057D01*
X128938095Y-129550057D02*
X128890476Y-129645295D01*
X128890476Y-129645295D02*
X128890476Y-129740533D01*
X128890476Y-129740533D02*
X128938095Y-129883390D01*
X128938095Y-129883390D02*
X129509523Y-130454819D01*
X129509523Y-130454819D02*
X128890476Y-130454819D01*
X128319047Y-129883390D02*
X128414285Y-129835771D01*
X128414285Y-129835771D02*
X128461904Y-129788152D01*
X128461904Y-129788152D02*
X128509523Y-129692914D01*
X128509523Y-129692914D02*
X128509523Y-129645295D01*
X128509523Y-129645295D02*
X128461904Y-129550057D01*
X128461904Y-129550057D02*
X128414285Y-129502438D01*
X128414285Y-129502438D02*
X128319047Y-129454819D01*
X128319047Y-129454819D02*
X128128571Y-129454819D01*
X128128571Y-129454819D02*
X128033333Y-129502438D01*
X128033333Y-129502438D02*
X127985714Y-129550057D01*
X127985714Y-129550057D02*
X127938095Y-129645295D01*
X127938095Y-129645295D02*
X127938095Y-129692914D01*
X127938095Y-129692914D02*
X127985714Y-129788152D01*
X127985714Y-129788152D02*
X128033333Y-129835771D01*
X128033333Y-129835771D02*
X128128571Y-129883390D01*
X128128571Y-129883390D02*
X128319047Y-129883390D01*
X128319047Y-129883390D02*
X128414285Y-129931009D01*
X128414285Y-129931009D02*
X128461904Y-129978628D01*
X128461904Y-129978628D02*
X128509523Y-130073866D01*
X128509523Y-130073866D02*
X128509523Y-130264342D01*
X128509523Y-130264342D02*
X128461904Y-130359580D01*
X128461904Y-130359580D02*
X128414285Y-130407200D01*
X128414285Y-130407200D02*
X128319047Y-130454819D01*
X128319047Y-130454819D02*
X128128571Y-130454819D01*
X128128571Y-130454819D02*
X128033333Y-130407200D01*
X128033333Y-130407200D02*
X127985714Y-130359580D01*
X127985714Y-130359580D02*
X127938095Y-130264342D01*
X127938095Y-130264342D02*
X127938095Y-130073866D01*
X127938095Y-130073866D02*
X127985714Y-129978628D01*
X127985714Y-129978628D02*
X128033333Y-129931009D01*
X128033333Y-129931009D02*
X128128571Y-129883390D01*
X137618509Y-71354166D02*
X137618509Y-71020833D01*
X138142319Y-71020833D02*
X137142319Y-71020833D01*
X137142319Y-71020833D02*
X137142319Y-71497023D01*
X137618509Y-72211309D02*
X137666128Y-72354166D01*
X137666128Y-72354166D02*
X137713747Y-72401785D01*
X137713747Y-72401785D02*
X137808985Y-72449404D01*
X137808985Y-72449404D02*
X137951842Y-72449404D01*
X137951842Y-72449404D02*
X138047080Y-72401785D01*
X138047080Y-72401785D02*
X138094700Y-72354166D01*
X138094700Y-72354166D02*
X138142319Y-72258928D01*
X138142319Y-72258928D02*
X138142319Y-71877976D01*
X138142319Y-71877976D02*
X137142319Y-71877976D01*
X137142319Y-71877976D02*
X137142319Y-72211309D01*
X137142319Y-72211309D02*
X137189938Y-72306547D01*
X137189938Y-72306547D02*
X137237557Y-72354166D01*
X137237557Y-72354166D02*
X137332795Y-72401785D01*
X137332795Y-72401785D02*
X137428033Y-72401785D01*
X137428033Y-72401785D02*
X137523271Y-72354166D01*
X137523271Y-72354166D02*
X137570890Y-72306547D01*
X137570890Y-72306547D02*
X137618509Y-72211309D01*
X137618509Y-72211309D02*
X137618509Y-71877976D01*
X137142319Y-72782738D02*
X137142319Y-73401785D01*
X137142319Y-73401785D02*
X137523271Y-73068452D01*
X137523271Y-73068452D02*
X137523271Y-73211309D01*
X137523271Y-73211309D02*
X137570890Y-73306547D01*
X137570890Y-73306547D02*
X137618509Y-73354166D01*
X137618509Y-73354166D02*
X137713747Y-73401785D01*
X137713747Y-73401785D02*
X137951842Y-73401785D01*
X137951842Y-73401785D02*
X138047080Y-73354166D01*
X138047080Y-73354166D02*
X138094700Y-73306547D01*
X138094700Y-73306547D02*
X138142319Y-73211309D01*
X138142319Y-73211309D02*
X138142319Y-72925595D01*
X138142319Y-72925595D02*
X138094700Y-72830357D01*
X138094700Y-72830357D02*
X138047080Y-72782738D01*
X70739580Y-121307142D02*
X70787200Y-121259523D01*
X70787200Y-121259523D02*
X70834819Y-121116666D01*
X70834819Y-121116666D02*
X70834819Y-121021428D01*
X70834819Y-121021428D02*
X70787200Y-120878571D01*
X70787200Y-120878571D02*
X70691961Y-120783333D01*
X70691961Y-120783333D02*
X70596723Y-120735714D01*
X70596723Y-120735714D02*
X70406247Y-120688095D01*
X70406247Y-120688095D02*
X70263390Y-120688095D01*
X70263390Y-120688095D02*
X70072914Y-120735714D01*
X70072914Y-120735714D02*
X69977676Y-120783333D01*
X69977676Y-120783333D02*
X69882438Y-120878571D01*
X69882438Y-120878571D02*
X69834819Y-121021428D01*
X69834819Y-121021428D02*
X69834819Y-121116666D01*
X69834819Y-121116666D02*
X69882438Y-121259523D01*
X69882438Y-121259523D02*
X69930057Y-121307142D01*
X70263390Y-121878571D02*
X70215771Y-121783333D01*
X70215771Y-121783333D02*
X70168152Y-121735714D01*
X70168152Y-121735714D02*
X70072914Y-121688095D01*
X70072914Y-121688095D02*
X70025295Y-121688095D01*
X70025295Y-121688095D02*
X69930057Y-121735714D01*
X69930057Y-121735714D02*
X69882438Y-121783333D01*
X69882438Y-121783333D02*
X69834819Y-121878571D01*
X69834819Y-121878571D02*
X69834819Y-122069047D01*
X69834819Y-122069047D02*
X69882438Y-122164285D01*
X69882438Y-122164285D02*
X69930057Y-122211904D01*
X69930057Y-122211904D02*
X70025295Y-122259523D01*
X70025295Y-122259523D02*
X70072914Y-122259523D01*
X70072914Y-122259523D02*
X70168152Y-122211904D01*
X70168152Y-122211904D02*
X70215771Y-122164285D01*
X70215771Y-122164285D02*
X70263390Y-122069047D01*
X70263390Y-122069047D02*
X70263390Y-121878571D01*
X70263390Y-121878571D02*
X70311009Y-121783333D01*
X70311009Y-121783333D02*
X70358628Y-121735714D01*
X70358628Y-121735714D02*
X70453866Y-121688095D01*
X70453866Y-121688095D02*
X70644342Y-121688095D01*
X70644342Y-121688095D02*
X70739580Y-121735714D01*
X70739580Y-121735714D02*
X70787200Y-121783333D01*
X70787200Y-121783333D02*
X70834819Y-121878571D01*
X70834819Y-121878571D02*
X70834819Y-122069047D01*
X70834819Y-122069047D02*
X70787200Y-122164285D01*
X70787200Y-122164285D02*
X70739580Y-122211904D01*
X70739580Y-122211904D02*
X70644342Y-122259523D01*
X70644342Y-122259523D02*
X70453866Y-122259523D01*
X70453866Y-122259523D02*
X70358628Y-122211904D01*
X70358628Y-122211904D02*
X70311009Y-122164285D01*
X70311009Y-122164285D02*
X70263390Y-122069047D01*
X69834819Y-122592857D02*
X69834819Y-123211904D01*
X69834819Y-123211904D02*
X70215771Y-122878571D01*
X70215771Y-122878571D02*
X70215771Y-123021428D01*
X70215771Y-123021428D02*
X70263390Y-123116666D01*
X70263390Y-123116666D02*
X70311009Y-123164285D01*
X70311009Y-123164285D02*
X70406247Y-123211904D01*
X70406247Y-123211904D02*
X70644342Y-123211904D01*
X70644342Y-123211904D02*
X70739580Y-123164285D01*
X70739580Y-123164285D02*
X70787200Y-123116666D01*
X70787200Y-123116666D02*
X70834819Y-123021428D01*
X70834819Y-123021428D02*
X70834819Y-122735714D01*
X70834819Y-122735714D02*
X70787200Y-122640476D01*
X70787200Y-122640476D02*
X70739580Y-122592857D01*
X67774819Y-121497618D02*
X67774819Y-120926190D01*
X67774819Y-121211904D02*
X66774819Y-121211904D01*
X66774819Y-121211904D02*
X66917676Y-121116666D01*
X66917676Y-121116666D02*
X67012914Y-121021428D01*
X67012914Y-121021428D02*
X67060533Y-120926190D01*
X67108152Y-121926190D02*
X67774819Y-121926190D01*
X67203390Y-121926190D02*
X67155771Y-121973809D01*
X67155771Y-121973809D02*
X67108152Y-122069047D01*
X67108152Y-122069047D02*
X67108152Y-122211904D01*
X67108152Y-122211904D02*
X67155771Y-122307142D01*
X67155771Y-122307142D02*
X67251009Y-122354761D01*
X67251009Y-122354761D02*
X67774819Y-122354761D01*
X67108152Y-122688095D02*
X67108152Y-123069047D01*
X67774819Y-122830952D02*
X66917676Y-122830952D01*
X66917676Y-122830952D02*
X66822438Y-122878571D01*
X66822438Y-122878571D02*
X66774819Y-122973809D01*
X66774819Y-122973809D02*
X66774819Y-123069047D01*
X86892857Y-67384580D02*
X86940476Y-67432200D01*
X86940476Y-67432200D02*
X87083333Y-67479819D01*
X87083333Y-67479819D02*
X87178571Y-67479819D01*
X87178571Y-67479819D02*
X87321428Y-67432200D01*
X87321428Y-67432200D02*
X87416666Y-67336961D01*
X87416666Y-67336961D02*
X87464285Y-67241723D01*
X87464285Y-67241723D02*
X87511904Y-67051247D01*
X87511904Y-67051247D02*
X87511904Y-66908390D01*
X87511904Y-66908390D02*
X87464285Y-66717914D01*
X87464285Y-66717914D02*
X87416666Y-66622676D01*
X87416666Y-66622676D02*
X87321428Y-66527438D01*
X87321428Y-66527438D02*
X87178571Y-66479819D01*
X87178571Y-66479819D02*
X87083333Y-66479819D01*
X87083333Y-66479819D02*
X86940476Y-66527438D01*
X86940476Y-66527438D02*
X86892857Y-66575057D01*
X86035714Y-66479819D02*
X86226190Y-66479819D01*
X86226190Y-66479819D02*
X86321428Y-66527438D01*
X86321428Y-66527438D02*
X86369047Y-66575057D01*
X86369047Y-66575057D02*
X86464285Y-66717914D01*
X86464285Y-66717914D02*
X86511904Y-66908390D01*
X86511904Y-66908390D02*
X86511904Y-67289342D01*
X86511904Y-67289342D02*
X86464285Y-67384580D01*
X86464285Y-67384580D02*
X86416666Y-67432200D01*
X86416666Y-67432200D02*
X86321428Y-67479819D01*
X86321428Y-67479819D02*
X86130952Y-67479819D01*
X86130952Y-67479819D02*
X86035714Y-67432200D01*
X86035714Y-67432200D02*
X85988095Y-67384580D01*
X85988095Y-67384580D02*
X85940476Y-67289342D01*
X85940476Y-67289342D02*
X85940476Y-67051247D01*
X85940476Y-67051247D02*
X85988095Y-66956009D01*
X85988095Y-66956009D02*
X86035714Y-66908390D01*
X86035714Y-66908390D02*
X86130952Y-66860771D01*
X86130952Y-66860771D02*
X86321428Y-66860771D01*
X86321428Y-66860771D02*
X86416666Y-66908390D01*
X86416666Y-66908390D02*
X86464285Y-66956009D01*
X86464285Y-66956009D02*
X86511904Y-67051247D01*
X85464285Y-67479819D02*
X85273809Y-67479819D01*
X85273809Y-67479819D02*
X85178571Y-67432200D01*
X85178571Y-67432200D02*
X85130952Y-67384580D01*
X85130952Y-67384580D02*
X85035714Y-67241723D01*
X85035714Y-67241723D02*
X84988095Y-67051247D01*
X84988095Y-67051247D02*
X84988095Y-66670295D01*
X84988095Y-66670295D02*
X85035714Y-66575057D01*
X85035714Y-66575057D02*
X85083333Y-66527438D01*
X85083333Y-66527438D02*
X85178571Y-66479819D01*
X85178571Y-66479819D02*
X85369047Y-66479819D01*
X85369047Y-66479819D02*
X85464285Y-66527438D01*
X85464285Y-66527438D02*
X85511904Y-66575057D01*
X85511904Y-66575057D02*
X85559523Y-66670295D01*
X85559523Y-66670295D02*
X85559523Y-66908390D01*
X85559523Y-66908390D02*
X85511904Y-67003628D01*
X85511904Y-67003628D02*
X85464285Y-67051247D01*
X85464285Y-67051247D02*
X85369047Y-67098866D01*
X85369047Y-67098866D02*
X85178571Y-67098866D01*
X85178571Y-67098866D02*
X85083333Y-67051247D01*
X85083333Y-67051247D02*
X85035714Y-67003628D01*
X85035714Y-67003628D02*
X84988095Y-66908390D01*
X85011904Y-72554819D02*
X84440476Y-72554819D01*
X84726190Y-73554819D02*
X84726190Y-72554819D01*
X84107142Y-73554819D02*
X84107142Y-72554819D01*
X84107142Y-72554819D02*
X83726190Y-72554819D01*
X83726190Y-72554819D02*
X83630952Y-72602438D01*
X83630952Y-72602438D02*
X83583333Y-72650057D01*
X83583333Y-72650057D02*
X83535714Y-72745295D01*
X83535714Y-72745295D02*
X83535714Y-72888152D01*
X83535714Y-72888152D02*
X83583333Y-72983390D01*
X83583333Y-72983390D02*
X83630952Y-73031009D01*
X83630952Y-73031009D02*
X83726190Y-73078628D01*
X83726190Y-73078628D02*
X84107142Y-73078628D01*
X83059523Y-73554819D02*
X82869047Y-73554819D01*
X82869047Y-73554819D02*
X82773809Y-73507200D01*
X82773809Y-73507200D02*
X82726190Y-73459580D01*
X82726190Y-73459580D02*
X82630952Y-73316723D01*
X82630952Y-73316723D02*
X82583333Y-73126247D01*
X82583333Y-73126247D02*
X82583333Y-72745295D01*
X82583333Y-72745295D02*
X82630952Y-72650057D01*
X82630952Y-72650057D02*
X82678571Y-72602438D01*
X82678571Y-72602438D02*
X82773809Y-72554819D01*
X82773809Y-72554819D02*
X82964285Y-72554819D01*
X82964285Y-72554819D02*
X83059523Y-72602438D01*
X83059523Y-72602438D02*
X83107142Y-72650057D01*
X83107142Y-72650057D02*
X83154761Y-72745295D01*
X83154761Y-72745295D02*
X83154761Y-72983390D01*
X83154761Y-72983390D02*
X83107142Y-73078628D01*
X83107142Y-73078628D02*
X83059523Y-73126247D01*
X83059523Y-73126247D02*
X82964285Y-73173866D01*
X82964285Y-73173866D02*
X82773809Y-73173866D01*
X82773809Y-73173866D02*
X82678571Y-73126247D01*
X82678571Y-73126247D02*
X82630952Y-73078628D01*
X82630952Y-73078628D02*
X82583333Y-72983390D01*
X80104819Y-61157142D02*
X79628628Y-60823809D01*
X80104819Y-60585714D02*
X79104819Y-60585714D01*
X79104819Y-60585714D02*
X79104819Y-60966666D01*
X79104819Y-60966666D02*
X79152438Y-61061904D01*
X79152438Y-61061904D02*
X79200057Y-61109523D01*
X79200057Y-61109523D02*
X79295295Y-61157142D01*
X79295295Y-61157142D02*
X79438152Y-61157142D01*
X79438152Y-61157142D02*
X79533390Y-61109523D01*
X79533390Y-61109523D02*
X79581009Y-61061904D01*
X79581009Y-61061904D02*
X79628628Y-60966666D01*
X79628628Y-60966666D02*
X79628628Y-60585714D01*
X79104819Y-62014285D02*
X79104819Y-61823809D01*
X79104819Y-61823809D02*
X79152438Y-61728571D01*
X79152438Y-61728571D02*
X79200057Y-61680952D01*
X79200057Y-61680952D02*
X79342914Y-61585714D01*
X79342914Y-61585714D02*
X79533390Y-61538095D01*
X79533390Y-61538095D02*
X79914342Y-61538095D01*
X79914342Y-61538095D02*
X80009580Y-61585714D01*
X80009580Y-61585714D02*
X80057200Y-61633333D01*
X80057200Y-61633333D02*
X80104819Y-61728571D01*
X80104819Y-61728571D02*
X80104819Y-61919047D01*
X80104819Y-61919047D02*
X80057200Y-62014285D01*
X80057200Y-62014285D02*
X80009580Y-62061904D01*
X80009580Y-62061904D02*
X79914342Y-62109523D01*
X79914342Y-62109523D02*
X79676247Y-62109523D01*
X79676247Y-62109523D02*
X79581009Y-62061904D01*
X79581009Y-62061904D02*
X79533390Y-62014285D01*
X79533390Y-62014285D02*
X79485771Y-61919047D01*
X79485771Y-61919047D02*
X79485771Y-61728571D01*
X79485771Y-61728571D02*
X79533390Y-61633333D01*
X79533390Y-61633333D02*
X79581009Y-61585714D01*
X79581009Y-61585714D02*
X79676247Y-61538095D01*
X79104819Y-62442857D02*
X79104819Y-63061904D01*
X79104819Y-63061904D02*
X79485771Y-62728571D01*
X79485771Y-62728571D02*
X79485771Y-62871428D01*
X79485771Y-62871428D02*
X79533390Y-62966666D01*
X79533390Y-62966666D02*
X79581009Y-63014285D01*
X79581009Y-63014285D02*
X79676247Y-63061904D01*
X79676247Y-63061904D02*
X79914342Y-63061904D01*
X79914342Y-63061904D02*
X80009580Y-63014285D01*
X80009580Y-63014285D02*
X80057200Y-62966666D01*
X80057200Y-62966666D02*
X80104819Y-62871428D01*
X80104819Y-62871428D02*
X80104819Y-62585714D01*
X80104819Y-62585714D02*
X80057200Y-62490476D01*
X80057200Y-62490476D02*
X80009580Y-62442857D01*
X57402857Y-136859580D02*
X57450476Y-136907200D01*
X57450476Y-136907200D02*
X57593333Y-136954819D01*
X57593333Y-136954819D02*
X57688571Y-136954819D01*
X57688571Y-136954819D02*
X57831428Y-136907200D01*
X57831428Y-136907200D02*
X57926666Y-136811961D01*
X57926666Y-136811961D02*
X57974285Y-136716723D01*
X57974285Y-136716723D02*
X58021904Y-136526247D01*
X58021904Y-136526247D02*
X58021904Y-136383390D01*
X58021904Y-136383390D02*
X57974285Y-136192914D01*
X57974285Y-136192914D02*
X57926666Y-136097676D01*
X57926666Y-136097676D02*
X57831428Y-136002438D01*
X57831428Y-136002438D02*
X57688571Y-135954819D01*
X57688571Y-135954819D02*
X57593333Y-135954819D01*
X57593333Y-135954819D02*
X57450476Y-136002438D01*
X57450476Y-136002438D02*
X57402857Y-136050057D01*
X56545714Y-136288152D02*
X56545714Y-136954819D01*
X56783809Y-135907200D02*
X57021904Y-136621485D01*
X57021904Y-136621485D02*
X56402857Y-136621485D01*
X55974285Y-136954819D02*
X55783809Y-136954819D01*
X55783809Y-136954819D02*
X55688571Y-136907200D01*
X55688571Y-136907200D02*
X55640952Y-136859580D01*
X55640952Y-136859580D02*
X55545714Y-136716723D01*
X55545714Y-136716723D02*
X55498095Y-136526247D01*
X55498095Y-136526247D02*
X55498095Y-136145295D01*
X55498095Y-136145295D02*
X55545714Y-136050057D01*
X55545714Y-136050057D02*
X55593333Y-136002438D01*
X55593333Y-136002438D02*
X55688571Y-135954819D01*
X55688571Y-135954819D02*
X55879047Y-135954819D01*
X55879047Y-135954819D02*
X55974285Y-136002438D01*
X55974285Y-136002438D02*
X56021904Y-136050057D01*
X56021904Y-136050057D02*
X56069523Y-136145295D01*
X56069523Y-136145295D02*
X56069523Y-136383390D01*
X56069523Y-136383390D02*
X56021904Y-136478628D01*
X56021904Y-136478628D02*
X55974285Y-136526247D01*
X55974285Y-136526247D02*
X55879047Y-136573866D01*
X55879047Y-136573866D02*
X55688571Y-136573866D01*
X55688571Y-136573866D02*
X55593333Y-136526247D01*
X55593333Y-136526247D02*
X55545714Y-136478628D01*
X55545714Y-136478628D02*
X55498095Y-136383390D01*
X111492857Y-76159580D02*
X111540476Y-76207200D01*
X111540476Y-76207200D02*
X111683333Y-76254819D01*
X111683333Y-76254819D02*
X111778571Y-76254819D01*
X111778571Y-76254819D02*
X111921428Y-76207200D01*
X111921428Y-76207200D02*
X112016666Y-76111961D01*
X112016666Y-76111961D02*
X112064285Y-76016723D01*
X112064285Y-76016723D02*
X112111904Y-75826247D01*
X112111904Y-75826247D02*
X112111904Y-75683390D01*
X112111904Y-75683390D02*
X112064285Y-75492914D01*
X112064285Y-75492914D02*
X112016666Y-75397676D01*
X112016666Y-75397676D02*
X111921428Y-75302438D01*
X111921428Y-75302438D02*
X111778571Y-75254819D01*
X111778571Y-75254819D02*
X111683333Y-75254819D01*
X111683333Y-75254819D02*
X111540476Y-75302438D01*
X111540476Y-75302438D02*
X111492857Y-75350057D01*
X111159523Y-75254819D02*
X110492857Y-75254819D01*
X110492857Y-75254819D02*
X110921428Y-76254819D01*
X110064285Y-76254819D02*
X109873809Y-76254819D01*
X109873809Y-76254819D02*
X109778571Y-76207200D01*
X109778571Y-76207200D02*
X109730952Y-76159580D01*
X109730952Y-76159580D02*
X109635714Y-76016723D01*
X109635714Y-76016723D02*
X109588095Y-75826247D01*
X109588095Y-75826247D02*
X109588095Y-75445295D01*
X109588095Y-75445295D02*
X109635714Y-75350057D01*
X109635714Y-75350057D02*
X109683333Y-75302438D01*
X109683333Y-75302438D02*
X109778571Y-75254819D01*
X109778571Y-75254819D02*
X109969047Y-75254819D01*
X109969047Y-75254819D02*
X110064285Y-75302438D01*
X110064285Y-75302438D02*
X110111904Y-75350057D01*
X110111904Y-75350057D02*
X110159523Y-75445295D01*
X110159523Y-75445295D02*
X110159523Y-75683390D01*
X110159523Y-75683390D02*
X110111904Y-75778628D01*
X110111904Y-75778628D02*
X110064285Y-75826247D01*
X110064285Y-75826247D02*
X109969047Y-75873866D01*
X109969047Y-75873866D02*
X109778571Y-75873866D01*
X109778571Y-75873866D02*
X109683333Y-75826247D01*
X109683333Y-75826247D02*
X109635714Y-75778628D01*
X109635714Y-75778628D02*
X109588095Y-75683390D01*
X79942857Y-69259580D02*
X79990476Y-69307200D01*
X79990476Y-69307200D02*
X80133333Y-69354819D01*
X80133333Y-69354819D02*
X80228571Y-69354819D01*
X80228571Y-69354819D02*
X80371428Y-69307200D01*
X80371428Y-69307200D02*
X80466666Y-69211961D01*
X80466666Y-69211961D02*
X80514285Y-69116723D01*
X80514285Y-69116723D02*
X80561904Y-68926247D01*
X80561904Y-68926247D02*
X80561904Y-68783390D01*
X80561904Y-68783390D02*
X80514285Y-68592914D01*
X80514285Y-68592914D02*
X80466666Y-68497676D01*
X80466666Y-68497676D02*
X80371428Y-68402438D01*
X80371428Y-68402438D02*
X80228571Y-68354819D01*
X80228571Y-68354819D02*
X80133333Y-68354819D01*
X80133333Y-68354819D02*
X79990476Y-68402438D01*
X79990476Y-68402438D02*
X79942857Y-68450057D01*
X79085714Y-68354819D02*
X79276190Y-68354819D01*
X79276190Y-68354819D02*
X79371428Y-68402438D01*
X79371428Y-68402438D02*
X79419047Y-68450057D01*
X79419047Y-68450057D02*
X79514285Y-68592914D01*
X79514285Y-68592914D02*
X79561904Y-68783390D01*
X79561904Y-68783390D02*
X79561904Y-69164342D01*
X79561904Y-69164342D02*
X79514285Y-69259580D01*
X79514285Y-69259580D02*
X79466666Y-69307200D01*
X79466666Y-69307200D02*
X79371428Y-69354819D01*
X79371428Y-69354819D02*
X79180952Y-69354819D01*
X79180952Y-69354819D02*
X79085714Y-69307200D01*
X79085714Y-69307200D02*
X79038095Y-69259580D01*
X79038095Y-69259580D02*
X78990476Y-69164342D01*
X78990476Y-69164342D02*
X78990476Y-68926247D01*
X78990476Y-68926247D02*
X79038095Y-68831009D01*
X79038095Y-68831009D02*
X79085714Y-68783390D01*
X79085714Y-68783390D02*
X79180952Y-68735771D01*
X79180952Y-68735771D02*
X79371428Y-68735771D01*
X79371428Y-68735771D02*
X79466666Y-68783390D01*
X79466666Y-68783390D02*
X79514285Y-68831009D01*
X79514285Y-68831009D02*
X79561904Y-68926247D01*
X78657142Y-68354819D02*
X77990476Y-68354819D01*
X77990476Y-68354819D02*
X78419047Y-69354819D01*
X89829580Y-59957142D02*
X89877200Y-59909523D01*
X89877200Y-59909523D02*
X89924819Y-59766666D01*
X89924819Y-59766666D02*
X89924819Y-59671428D01*
X89924819Y-59671428D02*
X89877200Y-59528571D01*
X89877200Y-59528571D02*
X89781961Y-59433333D01*
X89781961Y-59433333D02*
X89686723Y-59385714D01*
X89686723Y-59385714D02*
X89496247Y-59338095D01*
X89496247Y-59338095D02*
X89353390Y-59338095D01*
X89353390Y-59338095D02*
X89162914Y-59385714D01*
X89162914Y-59385714D02*
X89067676Y-59433333D01*
X89067676Y-59433333D02*
X88972438Y-59528571D01*
X88972438Y-59528571D02*
X88924819Y-59671428D01*
X88924819Y-59671428D02*
X88924819Y-59766666D01*
X88924819Y-59766666D02*
X88972438Y-59909523D01*
X88972438Y-59909523D02*
X89020057Y-59957142D01*
X88924819Y-60861904D02*
X88924819Y-60385714D01*
X88924819Y-60385714D02*
X89401009Y-60338095D01*
X89401009Y-60338095D02*
X89353390Y-60385714D01*
X89353390Y-60385714D02*
X89305771Y-60480952D01*
X89305771Y-60480952D02*
X89305771Y-60719047D01*
X89305771Y-60719047D02*
X89353390Y-60814285D01*
X89353390Y-60814285D02*
X89401009Y-60861904D01*
X89401009Y-60861904D02*
X89496247Y-60909523D01*
X89496247Y-60909523D02*
X89734342Y-60909523D01*
X89734342Y-60909523D02*
X89829580Y-60861904D01*
X89829580Y-60861904D02*
X89877200Y-60814285D01*
X89877200Y-60814285D02*
X89924819Y-60719047D01*
X89924819Y-60719047D02*
X89924819Y-60480952D01*
X89924819Y-60480952D02*
X89877200Y-60385714D01*
X89877200Y-60385714D02*
X89829580Y-60338095D01*
X89353390Y-61480952D02*
X89305771Y-61385714D01*
X89305771Y-61385714D02*
X89258152Y-61338095D01*
X89258152Y-61338095D02*
X89162914Y-61290476D01*
X89162914Y-61290476D02*
X89115295Y-61290476D01*
X89115295Y-61290476D02*
X89020057Y-61338095D01*
X89020057Y-61338095D02*
X88972438Y-61385714D01*
X88972438Y-61385714D02*
X88924819Y-61480952D01*
X88924819Y-61480952D02*
X88924819Y-61671428D01*
X88924819Y-61671428D02*
X88972438Y-61766666D01*
X88972438Y-61766666D02*
X89020057Y-61814285D01*
X89020057Y-61814285D02*
X89115295Y-61861904D01*
X89115295Y-61861904D02*
X89162914Y-61861904D01*
X89162914Y-61861904D02*
X89258152Y-61814285D01*
X89258152Y-61814285D02*
X89305771Y-61766666D01*
X89305771Y-61766666D02*
X89353390Y-61671428D01*
X89353390Y-61671428D02*
X89353390Y-61480952D01*
X89353390Y-61480952D02*
X89401009Y-61385714D01*
X89401009Y-61385714D02*
X89448628Y-61338095D01*
X89448628Y-61338095D02*
X89543866Y-61290476D01*
X89543866Y-61290476D02*
X89734342Y-61290476D01*
X89734342Y-61290476D02*
X89829580Y-61338095D01*
X89829580Y-61338095D02*
X89877200Y-61385714D01*
X89877200Y-61385714D02*
X89924819Y-61480952D01*
X89924819Y-61480952D02*
X89924819Y-61671428D01*
X89924819Y-61671428D02*
X89877200Y-61766666D01*
X89877200Y-61766666D02*
X89829580Y-61814285D01*
X89829580Y-61814285D02*
X89734342Y-61861904D01*
X89734342Y-61861904D02*
X89543866Y-61861904D01*
X89543866Y-61861904D02*
X89448628Y-61814285D01*
X89448628Y-61814285D02*
X89401009Y-61766666D01*
X89401009Y-61766666D02*
X89353390Y-61671428D01*
X90642857Y-56659580D02*
X90690476Y-56707200D01*
X90690476Y-56707200D02*
X90833333Y-56754819D01*
X90833333Y-56754819D02*
X90928571Y-56754819D01*
X90928571Y-56754819D02*
X91071428Y-56707200D01*
X91071428Y-56707200D02*
X91166666Y-56611961D01*
X91166666Y-56611961D02*
X91214285Y-56516723D01*
X91214285Y-56516723D02*
X91261904Y-56326247D01*
X91261904Y-56326247D02*
X91261904Y-56183390D01*
X91261904Y-56183390D02*
X91214285Y-55992914D01*
X91214285Y-55992914D02*
X91166666Y-55897676D01*
X91166666Y-55897676D02*
X91071428Y-55802438D01*
X91071428Y-55802438D02*
X90928571Y-55754819D01*
X90928571Y-55754819D02*
X90833333Y-55754819D01*
X90833333Y-55754819D02*
X90690476Y-55802438D01*
X90690476Y-55802438D02*
X90642857Y-55850057D01*
X90309523Y-55754819D02*
X89642857Y-55754819D01*
X89642857Y-55754819D02*
X90071428Y-56754819D01*
X88738095Y-56754819D02*
X89309523Y-56754819D01*
X89023809Y-56754819D02*
X89023809Y-55754819D01*
X89023809Y-55754819D02*
X89119047Y-55897676D01*
X89119047Y-55897676D02*
X89214285Y-55992914D01*
X89214285Y-55992914D02*
X89309523Y-56040533D01*
X116674819Y-70442142D02*
X116198628Y-70108809D01*
X116674819Y-69870714D02*
X115674819Y-69870714D01*
X115674819Y-69870714D02*
X115674819Y-70251666D01*
X115674819Y-70251666D02*
X115722438Y-70346904D01*
X115722438Y-70346904D02*
X115770057Y-70394523D01*
X115770057Y-70394523D02*
X115865295Y-70442142D01*
X115865295Y-70442142D02*
X116008152Y-70442142D01*
X116008152Y-70442142D02*
X116103390Y-70394523D01*
X116103390Y-70394523D02*
X116151009Y-70346904D01*
X116151009Y-70346904D02*
X116198628Y-70251666D01*
X116198628Y-70251666D02*
X116198628Y-69870714D01*
X115674819Y-71299285D02*
X115674819Y-71108809D01*
X115674819Y-71108809D02*
X115722438Y-71013571D01*
X115722438Y-71013571D02*
X115770057Y-70965952D01*
X115770057Y-70965952D02*
X115912914Y-70870714D01*
X115912914Y-70870714D02*
X116103390Y-70823095D01*
X116103390Y-70823095D02*
X116484342Y-70823095D01*
X116484342Y-70823095D02*
X116579580Y-70870714D01*
X116579580Y-70870714D02*
X116627200Y-70918333D01*
X116627200Y-70918333D02*
X116674819Y-71013571D01*
X116674819Y-71013571D02*
X116674819Y-71204047D01*
X116674819Y-71204047D02*
X116627200Y-71299285D01*
X116627200Y-71299285D02*
X116579580Y-71346904D01*
X116579580Y-71346904D02*
X116484342Y-71394523D01*
X116484342Y-71394523D02*
X116246247Y-71394523D01*
X116246247Y-71394523D02*
X116151009Y-71346904D01*
X116151009Y-71346904D02*
X116103390Y-71299285D01*
X116103390Y-71299285D02*
X116055771Y-71204047D01*
X116055771Y-71204047D02*
X116055771Y-71013571D01*
X116055771Y-71013571D02*
X116103390Y-70918333D01*
X116103390Y-70918333D02*
X116151009Y-70870714D01*
X116151009Y-70870714D02*
X116246247Y-70823095D01*
X115674819Y-71727857D02*
X115674819Y-72394523D01*
X115674819Y-72394523D02*
X116674819Y-71965952D01*
X84852580Y-64082142D02*
X84900200Y-64034523D01*
X84900200Y-64034523D02*
X84947819Y-63891666D01*
X84947819Y-63891666D02*
X84947819Y-63796428D01*
X84947819Y-63796428D02*
X84900200Y-63653571D01*
X84900200Y-63653571D02*
X84804961Y-63558333D01*
X84804961Y-63558333D02*
X84709723Y-63510714D01*
X84709723Y-63510714D02*
X84519247Y-63463095D01*
X84519247Y-63463095D02*
X84376390Y-63463095D01*
X84376390Y-63463095D02*
X84185914Y-63510714D01*
X84185914Y-63510714D02*
X84090676Y-63558333D01*
X84090676Y-63558333D02*
X83995438Y-63653571D01*
X83995438Y-63653571D02*
X83947819Y-63796428D01*
X83947819Y-63796428D02*
X83947819Y-63891666D01*
X83947819Y-63891666D02*
X83995438Y-64034523D01*
X83995438Y-64034523D02*
X84043057Y-64082142D01*
X83947819Y-64939285D02*
X83947819Y-64748809D01*
X83947819Y-64748809D02*
X83995438Y-64653571D01*
X83995438Y-64653571D02*
X84043057Y-64605952D01*
X84043057Y-64605952D02*
X84185914Y-64510714D01*
X84185914Y-64510714D02*
X84376390Y-64463095D01*
X84376390Y-64463095D02*
X84757342Y-64463095D01*
X84757342Y-64463095D02*
X84852580Y-64510714D01*
X84852580Y-64510714D02*
X84900200Y-64558333D01*
X84900200Y-64558333D02*
X84947819Y-64653571D01*
X84947819Y-64653571D02*
X84947819Y-64844047D01*
X84947819Y-64844047D02*
X84900200Y-64939285D01*
X84900200Y-64939285D02*
X84852580Y-64986904D01*
X84852580Y-64986904D02*
X84757342Y-65034523D01*
X84757342Y-65034523D02*
X84519247Y-65034523D01*
X84519247Y-65034523D02*
X84424009Y-64986904D01*
X84424009Y-64986904D02*
X84376390Y-64939285D01*
X84376390Y-64939285D02*
X84328771Y-64844047D01*
X84328771Y-64844047D02*
X84328771Y-64653571D01*
X84328771Y-64653571D02*
X84376390Y-64558333D01*
X84376390Y-64558333D02*
X84424009Y-64510714D01*
X84424009Y-64510714D02*
X84519247Y-64463095D01*
X83947819Y-65653571D02*
X83947819Y-65748809D01*
X83947819Y-65748809D02*
X83995438Y-65844047D01*
X83995438Y-65844047D02*
X84043057Y-65891666D01*
X84043057Y-65891666D02*
X84138295Y-65939285D01*
X84138295Y-65939285D02*
X84328771Y-65986904D01*
X84328771Y-65986904D02*
X84566866Y-65986904D01*
X84566866Y-65986904D02*
X84757342Y-65939285D01*
X84757342Y-65939285D02*
X84852580Y-65891666D01*
X84852580Y-65891666D02*
X84900200Y-65844047D01*
X84900200Y-65844047D02*
X84947819Y-65748809D01*
X84947819Y-65748809D02*
X84947819Y-65653571D01*
X84947819Y-65653571D02*
X84900200Y-65558333D01*
X84900200Y-65558333D02*
X84852580Y-65510714D01*
X84852580Y-65510714D02*
X84757342Y-65463095D01*
X84757342Y-65463095D02*
X84566866Y-65415476D01*
X84566866Y-65415476D02*
X84328771Y-65415476D01*
X84328771Y-65415476D02*
X84138295Y-65463095D01*
X84138295Y-65463095D02*
X84043057Y-65510714D01*
X84043057Y-65510714D02*
X83995438Y-65558333D01*
X83995438Y-65558333D02*
X83947819Y-65653571D01*
X79959580Y-65857142D02*
X80007200Y-65809523D01*
X80007200Y-65809523D02*
X80054819Y-65666666D01*
X80054819Y-65666666D02*
X80054819Y-65571428D01*
X80054819Y-65571428D02*
X80007200Y-65428571D01*
X80007200Y-65428571D02*
X79911961Y-65333333D01*
X79911961Y-65333333D02*
X79816723Y-65285714D01*
X79816723Y-65285714D02*
X79626247Y-65238095D01*
X79626247Y-65238095D02*
X79483390Y-65238095D01*
X79483390Y-65238095D02*
X79292914Y-65285714D01*
X79292914Y-65285714D02*
X79197676Y-65333333D01*
X79197676Y-65333333D02*
X79102438Y-65428571D01*
X79102438Y-65428571D02*
X79054819Y-65571428D01*
X79054819Y-65571428D02*
X79054819Y-65666666D01*
X79054819Y-65666666D02*
X79102438Y-65809523D01*
X79102438Y-65809523D02*
X79150057Y-65857142D01*
X79054819Y-66714285D02*
X79054819Y-66523809D01*
X79054819Y-66523809D02*
X79102438Y-66428571D01*
X79102438Y-66428571D02*
X79150057Y-66380952D01*
X79150057Y-66380952D02*
X79292914Y-66285714D01*
X79292914Y-66285714D02*
X79483390Y-66238095D01*
X79483390Y-66238095D02*
X79864342Y-66238095D01*
X79864342Y-66238095D02*
X79959580Y-66285714D01*
X79959580Y-66285714D02*
X80007200Y-66333333D01*
X80007200Y-66333333D02*
X80054819Y-66428571D01*
X80054819Y-66428571D02*
X80054819Y-66619047D01*
X80054819Y-66619047D02*
X80007200Y-66714285D01*
X80007200Y-66714285D02*
X79959580Y-66761904D01*
X79959580Y-66761904D02*
X79864342Y-66809523D01*
X79864342Y-66809523D02*
X79626247Y-66809523D01*
X79626247Y-66809523D02*
X79531009Y-66761904D01*
X79531009Y-66761904D02*
X79483390Y-66714285D01*
X79483390Y-66714285D02*
X79435771Y-66619047D01*
X79435771Y-66619047D02*
X79435771Y-66428571D01*
X79435771Y-66428571D02*
X79483390Y-66333333D01*
X79483390Y-66333333D02*
X79531009Y-66285714D01*
X79531009Y-66285714D02*
X79626247Y-66238095D01*
X79483390Y-67380952D02*
X79435771Y-67285714D01*
X79435771Y-67285714D02*
X79388152Y-67238095D01*
X79388152Y-67238095D02*
X79292914Y-67190476D01*
X79292914Y-67190476D02*
X79245295Y-67190476D01*
X79245295Y-67190476D02*
X79150057Y-67238095D01*
X79150057Y-67238095D02*
X79102438Y-67285714D01*
X79102438Y-67285714D02*
X79054819Y-67380952D01*
X79054819Y-67380952D02*
X79054819Y-67571428D01*
X79054819Y-67571428D02*
X79102438Y-67666666D01*
X79102438Y-67666666D02*
X79150057Y-67714285D01*
X79150057Y-67714285D02*
X79245295Y-67761904D01*
X79245295Y-67761904D02*
X79292914Y-67761904D01*
X79292914Y-67761904D02*
X79388152Y-67714285D01*
X79388152Y-67714285D02*
X79435771Y-67666666D01*
X79435771Y-67666666D02*
X79483390Y-67571428D01*
X79483390Y-67571428D02*
X79483390Y-67380952D01*
X79483390Y-67380952D02*
X79531009Y-67285714D01*
X79531009Y-67285714D02*
X79578628Y-67238095D01*
X79578628Y-67238095D02*
X79673866Y-67190476D01*
X79673866Y-67190476D02*
X79864342Y-67190476D01*
X79864342Y-67190476D02*
X79959580Y-67238095D01*
X79959580Y-67238095D02*
X80007200Y-67285714D01*
X80007200Y-67285714D02*
X80054819Y-67380952D01*
X80054819Y-67380952D02*
X80054819Y-67571428D01*
X80054819Y-67571428D02*
X80007200Y-67666666D01*
X80007200Y-67666666D02*
X79959580Y-67714285D01*
X79959580Y-67714285D02*
X79864342Y-67761904D01*
X79864342Y-67761904D02*
X79673866Y-67761904D01*
X79673866Y-67761904D02*
X79578628Y-67714285D01*
X79578628Y-67714285D02*
X79531009Y-67666666D01*
X79531009Y-67666666D02*
X79483390Y-67571428D01*
X104254819Y-59564286D02*
X104254819Y-60183333D01*
X104254819Y-60183333D02*
X104635771Y-59850000D01*
X104635771Y-59850000D02*
X104635771Y-59992857D01*
X104635771Y-59992857D02*
X104683390Y-60088095D01*
X104683390Y-60088095D02*
X104731009Y-60135714D01*
X104731009Y-60135714D02*
X104826247Y-60183333D01*
X104826247Y-60183333D02*
X105064342Y-60183333D01*
X105064342Y-60183333D02*
X105159580Y-60135714D01*
X105159580Y-60135714D02*
X105207200Y-60088095D01*
X105207200Y-60088095D02*
X105254819Y-59992857D01*
X105254819Y-59992857D02*
X105254819Y-59707143D01*
X105254819Y-59707143D02*
X105207200Y-59611905D01*
X105207200Y-59611905D02*
X105159580Y-59564286D01*
X104588152Y-61040476D02*
X105254819Y-61040476D01*
X104207200Y-60802381D02*
X104921485Y-60564286D01*
X104921485Y-60564286D02*
X104921485Y-61183333D01*
X104254819Y-61754762D02*
X104254819Y-61850000D01*
X104254819Y-61850000D02*
X104302438Y-61945238D01*
X104302438Y-61945238D02*
X104350057Y-61992857D01*
X104350057Y-61992857D02*
X104445295Y-62040476D01*
X104445295Y-62040476D02*
X104635771Y-62088095D01*
X104635771Y-62088095D02*
X104873866Y-62088095D01*
X104873866Y-62088095D02*
X105064342Y-62040476D01*
X105064342Y-62040476D02*
X105159580Y-61992857D01*
X105159580Y-61992857D02*
X105207200Y-61945238D01*
X105207200Y-61945238D02*
X105254819Y-61850000D01*
X105254819Y-61850000D02*
X105254819Y-61754762D01*
X105254819Y-61754762D02*
X105207200Y-61659524D01*
X105207200Y-61659524D02*
X105159580Y-61611905D01*
X105159580Y-61611905D02*
X105064342Y-61564286D01*
X105064342Y-61564286D02*
X104873866Y-61516667D01*
X104873866Y-61516667D02*
X104635771Y-61516667D01*
X104635771Y-61516667D02*
X104445295Y-61564286D01*
X104445295Y-61564286D02*
X104350057Y-61611905D01*
X104350057Y-61611905D02*
X104302438Y-61659524D01*
X104302438Y-61659524D02*
X104254819Y-61754762D01*
X88749580Y-129942142D02*
X88797200Y-129894523D01*
X88797200Y-129894523D02*
X88844819Y-129751666D01*
X88844819Y-129751666D02*
X88844819Y-129656428D01*
X88844819Y-129656428D02*
X88797200Y-129513571D01*
X88797200Y-129513571D02*
X88701961Y-129418333D01*
X88701961Y-129418333D02*
X88606723Y-129370714D01*
X88606723Y-129370714D02*
X88416247Y-129323095D01*
X88416247Y-129323095D02*
X88273390Y-129323095D01*
X88273390Y-129323095D02*
X88082914Y-129370714D01*
X88082914Y-129370714D02*
X87987676Y-129418333D01*
X87987676Y-129418333D02*
X87892438Y-129513571D01*
X87892438Y-129513571D02*
X87844819Y-129656428D01*
X87844819Y-129656428D02*
X87844819Y-129751666D01*
X87844819Y-129751666D02*
X87892438Y-129894523D01*
X87892438Y-129894523D02*
X87940057Y-129942142D01*
X87844819Y-130275476D02*
X87844819Y-130894523D01*
X87844819Y-130894523D02*
X88225771Y-130561190D01*
X88225771Y-130561190D02*
X88225771Y-130704047D01*
X88225771Y-130704047D02*
X88273390Y-130799285D01*
X88273390Y-130799285D02*
X88321009Y-130846904D01*
X88321009Y-130846904D02*
X88416247Y-130894523D01*
X88416247Y-130894523D02*
X88654342Y-130894523D01*
X88654342Y-130894523D02*
X88749580Y-130846904D01*
X88749580Y-130846904D02*
X88797200Y-130799285D01*
X88797200Y-130799285D02*
X88844819Y-130704047D01*
X88844819Y-130704047D02*
X88844819Y-130418333D01*
X88844819Y-130418333D02*
X88797200Y-130323095D01*
X88797200Y-130323095D02*
X88749580Y-130275476D01*
X87844819Y-131799285D02*
X87844819Y-131323095D01*
X87844819Y-131323095D02*
X88321009Y-131275476D01*
X88321009Y-131275476D02*
X88273390Y-131323095D01*
X88273390Y-131323095D02*
X88225771Y-131418333D01*
X88225771Y-131418333D02*
X88225771Y-131656428D01*
X88225771Y-131656428D02*
X88273390Y-131751666D01*
X88273390Y-131751666D02*
X88321009Y-131799285D01*
X88321009Y-131799285D02*
X88416247Y-131846904D01*
X88416247Y-131846904D02*
X88654342Y-131846904D01*
X88654342Y-131846904D02*
X88749580Y-131799285D01*
X88749580Y-131799285D02*
X88797200Y-131751666D01*
X88797200Y-131751666D02*
X88844819Y-131656428D01*
X88844819Y-131656428D02*
X88844819Y-131418333D01*
X88844819Y-131418333D02*
X88797200Y-131323095D01*
X88797200Y-131323095D02*
X88749580Y-131275476D01*
X80411904Y-70654819D02*
X79840476Y-70654819D01*
X80126190Y-71654819D02*
X80126190Y-70654819D01*
X79507142Y-71654819D02*
X79507142Y-70654819D01*
X79507142Y-70654819D02*
X79126190Y-70654819D01*
X79126190Y-70654819D02*
X79030952Y-70702438D01*
X79030952Y-70702438D02*
X78983333Y-70750057D01*
X78983333Y-70750057D02*
X78935714Y-70845295D01*
X78935714Y-70845295D02*
X78935714Y-70988152D01*
X78935714Y-70988152D02*
X78983333Y-71083390D01*
X78983333Y-71083390D02*
X79030952Y-71131009D01*
X79030952Y-71131009D02*
X79126190Y-71178628D01*
X79126190Y-71178628D02*
X79507142Y-71178628D01*
X78364285Y-71083390D02*
X78459523Y-71035771D01*
X78459523Y-71035771D02*
X78507142Y-70988152D01*
X78507142Y-70988152D02*
X78554761Y-70892914D01*
X78554761Y-70892914D02*
X78554761Y-70845295D01*
X78554761Y-70845295D02*
X78507142Y-70750057D01*
X78507142Y-70750057D02*
X78459523Y-70702438D01*
X78459523Y-70702438D02*
X78364285Y-70654819D01*
X78364285Y-70654819D02*
X78173809Y-70654819D01*
X78173809Y-70654819D02*
X78078571Y-70702438D01*
X78078571Y-70702438D02*
X78030952Y-70750057D01*
X78030952Y-70750057D02*
X77983333Y-70845295D01*
X77983333Y-70845295D02*
X77983333Y-70892914D01*
X77983333Y-70892914D02*
X78030952Y-70988152D01*
X78030952Y-70988152D02*
X78078571Y-71035771D01*
X78078571Y-71035771D02*
X78173809Y-71083390D01*
X78173809Y-71083390D02*
X78364285Y-71083390D01*
X78364285Y-71083390D02*
X78459523Y-71131009D01*
X78459523Y-71131009D02*
X78507142Y-71178628D01*
X78507142Y-71178628D02*
X78554761Y-71273866D01*
X78554761Y-71273866D02*
X78554761Y-71464342D01*
X78554761Y-71464342D02*
X78507142Y-71559580D01*
X78507142Y-71559580D02*
X78459523Y-71607200D01*
X78459523Y-71607200D02*
X78364285Y-71654819D01*
X78364285Y-71654819D02*
X78173809Y-71654819D01*
X78173809Y-71654819D02*
X78078571Y-71607200D01*
X78078571Y-71607200D02*
X78030952Y-71559580D01*
X78030952Y-71559580D02*
X77983333Y-71464342D01*
X77983333Y-71464342D02*
X77983333Y-71273866D01*
X77983333Y-71273866D02*
X78030952Y-71178628D01*
X78030952Y-71178628D02*
X78078571Y-71131009D01*
X78078571Y-71131009D02*
X78173809Y-71083390D01*
X98242857Y-76159580D02*
X98290476Y-76207200D01*
X98290476Y-76207200D02*
X98433333Y-76254819D01*
X98433333Y-76254819D02*
X98528571Y-76254819D01*
X98528571Y-76254819D02*
X98671428Y-76207200D01*
X98671428Y-76207200D02*
X98766666Y-76111961D01*
X98766666Y-76111961D02*
X98814285Y-76016723D01*
X98814285Y-76016723D02*
X98861904Y-75826247D01*
X98861904Y-75826247D02*
X98861904Y-75683390D01*
X98861904Y-75683390D02*
X98814285Y-75492914D01*
X98814285Y-75492914D02*
X98766666Y-75397676D01*
X98766666Y-75397676D02*
X98671428Y-75302438D01*
X98671428Y-75302438D02*
X98528571Y-75254819D01*
X98528571Y-75254819D02*
X98433333Y-75254819D01*
X98433333Y-75254819D02*
X98290476Y-75302438D01*
X98290476Y-75302438D02*
X98242857Y-75350057D01*
X97909523Y-75254819D02*
X97242857Y-75254819D01*
X97242857Y-75254819D02*
X97671428Y-76254819D01*
X96957142Y-75254819D02*
X96290476Y-75254819D01*
X96290476Y-75254819D02*
X96719047Y-76254819D01*
X144918509Y-71354166D02*
X144918509Y-71020833D01*
X145442319Y-71020833D02*
X144442319Y-71020833D01*
X144442319Y-71020833D02*
X144442319Y-71497023D01*
X144918509Y-72211309D02*
X144966128Y-72354166D01*
X144966128Y-72354166D02*
X145013747Y-72401785D01*
X145013747Y-72401785D02*
X145108985Y-72449404D01*
X145108985Y-72449404D02*
X145251842Y-72449404D01*
X145251842Y-72449404D02*
X145347080Y-72401785D01*
X145347080Y-72401785D02*
X145394700Y-72354166D01*
X145394700Y-72354166D02*
X145442319Y-72258928D01*
X145442319Y-72258928D02*
X145442319Y-71877976D01*
X145442319Y-71877976D02*
X144442319Y-71877976D01*
X144442319Y-71877976D02*
X144442319Y-72211309D01*
X144442319Y-72211309D02*
X144489938Y-72306547D01*
X144489938Y-72306547D02*
X144537557Y-72354166D01*
X144537557Y-72354166D02*
X144632795Y-72401785D01*
X144632795Y-72401785D02*
X144728033Y-72401785D01*
X144728033Y-72401785D02*
X144823271Y-72354166D01*
X144823271Y-72354166D02*
X144870890Y-72306547D01*
X144870890Y-72306547D02*
X144918509Y-72211309D01*
X144918509Y-72211309D02*
X144918509Y-71877976D01*
X145442319Y-73401785D02*
X145442319Y-72830357D01*
X145442319Y-73116071D02*
X144442319Y-73116071D01*
X144442319Y-73116071D02*
X144585176Y-73020833D01*
X144585176Y-73020833D02*
X144680414Y-72925595D01*
X144680414Y-72925595D02*
X144728033Y-72830357D01*
X93817857Y-71954819D02*
X94151190Y-71478628D01*
X94389285Y-71954819D02*
X94389285Y-70954819D01*
X94389285Y-70954819D02*
X94008333Y-70954819D01*
X94008333Y-70954819D02*
X93913095Y-71002438D01*
X93913095Y-71002438D02*
X93865476Y-71050057D01*
X93865476Y-71050057D02*
X93817857Y-71145295D01*
X93817857Y-71145295D02*
X93817857Y-71288152D01*
X93817857Y-71288152D02*
X93865476Y-71383390D01*
X93865476Y-71383390D02*
X93913095Y-71431009D01*
X93913095Y-71431009D02*
X94008333Y-71478628D01*
X94008333Y-71478628D02*
X94389285Y-71478628D01*
X92960714Y-70954819D02*
X93151190Y-70954819D01*
X93151190Y-70954819D02*
X93246428Y-71002438D01*
X93246428Y-71002438D02*
X93294047Y-71050057D01*
X93294047Y-71050057D02*
X93389285Y-71192914D01*
X93389285Y-71192914D02*
X93436904Y-71383390D01*
X93436904Y-71383390D02*
X93436904Y-71764342D01*
X93436904Y-71764342D02*
X93389285Y-71859580D01*
X93389285Y-71859580D02*
X93341666Y-71907200D01*
X93341666Y-71907200D02*
X93246428Y-71954819D01*
X93246428Y-71954819D02*
X93055952Y-71954819D01*
X93055952Y-71954819D02*
X92960714Y-71907200D01*
X92960714Y-71907200D02*
X92913095Y-71859580D01*
X92913095Y-71859580D02*
X92865476Y-71764342D01*
X92865476Y-71764342D02*
X92865476Y-71526247D01*
X92865476Y-71526247D02*
X92913095Y-71431009D01*
X92913095Y-71431009D02*
X92960714Y-71383390D01*
X92960714Y-71383390D02*
X93055952Y-71335771D01*
X93055952Y-71335771D02*
X93246428Y-71335771D01*
X93246428Y-71335771D02*
X93341666Y-71383390D01*
X93341666Y-71383390D02*
X93389285Y-71431009D01*
X93389285Y-71431009D02*
X93436904Y-71526247D01*
X92246428Y-70954819D02*
X92151190Y-70954819D01*
X92151190Y-70954819D02*
X92055952Y-71002438D01*
X92055952Y-71002438D02*
X92008333Y-71050057D01*
X92008333Y-71050057D02*
X91960714Y-71145295D01*
X91960714Y-71145295D02*
X91913095Y-71335771D01*
X91913095Y-71335771D02*
X91913095Y-71573866D01*
X91913095Y-71573866D02*
X91960714Y-71764342D01*
X91960714Y-71764342D02*
X92008333Y-71859580D01*
X92008333Y-71859580D02*
X92055952Y-71907200D01*
X92055952Y-71907200D02*
X92151190Y-71954819D01*
X92151190Y-71954819D02*
X92246428Y-71954819D01*
X92246428Y-71954819D02*
X92341666Y-71907200D01*
X92341666Y-71907200D02*
X92389285Y-71859580D01*
X92389285Y-71859580D02*
X92436904Y-71764342D01*
X92436904Y-71764342D02*
X92484523Y-71573866D01*
X92484523Y-71573866D02*
X92484523Y-71335771D01*
X92484523Y-71335771D02*
X92436904Y-71145295D01*
X92436904Y-71145295D02*
X92389285Y-71050057D01*
X92389285Y-71050057D02*
X92341666Y-71002438D01*
X92341666Y-71002438D02*
X92246428Y-70954819D01*
X130218509Y-71529166D02*
X130218509Y-71195833D01*
X130742319Y-71195833D02*
X129742319Y-71195833D01*
X129742319Y-71195833D02*
X129742319Y-71672023D01*
X130218509Y-72386309D02*
X130266128Y-72529166D01*
X130266128Y-72529166D02*
X130313747Y-72576785D01*
X130313747Y-72576785D02*
X130408985Y-72624404D01*
X130408985Y-72624404D02*
X130551842Y-72624404D01*
X130551842Y-72624404D02*
X130647080Y-72576785D01*
X130647080Y-72576785D02*
X130694700Y-72529166D01*
X130694700Y-72529166D02*
X130742319Y-72433928D01*
X130742319Y-72433928D02*
X130742319Y-72052976D01*
X130742319Y-72052976D02*
X129742319Y-72052976D01*
X129742319Y-72052976D02*
X129742319Y-72386309D01*
X129742319Y-72386309D02*
X129789938Y-72481547D01*
X129789938Y-72481547D02*
X129837557Y-72529166D01*
X129837557Y-72529166D02*
X129932795Y-72576785D01*
X129932795Y-72576785D02*
X130028033Y-72576785D01*
X130028033Y-72576785D02*
X130123271Y-72529166D01*
X130123271Y-72529166D02*
X130170890Y-72481547D01*
X130170890Y-72481547D02*
X130218509Y-72386309D01*
X130218509Y-72386309D02*
X130218509Y-72052976D01*
X129837557Y-73005357D02*
X129789938Y-73052976D01*
X129789938Y-73052976D02*
X129742319Y-73148214D01*
X129742319Y-73148214D02*
X129742319Y-73386309D01*
X129742319Y-73386309D02*
X129789938Y-73481547D01*
X129789938Y-73481547D02*
X129837557Y-73529166D01*
X129837557Y-73529166D02*
X129932795Y-73576785D01*
X129932795Y-73576785D02*
X130028033Y-73576785D01*
X130028033Y-73576785D02*
X130170890Y-73529166D01*
X130170890Y-73529166D02*
X130742319Y-72957738D01*
X130742319Y-72957738D02*
X130742319Y-73576785D01*
X68142857Y-58784580D02*
X68190476Y-58832200D01*
X68190476Y-58832200D02*
X68333333Y-58879819D01*
X68333333Y-58879819D02*
X68428571Y-58879819D01*
X68428571Y-58879819D02*
X68571428Y-58832200D01*
X68571428Y-58832200D02*
X68666666Y-58736961D01*
X68666666Y-58736961D02*
X68714285Y-58641723D01*
X68714285Y-58641723D02*
X68761904Y-58451247D01*
X68761904Y-58451247D02*
X68761904Y-58308390D01*
X68761904Y-58308390D02*
X68714285Y-58117914D01*
X68714285Y-58117914D02*
X68666666Y-58022676D01*
X68666666Y-58022676D02*
X68571428Y-57927438D01*
X68571428Y-57927438D02*
X68428571Y-57879819D01*
X68428571Y-57879819D02*
X68333333Y-57879819D01*
X68333333Y-57879819D02*
X68190476Y-57927438D01*
X68190476Y-57927438D02*
X68142857Y-57975057D01*
X67809523Y-57879819D02*
X67142857Y-57879819D01*
X67142857Y-57879819D02*
X67571428Y-58879819D01*
X66333333Y-58213152D02*
X66333333Y-58879819D01*
X66571428Y-57832200D02*
X66809523Y-58546485D01*
X66809523Y-58546485D02*
X66190476Y-58546485D01*
X111704819Y-59614286D02*
X111704819Y-60233333D01*
X111704819Y-60233333D02*
X112085771Y-59900000D01*
X112085771Y-59900000D02*
X112085771Y-60042857D01*
X112085771Y-60042857D02*
X112133390Y-60138095D01*
X112133390Y-60138095D02*
X112181009Y-60185714D01*
X112181009Y-60185714D02*
X112276247Y-60233333D01*
X112276247Y-60233333D02*
X112514342Y-60233333D01*
X112514342Y-60233333D02*
X112609580Y-60185714D01*
X112609580Y-60185714D02*
X112657200Y-60138095D01*
X112657200Y-60138095D02*
X112704819Y-60042857D01*
X112704819Y-60042857D02*
X112704819Y-59757143D01*
X112704819Y-59757143D02*
X112657200Y-59661905D01*
X112657200Y-59661905D02*
X112609580Y-59614286D01*
X112038152Y-61090476D02*
X112704819Y-61090476D01*
X111657200Y-60852381D02*
X112371485Y-60614286D01*
X112371485Y-60614286D02*
X112371485Y-61233333D01*
X111704819Y-61804762D02*
X111704819Y-61900000D01*
X111704819Y-61900000D02*
X111752438Y-61995238D01*
X111752438Y-61995238D02*
X111800057Y-62042857D01*
X111800057Y-62042857D02*
X111895295Y-62090476D01*
X111895295Y-62090476D02*
X112085771Y-62138095D01*
X112085771Y-62138095D02*
X112323866Y-62138095D01*
X112323866Y-62138095D02*
X112514342Y-62090476D01*
X112514342Y-62090476D02*
X112609580Y-62042857D01*
X112609580Y-62042857D02*
X112657200Y-61995238D01*
X112657200Y-61995238D02*
X112704819Y-61900000D01*
X112704819Y-61900000D02*
X112704819Y-61804762D01*
X112704819Y-61804762D02*
X112657200Y-61709524D01*
X112657200Y-61709524D02*
X112609580Y-61661905D01*
X112609580Y-61661905D02*
X112514342Y-61614286D01*
X112514342Y-61614286D02*
X112323866Y-61566667D01*
X112323866Y-61566667D02*
X112085771Y-61566667D01*
X112085771Y-61566667D02*
X111895295Y-61614286D01*
X111895295Y-61614286D02*
X111800057Y-61661905D01*
X111800057Y-61661905D02*
X111752438Y-61709524D01*
X111752438Y-61709524D02*
X111704819Y-61804762D01*
X90217857Y-65629580D02*
X90265476Y-65677200D01*
X90265476Y-65677200D02*
X90408333Y-65724819D01*
X90408333Y-65724819D02*
X90503571Y-65724819D01*
X90503571Y-65724819D02*
X90646428Y-65677200D01*
X90646428Y-65677200D02*
X90741666Y-65581961D01*
X90741666Y-65581961D02*
X90789285Y-65486723D01*
X90789285Y-65486723D02*
X90836904Y-65296247D01*
X90836904Y-65296247D02*
X90836904Y-65153390D01*
X90836904Y-65153390D02*
X90789285Y-64962914D01*
X90789285Y-64962914D02*
X90741666Y-64867676D01*
X90741666Y-64867676D02*
X90646428Y-64772438D01*
X90646428Y-64772438D02*
X90503571Y-64724819D01*
X90503571Y-64724819D02*
X90408333Y-64724819D01*
X90408333Y-64724819D02*
X90265476Y-64772438D01*
X90265476Y-64772438D02*
X90217857Y-64820057D01*
X89313095Y-64724819D02*
X89789285Y-64724819D01*
X89789285Y-64724819D02*
X89836904Y-65201009D01*
X89836904Y-65201009D02*
X89789285Y-65153390D01*
X89789285Y-65153390D02*
X89694047Y-65105771D01*
X89694047Y-65105771D02*
X89455952Y-65105771D01*
X89455952Y-65105771D02*
X89360714Y-65153390D01*
X89360714Y-65153390D02*
X89313095Y-65201009D01*
X89313095Y-65201009D02*
X89265476Y-65296247D01*
X89265476Y-65296247D02*
X89265476Y-65534342D01*
X89265476Y-65534342D02*
X89313095Y-65629580D01*
X89313095Y-65629580D02*
X89360714Y-65677200D01*
X89360714Y-65677200D02*
X89455952Y-65724819D01*
X89455952Y-65724819D02*
X89694047Y-65724819D01*
X89694047Y-65724819D02*
X89789285Y-65677200D01*
X89789285Y-65677200D02*
X89836904Y-65629580D01*
X88789285Y-65724819D02*
X88598809Y-65724819D01*
X88598809Y-65724819D02*
X88503571Y-65677200D01*
X88503571Y-65677200D02*
X88455952Y-65629580D01*
X88455952Y-65629580D02*
X88360714Y-65486723D01*
X88360714Y-65486723D02*
X88313095Y-65296247D01*
X88313095Y-65296247D02*
X88313095Y-64915295D01*
X88313095Y-64915295D02*
X88360714Y-64820057D01*
X88360714Y-64820057D02*
X88408333Y-64772438D01*
X88408333Y-64772438D02*
X88503571Y-64724819D01*
X88503571Y-64724819D02*
X88694047Y-64724819D01*
X88694047Y-64724819D02*
X88789285Y-64772438D01*
X88789285Y-64772438D02*
X88836904Y-64820057D01*
X88836904Y-64820057D02*
X88884523Y-64915295D01*
X88884523Y-64915295D02*
X88884523Y-65153390D01*
X88884523Y-65153390D02*
X88836904Y-65248628D01*
X88836904Y-65248628D02*
X88789285Y-65296247D01*
X88789285Y-65296247D02*
X88694047Y-65343866D01*
X88694047Y-65343866D02*
X88503571Y-65343866D01*
X88503571Y-65343866D02*
X88408333Y-65296247D01*
X88408333Y-65296247D02*
X88360714Y-65248628D01*
X88360714Y-65248628D02*
X88313095Y-65153390D01*
X111542857Y-74554819D02*
X111876190Y-74078628D01*
X112114285Y-74554819D02*
X112114285Y-73554819D01*
X112114285Y-73554819D02*
X111733333Y-73554819D01*
X111733333Y-73554819D02*
X111638095Y-73602438D01*
X111638095Y-73602438D02*
X111590476Y-73650057D01*
X111590476Y-73650057D02*
X111542857Y-73745295D01*
X111542857Y-73745295D02*
X111542857Y-73888152D01*
X111542857Y-73888152D02*
X111590476Y-73983390D01*
X111590476Y-73983390D02*
X111638095Y-74031009D01*
X111638095Y-74031009D02*
X111733333Y-74078628D01*
X111733333Y-74078628D02*
X112114285Y-74078628D01*
X110685714Y-73554819D02*
X110876190Y-73554819D01*
X110876190Y-73554819D02*
X110971428Y-73602438D01*
X110971428Y-73602438D02*
X111019047Y-73650057D01*
X111019047Y-73650057D02*
X111114285Y-73792914D01*
X111114285Y-73792914D02*
X111161904Y-73983390D01*
X111161904Y-73983390D02*
X111161904Y-74364342D01*
X111161904Y-74364342D02*
X111114285Y-74459580D01*
X111114285Y-74459580D02*
X111066666Y-74507200D01*
X111066666Y-74507200D02*
X110971428Y-74554819D01*
X110971428Y-74554819D02*
X110780952Y-74554819D01*
X110780952Y-74554819D02*
X110685714Y-74507200D01*
X110685714Y-74507200D02*
X110638095Y-74459580D01*
X110638095Y-74459580D02*
X110590476Y-74364342D01*
X110590476Y-74364342D02*
X110590476Y-74126247D01*
X110590476Y-74126247D02*
X110638095Y-74031009D01*
X110638095Y-74031009D02*
X110685714Y-73983390D01*
X110685714Y-73983390D02*
X110780952Y-73935771D01*
X110780952Y-73935771D02*
X110971428Y-73935771D01*
X110971428Y-73935771D02*
X111066666Y-73983390D01*
X111066666Y-73983390D02*
X111114285Y-74031009D01*
X111114285Y-74031009D02*
X111161904Y-74126247D01*
X109733333Y-73888152D02*
X109733333Y-74554819D01*
X109971428Y-73507200D02*
X110209523Y-74221485D01*
X110209523Y-74221485D02*
X109590476Y-74221485D01*
X60609580Y-117257142D02*
X60657200Y-117209523D01*
X60657200Y-117209523D02*
X60704819Y-117066666D01*
X60704819Y-117066666D02*
X60704819Y-116971428D01*
X60704819Y-116971428D02*
X60657200Y-116828571D01*
X60657200Y-116828571D02*
X60561961Y-116733333D01*
X60561961Y-116733333D02*
X60466723Y-116685714D01*
X60466723Y-116685714D02*
X60276247Y-116638095D01*
X60276247Y-116638095D02*
X60133390Y-116638095D01*
X60133390Y-116638095D02*
X59942914Y-116685714D01*
X59942914Y-116685714D02*
X59847676Y-116733333D01*
X59847676Y-116733333D02*
X59752438Y-116828571D01*
X59752438Y-116828571D02*
X59704819Y-116971428D01*
X59704819Y-116971428D02*
X59704819Y-117066666D01*
X59704819Y-117066666D02*
X59752438Y-117209523D01*
X59752438Y-117209523D02*
X59800057Y-117257142D01*
X60133390Y-117828571D02*
X60085771Y-117733333D01*
X60085771Y-117733333D02*
X60038152Y-117685714D01*
X60038152Y-117685714D02*
X59942914Y-117638095D01*
X59942914Y-117638095D02*
X59895295Y-117638095D01*
X59895295Y-117638095D02*
X59800057Y-117685714D01*
X59800057Y-117685714D02*
X59752438Y-117733333D01*
X59752438Y-117733333D02*
X59704819Y-117828571D01*
X59704819Y-117828571D02*
X59704819Y-118019047D01*
X59704819Y-118019047D02*
X59752438Y-118114285D01*
X59752438Y-118114285D02*
X59800057Y-118161904D01*
X59800057Y-118161904D02*
X59895295Y-118209523D01*
X59895295Y-118209523D02*
X59942914Y-118209523D01*
X59942914Y-118209523D02*
X60038152Y-118161904D01*
X60038152Y-118161904D02*
X60085771Y-118114285D01*
X60085771Y-118114285D02*
X60133390Y-118019047D01*
X60133390Y-118019047D02*
X60133390Y-117828571D01*
X60133390Y-117828571D02*
X60181009Y-117733333D01*
X60181009Y-117733333D02*
X60228628Y-117685714D01*
X60228628Y-117685714D02*
X60323866Y-117638095D01*
X60323866Y-117638095D02*
X60514342Y-117638095D01*
X60514342Y-117638095D02*
X60609580Y-117685714D01*
X60609580Y-117685714D02*
X60657200Y-117733333D01*
X60657200Y-117733333D02*
X60704819Y-117828571D01*
X60704819Y-117828571D02*
X60704819Y-118019047D01*
X60704819Y-118019047D02*
X60657200Y-118114285D01*
X60657200Y-118114285D02*
X60609580Y-118161904D01*
X60609580Y-118161904D02*
X60514342Y-118209523D01*
X60514342Y-118209523D02*
X60323866Y-118209523D01*
X60323866Y-118209523D02*
X60228628Y-118161904D01*
X60228628Y-118161904D02*
X60181009Y-118114285D01*
X60181009Y-118114285D02*
X60133390Y-118019047D01*
X60038152Y-119066666D02*
X60704819Y-119066666D01*
X59657200Y-118828571D02*
X60371485Y-118590476D01*
X60371485Y-118590476D02*
X60371485Y-119209523D01*
X57704819Y-117447618D02*
X57704819Y-116876190D01*
X57704819Y-117161904D02*
X56704819Y-117161904D01*
X56704819Y-117161904D02*
X56847676Y-117066666D01*
X56847676Y-117066666D02*
X56942914Y-116971428D01*
X56942914Y-116971428D02*
X56990533Y-116876190D01*
X57038152Y-117876190D02*
X57704819Y-117876190D01*
X57133390Y-117876190D02*
X57085771Y-117923809D01*
X57085771Y-117923809D02*
X57038152Y-118019047D01*
X57038152Y-118019047D02*
X57038152Y-118161904D01*
X57038152Y-118161904D02*
X57085771Y-118257142D01*
X57085771Y-118257142D02*
X57181009Y-118304761D01*
X57181009Y-118304761D02*
X57704819Y-118304761D01*
X57038152Y-118638095D02*
X57038152Y-119019047D01*
X57704819Y-118780952D02*
X56847676Y-118780952D01*
X56847676Y-118780952D02*
X56752438Y-118828571D01*
X56752438Y-118828571D02*
X56704819Y-118923809D01*
X56704819Y-118923809D02*
X56704819Y-119019047D01*
X83659580Y-59235642D02*
X83707200Y-59188023D01*
X83707200Y-59188023D02*
X83754819Y-59045166D01*
X83754819Y-59045166D02*
X83754819Y-58949928D01*
X83754819Y-58949928D02*
X83707200Y-58807071D01*
X83707200Y-58807071D02*
X83611961Y-58711833D01*
X83611961Y-58711833D02*
X83516723Y-58664214D01*
X83516723Y-58664214D02*
X83326247Y-58616595D01*
X83326247Y-58616595D02*
X83183390Y-58616595D01*
X83183390Y-58616595D02*
X82992914Y-58664214D01*
X82992914Y-58664214D02*
X82897676Y-58711833D01*
X82897676Y-58711833D02*
X82802438Y-58807071D01*
X82802438Y-58807071D02*
X82754819Y-58949928D01*
X82754819Y-58949928D02*
X82754819Y-59045166D01*
X82754819Y-59045166D02*
X82802438Y-59188023D01*
X82802438Y-59188023D02*
X82850057Y-59235642D01*
X82754819Y-59568976D02*
X82754819Y-60235642D01*
X82754819Y-60235642D02*
X83754819Y-59807071D01*
X82754819Y-60807071D02*
X82754819Y-60902309D01*
X82754819Y-60902309D02*
X82802438Y-60997547D01*
X82802438Y-60997547D02*
X82850057Y-61045166D01*
X82850057Y-61045166D02*
X82945295Y-61092785D01*
X82945295Y-61092785D02*
X83135771Y-61140404D01*
X83135771Y-61140404D02*
X83373866Y-61140404D01*
X83373866Y-61140404D02*
X83564342Y-61092785D01*
X83564342Y-61092785D02*
X83659580Y-61045166D01*
X83659580Y-61045166D02*
X83707200Y-60997547D01*
X83707200Y-60997547D02*
X83754819Y-60902309D01*
X83754819Y-60902309D02*
X83754819Y-60807071D01*
X83754819Y-60807071D02*
X83707200Y-60711833D01*
X83707200Y-60711833D02*
X83659580Y-60664214D01*
X83659580Y-60664214D02*
X83564342Y-60616595D01*
X83564342Y-60616595D02*
X83373866Y-60568976D01*
X83373866Y-60568976D02*
X83135771Y-60568976D01*
X83135771Y-60568976D02*
X82945295Y-60616595D01*
X82945295Y-60616595D02*
X82850057Y-60664214D01*
X82850057Y-60664214D02*
X82802438Y-60711833D01*
X82802438Y-60711833D02*
X82754819Y-60807071D01*
X76409580Y-57132142D02*
X76457200Y-57084523D01*
X76457200Y-57084523D02*
X76504819Y-56941666D01*
X76504819Y-56941666D02*
X76504819Y-56846428D01*
X76504819Y-56846428D02*
X76457200Y-56703571D01*
X76457200Y-56703571D02*
X76361961Y-56608333D01*
X76361961Y-56608333D02*
X76266723Y-56560714D01*
X76266723Y-56560714D02*
X76076247Y-56513095D01*
X76076247Y-56513095D02*
X75933390Y-56513095D01*
X75933390Y-56513095D02*
X75742914Y-56560714D01*
X75742914Y-56560714D02*
X75647676Y-56608333D01*
X75647676Y-56608333D02*
X75552438Y-56703571D01*
X75552438Y-56703571D02*
X75504819Y-56846428D01*
X75504819Y-56846428D02*
X75504819Y-56941666D01*
X75504819Y-56941666D02*
X75552438Y-57084523D01*
X75552438Y-57084523D02*
X75600057Y-57132142D01*
X75504819Y-57465476D02*
X75504819Y-58132142D01*
X75504819Y-58132142D02*
X76504819Y-57703571D01*
X75933390Y-58655952D02*
X75885771Y-58560714D01*
X75885771Y-58560714D02*
X75838152Y-58513095D01*
X75838152Y-58513095D02*
X75742914Y-58465476D01*
X75742914Y-58465476D02*
X75695295Y-58465476D01*
X75695295Y-58465476D02*
X75600057Y-58513095D01*
X75600057Y-58513095D02*
X75552438Y-58560714D01*
X75552438Y-58560714D02*
X75504819Y-58655952D01*
X75504819Y-58655952D02*
X75504819Y-58846428D01*
X75504819Y-58846428D02*
X75552438Y-58941666D01*
X75552438Y-58941666D02*
X75600057Y-58989285D01*
X75600057Y-58989285D02*
X75695295Y-59036904D01*
X75695295Y-59036904D02*
X75742914Y-59036904D01*
X75742914Y-59036904D02*
X75838152Y-58989285D01*
X75838152Y-58989285D02*
X75885771Y-58941666D01*
X75885771Y-58941666D02*
X75933390Y-58846428D01*
X75933390Y-58846428D02*
X75933390Y-58655952D01*
X75933390Y-58655952D02*
X75981009Y-58560714D01*
X75981009Y-58560714D02*
X76028628Y-58513095D01*
X76028628Y-58513095D02*
X76123866Y-58465476D01*
X76123866Y-58465476D02*
X76314342Y-58465476D01*
X76314342Y-58465476D02*
X76409580Y-58513095D01*
X76409580Y-58513095D02*
X76457200Y-58560714D01*
X76457200Y-58560714D02*
X76504819Y-58655952D01*
X76504819Y-58655952D02*
X76504819Y-58846428D01*
X76504819Y-58846428D02*
X76457200Y-58941666D01*
X76457200Y-58941666D02*
X76409580Y-58989285D01*
X76409580Y-58989285D02*
X76314342Y-59036904D01*
X76314342Y-59036904D02*
X76123866Y-59036904D01*
X76123866Y-59036904D02*
X76028628Y-58989285D01*
X76028628Y-58989285D02*
X75981009Y-58941666D01*
X75981009Y-58941666D02*
X75933390Y-58846428D01*
X94284580Y-61882142D02*
X94332200Y-61834523D01*
X94332200Y-61834523D02*
X94379819Y-61691666D01*
X94379819Y-61691666D02*
X94379819Y-61596428D01*
X94379819Y-61596428D02*
X94332200Y-61453571D01*
X94332200Y-61453571D02*
X94236961Y-61358333D01*
X94236961Y-61358333D02*
X94141723Y-61310714D01*
X94141723Y-61310714D02*
X93951247Y-61263095D01*
X93951247Y-61263095D02*
X93808390Y-61263095D01*
X93808390Y-61263095D02*
X93617914Y-61310714D01*
X93617914Y-61310714D02*
X93522676Y-61358333D01*
X93522676Y-61358333D02*
X93427438Y-61453571D01*
X93427438Y-61453571D02*
X93379819Y-61596428D01*
X93379819Y-61596428D02*
X93379819Y-61691666D01*
X93379819Y-61691666D02*
X93427438Y-61834523D01*
X93427438Y-61834523D02*
X93475057Y-61882142D01*
X93379819Y-62739285D02*
X93379819Y-62548809D01*
X93379819Y-62548809D02*
X93427438Y-62453571D01*
X93427438Y-62453571D02*
X93475057Y-62405952D01*
X93475057Y-62405952D02*
X93617914Y-62310714D01*
X93617914Y-62310714D02*
X93808390Y-62263095D01*
X93808390Y-62263095D02*
X94189342Y-62263095D01*
X94189342Y-62263095D02*
X94284580Y-62310714D01*
X94284580Y-62310714D02*
X94332200Y-62358333D01*
X94332200Y-62358333D02*
X94379819Y-62453571D01*
X94379819Y-62453571D02*
X94379819Y-62644047D01*
X94379819Y-62644047D02*
X94332200Y-62739285D01*
X94332200Y-62739285D02*
X94284580Y-62786904D01*
X94284580Y-62786904D02*
X94189342Y-62834523D01*
X94189342Y-62834523D02*
X93951247Y-62834523D01*
X93951247Y-62834523D02*
X93856009Y-62786904D01*
X93856009Y-62786904D02*
X93808390Y-62739285D01*
X93808390Y-62739285D02*
X93760771Y-62644047D01*
X93760771Y-62644047D02*
X93760771Y-62453571D01*
X93760771Y-62453571D02*
X93808390Y-62358333D01*
X93808390Y-62358333D02*
X93856009Y-62310714D01*
X93856009Y-62310714D02*
X93951247Y-62263095D01*
X93475057Y-63215476D02*
X93427438Y-63263095D01*
X93427438Y-63263095D02*
X93379819Y-63358333D01*
X93379819Y-63358333D02*
X93379819Y-63596428D01*
X93379819Y-63596428D02*
X93427438Y-63691666D01*
X93427438Y-63691666D02*
X93475057Y-63739285D01*
X93475057Y-63739285D02*
X93570295Y-63786904D01*
X93570295Y-63786904D02*
X93665533Y-63786904D01*
X93665533Y-63786904D02*
X93808390Y-63739285D01*
X93808390Y-63739285D02*
X94379819Y-63167857D01*
X94379819Y-63167857D02*
X94379819Y-63786904D01*
X85950057Y-52788095D02*
X85902438Y-52835714D01*
X85902438Y-52835714D02*
X85854819Y-52930952D01*
X85854819Y-52930952D02*
X85854819Y-53169047D01*
X85854819Y-53169047D02*
X85902438Y-53264285D01*
X85902438Y-53264285D02*
X85950057Y-53311904D01*
X85950057Y-53311904D02*
X86045295Y-53359523D01*
X86045295Y-53359523D02*
X86140533Y-53359523D01*
X86140533Y-53359523D02*
X86283390Y-53311904D01*
X86283390Y-53311904D02*
X86854819Y-52740476D01*
X86854819Y-52740476D02*
X86854819Y-53359523D01*
X85854819Y-53692857D02*
X85854819Y-54359523D01*
X85854819Y-54359523D02*
X86854819Y-53930952D01*
X86854819Y-55311904D02*
X86378628Y-54978571D01*
X86854819Y-54740476D02*
X85854819Y-54740476D01*
X85854819Y-54740476D02*
X85854819Y-55121428D01*
X85854819Y-55121428D02*
X85902438Y-55216666D01*
X85902438Y-55216666D02*
X85950057Y-55264285D01*
X85950057Y-55264285D02*
X86045295Y-55311904D01*
X86045295Y-55311904D02*
X86188152Y-55311904D01*
X86188152Y-55311904D02*
X86283390Y-55264285D01*
X86283390Y-55264285D02*
X86331009Y-55216666D01*
X86331009Y-55216666D02*
X86378628Y-55121428D01*
X86378628Y-55121428D02*
X86378628Y-54740476D01*
X94759580Y-56557142D02*
X94807200Y-56509523D01*
X94807200Y-56509523D02*
X94854819Y-56366666D01*
X94854819Y-56366666D02*
X94854819Y-56271428D01*
X94854819Y-56271428D02*
X94807200Y-56128571D01*
X94807200Y-56128571D02*
X94711961Y-56033333D01*
X94711961Y-56033333D02*
X94616723Y-55985714D01*
X94616723Y-55985714D02*
X94426247Y-55938095D01*
X94426247Y-55938095D02*
X94283390Y-55938095D01*
X94283390Y-55938095D02*
X94092914Y-55985714D01*
X94092914Y-55985714D02*
X93997676Y-56033333D01*
X93997676Y-56033333D02*
X93902438Y-56128571D01*
X93902438Y-56128571D02*
X93854819Y-56271428D01*
X93854819Y-56271428D02*
X93854819Y-56366666D01*
X93854819Y-56366666D02*
X93902438Y-56509523D01*
X93902438Y-56509523D02*
X93950057Y-56557142D01*
X93854819Y-56890476D02*
X93854819Y-57557142D01*
X93854819Y-57557142D02*
X94854819Y-57128571D01*
X93950057Y-57890476D02*
X93902438Y-57938095D01*
X93902438Y-57938095D02*
X93854819Y-58033333D01*
X93854819Y-58033333D02*
X93854819Y-58271428D01*
X93854819Y-58271428D02*
X93902438Y-58366666D01*
X93902438Y-58366666D02*
X93950057Y-58414285D01*
X93950057Y-58414285D02*
X94045295Y-58461904D01*
X94045295Y-58461904D02*
X94140533Y-58461904D01*
X94140533Y-58461904D02*
X94283390Y-58414285D01*
X94283390Y-58414285D02*
X94854819Y-57842857D01*
X94854819Y-57842857D02*
X94854819Y-58461904D01*
X98242857Y-74554819D02*
X98576190Y-74078628D01*
X98814285Y-74554819D02*
X98814285Y-73554819D01*
X98814285Y-73554819D02*
X98433333Y-73554819D01*
X98433333Y-73554819D02*
X98338095Y-73602438D01*
X98338095Y-73602438D02*
X98290476Y-73650057D01*
X98290476Y-73650057D02*
X98242857Y-73745295D01*
X98242857Y-73745295D02*
X98242857Y-73888152D01*
X98242857Y-73888152D02*
X98290476Y-73983390D01*
X98290476Y-73983390D02*
X98338095Y-74031009D01*
X98338095Y-74031009D02*
X98433333Y-74078628D01*
X98433333Y-74078628D02*
X98814285Y-74078628D01*
X97385714Y-73554819D02*
X97576190Y-73554819D01*
X97576190Y-73554819D02*
X97671428Y-73602438D01*
X97671428Y-73602438D02*
X97719047Y-73650057D01*
X97719047Y-73650057D02*
X97814285Y-73792914D01*
X97814285Y-73792914D02*
X97861904Y-73983390D01*
X97861904Y-73983390D02*
X97861904Y-74364342D01*
X97861904Y-74364342D02*
X97814285Y-74459580D01*
X97814285Y-74459580D02*
X97766666Y-74507200D01*
X97766666Y-74507200D02*
X97671428Y-74554819D01*
X97671428Y-74554819D02*
X97480952Y-74554819D01*
X97480952Y-74554819D02*
X97385714Y-74507200D01*
X97385714Y-74507200D02*
X97338095Y-74459580D01*
X97338095Y-74459580D02*
X97290476Y-74364342D01*
X97290476Y-74364342D02*
X97290476Y-74126247D01*
X97290476Y-74126247D02*
X97338095Y-74031009D01*
X97338095Y-74031009D02*
X97385714Y-73983390D01*
X97385714Y-73983390D02*
X97480952Y-73935771D01*
X97480952Y-73935771D02*
X97671428Y-73935771D01*
X97671428Y-73935771D02*
X97766666Y-73983390D01*
X97766666Y-73983390D02*
X97814285Y-74031009D01*
X97814285Y-74031009D02*
X97861904Y-74126247D01*
X96338095Y-74554819D02*
X96909523Y-74554819D01*
X96623809Y-74554819D02*
X96623809Y-73554819D01*
X96623809Y-73554819D02*
X96719047Y-73697676D01*
X96719047Y-73697676D02*
X96814285Y-73792914D01*
X96814285Y-73792914D02*
X96909523Y-73840533D01*
X84867857Y-56759580D02*
X84915476Y-56807200D01*
X84915476Y-56807200D02*
X85058333Y-56854819D01*
X85058333Y-56854819D02*
X85153571Y-56854819D01*
X85153571Y-56854819D02*
X85296428Y-56807200D01*
X85296428Y-56807200D02*
X85391666Y-56711961D01*
X85391666Y-56711961D02*
X85439285Y-56616723D01*
X85439285Y-56616723D02*
X85486904Y-56426247D01*
X85486904Y-56426247D02*
X85486904Y-56283390D01*
X85486904Y-56283390D02*
X85439285Y-56092914D01*
X85439285Y-56092914D02*
X85391666Y-55997676D01*
X85391666Y-55997676D02*
X85296428Y-55902438D01*
X85296428Y-55902438D02*
X85153571Y-55854819D01*
X85153571Y-55854819D02*
X85058333Y-55854819D01*
X85058333Y-55854819D02*
X84915476Y-55902438D01*
X84915476Y-55902438D02*
X84867857Y-55950057D01*
X84010714Y-55854819D02*
X84201190Y-55854819D01*
X84201190Y-55854819D02*
X84296428Y-55902438D01*
X84296428Y-55902438D02*
X84344047Y-55950057D01*
X84344047Y-55950057D02*
X84439285Y-56092914D01*
X84439285Y-56092914D02*
X84486904Y-56283390D01*
X84486904Y-56283390D02*
X84486904Y-56664342D01*
X84486904Y-56664342D02*
X84439285Y-56759580D01*
X84439285Y-56759580D02*
X84391666Y-56807200D01*
X84391666Y-56807200D02*
X84296428Y-56854819D01*
X84296428Y-56854819D02*
X84105952Y-56854819D01*
X84105952Y-56854819D02*
X84010714Y-56807200D01*
X84010714Y-56807200D02*
X83963095Y-56759580D01*
X83963095Y-56759580D02*
X83915476Y-56664342D01*
X83915476Y-56664342D02*
X83915476Y-56426247D01*
X83915476Y-56426247D02*
X83963095Y-56331009D01*
X83963095Y-56331009D02*
X84010714Y-56283390D01*
X84010714Y-56283390D02*
X84105952Y-56235771D01*
X84105952Y-56235771D02*
X84296428Y-56235771D01*
X84296428Y-56235771D02*
X84391666Y-56283390D01*
X84391666Y-56283390D02*
X84439285Y-56331009D01*
X84439285Y-56331009D02*
X84486904Y-56426247D01*
X82963095Y-56854819D02*
X83534523Y-56854819D01*
X83248809Y-56854819D02*
X83248809Y-55854819D01*
X83248809Y-55854819D02*
X83344047Y-55997676D01*
X83344047Y-55997676D02*
X83439285Y-56092914D01*
X83439285Y-56092914D02*
X83534523Y-56140533D01*
X95742857Y-68859580D02*
X95790476Y-68907200D01*
X95790476Y-68907200D02*
X95933333Y-68954819D01*
X95933333Y-68954819D02*
X96028571Y-68954819D01*
X96028571Y-68954819D02*
X96171428Y-68907200D01*
X96171428Y-68907200D02*
X96266666Y-68811961D01*
X96266666Y-68811961D02*
X96314285Y-68716723D01*
X96314285Y-68716723D02*
X96361904Y-68526247D01*
X96361904Y-68526247D02*
X96361904Y-68383390D01*
X96361904Y-68383390D02*
X96314285Y-68192914D01*
X96314285Y-68192914D02*
X96266666Y-68097676D01*
X96266666Y-68097676D02*
X96171428Y-68002438D01*
X96171428Y-68002438D02*
X96028571Y-67954819D01*
X96028571Y-67954819D02*
X95933333Y-67954819D01*
X95933333Y-67954819D02*
X95790476Y-68002438D01*
X95790476Y-68002438D02*
X95742857Y-68050057D01*
X94885714Y-67954819D02*
X95076190Y-67954819D01*
X95076190Y-67954819D02*
X95171428Y-68002438D01*
X95171428Y-68002438D02*
X95219047Y-68050057D01*
X95219047Y-68050057D02*
X95314285Y-68192914D01*
X95314285Y-68192914D02*
X95361904Y-68383390D01*
X95361904Y-68383390D02*
X95361904Y-68764342D01*
X95361904Y-68764342D02*
X95314285Y-68859580D01*
X95314285Y-68859580D02*
X95266666Y-68907200D01*
X95266666Y-68907200D02*
X95171428Y-68954819D01*
X95171428Y-68954819D02*
X94980952Y-68954819D01*
X94980952Y-68954819D02*
X94885714Y-68907200D01*
X94885714Y-68907200D02*
X94838095Y-68859580D01*
X94838095Y-68859580D02*
X94790476Y-68764342D01*
X94790476Y-68764342D02*
X94790476Y-68526247D01*
X94790476Y-68526247D02*
X94838095Y-68431009D01*
X94838095Y-68431009D02*
X94885714Y-68383390D01*
X94885714Y-68383390D02*
X94980952Y-68335771D01*
X94980952Y-68335771D02*
X95171428Y-68335771D01*
X95171428Y-68335771D02*
X95266666Y-68383390D01*
X95266666Y-68383390D02*
X95314285Y-68431009D01*
X95314285Y-68431009D02*
X95361904Y-68526247D01*
X94457142Y-67954819D02*
X93838095Y-67954819D01*
X93838095Y-67954819D02*
X94171428Y-68335771D01*
X94171428Y-68335771D02*
X94028571Y-68335771D01*
X94028571Y-68335771D02*
X93933333Y-68383390D01*
X93933333Y-68383390D02*
X93885714Y-68431009D01*
X93885714Y-68431009D02*
X93838095Y-68526247D01*
X93838095Y-68526247D02*
X93838095Y-68764342D01*
X93838095Y-68764342D02*
X93885714Y-68859580D01*
X93885714Y-68859580D02*
X93933333Y-68907200D01*
X93933333Y-68907200D02*
X94028571Y-68954819D01*
X94028571Y-68954819D02*
X94314285Y-68954819D01*
X94314285Y-68954819D02*
X94409523Y-68907200D01*
X94409523Y-68907200D02*
X94457142Y-68859580D01*
D11*
X118707500Y-70847742D02*
X118707500Y-71322258D01*
X119752500Y-70847742D02*
X119752500Y-71322258D01*
X129340580Y-130890000D02*
X129059420Y-130890000D01*
X129340580Y-131910000D02*
X129059420Y-131910000D01*
X138565000Y-72414564D02*
X138565000Y-71960436D01*
X140035000Y-72414564D02*
X140035000Y-71960436D01*
X68370000Y-121834420D02*
X68370000Y-122115580D01*
X69390000Y-121834420D02*
X69390000Y-122115580D01*
X87040580Y-67815000D02*
X86759420Y-67815000D01*
X87040580Y-68835000D02*
X86759420Y-68835000D01*
X83000000Y-70450000D02*
X83000000Y-71850000D01*
X83000000Y-71850000D02*
X84400000Y-71850000D01*
X84400000Y-70450000D02*
X83000000Y-70450000D01*
X84400000Y-71850000D02*
X84400000Y-70450000D01*
X79077500Y-58587742D02*
X79077500Y-59062258D01*
X80122500Y-58587742D02*
X80122500Y-59062258D01*
X56944380Y-137440000D02*
X56663220Y-137440000D01*
X56944380Y-138460000D02*
X56663220Y-138460000D01*
X114015580Y-75290000D02*
X113734420Y-75290000D01*
X114015580Y-76310000D02*
X113734420Y-76310000D01*
X82084420Y-68290000D02*
X82365580Y-68290000D01*
X82084420Y-69310000D02*
X82365580Y-69310000D01*
X90390000Y-60459420D02*
X90390000Y-60740580D01*
X91410000Y-60459420D02*
X91410000Y-60740580D01*
X88715580Y-57190000D02*
X88434420Y-57190000D01*
X88715580Y-58210000D02*
X88434420Y-58210000D01*
X117127500Y-70847742D02*
X117127500Y-71322258D01*
X118172500Y-70847742D02*
X118172500Y-71322258D01*
X82636500Y-64865580D02*
X82636500Y-64584420D01*
X83656500Y-64865580D02*
X83656500Y-64584420D01*
X80490000Y-66640580D02*
X80490000Y-66359420D01*
X81510000Y-66640580D02*
X81510000Y-66359420D01*
X105647500Y-60612742D02*
X105647500Y-61087258D01*
X106692500Y-60612742D02*
X106692500Y-61087258D01*
X89380000Y-130444420D02*
X89380000Y-130725580D01*
X90400000Y-130444420D02*
X90400000Y-130725580D01*
X80925000Y-70450000D02*
X80925000Y-71850000D01*
X80925000Y-71850000D02*
X82325000Y-71850000D01*
X82325000Y-70450000D02*
X80925000Y-70450000D01*
X82325000Y-71850000D02*
X82325000Y-70450000D01*
X100715580Y-75290000D02*
X100434420Y-75290000D01*
X100715580Y-76310000D02*
X100434420Y-76310000D01*
X107937500Y-60612742D02*
X107937500Y-61087258D01*
X108982500Y-60612742D02*
X108982500Y-61087258D01*
X145865000Y-72414564D02*
X145865000Y-71960436D01*
X147335000Y-72414564D02*
X147335000Y-71960436D01*
X92330138Y-69427500D02*
X91855622Y-69427500D01*
X92330138Y-70472500D02*
X91855622Y-70472500D01*
X131165000Y-72414564D02*
X131165000Y-71960436D01*
X132635000Y-72414564D02*
X132635000Y-71960436D01*
X67359420Y-59315000D02*
X67640580Y-59315000D01*
X67359420Y-60335000D02*
X67640580Y-60335000D01*
X110227500Y-60612742D02*
X110227500Y-61087258D01*
X111272500Y-60612742D02*
X111272500Y-61087258D01*
X89715580Y-66190000D02*
X89434420Y-66190000D01*
X89715580Y-67210000D02*
X89434420Y-67210000D01*
X113637742Y-73577500D02*
X114112258Y-73577500D01*
X113637742Y-74622500D02*
X114112258Y-74622500D01*
X58280000Y-118025580D02*
X58280000Y-117744420D01*
X59300000Y-118025580D02*
X59300000Y-117744420D01*
X81290000Y-59737920D02*
X81290000Y-60019080D01*
X82310000Y-59737920D02*
X82310000Y-60019080D01*
X76890000Y-57915580D02*
X76890000Y-57634420D01*
X77910000Y-57915580D02*
X77910000Y-57634420D01*
X91990000Y-62384420D02*
X91990000Y-62665580D01*
X93010000Y-62384420D02*
X93010000Y-62665580D01*
X87277500Y-55337258D02*
X87277500Y-54862742D01*
X88322500Y-55337258D02*
X88322500Y-54862742D01*
X92390000Y-57084420D02*
X92390000Y-57365580D01*
X93410000Y-57084420D02*
X93410000Y-57365580D01*
X100337742Y-73577500D02*
X100812258Y-73577500D01*
X100337742Y-74622500D02*
X100812258Y-74622500D01*
X84084420Y-57190000D02*
X84365580Y-57190000D01*
X84084420Y-58210000D02*
X84365580Y-58210000D01*
X91952300Y-67890000D02*
X92233460Y-67890000D01*
X91952300Y-68910000D02*
X92233460Y-68910000D01*
%LPC*%
D12*
X64860000Y-136440000D03*
D13*
X62320000Y-136440000D03*
D14*
X125860000Y-83100000D03*
D15*
X125860000Y-85640000D03*
X125860000Y-88180000D03*
X125860000Y-90720000D03*
X125860000Y-93260000D03*
X125860000Y-95800000D03*
X125860000Y-98340000D03*
X125860000Y-100880000D03*
X125860000Y-103420000D03*
X125860000Y-105960000D03*
X125860000Y-108500000D03*
X125860000Y-111040000D03*
X125860000Y-113580000D03*
X125860000Y-116120000D03*
X125860000Y-118660000D03*
X125860000Y-121200000D03*
X125860000Y-123740000D03*
X125860000Y-126280000D03*
X125860000Y-128820000D03*
X125860000Y-131360000D03*
X141100000Y-131360000D03*
X141100000Y-128820000D03*
X141100000Y-126280000D03*
X141100000Y-123740000D03*
X141100000Y-121200000D03*
X141100000Y-118660000D03*
X141100000Y-116120000D03*
X141100000Y-113580000D03*
X141100000Y-111040000D03*
X141100000Y-108500000D03*
X141100000Y-105960000D03*
X141100000Y-103420000D03*
X141100000Y-100880000D03*
X141100000Y-98340000D03*
X141100000Y-95800000D03*
X141100000Y-93260000D03*
X141100000Y-90720000D03*
X141100000Y-88180000D03*
X141100000Y-85640000D03*
X141100000Y-83100000D03*
D16*
X86000000Y-61853500D03*
X86000000Y-62853500D03*
X86000000Y-63853500D03*
X87000000Y-61853500D03*
X87000000Y-62853500D03*
X87000000Y-63853500D03*
X88000000Y-61853500D03*
X88000000Y-62853500D03*
X88000000Y-63853500D03*
D17*
X102880000Y-144930000D03*
X106840000Y-144930000D03*
X110800000Y-144930000D03*
X114760000Y-144930000D03*
X118720000Y-144930000D03*
X122680000Y-144930000D03*
X126640000Y-144930000D03*
X130600000Y-144930000D03*
X134560000Y-144930000D03*
X138520000Y-144930000D03*
X142480000Y-144930000D03*
X146440000Y-144930000D03*
D12*
X54700000Y-65320000D03*
D13*
X54700000Y-62780000D03*
D12*
X139225000Y-136700000D03*
D13*
X141765000Y-136700000D03*
D12*
X57150000Y-78020000D03*
D13*
X54610000Y-78020000D03*
X57150000Y-75480000D03*
X54610000Y-75480000D03*
X57150000Y-72940000D03*
X54610000Y-72940000D03*
X57150000Y-70400000D03*
X54610000Y-70400000D03*
D12*
X73190000Y-123740000D03*
D13*
X73190000Y-126280000D03*
X73190000Y-128820000D03*
D18*
X64770000Y-80560000D03*
D19*
X64770000Y-83060000D03*
D12*
X123320000Y-63600000D03*
D13*
X123320000Y-66140000D03*
X123320000Y-68680000D03*
D12*
X146700000Y-131360000D03*
D13*
X146700000Y-128820000D03*
X146700000Y-126280000D03*
X146700000Y-123740000D03*
X146700000Y-121200000D03*
X146700000Y-118660000D03*
X146700000Y-116120000D03*
X146700000Y-113580000D03*
X146700000Y-111040000D03*
X146700000Y-108500000D03*
X146700000Y-105960000D03*
X146700000Y-103420000D03*
X146700000Y-100880000D03*
X146700000Y-98340000D03*
X146700000Y-95800000D03*
X146700000Y-93260000D03*
X146700000Y-90720000D03*
X146700000Y-88180000D03*
X146700000Y-85640000D03*
X146700000Y-83100000D03*
D20*
X122980000Y-55150000D03*
X97990000Y-55150000D03*
D21*
X106170000Y-57250000D03*
D22*
X108460000Y-57250000D03*
X110750000Y-57250000D03*
X113040000Y-57250000D03*
X115330000Y-57250000D03*
X105030000Y-55150000D03*
X107320000Y-55150000D03*
X109610000Y-55150000D03*
X111900000Y-55150000D03*
X114190000Y-55150000D03*
X106170000Y-53070000D03*
X108460000Y-53070000D03*
X110750000Y-53070000D03*
X113040000Y-53070000D03*
X115330000Y-53070000D03*
D12*
X62280000Y-128820000D03*
D13*
X62280000Y-126280000D03*
X62280000Y-123740000D03*
X62280000Y-121200000D03*
X62280000Y-118660000D03*
X64820000Y-128820000D03*
X64820000Y-126280000D03*
X64820000Y-123740000D03*
X64820000Y-121200000D03*
X64820000Y-118660000D03*
D14*
X83112500Y-83100000D03*
D15*
X83112500Y-85640000D03*
X83112500Y-88180000D03*
X83112500Y-90720000D03*
X83112500Y-93260000D03*
X83112500Y-95800000D03*
X83112500Y-98340000D03*
X83112500Y-100880000D03*
X83112500Y-103420000D03*
X83112500Y-105960000D03*
X83112500Y-108500000D03*
X83112500Y-111040000D03*
X83112500Y-113580000D03*
X83112500Y-116120000D03*
X83112500Y-118660000D03*
X83112500Y-121200000D03*
X83112500Y-123740000D03*
X83112500Y-126280000D03*
X83112500Y-128820000D03*
X83112500Y-131360000D03*
X98352500Y-131360000D03*
X98352500Y-128820000D03*
X98352500Y-126280000D03*
X98352500Y-123740000D03*
X98352500Y-121200000D03*
X98352500Y-118660000D03*
X98352500Y-116120000D03*
X98352500Y-113580000D03*
X98352500Y-111040000D03*
X98352500Y-108500000D03*
X98352500Y-105960000D03*
X98352500Y-103420000D03*
X98352500Y-100880000D03*
X98352500Y-98340000D03*
X98352500Y-95800000D03*
X98352500Y-93260000D03*
X98352500Y-90720000D03*
X98352500Y-88180000D03*
X98352500Y-85640000D03*
X98352500Y-83100000D03*
D23*
X130500000Y-62900000D03*
X133000000Y-52900000D03*
X133000000Y-65400000D03*
X143000000Y-52900000D03*
X138000000Y-62900000D03*
X143000000Y-65440000D03*
X145500000Y-62900000D03*
X138000000Y-67900000D03*
D17*
X53618800Y-144889200D03*
X57578800Y-144889200D03*
X61538800Y-144889200D03*
X65498800Y-144889200D03*
X69458800Y-144889200D03*
X73418800Y-144889200D03*
D12*
X64770000Y-70400000D03*
D13*
X64770000Y-72940000D03*
X64770000Y-75480000D03*
D24*
X57755000Y-51825000D03*
D25*
X57445000Y-54825000D03*
X52605000Y-54825000D03*
D24*
X52295000Y-51825000D03*
D26*
X54700000Y-133900000D03*
X54700000Y-128820000D03*
X54700000Y-126280000D03*
X54700000Y-123740000D03*
X54700000Y-121200000D03*
X54700000Y-118660000D03*
X54700000Y-116120000D03*
X54700000Y-113580000D03*
X54700000Y-111040000D03*
X54700000Y-108500000D03*
X54700000Y-105960000D03*
X54700000Y-103420000D03*
X54700000Y-100880000D03*
X54700000Y-98340000D03*
X54700000Y-95800000D03*
X54700000Y-93260000D03*
X54700000Y-90720000D03*
X54700000Y-88180000D03*
X54700000Y-85640000D03*
D27*
X119230000Y-70260000D03*
X119230000Y-71910000D03*
D28*
X129975000Y-131400000D03*
X128425000Y-131400000D03*
D29*
X139300000Y-73100000D03*
X139300000Y-71275000D03*
D30*
X68880000Y-121200000D03*
X68880000Y-122750000D03*
D28*
X87675000Y-68325000D03*
X86125000Y-68325000D03*
D31*
X83700000Y-71150000D03*
D27*
X79600000Y-58000000D03*
X79600000Y-59650000D03*
D28*
X57578800Y-137950000D03*
X56028800Y-137950000D03*
X114650000Y-75800000D03*
X113100000Y-75800000D03*
D32*
X81450000Y-68800000D03*
X83000000Y-68800000D03*
D30*
X90900000Y-59825000D03*
X90900000Y-61375000D03*
D28*
X89350000Y-57700000D03*
X87800000Y-57700000D03*
D27*
X117650000Y-70260000D03*
X117650000Y-71910000D03*
D33*
X83146500Y-65500000D03*
X83146500Y-63950000D03*
X81000000Y-67275000D03*
X81000000Y-65725000D03*
D27*
X106170000Y-60025000D03*
X106170000Y-61675000D03*
D30*
X89890000Y-129810000D03*
X89890000Y-131360000D03*
D31*
X81625000Y-71150000D03*
D28*
X101350000Y-75800000D03*
X99800000Y-75800000D03*
D27*
X108460000Y-60025000D03*
X108460000Y-61675000D03*
D29*
X146600000Y-73100000D03*
X146600000Y-71275000D03*
D34*
X92917880Y-69950000D03*
X91267880Y-69950000D03*
D29*
X131900000Y-73100000D03*
X131900000Y-71275000D03*
D32*
X66725000Y-59825000D03*
X68275000Y-59825000D03*
D27*
X110750000Y-60025000D03*
X110750000Y-61675000D03*
D28*
X90350000Y-66700000D03*
X88800000Y-66700000D03*
D35*
X113050000Y-74100000D03*
X114700000Y-74100000D03*
D33*
X58790000Y-118660000D03*
X58790000Y-117110000D03*
D30*
X81800000Y-59103500D03*
X81800000Y-60653500D03*
D33*
X77400000Y-58550000D03*
X77400000Y-57000000D03*
D30*
X92500000Y-61750000D03*
X92500000Y-63300000D03*
D36*
X87800000Y-55925000D03*
X87800000Y-54275000D03*
D30*
X92900000Y-56450000D03*
X92900000Y-58000000D03*
D35*
X99750000Y-74100000D03*
X101400000Y-74100000D03*
D32*
X83450000Y-57700000D03*
X85000000Y-57700000D03*
X91317880Y-68400000D03*
X92867880Y-68400000D03*
%LPD*%
M02*
