G04 #@! TF.GenerationSoftware,KiCad,Pcbnew,9.0.3*
G04 #@! TF.CreationDate,2025-08-09T12:56:23+10:00*
G04 #@! TF.ProjectId,RP2350_VIA_IO,52503233-3530-45f5-9649-415f494f2e6b,rev?*
G04 #@! TF.SameCoordinates,Original*
G04 #@! TF.FileFunction,Paste,Bot*
G04 #@! TF.FilePolarity,Positive*
%FSLAX46Y46*%
G04 Gerber Fmt 4.6, Leading zero omitted, Abs format (unit mm)*
G04 Created by KiCad (PCBNEW 9.0.3) date 2025-08-09 12:56:23*
%MOMM*%
%LPD*%
G01*
G04 APERTURE LIST*
G04 Aperture macros list*
%AMRoundRect*
0 Rectangle with rounded corners*
0 $1 Rounding radius*
0 $2 $3 $4 $5 $6 $7 $8 $9 X,Y pos of 4 corners*
0 Add a 4 corners polygon primitive as box body*
4,1,4,$2,$3,$4,$5,$6,$7,$8,$9,$2,$3,0*
0 Add four circle primitives for the rounded corners*
1,1,$1+$1,$2,$3*
1,1,$1+$1,$4,$5*
1,1,$1+$1,$6,$7*
1,1,$1+$1,$8,$9*
0 Add four rect primitives between the rounded corners*
20,1,$1+$1,$2,$3,$4,$5,0*
20,1,$1+$1,$4,$5,$6,$7,0*
20,1,$1+$1,$6,$7,$8,$9,0*
20,1,$1+$1,$8,$9,$2,$3,0*%
G04 Aperture macros list end*
%ADD10RoundRect,0.200000X-0.275000X0.200000X-0.275000X-0.200000X0.275000X-0.200000X0.275000X0.200000X0*%
%ADD11RoundRect,0.225000X0.225000X0.250000X-0.225000X0.250000X-0.225000X-0.250000X0.225000X-0.250000X0*%
%ADD12RoundRect,0.250000X0.450000X-0.262500X0.450000X0.262500X-0.450000X0.262500X-0.450000X-0.262500X0*%
%ADD13RoundRect,0.225000X-0.250000X0.225000X-0.250000X-0.225000X0.250000X-0.225000X0.250000X0.225000X0*%
%ADD14RoundRect,0.225000X-0.225000X-0.250000X0.225000X-0.250000X0.225000X0.250000X-0.225000X0.250000X0*%
%ADD15RoundRect,0.225000X0.250000X-0.225000X0.250000X0.225000X-0.250000X0.225000X-0.250000X-0.225000X0*%
%ADD16RoundRect,0.200000X0.200000X0.275000X-0.200000X0.275000X-0.200000X-0.275000X0.200000X-0.275000X0*%
%ADD17RoundRect,0.200000X-0.200000X-0.275000X0.200000X-0.275000X0.200000X0.275000X-0.200000X0.275000X0*%
%ADD18RoundRect,0.200000X0.275000X-0.200000X0.275000X0.200000X-0.275000X0.200000X-0.275000X-0.200000X0*%
G04 APERTURE END LIST*
D10*
X119230000Y-70260000D03*
X119230000Y-71910000D03*
D11*
X129975000Y-131400000D03*
X128425000Y-131400000D03*
D12*
X139300000Y-73100000D03*
X139300000Y-71275000D03*
D13*
X68880000Y-121200000D03*
X68880000Y-122750000D03*
D11*
X87675000Y-68325000D03*
X86125000Y-68325000D03*
D10*
X79600000Y-58000000D03*
X79600000Y-59650000D03*
D11*
X57578800Y-137950000D03*
X56028800Y-137950000D03*
X114650000Y-75800000D03*
X113100000Y-75800000D03*
D14*
X81450000Y-68800000D03*
X83000000Y-68800000D03*
D13*
X90900000Y-59825000D03*
X90900000Y-61375000D03*
D11*
X89350000Y-57700000D03*
X87800000Y-57700000D03*
D10*
X117650000Y-70260000D03*
X117650000Y-71910000D03*
D15*
X83146500Y-65500000D03*
X83146500Y-63950000D03*
X81000000Y-67275000D03*
X81000000Y-65725000D03*
D10*
X106170000Y-60025000D03*
X106170000Y-61675000D03*
D13*
X89890000Y-129810000D03*
X89890000Y-131360000D03*
D11*
X101350000Y-75800000D03*
X99800000Y-75800000D03*
D10*
X108460000Y-60025000D03*
X108460000Y-61675000D03*
D12*
X146600000Y-73100000D03*
X146600000Y-71275000D03*
D16*
X92917880Y-69950000D03*
X91267880Y-69950000D03*
D12*
X131900000Y-73100000D03*
X131900000Y-71275000D03*
D14*
X66725000Y-59825000D03*
X68275000Y-59825000D03*
D10*
X110750000Y-60025000D03*
X110750000Y-61675000D03*
D11*
X90350000Y-66700000D03*
X88800000Y-66700000D03*
D17*
X113050000Y-74100000D03*
X114700000Y-74100000D03*
D15*
X58790000Y-118660000D03*
X58790000Y-117110000D03*
D13*
X81800000Y-59103500D03*
X81800000Y-60653500D03*
D15*
X77400000Y-58550000D03*
X77400000Y-57000000D03*
D13*
X92500000Y-61750000D03*
X92500000Y-63300000D03*
D18*
X87800000Y-55925000D03*
X87800000Y-54275000D03*
D13*
X92900000Y-56450000D03*
X92900000Y-58000000D03*
D17*
X99750000Y-74100000D03*
X101400000Y-74100000D03*
D14*
X83450000Y-57700000D03*
X85000000Y-57700000D03*
X91317880Y-68400000D03*
X92867880Y-68400000D03*
M02*
