G04 #@! TF.GenerationSoftware,KiCad,Pcbnew,9.0.3*
G04 #@! TF.CreationDate,2025-08-09T12:56:23+10:00*
G04 #@! TF.ProjectId,RP2350_VIA_IO,52503233-3530-45f5-9649-415f494f2e6b,rev?*
G04 #@! TF.SameCoordinates,Original*
G04 #@! TF.FileFunction,Paste,Top*
G04 #@! TF.FilePolarity,Positive*
%FSLAX46Y46*%
G04 Gerber Fmt 4.6, Leading zero omitted, Abs format (unit mm)*
G04 Created by KiCad (PCBNEW 9.0.3) date 2025-08-09 12:56:23*
%MOMM*%
%LPD*%
G01*
G04 APERTURE LIST*
G04 Aperture macros list*
%AMRoundRect*
0 Rectangle with rounded corners*
0 $1 Rounding radius*
0 $2 $3 $4 $5 $6 $7 $8 $9 X,Y pos of 4 corners*
0 Add a 4 corners polygon primitive as box body*
4,1,4,$2,$3,$4,$5,$6,$7,$8,$9,$2,$3,0*
0 Add four circle primitives for the rounded corners*
1,1,$1+$1,$2,$3*
1,1,$1+$1,$4,$5*
1,1,$1+$1,$6,$7*
1,1,$1+$1,$8,$9*
0 Add four rect primitives between the rounded corners*
20,1,$1+$1,$2,$3,$4,$5,0*
20,1,$1+$1,$4,$5,$6,$7,0*
20,1,$1+$1,$6,$7,$8,$9,0*
20,1,$1+$1,$8,$9,$2,$3,0*%
G04 Aperture macros list end*
%ADD10RoundRect,0.200000X-0.200000X-0.275000X0.200000X-0.275000X0.200000X0.275000X-0.200000X0.275000X0*%
%ADD11RoundRect,0.150000X0.875000X0.150000X-0.875000X0.150000X-0.875000X-0.150000X0.875000X-0.150000X0*%
%ADD12RoundRect,0.200000X0.275000X-0.200000X0.275000X0.200000X-0.275000X0.200000X-0.275000X-0.200000X0*%
%ADD13RoundRect,0.200000X0.200000X0.275000X-0.200000X0.275000X-0.200000X-0.275000X0.200000X-0.275000X0*%
%ADD14RoundRect,0.100000X0.100000X-0.225000X0.100000X0.225000X-0.100000X0.225000X-0.100000X-0.225000X0*%
%ADD15R,0.100000X0.100000*%
%ADD16R,0.780000X0.220000*%
%ADD17R,0.220000X0.780000*%
%ADD18RoundRect,0.250000X0.250000X0.475000X-0.250000X0.475000X-0.250000X-0.475000X0.250000X-0.475000X0*%
%ADD19R,0.400000X1.200000*%
%ADD20RoundRect,0.250000X0.475000X-0.250000X0.475000X0.250000X-0.475000X0.250000X-0.475000X-0.250000X0*%
%ADD21RoundRect,0.225000X0.250000X-0.225000X0.250000X0.225000X-0.250000X0.225000X-0.250000X-0.225000X0*%
%ADD22R,1.200000X0.400000*%
%ADD23RoundRect,0.225000X-0.250000X0.225000X-0.250000X-0.225000X0.250000X-0.225000X0.250000X0.225000X0*%
%ADD24R,0.950000X1.400000*%
%ADD25RoundRect,0.250000X-0.475000X0.250000X-0.475000X-0.250000X0.475000X-0.250000X0.475000X0.250000X0*%
%ADD26RoundRect,0.150000X-0.650000X-0.150000X0.650000X-0.150000X0.650000X0.150000X-0.650000X0.150000X0*%
%ADD27RoundRect,0.225000X-0.225000X-0.250000X0.225000X-0.250000X0.225000X0.250000X-0.225000X0.250000X0*%
%ADD28RoundRect,0.250000X-0.450000X-0.350000X0.450000X-0.350000X0.450000X0.350000X-0.450000X0.350000X0*%
%ADD29RoundRect,0.150000X0.150000X-0.512500X0.150000X0.512500X-0.150000X0.512500X-0.150000X-0.512500X0*%
%ADD30RoundRect,0.225000X-0.375000X0.225000X-0.375000X-0.225000X0.375000X-0.225000X0.375000X0.225000X0*%
%ADD31R,0.400000X1.650000*%
%ADD32R,1.825000X0.700000*%
%ADD33R,2.000000X1.500000*%
%ADD34R,1.350000X2.000000*%
%ADD35R,1.430000X2.500000*%
G04 APERTURE END LIST*
D10*
X136581250Y-74800000D03*
X138231250Y-74800000D03*
D11*
X120101360Y-106704890D03*
X120101360Y-105434890D03*
X120101360Y-104164890D03*
X120101360Y-102894890D03*
X120101360Y-101624890D03*
X120101360Y-100354890D03*
X120101360Y-99084890D03*
X120101360Y-97814890D03*
X120101360Y-96544890D03*
X120101360Y-95274890D03*
X120101360Y-94004890D03*
X120101360Y-92734890D03*
X120101360Y-91464890D03*
X120101360Y-90194890D03*
X110801360Y-90194890D03*
X110801360Y-91464890D03*
X110801360Y-92734890D03*
X110801360Y-94004890D03*
X110801360Y-95274890D03*
X110801360Y-96544890D03*
X110801360Y-97814890D03*
X110801360Y-99084890D03*
X110801360Y-100354890D03*
X110801360Y-101624890D03*
X110801360Y-102894890D03*
X110801360Y-104164890D03*
X110801360Y-105434890D03*
X110801360Y-106704890D03*
D12*
X87850000Y-55575000D03*
X87850000Y-53925000D03*
D13*
X59305000Y-65320000D03*
X57655000Y-65320000D03*
D12*
X89350000Y-55575000D03*
X89350000Y-53925000D03*
D14*
X144106250Y-78450000D03*
X144756250Y-78450000D03*
X145406250Y-78450000D03*
X145406250Y-76550000D03*
X144106250Y-76550000D03*
D15*
X85725000Y-61578500D03*
X85725000Y-62428500D03*
X85725000Y-63278500D03*
X85725000Y-64128500D03*
X86575000Y-61578500D03*
X86575000Y-62428500D03*
X86575000Y-63278500D03*
X86575000Y-64128500D03*
X87425000Y-61578500D03*
X87425000Y-62428500D03*
X87425000Y-63278500D03*
X87425000Y-64128500D03*
X88275000Y-61578500D03*
X88275000Y-62428500D03*
X88275000Y-63278500D03*
X88275000Y-64128500D03*
D16*
X82103500Y-59053500D03*
X82103500Y-59453500D03*
X82103500Y-59853500D03*
X82103500Y-60253500D03*
X82103500Y-60653500D03*
X82103500Y-61053500D03*
X82103500Y-61453500D03*
X82103500Y-61853500D03*
X82103500Y-62253500D03*
X82103500Y-62653500D03*
X82103500Y-63053500D03*
X82103500Y-63453500D03*
X82103500Y-63853500D03*
X82103500Y-64253500D03*
X82103500Y-64653500D03*
X82103500Y-65053500D03*
X82103500Y-65453500D03*
X82103500Y-65853500D03*
X82103500Y-66253500D03*
X82103500Y-66653500D03*
D17*
X83200000Y-67750000D03*
X83600000Y-67750000D03*
X84000000Y-67750000D03*
X84400000Y-67750000D03*
X84800000Y-67750000D03*
X85200000Y-67750000D03*
X85600000Y-67750000D03*
X86000000Y-67750000D03*
X86400000Y-67750000D03*
X86800000Y-67750000D03*
X87200000Y-67750000D03*
X87600000Y-67750000D03*
X88000000Y-67750000D03*
X88400000Y-67750000D03*
X88800000Y-67750000D03*
X89200000Y-67750000D03*
X89600000Y-67750000D03*
X90000000Y-67750000D03*
X90400000Y-67750000D03*
X90800000Y-67750000D03*
D16*
X91896500Y-66653500D03*
X91896500Y-66253500D03*
X91896500Y-65853500D03*
X91896500Y-65453500D03*
X91896500Y-65053500D03*
X91896500Y-64653500D03*
X91896500Y-64253500D03*
X91896500Y-63853500D03*
X91896500Y-63453500D03*
X91896500Y-63053500D03*
X91896500Y-62653500D03*
X91896500Y-62253500D03*
X91896500Y-61853500D03*
X91896500Y-61453500D03*
X91896500Y-61053500D03*
X91896500Y-60653500D03*
X91896500Y-60253500D03*
X91896500Y-59853500D03*
X91896500Y-59453500D03*
X91896500Y-59053500D03*
D17*
X90800000Y-57957000D03*
X90400000Y-57957000D03*
X90000000Y-57957000D03*
X89600000Y-57957000D03*
X89200000Y-57957000D03*
X88800000Y-57957000D03*
X88400000Y-57957000D03*
X88000000Y-57957000D03*
X87600000Y-57957000D03*
X87200000Y-57957000D03*
X86800000Y-57957000D03*
X86400000Y-57957000D03*
X86000000Y-57957000D03*
X85600000Y-57957000D03*
X85200000Y-57957000D03*
X84800000Y-57957000D03*
X84400000Y-57957000D03*
X84000000Y-57957000D03*
X83600000Y-57957000D03*
X83200000Y-57957000D03*
D12*
X118440000Y-83610000D03*
X118440000Y-81960000D03*
D18*
X107369998Y-68160000D03*
X105470000Y-68160000D03*
D19*
X111735000Y-79700000D03*
X112370000Y-79700000D03*
X113005000Y-79700000D03*
X113640000Y-79700000D03*
X114275000Y-79700000D03*
X114910000Y-79700000D03*
X115545000Y-79700000D03*
X116180000Y-79700000D03*
X116815000Y-79700000D03*
X117450000Y-79700000D03*
X118085000Y-79700000D03*
X118720000Y-79700000D03*
X118720000Y-74500000D03*
X118085000Y-74500000D03*
X117450000Y-74500000D03*
X116815000Y-74500000D03*
X116180000Y-74500000D03*
X115545000Y-74500000D03*
X114910000Y-74500000D03*
X114275000Y-74500000D03*
X113640000Y-74500000D03*
X113005000Y-74500000D03*
X112370000Y-74500000D03*
X111735000Y-74500000D03*
D11*
X74008750Y-106800000D03*
X74008750Y-105530000D03*
X74008750Y-104260000D03*
X74008750Y-102990000D03*
X74008750Y-101720000D03*
X74008750Y-100450000D03*
X74008750Y-99180000D03*
X74008750Y-97910000D03*
X74008750Y-96640000D03*
X74008750Y-95370000D03*
X74008750Y-94100000D03*
X74008750Y-92830000D03*
X74008750Y-91560000D03*
X74008750Y-90290000D03*
X64708750Y-90290000D03*
X64708750Y-91560000D03*
X64708750Y-92830000D03*
X64708750Y-94100000D03*
X64708750Y-95370000D03*
X64708750Y-96640000D03*
X64708750Y-97910000D03*
X64708750Y-99180000D03*
X64708750Y-100450000D03*
X64708750Y-101720000D03*
X64708750Y-102990000D03*
X64708750Y-104260000D03*
X64708750Y-105530000D03*
X64708750Y-106800000D03*
D13*
X89525000Y-72003500D03*
X87875000Y-72003500D03*
D20*
X102504999Y-65424998D03*
X102504999Y-63525000D03*
D21*
X89750000Y-75703500D03*
X89750000Y-74153500D03*
D12*
X120000000Y-83610000D03*
X120000000Y-81960000D03*
D14*
X136793750Y-78450000D03*
X137443750Y-78450000D03*
X138093750Y-78450000D03*
X138093750Y-76550000D03*
X136793750Y-76550000D03*
D22*
X72200000Y-56988500D03*
X72200000Y-57623500D03*
X72200000Y-58258500D03*
X72200000Y-58893500D03*
X72200000Y-59528500D03*
X72200000Y-60163500D03*
X72200000Y-60798500D03*
X72200000Y-61433500D03*
X72200000Y-62068500D03*
X72200000Y-62703500D03*
X72200000Y-63338500D03*
X72200000Y-63973500D03*
X77400000Y-63973500D03*
X77400000Y-63338500D03*
X77400000Y-62703500D03*
X77400000Y-62068500D03*
X77400000Y-61433500D03*
X77400000Y-60798500D03*
X77400000Y-60163500D03*
X77400000Y-59528500D03*
X77400000Y-58893500D03*
X77400000Y-58258500D03*
X77400000Y-57623500D03*
X77400000Y-56988500D03*
D13*
X59470000Y-131360000D03*
X57820000Y-131360000D03*
D10*
X106720110Y-88254890D03*
X108370110Y-88254890D03*
D13*
X64030000Y-66250000D03*
X62380000Y-66250000D03*
D23*
X76450000Y-95090000D03*
X76450000Y-96640000D03*
D24*
X88780000Y-134510000D03*
X86880000Y-134510000D03*
D21*
X142306250Y-78050000D03*
X142306250Y-76500000D03*
D19*
X98450000Y-79700000D03*
X99085000Y-79700000D03*
X99720000Y-79700000D03*
X100355000Y-79700000D03*
X100990000Y-79700000D03*
X101625000Y-79700000D03*
X102260000Y-79700000D03*
X102895000Y-79700000D03*
X103530000Y-79700000D03*
X104165000Y-79700000D03*
X104800000Y-79700000D03*
X105435000Y-79700000D03*
X105435000Y-74500000D03*
X104800000Y-74500000D03*
X104165000Y-74500000D03*
X103530000Y-74500000D03*
X102895000Y-74500000D03*
X102260000Y-74500000D03*
X101625000Y-74500000D03*
X100990000Y-74500000D03*
X100355000Y-74500000D03*
X99720000Y-74500000D03*
X99085000Y-74500000D03*
X98450000Y-74500000D03*
D10*
X60525000Y-88350000D03*
X62175000Y-88350000D03*
D25*
X92600000Y-54100000D03*
X92600000Y-56000000D03*
D13*
X95075000Y-135550000D03*
X93425000Y-135550000D03*
D10*
X106720110Y-89854890D03*
X108370110Y-89854890D03*
D21*
X135006250Y-78050000D03*
X135006250Y-76500000D03*
D26*
X61640000Y-59820000D03*
X61640000Y-61090000D03*
X61640000Y-62360000D03*
X61640000Y-63630000D03*
X68840000Y-63630000D03*
X68840000Y-62360000D03*
X68840000Y-61090000D03*
X68840000Y-59820000D03*
D10*
X129137500Y-74800000D03*
X130787500Y-74800000D03*
D14*
X129350000Y-78450000D03*
X130000000Y-78450000D03*
X130650000Y-78450000D03*
X130650000Y-76550000D03*
X129350000Y-76550000D03*
D23*
X82800000Y-74153500D03*
X82800000Y-75703500D03*
X122545110Y-94994890D03*
X122545110Y-96544890D03*
D27*
X57870000Y-126280000D03*
X59420000Y-126280000D03*
D28*
X85075000Y-75878500D03*
X87475000Y-75878500D03*
X87475000Y-73978500D03*
X85075000Y-73978500D03*
D20*
X122530000Y-73622500D03*
X122530000Y-71722500D03*
D21*
X127506250Y-78050000D03*
X127506250Y-76500000D03*
D10*
X143893750Y-74800000D03*
X145543750Y-74800000D03*
D29*
X118740000Y-70150000D03*
X119690000Y-70150000D03*
X120640000Y-70150000D03*
X120640000Y-67875000D03*
X118740000Y-67875000D03*
D30*
X126180000Y-71722500D03*
X126180000Y-75022500D03*
D10*
X60525000Y-91550000D03*
X62175000Y-91550000D03*
D31*
X56325000Y-54705000D03*
X55675000Y-54705000D03*
X55025000Y-54705000D03*
X54375000Y-54705000D03*
X53725000Y-54705000D03*
D32*
X57975000Y-53505000D03*
D33*
X57875000Y-54805000D03*
D34*
X57755000Y-52755000D03*
D35*
X55985000Y-51555000D03*
X54065000Y-51555000D03*
D34*
X52275000Y-52755000D03*
D33*
X52125000Y-54825000D03*
D32*
X52025000Y-53505000D03*
D10*
X106720110Y-91454890D03*
X108370110Y-91454890D03*
D29*
X104520000Y-65800000D03*
X105470000Y-65800000D03*
X106420000Y-65800000D03*
X106420000Y-63525000D03*
X104520000Y-63525000D03*
D10*
X60525000Y-93150000D03*
X62175000Y-93150000D03*
X60525000Y-89950000D03*
X62175000Y-89950000D03*
X106720110Y-93054890D03*
X108370110Y-93054890D03*
M02*
