M48
; DRILL file {KiCad 9.0.3} date 2025-08-09T12:56:16+1000
; FORMAT={-:-/ absolute / metric / decimal}
; #@! TF.CreationDate,2025-08-09T12:56:16+10:00
; #@! TF.GenerationSoftware,Kicad,Pcbnew,9.0.3
; #@! TF.FileFunction,Plated,1,2,PTH
FMAT,2
METRIC
; #@! TA.AperFunction,Plated,PTH,ViaDrill
T1C0.300
; #@! TA.AperFunction,Plated,PTH,ComponentDrill
T2C0.300
; #@! TA.AperFunction,Plated,PTH,ComponentDrill
T3C0.650
; #@! TA.AperFunction,Plated,PTH,ComponentDrill
T4C0.700
; #@! TA.AperFunction,Plated,PTH,ComponentDrill
T5C0.800
; #@! TA.AperFunction,Plated,PTH,ComponentDrill
T6C1.000
; #@! TA.AperFunction,Plated,PTH,ComponentDrill
T7C1.100
; #@! TA.AperFunction,Plated,PTH,ComponentDrill
T8C1.190
; #@! TA.AperFunction,Plated,PTH,ComponentDrill
T9C1.600
; #@! TA.AperFunction,Plated,PTH,ComponentDrill
T10C3.180
%
G90
G05
T1
X53.619Y-139.1
X56.625Y-56.375
X57.579Y-139.4
X59.675Y-57.975
X61.539Y-139.4
X63.1Y-63.65
X63.93Y-58.35
X65.2Y-64.5
X65.499Y-139.4
X66.06Y-57.5
X66.84Y-58.27
X67.05Y-109.85
X67.165Y-131.36
X67.65Y-57.45
X68.065Y-131.36
X68.26Y-136.5
X69.1Y-53.81
X69.22Y-130.03
X69.459Y-139.4
X69.75Y-78.27
X70.14Y-126.28
X70.385Y-59.82
X70.523Y-76.8
X70.6Y-58.4
X70.8Y-53.16
X71.297Y-77.8
X71.6Y-94.95
X72.16Y-136.51
X72.2Y-64.85
X72.3Y-52.58
X72.843Y-79.898
X73.24Y-118.9
X73.24Y-121.01
X73.365Y-132.815
X73.419Y-139.4
X73.617Y-76.592
X73.668Y-86.9
X74.39Y-78.83
X74.44Y-84.57
X75.105Y-133.185
X75.21Y-78.11
X75.95Y-57.0
X76.65Y-83.45
X76.7Y-81.85
X77.05Y-89.5
X77.3Y-91.8
X77.925Y-119.925
X77.95Y-65.95
X78.11Y-125.47
X78.11Y-130.05
X78.226Y-96.976
X78.7Y-56.9
X79.25Y-94.436
X79.91Y-127.4
X80.278Y-74.798
X81.0Y-64.653
X81.14Y-133.22
X81.165Y-73.89
X81.2Y-114.85
X82.25Y-67.675
X83.147Y-62.653
X83.2Y-60.653
X83.2Y-66.7
X83.248Y-58.952
X84.0Y-68.8
X84.1Y-66.73
X85.0Y-58.9
X85.05Y-66.575
X85.25Y-83.1
X85.35Y-89.35
X85.35Y-91.75
X85.35Y-94.15
X85.35Y-96.55
X85.35Y-100.79
X85.38Y-126.59
X85.4Y-128.89
X86.15Y-69.7
X87.06Y-82.49
X87.495Y-85.555
X87.6Y-66.7
X87.8Y-58.9
X87.85Y-69.9
X87.93Y-81.01
X88.2Y-83.66
X88.29Y-86.46
X88.5Y-70.59
X89.46Y-82.49
X89.515Y-70.785
X89.955Y-79.8
X90.35Y-65.65
X90.375Y-86.2
X90.582Y-64.78
X90.8Y-56.0
X90.9Y-62.4
X90.9Y-63.3
X91.268Y-71.1
X91.35Y-90.79
X91.387Y-79.8
X91.4Y-129.73
X91.5Y-57.9
X91.59Y-131.36
X92.223Y-86.9
X92.49Y-131.36
X92.818Y-79.8
X92.868Y-67.132
X92.9Y-59.2
X94.07Y-87.2
X94.1Y-70.452
X94.25Y-79.8
X94.5Y-67.2
X94.95Y-78.35
X95.28Y-69.87
X95.75Y-72.29
X95.88Y-96.15
X95.91Y-121.45
X96.31Y-69.87
X96.45Y-135.6
X96.46Y-93.73
X97.33Y-69.89
X98.45Y-75.8
X98.7Y-73.1
X100.075Y-130.1
X100.1Y-127.5
X102.23Y-133.73
X102.88Y-139.1
X103.11Y-76.63
X104.815Y-73.3
X104.892Y-86.383
X104.9Y-124.99
X104.95Y-84.05
X104.955Y-72.005
X105.296Y-98.34
X105.48Y-64.41
X105.6Y-89.05
X105.6Y-90.65
X105.6Y-92.3
X105.6Y-93.788
X106.15Y-69.68
X106.42Y-72.23
X106.91Y-130.12
X107.23Y-126.34
X107.27Y-84.52
X107.27Y-86.9
X107.65Y-78.8
X107.82Y-134.67
X109.07Y-95.125
X109.07Y-97.555
X109.07Y-98.926
X109.13Y-126.33
X109.6Y-87.2
X109.799Y-83.1
X110.1Y-78.8
X110.274Y-117.33
X110.55Y-128.82
X110.74Y-122.47
X111.343Y-114.94
X111.4Y-87.7
X111.7Y-132.66
X111.735Y-75.8
X111.9Y-73.1
X112.17Y-84.38
X112.38Y-106.705
X112.43Y-69.68
X112.7Y-134.5
X113.352Y-81.552
X113.4Y-122.47
X113.45Y-83.15
X113.48Y-103.93
X114.14Y-91.7
X114.44Y-115.23
X114.91Y-78.763
X115.05Y-119.93
X115.1Y-98.208
X115.2Y-138.1
X115.36Y-81.65
X115.6Y-90.6
X115.6Y-134.5
X115.64Y-93.28
X115.92Y-95.86
X116.17Y-122.47
X116.32Y-117.27
X116.75Y-85.3
X117.06Y-76.725
X117.245Y-90.705
X117.245Y-93.305
X117.605Y-98.245
X118.14Y-73.15
X118.32Y-95.8
X118.47Y-119.53
X118.6Y-122.47
X119.1Y-138.2
X119.19Y-73.08
X119.48Y-134.5
X119.69Y-68.71
X120.075Y-74.525
X120.48Y-79.7
X121.19Y-119.48
X121.25Y-88.205
X121.31Y-85.64
X121.48Y-122.47
X121.51Y-81.73
X122.263Y-133.737
X123.0Y-138.2
X123.58Y-119.42
X123.89Y-116.69
X127.506Y-79.44
X127.85Y-123.28
X128.08Y-83.11
X128.28Y-84.38
X128.3Y-88.2
X131.1Y-136.959
X131.5Y-89.6
X131.9Y-74.8
X132.33Y-135.25
X132.528Y-137.172
X132.6Y-138.725
X133.537Y-133.02
X133.7Y-89.6
X133.75Y-82.85
X134.744Y-131.31
X134.9Y-138.0
X135.006Y-79.44
X135.952Y-130.2
X136.01Y-132.12
X138.37Y-132.12
X138.52Y-123.87
X139.125Y-77.973
X139.3Y-74.8
X142.3Y-79.4
X143.214Y-97.01
X144.756Y-77.4
X146.44Y-139.1
X146.6Y-74.8
T2
X86.0Y-61.853
X86.0Y-62.853
X86.0Y-63.853
X87.0Y-61.853
X87.0Y-62.853
X87.0Y-63.853
X88.0Y-61.853
X88.0Y-62.853
X88.0Y-63.853
T5
X64.77Y-80.56
X64.77Y-83.06
T6
X54.61Y-70.4
X54.61Y-72.94
X54.61Y-75.48
X54.61Y-78.02
X54.7Y-62.78
X54.7Y-65.32
X57.15Y-70.4
X57.15Y-72.94
X57.15Y-75.48
X57.15Y-78.02
X62.28Y-118.66
X62.28Y-121.2
X62.28Y-123.74
X62.28Y-126.28
X62.28Y-128.82
X62.32Y-136.44
X64.77Y-70.4
X64.77Y-72.94
X64.77Y-75.48
X64.82Y-118.66
X64.82Y-121.2
X64.82Y-123.74
X64.82Y-126.28
X64.82Y-128.82
X64.86Y-136.44
X73.19Y-123.74
X73.19Y-126.28
X73.19Y-128.82
X83.112Y-83.1
X83.112Y-85.64
X83.112Y-88.18
X83.112Y-90.72
X83.112Y-93.26
X83.112Y-95.8
X83.112Y-98.34
X83.112Y-100.88
X83.112Y-103.42
X83.112Y-105.96
X83.112Y-108.5
X83.112Y-111.04
X83.112Y-113.58
X83.112Y-116.12
X83.112Y-118.66
X83.112Y-121.2
X83.112Y-123.74
X83.112Y-126.28
X83.112Y-128.82
X83.112Y-131.36
X98.352Y-83.1
X98.352Y-85.64
X98.352Y-88.18
X98.352Y-90.72
X98.352Y-93.26
X98.352Y-95.8
X98.352Y-98.34
X98.352Y-100.88
X98.352Y-103.42
X98.352Y-105.96
X98.352Y-108.5
X98.352Y-111.04
X98.352Y-113.58
X98.352Y-116.12
X98.352Y-118.66
X98.352Y-121.2
X98.352Y-123.74
X98.352Y-126.28
X98.352Y-128.82
X98.352Y-131.36
X123.32Y-63.6
X123.32Y-66.14
X123.32Y-68.68
X125.86Y-83.1
X125.86Y-85.64
X125.86Y-88.18
X125.86Y-90.72
X125.86Y-93.26
X125.86Y-95.8
X125.86Y-98.34
X125.86Y-100.88
X125.86Y-103.42
X125.86Y-105.96
X125.86Y-108.5
X125.86Y-111.04
X125.86Y-113.58
X125.86Y-116.12
X125.86Y-118.66
X125.86Y-121.2
X125.86Y-123.74
X125.86Y-126.28
X125.86Y-128.82
X125.86Y-131.36
X139.225Y-136.7
X141.1Y-83.1
X141.1Y-85.64
X141.1Y-88.18
X141.1Y-90.72
X141.1Y-93.26
X141.1Y-95.8
X141.1Y-98.34
X141.1Y-100.88
X141.1Y-103.42
X141.1Y-105.96
X141.1Y-108.5
X141.1Y-111.04
X141.1Y-113.58
X141.1Y-116.12
X141.1Y-118.66
X141.1Y-121.2
X141.1Y-123.74
X141.1Y-126.28
X141.1Y-128.82
X141.1Y-131.36
X141.765Y-136.7
X146.7Y-83.1
X146.7Y-85.64
X146.7Y-88.18
X146.7Y-90.72
X146.7Y-93.26
X146.7Y-95.8
X146.7Y-98.34
X146.7Y-100.88
X146.7Y-103.42
X146.7Y-105.96
X146.7Y-108.5
X146.7Y-111.04
X146.7Y-113.58
X146.7Y-116.12
X146.7Y-118.66
X146.7Y-121.2
X146.7Y-123.74
X146.7Y-126.28
X146.7Y-128.82
X146.7Y-131.36
T7
X54.7Y-85.64
X54.7Y-88.18
X54.7Y-90.72
X54.7Y-93.26
X54.7Y-95.8
X54.7Y-98.34
X54.7Y-100.88
X54.7Y-103.42
X54.7Y-105.96
X54.7Y-108.5
X54.7Y-111.04
X54.7Y-113.58
X54.7Y-116.12
X54.7Y-118.66
X54.7Y-121.2
X54.7Y-123.74
X54.7Y-126.28
X54.7Y-128.82
X54.7Y-133.9
T8
X105.03Y-55.15
X106.17Y-53.07
X106.17Y-57.25
X107.32Y-55.15
X108.46Y-53.07
X108.46Y-57.25
X109.61Y-55.15
X110.75Y-53.07
X110.75Y-57.25
X111.9Y-55.15
X113.04Y-53.07
X113.04Y-57.25
X114.19Y-55.15
X115.33Y-53.07
X115.33Y-57.25
T9
X130.5Y-62.9
X133.0Y-52.9
X133.0Y-65.4
X138.0Y-62.9
X138.0Y-67.9
X143.0Y-52.9
X143.0Y-65.44
X145.5Y-62.9
T10
X97.99Y-55.15
X122.98Y-55.15
T3
X52.605Y-54.625G85X52.605Y-55.025
G05
X57.445Y-54.625G85X57.445Y-55.025
G05
T4
X52.295Y-51.575G85X52.295Y-52.075
G05
X57.755Y-51.575G85X57.755Y-52.075
G05
M30
